<?xml version="1.0" encoding="utf-8"?>
<!-- Generator: Adobe Illustrator 24.3.0, SVG Export Plug-In . SVG Version: 6.00 Build 0)  -->
<svg version="1.1" id="Capa_1" xmlns="http://www.w3.org/2000/svg" xmlns:xlink="http://www.w3.org/1999/xlink" x="0px" y="0px"
	 viewBox="0 0 1244 952" style="enable-background:new 0 0 1244 952;" xml:space="preserve">
<style type="text/css">
	.st0{fill:#FFFFFF;}
	.st1{fill:url(#SVGID_1_);}
	.st2{fill:none;stroke:#000000;stroke-linecap:round;stroke-miterlimit:10;}
	.st3{fill:none;stroke:#000000;stroke-width:0.5;stroke-linecap:round;stroke-miterlimit:10;}
	.st4{fill:none;stroke:#000000;stroke-width:0.75;stroke-linecap:round;stroke-miterlimit:10;}
	.st5{opacity:0.6;fill:#C69C6D;enable-background:new    ;}
	.st6{fill:none;stroke:#000000;stroke-width:0.5;stroke-miterlimit:10;}
	.st7{fill:#FFFFFF;stroke:#000000;stroke-width:0.5;stroke-miterlimit:10;}
	.st8{fill:none;stroke:#000000;stroke-miterlimit:10;}
	.st9{enable-background:new    ;}
	.st10{fill:none;stroke:#000000;stroke-linecap:round;stroke-linejoin:round;}
	.st11{fill:#FFFFFF;stroke:url(#SVGID_2_);stroke-width:0.5;stroke-miterlimit:10;}
	.st12{fill:#FFFFFF;stroke:#000000;stroke-width:0.25;stroke-miterlimit:10;}
	.st13{fill:none;}
</style>
<rect class="st0" width="1244" height="951"/>
<linearGradient id="SVGID_1_" gradientUnits="userSpaceOnUse" x1="1345" y1="1268" x2="1851.8301" y2="1268" gradientTransform="matrix(6.123234e-17 1 -1 6.123234e-17 1890 -1345)">
	<stop  offset="0.17" style="stop-color:#8B6339"/>
	<stop  offset="0.52" style="stop-color:#C0AB94"/>
	<stop  offset="0.85" style="stop-color:#EDE7E1"/>
	<stop  offset="1" style="stop-color:#FFFFFF"/>
</linearGradient>
<rect class="st1" width="1244" height="562.5"/>
<path d="M453,651.6c1.1,0,2.3,0.2,3.3,0.6c0.9,0.4,1.8,0.9,2.5,1.6c0.7,0.7,1.2,1.5,1.6,2.4s0.6,1.9,0.6,2.9c0,1.5-0.3,2.9-1,4.2
	c-0.8,1.2-1.9,2.2-3.3,2.7v0.1c0.7,0.2,1.3,0.5,1.8,0.9s0.9,0.9,1.2,1.5c0.3,0.6,0.5,1.2,0.7,1.9c0.1,0.7,0.2,1.4,0.3,2.1
	c0,0.4,0,0.9,0.1,1.5s0.1,1.2,0.1,1.8c0.1,0.6,0.2,1.2,0.3,1.7c0.1,0.5,0.3,1,0.6,1.4h-6c-0.4-1-0.6-2-0.6-3.1
	c-0.1-1.2-0.2-2.3-0.4-3.5c-0.1-1.2-0.5-2.3-1.3-3.1c-0.9-0.7-2.1-1.1-3.2-1h-6v10.7h-6v-27.3L453,651.6L453,651.6z M450.9,664
	c1.1,0.1,2.2-0.3,3.1-1c0.8-0.8,1.1-1.9,1-3c0.1-1.1-0.3-2.1-1-2.9c-0.9-0.7-2-1-3.1-0.9h-6.6v7.8L450.9,664L450.9,664z"/>
<path d="M486.4,651.6v5.1H472v5.8h13.2v4.7H472v6.7h14.7v5.1h-20.8v-27.3L486.4,651.6L486.4,651.6z"/>
<path d="M502.5,651.6c1.7,0,3.3,0.3,4.9,0.8c1.5,0.5,2.8,1.4,3.9,2.5c1.2,1.2,2,2.6,2.6,4.2c0.7,1.9,1,3.9,0.9,5.9
	c0,1.9-0.2,3.7-0.8,5.5c-0.5,1.6-1.3,3.1-2.3,4.4c-1.1,1.2-2.4,2.2-3.9,2.9c-1.7,0.7-3.6,1.1-5.5,1.1h-11.8v-27.3L502.5,651.6
	L502.5,651.6z M502.1,673.9c0.9,0,1.7-0.1,2.5-0.4c0.8-0.3,1.6-0.8,2.2-1.4c0.7-0.7,1.2-1.6,1.5-2.5c0.4-1.2,0.6-2.5,0.6-3.8
	s-0.1-2.5-0.4-3.7c-0.2-1-0.7-2-1.3-2.8c-0.6-0.8-1.5-1.4-2.4-1.8c-1.2-0.5-2.5-0.7-3.7-0.6h-4.3v17.2h5.3V673.9z"/>
<path d="M539.5,651.6v5.1h-14.4v5.8h13.2v4.7h-13.2v6.7h14.7v5.1H519v-27.3L539.5,651.6L539.5,651.6z"/>
<path d="M548.5,672.2c0.3,0.6,0.8,1.1,1.3,1.5c0.6,0.4,1.2,0.7,1.9,0.9c0.8,0.2,1.5,0.3,2.3,0.3c0.6,0,1.2-0.1,1.7-0.1
	c0.6-0.1,1.2-0.3,1.7-0.5s1-0.6,1.3-1.1c0.4-0.5,0.6-1.1,0.5-1.7c0-0.7-0.2-1.3-0.7-1.8s-1.2-0.9-1.8-1.2c-0.9-0.3-1.7-0.6-2.6-0.8
	c-1-0.2-2-0.5-2.9-0.8c-1-0.3-2-0.6-3-0.9c-0.9-0.3-1.8-0.8-2.6-1.4c-1.7-1.3-2.7-3.3-2.6-5.4c0-1.3,0.3-2.5,0.9-3.7
	c0.6-1,1.4-1.9,2.4-2.6c1-0.7,2.1-1.2,3.3-1.5s2.4-0.5,3.7-0.5c1.4,0,2.8,0.2,4.1,0.5s2.5,0.8,3.6,1.6c1,0.7,1.8,1.6,2.4,2.7
	c0.6,1.2,0.9,2.6,0.9,4h-5.8c0-0.7-0.2-1.4-0.5-2c-0.3-0.5-0.7-1-1.2-1.3s-1.1-0.5-1.7-0.7c-0.7-0.1-1.3-0.2-2-0.2
	c-0.5,0-1,0.1-1.5,0.2c-0.5,0.1-0.9,0.3-1.3,0.5c-0.4,0.3-0.7,0.6-1,1s-0.4,0.9-0.4,1.5c0,0.5,0.1,0.9,0.3,1.3
	c0.3,0.4,0.7,0.7,1.2,0.9c0.8,0.4,1.6,0.6,2.5,0.8c1.1,0.3,2.5,0.6,4.2,1.1c0.5,0.1,1.2,0.3,2.1,0.5c1,0.3,1.9,0.7,2.7,1.3
	c0.9,0.6,1.7,1.4,2.3,2.4c0.7,1.1,1,2.4,1,3.8c0,1.2-0.2,2.4-0.7,3.5s-1.2,2-2.2,2.8c-1.1,0.8-2.3,1.5-3.6,1.8
	c-1.6,0.5-3.3,0.7-4.9,0.7c-1.5,0-2.9-0.2-4.4-0.5c-1.3-0.3-2.6-0.9-3.8-1.8c-1.1-0.8-2-1.8-2.6-3c-0.7-1.4-1-2.9-0.9-4.4h5.7
	C548,670.7,548.2,671.5,548.5,672.2z"/>
<path class="st2" d="M332,341.5c0,0,28.4,26.3,47.8-24.5"/>
<line class="st3" x1="330.5" y1="339.9" x2="332.9" y2="342.4"/>
<polygon points="330,342.6 331,340.4 333.3,339.6 328.1,337.3 "/>
<path class="st4" d="M566.8,329.9c0,0,29.6,12,45.1,47"/>
<line class="st3" x1="612.7" y1="378.2" x2="611.9" y2="376.8"/>
<polygon points="613.8,375.6 612.3,377.5 609.9,377.8 614.5,381.3 "/>
<path class="st5" d="M547.5,681.3h-117c0,0-73.3-0.1-83.3,2.2c0,0-83.8,5.7-90.5,9.1c0,0,20.1,1.1,16.8,8c0,0-2.2,12.5-34.6,13.7
	c0,0-54.8,3.4-82.7,16c0,0-43.6,6.8-44.7,19.4c0,0-2.2,3.4,1.1,5.7c0,0,31.3-2.3,32.4,10.3c0,0,4.5,6.8,15.6,5.7
	c0,0,82.7-2.3,108.4,38.8c0,0,0,4.6,5.6,2.3c0,0,23.5-6.8,46.9,9.1c0,0,29.1-8,46.9,1.1c0,0,64.8-14.8,122.9,10.3
	c0,0,25.7,13.7,8.9,36.5c0,0,56.9,14.7,17.4,59.6c-7.3,8.3-19.6,12.1-34.3,23L1244,951v-69c0-44.4-111.2-84.3-167-93.6
	c0,0-80.5-14.8-111.8-41c0,0-46.9,4.6-72.6-8c0,0-49.2,0-68.2-11.4c0,0-124-6.8-179.9-19.4c0,0-57,3.4-95-12.5
	c0,0-15.6-6.8-2.2-12.5C547.3,683.5,555.4,681.3,547.5,681.3z"/>
<path class="st6" d="M240.8,564.2c0,0,8.7-34.6,36.1-43.7c0,0,19.4,1.1,29.6-2.3c0,0,16-10.3,31.9-10.3c0,0,102.6-49,141.4-46.8
	c0,0,133.4,2.3,180.2,26.2c0,0,27.4,17.1,34.2,17.1c0,0,28.1,3,25.8,7.6"/>
<circle class="st7" cx="188.5" cy="151.6" r="82"/>
<path class="st8" d="M395.5,741.7"/>
<path class="st2" d="M425.1,785.9c0,0-24.3-51.3-75.5-11.6"/>
<path class="st2" d="M317.4,769c0,0-16.3-2.8-27.4-21.5"/>
<line class="st3" x1="290.1" y1="746.8" x2="292.8" y2="752"/>
<polygon points="288.9,749.4 290.4,747.5 292.8,747.3 288.4,743.7 "/>
<path class="st2" d="M458.2,789.2c0,0,6.2-6.3,16.2,3.2"/>
<line class="st3" x1="474.4" y1="792.1" x2="469.4" y2="789.1"/>
<polygon points="474.1,789.3 473.8,791.7 471.8,793.1 477.5,793.9 "/>
<path class="st2" d="M247.6,469.3c0,0-0.2,11-9.8,16.5C224.6,493.4,226,505,226,505"/>
<path class="st3" d="M227.3,503.3"/>
<line class="st3" x1="247.6" y1="469" x2="247.4" y2="471.3"/>
<polygon points="245.2,470.5 247.5,469.8 249.6,470.9 247.9,465.5 "/>
<line class="st3" x1="226.9" y1="507.4" x2="225.9" y2="505"/>
<polygon points="228.3,505 226.6,506.8 224.2,506.7 228.2,510.8 "/>
<path class="st4" d="M261.3,414c0,0,0-27.9,26.4-38.8"/>
<line class="st3" x1="261.1" y1="414.1" x2="261.3" y2="410.9"/>
<polygon points="263.4,412.6 261.2,413.4 259,412.3 261,417.7 "/>
<line class="st3" x1="289.6" y1="373.7" x2="287.5" y2="375.2"/>
<polygon points="287,372.9 289,374.1 289.5,376.5 292.6,371.6 "/>
<path d="M101.7,546c1.1,0,2.3,0.2,3.3,0.6c0.9,0.4,1.8,0.9,2.5,1.6c0.7,0.7,1.2,1.5,1.6,2.4s0.6,1.9,0.6,2.9c0,1.5-0.3,2.9-1,4.2
	c-0.8,1.2-1.9,2.2-3.3,2.7v0.1c0.7,0.2,1.3,0.5,1.8,0.9s0.9,0.9,1.2,1.5c0.3,0.6,0.5,1.2,0.7,1.9c0.1,0.7,0.2,1.4,0.3,2.1
	c0,0.4,0,0.9,0.1,1.5s0.1,1.2,0.1,1.8c0.1,0.6,0.2,1.2,0.3,1.7c0.1,0.5,0.3,1,0.6,1.4h-6c-0.4-1-0.6-2-0.6-3.1
	c-0.1-1.2-0.2-2.3-0.3-3.5c-0.1-1.2-0.5-2.3-1.3-3.1c-0.9-0.7-2.1-1.1-3.2-1h-6v10.7h-6V546H101.7z M99.5,558.4
	c1.1,0.1,2.2-0.2,3.1-0.9c0.8-0.8,1.1-1.9,1-3c0.1-1.1-0.3-2.1-1-2.9c-0.9-0.7-2-1-3.1-0.9h-6.6v7.7L99.5,558.4z"/>
<path d="M135,546v5h-14.4v5.9h13.2v4.7h-13.2v6.7h14.7v5.1h-20.8V546H135z"/>
<path d="M145.4,546v22.3h13.3v5.1h-19.3V546H145.4z"/>
<path d="M175.7,546l10.2,27.3h-6.2l-2.1-6.1h-10.2l-2.1,6.1h-6.1l10.3-27.3H175.7z M176,562.8l-3.4-10h-0.1l-3.6,10H176z"/>
<path d="M182.6,551v-5H205v5h-8.2v22.3h-6V551H182.6z"/>
<path d="M207.9,554c0.6-1.7,1.5-3.2,2.6-4.6c1.2-1.3,2.6-2.4,4.2-3.1c3.6-1.5,7.7-1.5,11.3,0c1.6,0.7,3,1.7,4.2,3.1
	c1.2,1.3,2.1,2.9,2.6,4.6c0.6,1.8,0.9,3.7,0.9,5.7c0,1.9-0.3,3.8-0.9,5.6c-0.6,1.7-1.5,3.2-2.6,4.5c-1.2,1.3-2.6,2.3-4.2,3
	c-3.6,1.5-7.7,1.5-11.3,0c-1.6-0.7-3.1-1.7-4.2-3c-1.2-1.3-2.1-2.8-2.6-4.5c-0.6-1.8-0.9-3.7-0.9-5.6
	C207,557.8,207.3,555.9,207.9,554z M213.4,563c0.3,1,0.7,2,1.3,2.9s1.4,1.6,2.3,2.1c2.2,1,4.7,1,6.9,0c0.9-0.5,1.7-1.2,2.3-2.1
	c0.6-0.9,1-1.9,1.3-2.9c0.3-1.1,0.4-2.2,0.4-3.3c0-1.2-0.1-2.3-0.4-3.5c-0.2-1.1-0.7-2.1-1.3-3s-1.4-1.6-2.3-2.1
	c-2.2-1.1-4.7-1.1-6.9,0c-0.9,0.5-1.7,1.2-2.3,2.1c-0.6,0.9-1,1.9-1.3,3s-0.4,2.3-0.4,3.5C213,560.8,213.1,562,213.4,563L213.4,563z
	"/>
<path d="M242.6,566.5c0.3,0.6,0.8,1.1,1.3,1.5c0.6,0.4,1.2,0.7,1.9,0.9c0.8,0.2,1.5,0.3,2.3,0.3c0.6,0,1.2-0.1,1.7-0.1
	c0.6-0.1,1.2-0.3,1.7-0.5s1-0.6,1.3-1.1c0.4-0.5,0.6-1.1,0.5-1.7c0-0.7-0.2-1.3-0.7-1.8s-1.2-0.9-1.9-1.2c-0.8-0.3-1.7-0.6-2.6-0.8
	c-1-0.2-1.9-0.5-2.9-0.8s-2-0.6-3-0.9c-0.9-0.3-1.8-0.8-2.6-1.4c-0.8-0.6-1.4-1.3-1.9-2.2c-0.5-1-0.7-2.1-0.7-3.2
	c0-1.3,0.3-2.5,0.9-3.7c0.6-1,1.4-1.9,2.4-2.6c1-0.7,2.1-1.2,3.3-1.5s2.4-0.5,3.7-0.5c1.4,0,2.8,0.2,4.1,0.5s2.4,0.8,3.5,1.5
	c1,0.7,1.8,1.6,2.4,2.7c0.6,1.2,0.9,2.6,0.9,4h-5.8c0-0.7-0.2-1.4-0.5-2c-0.3-0.5-0.7-1-1.2-1.3s-1.1-0.5-1.7-0.7
	c-0.7-0.1-1.4-0.2-2.1-0.2c-0.5,0-1,0.1-1.4,0.2c-0.5,0.1-0.9,0.3-1.3,0.5c-0.4,0.3-0.7,0.6-1,1s-0.4,0.9-0.4,1.5
	c0,0.5,0.1,0.9,0.3,1.3c0.3,0.4,0.7,0.7,1.2,0.9c0.8,0.4,1.6,0.6,2.5,0.8c1.1,0.3,2.4,0.6,4.1,1.1c0.5,0.1,1.2,0.3,2.1,0.5
	c1,0.3,1.9,0.7,2.8,1.2c0.9,0.6,1.7,1.4,2.3,2.4c0.7,1.1,1,2.4,1,3.8c0,1.2-0.2,2.4-0.7,3.5s-1.2,2-2.2,2.8
	c-1.1,0.8-2.3,1.4-3.6,1.8c-1.6,0.5-3.3,0.7-4.9,0.7c-1.5,0-3-0.2-4.4-0.6c-1.3-0.3-2.6-0.9-3.8-1.7c-1.1-0.8-2-1.8-2.6-3
	c-0.7-1.4-1-2.9-0.9-4.4h5.8C242.1,565,242.2,565.8,242.6,566.5z"/>
<path d="M75.4,591.9v5.1H61v5.9h13.2v4.7H61v6.7h14.7v5H55v-27.4H75.4z"/>
<path d="M88.2,591.9l6.4,18.8h0.1l6-18.8h8.5v27.3h-5.6v-19.4h-0.1l-6.7,19.4h-4.6L85.5,600h-0.1v19.2h-5.6v-27.3H88.2z"/>
<path d="M135,591.9v5.1h-14.5v5.9h13.2v4.7h-13.2v6.7h14.7v5h-20.8v-27.4H135z"/>
<path d="M154.1,591.9c1.1,0,2.3,0.2,3.3,0.6c0.9,0.4,1.8,0.9,2.5,1.6c0.7,0.7,1.2,1.5,1.6,2.4c0.4,0.9,0.6,1.9,0.6,2.9
	c0,1.5-0.3,2.9-1,4.2c-0.8,1.2-1.9,2.2-3.3,2.7v0.1c0.7,0.2,1.3,0.5,1.8,0.9s0.9,0.9,1.2,1.5s0.5,1.2,0.7,1.9
	c0.1,0.7,0.2,1.4,0.3,2.1c0,0.4,0.1,0.9,0.1,1.5s0.1,1.2,0.1,1.8c0.1,0.6,0.2,1.2,0.3,1.7s0.3,1,0.6,1.4h-6c-0.4-1-0.6-2-0.6-3.1
	c-0.1-1.2-0.2-2.3-0.3-3.5s-0.5-2.3-1.3-3.1c-0.9-0.7-2.1-1.1-3.2-1h-6v10.7h-6v-27.3L154.1,591.9L154.1,591.9z M151.9,604.3
	c1.1,0.1,2.2-0.2,3.1-0.9c0.7-0.8,1.1-1.9,1-3c0.1-1.1-0.3-2.1-1-2.9c-0.9-0.7-2-1-3.1-0.9h-6.6v7.7L151.9,604.3z"/>
<path d="M183.2,619c-1.2,0.5-2.6,0.8-3.9,0.8c-1.9,0-3.9-0.3-5.6-1.1c-1.6-0.7-3.1-1.7-4.2-3c-1.2-1.3-2.1-2.8-2.6-4.5
	c-0.6-1.8-0.9-3.7-0.9-5.6c0-1.9,0.3-3.9,0.9-5.7c0.6-1.7,1.5-3.2,2.6-4.6c1.2-1.3,2.6-2.4,4.2-3.1c1.8-0.8,3.7-1.1,5.6-1.1
	c1.4,0,2.8,0.2,4.1,0.6c1.3,0.4,2.5,1,3.6,1.8c2.2,1.7,3.7,4.3,3.9,7.2H185c-0.2-1.4-1-2.6-2.1-3.4c-1.1-0.8-2.4-1.2-3.7-1.2
	c-1.2,0-2.4,0.2-3.4,0.8c-0.9,0.5-1.7,1.2-2.3,2.1c-0.6,0.9-1,1.9-1.3,3s-0.4,2.3-0.4,3.5c0,1.1,0.1,2.3,0.4,3.3
	c0.2,1,0.7,2,1.3,2.9s1.4,1.6,2.3,2.1c1.1,0.6,2.2,0.8,3.4,0.8c3.2,0.4,6.1-2,6.5-5.2c0-0.2,0-0.5,0-0.7h-6v-4.5h11.5V619h-3.8
	l-0.6-3.1C185.8,617.4,184.6,618.4,183.2,619z"/>
<path d="M216.5,591.9v5.1H202v5.9h13.2v4.7H202v6.7h14.7v5H196v-27.4H216.5z"/>
<path d="M226.8,591.9l11.4,18.3h0.1v-18.3h5.6v27.3h-6l-11.4-18.3h-0.1v18.3h-5.6v-27.3H226.8z"/>
<path d="M247.1,597v-5.1h22.4v5.1h-8.2v22.3h-6V597H247.1z"/>
<path d="M293,591.9v5.1h-14.4v5.9h13.2v4.7h-13.2v6.7h14.7v5h-20.7v-27.4H293z"/>
<path d="M302,612.5c0.3,0.6,0.8,1.1,1.3,1.5c0.6,0.4,1.2,0.7,1.9,0.9c0.8,0.2,1.5,0.3,2.3,0.3c0.6,0,1.2,0,1.7-0.1
	c0.6-0.1,1.2-0.3,1.7-0.5s1-0.6,1.3-1c0.4-0.5,0.6-1.1,0.5-1.7c0-0.7-0.2-1.3-0.7-1.8s-1.2-0.9-1.9-1.1c-0.8-0.3-1.7-0.6-2.6-0.8
	c-1-0.2-2-0.5-3-0.8s-2-0.6-3-0.9c-0.9-0.3-1.8-0.8-2.6-1.4c-0.8-0.6-1.4-1.3-1.9-2.2c-0.5-1-0.7-2.1-0.7-3.2c0-1.3,0.3-2.5,0.9-3.7
	c0.6-1,1.4-1.9,2.4-2.6c1-0.7,2.1-1.2,3.3-1.5c1.2-0.3,2.4-0.5,3.7-0.5c1.4,0,2.8,0.2,4.1,0.5c1.3,0.3,2.4,0.8,3.5,1.5
	c1,0.7,1.8,1.6,2.4,2.7c0.6,1.2,0.9,2.6,0.9,4H312c0-0.7-0.2-1.4-0.5-2c-0.3-0.5-0.7-0.9-1.2-1.3c-0.5-0.3-1.1-0.5-1.7-0.7
	c-0.7-0.1-1.4-0.2-2-0.2c-0.5,0-1,0.1-1.5,0.2c-0.5,0.1-0.9,0.3-1.3,0.5c-0.4,0.3-0.7,0.6-1,1s-0.4,0.9-0.4,1.5
	c0,0.5,0.1,0.9,0.3,1.3c0.3,0.4,0.7,0.7,1.2,0.9c0.8,0.4,1.6,0.6,2.5,0.8c1.1,0.3,2.4,0.6,4.1,1.1c0.5,0.1,1.2,0.3,2.1,0.6
	c1,0.3,1.9,0.7,2.7,1.3c0.9,0.6,1.7,1.4,2.3,2.3c0.7,1.1,1,2.4,1,3.8c0,1.2-0.2,2.4-0.7,3.5s-1.2,2-2.2,2.8
	c-1.1,0.8-2.3,1.4-3.6,1.8c-1.6,0.5-3.3,0.7-4.9,0.7c-1.5,0-3-0.2-4.4-0.5c-1.3-0.3-2.6-0.9-3.8-1.7c-1.1-0.8-2-1.8-2.6-3
	c-0.7-1.4-1-2.9-0.9-4.4h5.8C301.5,611,301.7,611.8,302,612.5z"/>
<path class="st0" d="M425.6,339.2l4.4,5.3l0.6,0.7c0.3,0.4,0.8-0.2,0.5-0.5l-4.4-5.3l-0.6-0.7C425.9,338.3,425.3,338.8,425.6,339.2z
	"/>
<path class="st9" d="M685.5,801.8c1.1,0,2.3,0.2,3.3,0.6c0.9,0.4,1.8,0.9,2.5,1.6c0.7,0.7,1.2,1.5,1.6,2.4c0.4,0.9,0.6,1.9,0.5,2.9
	c0,1.5-0.3,2.9-1,4.2c-0.8,1.2-1.9,2.2-3.3,2.7v0.1c0.7,0.2,1.3,0.5,1.8,0.9s0.9,0.9,1.2,1.5s0.5,1.2,0.7,1.9
	c0.1,0.7,0.2,1.4,0.3,2.1c0,0.4,0,0.9,0.1,1.5s0.1,1.2,0.1,1.8c0.1,0.6,0.2,1.2,0.3,1.7s0.3,1,0.6,1.4h-6c-0.4-1-0.6-2-0.6-3.1
	c-0.1-1.2-0.2-2.3-0.3-3.5s-0.5-2.3-1.3-3.1c-0.9-0.7-2.1-1.1-3.3-1h-6v10.7h-6v-27.3L685.5,801.8L685.5,801.8z M683.4,814.2
	c1.1,0.1,2.2-0.2,3.1-0.9c0.8-0.8,1.1-1.9,1-3c0.1-1.1-0.3-2.1-1-2.9c-0.9-0.7-2-1-3.1-0.9h-6.6v7.7L683.4,814.2z"/>
<path class="st9" d="M718.9,801.8v5.1h-14.4v5.8h13.2v4.7h-13.2v6.7h14.7v5.1h-20.8v-27.3L718.9,801.8L718.9,801.8z"/>
<path class="st9" d="M729.2,801.8v22.3h13.3v5.1h-19.3v-27.3L729.2,801.8L729.2,801.8z"/>
<path class="st9" d="M759.6,801.8l10.2,27.3h-6.2l-2.1-6.1h-10.2l-2.2,6.1h-6l10.3-27.3H759.6z M759.9,818.6l-3.5-10h-0.1l-3.6,10
	H759.9z"/>
<path class="st9" d="M766.5,806.9v-5.1h22.4v5.1h-8.2v22.3h-6v-22.3H766.5z"/>
<path class="st9" d="M791.8,809.9c0.6-1.7,1.5-3.2,2.7-4.6c1.2-1.3,2.6-2.4,4.2-3.1c3.6-1.5,7.7-1.5,11.3,0c1.6,0.7,3,1.7,4.2,3.1
	c1.2,1.3,2.1,2.9,2.6,4.6c0.6,1.8,0.9,3.7,0.9,5.7c0,1.9-0.3,3.8-0.9,5.6c-0.6,1.7-1.5,3.2-2.6,4.5c-1.2,1.3-2.6,2.3-4.2,3
	c-3.6,1.5-7.7,1.5-11.3,0c-1.6-0.7-3.1-1.7-4.2-3c-1.2-1.3-2.1-2.8-2.7-4.5c-0.6-1.8-0.9-3.7-0.9-5.6
	C790.8,813.7,791.1,811.8,791.8,809.9z M797.3,818.9c0.2,1,0.7,2,1.3,2.9s1.4,1.6,2.3,2.1c2.2,1,4.7,1,6.9,0
	c0.9-0.5,1.7-1.2,2.3-2.1c0.6-0.9,1-1.9,1.3-2.9c0.3-1.1,0.4-2.2,0.4-3.3c0-1.2-0.1-2.3-0.4-3.5c-0.3-1.1-0.7-2.1-1.3-3
	s-1.4-1.6-2.3-2.1c-2.2-1.1-4.7-1.1-6.9,0c-0.9,0.5-1.7,1.2-2.3,2.1c-0.6,0.9-1,1.9-1.3,3s-0.4,2.3-0.4,3.5
	C796.9,816.7,797,817.9,797.3,818.9L797.3,818.9z"/>
<path class="st9" d="M826.4,822.4c0.3,0.6,0.8,1.1,1.3,1.5c0.6,0.4,1.2,0.7,1.9,0.9s1.5,0.3,2.3,0.3c0.6,0,1.2-0.1,1.7-0.1
	c0.6-0.1,1.2-0.3,1.7-0.5s1-0.6,1.3-1.1c0.4-0.5,0.6-1.1,0.5-1.7c0-0.7-0.2-1.3-0.7-1.8s-1.2-0.9-1.9-1.2c-0.8-0.3-1.7-0.6-2.6-0.8
	c-1-0.2-2-0.5-3-0.8s-2-0.6-3-0.9c-0.9-0.3-1.8-0.8-2.6-1.4c-1.7-1.3-2.7-3.3-2.6-5.4c0-1.3,0.3-2.5,0.9-3.7c0.6-1,1.4-1.9,2.4-2.6
	c1-0.7,2.1-1.2,3.3-1.5s2.4-0.5,3.7-0.5c1.4,0,2.8,0.2,4.1,0.5s2.4,0.8,3.5,1.5c1,0.7,1.8,1.6,2.4,2.7c0.6,1.2,0.9,2.6,0.9,4h-5.8
	c0-0.7-0.2-1.4-0.5-2c-0.3-0.5-0.7-1-1.2-1.3s-1.1-0.5-1.7-0.7c-0.7-0.1-1.3-0.2-2-0.2c-0.5,0-1,0.1-1.5,0.2
	c-0.5,0.1-0.9,0.3-1.3,0.5c-0.4,0.3-0.7,0.6-1,1s-0.4,0.9-0.4,1.5c0,0.5,0.1,0.9,0.3,1.3c0.3,0.4,0.7,0.7,1.2,0.9
	c0.8,0.3,1.6,0.6,2.5,0.8l4.2,1c0.5,0.1,1.2,0.3,2.1,0.5c1,0.3,1.9,0.7,2.7,1.3c0.9,0.6,1.7,1.4,2.3,2.3c0.7,1.1,1,2.4,1,3.8
	c0,1.2-0.2,2.4-0.7,3.5s-1.2,2-2.2,2.8c-1.1,0.8-2.3,1.5-3.6,1.8c-1.6,0.5-3.3,0.7-4.9,0.7c-1.5,0-2.9-0.2-4.4-0.5
	c-1.3-0.3-2.6-0.9-3.8-1.8c-1.1-0.8-2-1.8-2.6-3c-0.7-1.4-1-2.9-0.9-4.4h5.8C825.9,820.9,826.1,821.7,826.4,822.4z"/>
<path class="st2" d="M238.3,695.4c0,0-18.8-8.7-28.1-31.9"/>
<line class="st3" x1="209.7" y1="662.6" x2="210.8" y2="665"/>
<polygon points="208.4,665.1 210,663.3 212.4,663.1 208.1,659.4 "/>
<line class="st3" x1="237.9" y1="695.7" x2="235.8" y2="694"/>
<polygon points="238,692.9 237.3,695.2 235.1,696.3 240.6,698 "/>
<path class="st10" d="M667.3,377.2c0,0,54.2,41.9,57.3,108.5"/>
<path class="st2" d="M831.7,708.1c0,0-5.7,18.7,9.8,32.4c4.3,3.6,9.5,6,15.1,6.8c7.1,1.2,21.3,7.5,38.5,35.5"/>
<line class="st3" x1="831.9" y1="707.8" x2="831.7" y2="709.4"/>
<polygon points="829.5,709.2 831.8,708.6 833.9,709.8 832.3,704.3 "/>
<line class="st3" x1="895.9" y1="784" x2="894.4" y2="781"/>
<polygon points="897.1,781.5 895.6,783.3 893.2,783.5 897.5,787.2 "/>
<path class="st2" d="M730.1,628.2c0,0-9,31.7,21.2,44.5c0.9,0.4,20.2,6.3,22,18.8c0.9,6.1,0.1,22.7-15,24.8
	c-3.2,0.4-7.3-0.3-9.2-2.9c-1.6-2.1-1.9-6,1.3-9.5c3-3.1,7.5-4.1,11.5-2.6c6.2,2.3,15.5,10.1,22.3,35.1"/>
<line class="st3" x1="785.1" y1="738.7" x2="784.1" y2="736.2"/>
<polygon points="786.5,736.3 784.8,738 782.4,737.9 786.3,742 "/>
<line class="st3" x1="730.6" y1="626.8" x2="730.1" y2="629.4"/>
<polygon points="728.1,628 730.5,627.5 732.5,628.9 731.3,623.3 "/>
<line class="st3" x1="724.7" y1="486.3" x2="724.5" y2="483.6"/>
<polygon points="726.8,484.4 724.7,485.5 722.4,484.7 725,489.8 "/>
<line class="st3" x1="666.7" y1="376.7" x2="668.6" y2="378.5"/>
<polygon points="666.4,379.5 667.2,377.2 669.4,376.2 664,374.3 "/>
<line class="st3" x1="636.8" y1="460" x2="637.1" y2="462.6"/>
<polygon points="634.8,461.9 636.9,460.7 639.2,461.4 636.3,456.4 "/>
<line class="st3" x1="693.3" y1="572.4" x2="691.4" y2="570.2"/>
<polygon points="693.9,569.7 692.8,571.8 690.5,572.6 695.6,575.1 "/>
<path class="st2" d="M602.1,846.9c0,0-61.5,4.6-91-33.6"/>
<line class="st3" x1="603.2" y1="846.6" x2="600.6" y2="846.9"/>
<polygon points="601.3,844.6 602.5,846.7 601.8,849 606.8,846.2 "/>
<path class="st9" d="M752.2,841.9l10.2,27.3h-6.2l-2.1-6.1h-10.2l-2.2,6.1h-6l10.2-27.3H752.2z M752.6,858.6l-3.5-10H749l-3.6,10
	H752.6z"/>
<path class="st9" d="M782.3,849.2c-0.4-0.6-0.8-1.1-1.3-1.5s-1.2-0.8-1.8-1c-0.7-0.2-1.4-0.4-2.1-0.4c-1.2,0-2.4,0.2-3.4,0.8
	c-0.9,0.5-1.7,1.2-2.3,2.1c-0.6,0.9-1,1.9-1.3,3s-0.4,2.3-0.4,3.5c0,1.1,0.1,2.3,0.4,3.4c0.2,1,0.7,2,1.3,2.9s1.4,1.6,2.3,2.1
	c1.1,0.5,2.2,0.8,3.4,0.8c1.6,0.1,3.2-0.5,4.3-1.7s1.8-2.8,1.9-4.4h5.8c-0.1,1.6-0.5,3.2-1.2,4.6c-0.6,1.3-1.5,2.5-2.5,3.5
	c-1.1,1-2.3,1.7-3.7,2.2c-1.5,0.5-3.1,0.8-4.6,0.8c-1.9,0-3.9-0.3-5.6-1.1c-1.6-0.7-3.1-1.7-4.2-3c-1.2-1.3-2.1-2.8-2.7-4.5
	c-0.6-1.8-0.9-3.7-0.9-5.6c0-1.9,0.3-3.9,0.9-5.7c0.6-1.7,1.5-3.2,2.7-4.6c1.2-1.3,2.6-2.4,4.2-3.1c3.1-1.3,6.7-1.5,9.9-0.5
	c1.3,0.4,2.5,1.1,3.6,1.9c1.1,0.8,2,1.9,2.6,3.1c0.7,1.3,1.2,2.7,1.3,4.2H783C782.9,850.4,782.7,849.7,782.3,849.2z"/>
<path class="st9" d="M813.3,867.1c-2.1,1.8-4.9,2.7-8.6,2.7c-3.7,0-6.6-0.9-8.6-2.7s-3-4.5-3-8.3v-17h6v17c0,0.7,0.1,1.5,0.2,2.2
	c0.1,0.7,0.4,1.3,0.8,1.9c0.5,0.6,1,1,1.7,1.3c0.9,0.4,1.9,0.6,2.9,0.5c2.1,0,3.6-0.5,4.4-1.4c0.9-1.3,1.3-2.9,1.2-4.5v-17h6v17
	C816.4,862.6,815.3,865.3,813.3,867.1z"/>
<path class="st9" d="M830,841.9l6.4,18.8h0.1l6-18.8h8.5v27.3h-5.6v-19.4h-0.1l-6.7,19.4H834l-6.8-19.2h-0.1v19.2h-5.6v-27.3H830z"
	/>
<path class="st9" d="M876.4,867.1c-2.1,1.8-4.9,2.7-8.6,2.7c-3.6,0-6.5-0.9-8.6-2.7c-2-1.8-3-4.5-3-8.3v-17h6v17
	c0,0.7,0.1,1.5,0.2,2.2c0.1,0.7,0.4,1.3,0.8,1.9c0.5,0.6,1,1,1.7,1.3c0.9,0.4,1.9,0.6,2.9,0.5c2.2,0,3.6-0.5,4.4-1.4
	c0.9-1.3,1.4-2.9,1.2-4.5v-17h6v17C879.5,862.6,878.4,865.3,876.4,867.1z"/>
<path class="st9" d="M890.7,841.9v22.3H904v5.1h-19.4V842L890.7,841.9L890.7,841.9z"/>
<path class="st9" d="M921,841.9l10.2,27.3H925l-2.1-6.1h-10.3l-2.1,6.1h-6l10.3-27.3H921z M921.3,858.6l-3.5-10h-0.1l-3.6,10H921.3z
	"/>
<path class="st9" d="M945.4,841.9c1.7,0,3.3,0.3,4.9,0.8c1.5,0.5,2.8,1.4,3.9,2.5c1.2,1.2,2,2.6,2.6,4.2c0.7,1.9,1,3.9,0.9,5.9
	c0,1.9-0.2,3.7-0.8,5.5c-0.5,1.6-1.3,3.1-2.3,4.4c-1.1,1.2-2.4,2.2-3.9,2.9c-1.7,0.7-3.6,1.1-5.5,1.1h-11.8v-27.3L945.4,841.9
	L945.4,841.9z M944.9,864.2c0.9,0,1.7-0.1,2.5-0.4c0.8-0.3,1.6-0.8,2.2-1.4c0.7-0.7,1.2-1.6,1.5-2.5c0.4-1.2,0.6-2.5,0.6-3.8
	s-0.1-2.5-0.4-3.7c-0.2-1-0.7-2-1.3-2.9c-0.6-0.8-1.5-1.4-2.4-1.8c-1.2-0.5-2.5-0.7-3.7-0.6h-4.3v17.2L944.9,864.2L944.9,864.2z"/>
<path class="st9" d="M961.7,850c0.6-1.7,1.5-3.2,2.6-4.6c1.2-1.3,2.6-2.4,4.2-3.1c3.6-1.5,7.7-1.5,11.3,0c1.6,0.7,3,1.7,4.2,3.1
	c1.2,1.3,2.1,2.9,2.6,4.6c0.6,1.8,0.9,3.7,0.9,5.7c0,1.9-0.3,3.8-0.9,5.6c-0.6,1.7-1.5,3.2-2.6,4.5c-1.2,1.3-2.6,2.3-4.2,3
	c-3.6,1.5-7.7,1.5-11.3,0c-1.6-0.7-3.1-1.7-4.2-3c-1.2-1.3-2.1-2.8-2.6-4.5c-0.6-1.8-0.9-3.7-0.9-5.6
	C960.7,853.7,961,851.8,961.7,850z M967.2,859c0.3,1,0.7,2,1.3,2.9s1.4,1.6,2.3,2.1c2.2,1,4.7,1,6.9,0c0.9-0.5,1.7-1.2,2.3-2.1
	c0.6-0.9,1-1.9,1.3-2.9c0.3-1.1,0.4-2.2,0.4-3.3c0-1.2-0.1-2.3-0.4-3.5c-0.2-1.1-0.7-2.1-1.3-3s-1.4-1.6-2.3-2.1
	c-2.2-1.1-4.7-1.1-6.9,0c-0.9,0.5-1.7,1.2-2.3,2.1c-0.6,0.9-1,1.9-1.3,3s-0.4,2.3-0.4,3.5C966.8,856.8,966.9,857.9,967.2,859z"/>
<path class="st9" d="M996.3,862.5c0.3,0.6,0.8,1.1,1.3,1.5c0.6,0.4,1.2,0.7,1.9,0.9c0.8,0.2,1.5,0.3,2.3,0.3c0.6,0,1.2,0,1.7-0.1
	c0.6-0.1,1.2-0.3,1.7-0.5s1-0.6,1.3-1c0.4-0.5,0.6-1.1,0.5-1.7c0-0.7-0.2-1.3-0.7-1.8s-1.2-0.9-1.8-1.2c-0.8-0.3-1.7-0.6-2.6-0.8
	c-1-0.2-2-0.5-2.9-0.8c-1-0.2-2-0.6-3-0.9c-0.9-0.3-1.8-0.8-2.6-1.4c-1.7-1.3-2.6-3.3-2.6-5.4c0-1.3,0.3-2.5,0.9-3.7
	c0.6-1,1.4-1.9,2.4-2.6c1-0.7,2.1-1.2,3.3-1.5s2.4-0.5,3.7-0.5c1.4,0,2.8,0.2,4.1,0.5s2.4,0.8,3.5,1.5c1,0.7,1.8,1.6,2.4,2.7
	c0.6,1.2,0.9,2.6,0.9,4h-5.8c0-0.7-0.2-1.4-0.5-2c-0.3-0.5-0.7-0.9-1.2-1.3c-0.5-0.3-1.1-0.5-1.7-0.7c-0.7-0.1-1.3-0.2-2-0.2
	c-0.5,0-1,0.1-1.5,0.2c-0.5,0.1-0.9,0.3-1.3,0.5c-0.4,0.2-0.7,0.6-1,1s-0.4,0.9-0.4,1.5c0,0.5,0.1,0.9,0.3,1.3
	c0.3,0.4,0.7,0.7,1.2,0.9c0.8,0.4,1.6,0.6,2.5,0.8l4.2,1.1c0.5,0.1,1.2,0.3,2.1,0.5c1,0.3,1.9,0.7,2.7,1.3c0.9,0.6,1.7,1.4,2.3,2.4
	c0.7,1.1,1,2.4,1,3.8c0,1.2-0.2,2.4-0.7,3.5s-1.2,2-2.2,2.8c-1.1,0.8-2.3,1.4-3.6,1.8c-1.6,0.5-3.3,0.7-4.9,0.7
	c-1.5,0-3-0.2-4.4-0.6c-1.3-0.3-2.6-0.9-3.8-1.7c-1.1-0.8-2-1.8-2.6-3c-0.7-1.4-1-2.9-0.9-4.4h5.8C995.8,861,996,861.8,996.3,862.5z
	"/>
<path d="M573,671.1h6.7l6.4,10.8l6.3-10.8h6.7L589,687.9v10.5h-6v-10.6L573,671.1z"/>
<path d="M341,716.6l6.4,18.8h0.1l6-18.8h8.5v27.3h-5.6v-19.4h-0.1l-6.7,19.4H345l-6.7-19.2h-0.1v19.2h-5.6v-27.3H341z"/>
<path d="M387.7,716.6v5h-14.4v5.9h13.2v4.7h-13.2v6.7H388v5h-20.7v-27.3L387.7,716.6L387.7,716.6z"/>
<path d="M409.6,723.8c-0.4-0.6-0.8-1.1-1.3-1.5s-1.2-0.8-1.8-1c-0.7-0.2-1.4-0.4-2.1-0.4c-1.2,0-2.4,0.2-3.4,0.8
	c-0.9,0.5-1.7,1.2-2.3,2.1c-0.6,0.9-1,1.9-1.3,3s-0.4,2.3-0.4,3.5c0,1.1,0.1,2.3,0.4,3.3c0.2,1,0.7,2,1.3,2.9
	c0.6,0.9,1.4,1.6,2.3,2.1c1.1,0.6,2.2,0.8,3.4,0.8c1.6,0.1,3.2-0.5,4.3-1.7c1.1-1.2,1.7-2.8,1.9-4.4h5.8c-0.1,1.6-0.5,3.2-1.2,4.6
	c-0.6,1.3-1.5,2.5-2.5,3.5c-1.1,1-2.3,1.7-3.7,2.2c-1.5,0.5-3.1,0.8-4.6,0.8c-1.9,0-3.9-0.3-5.6-1.1c-1.6-0.7-3.1-1.7-4.2-3
	c-1.2-1.3-2.1-2.8-2.6-4.5c-0.6-1.8-0.9-3.7-0.9-5.6c0-1.9,0.3-3.9,0.9-5.7c0.6-1.7,1.5-3.2,2.6-4.6c1.2-1.3,2.6-2.4,4.2-3.1
	c1.8-0.8,3.7-1.1,5.6-1.1c1.4,0,2.9,0.2,4.3,0.7c1.3,0.4,2.5,1.1,3.6,1.9c1.1,0.8,2,1.9,2.6,3.1c0.7,1.3,1.2,2.7,1.3,4.2h-5.8
	C410.2,725.1,410,724.4,409.6,723.8z"/>
<path d="M434.1,716.6l10.2,27.3h-6.2l-2.1-6.1h-10.2l-2.1,6.1h-6l10.3-27.3H434.1z M434.4,733.3l-3.4-10h-0.1l-3.6,10H434.4z"/>
<path d="M452.7,716.6l11.4,18.3h0.1v-18.3h5.6v27.3h-6l-11.4-18.3h-0.1v18.3h-5.6v-27.3H452.7z"/>
<path d="M481.1,716.6v27.3h-6v-27.3H481.1z"/>
<path d="M491,737.2c0.3,0.6,0.8,1.1,1.3,1.5c0.6,0.4,1.2,0.7,1.9,0.9c0.8,0.2,1.5,0.3,2.3,0.3c0.6,0,1.2,0,1.7-0.1
	c0.6-0.1,1.2-0.3,1.7-0.5s1-0.6,1.3-1c0.4-0.5,0.6-1.1,0.5-1.7c0-0.7-0.2-1.3-0.7-1.8s-1.2-0.9-1.9-1.1c-0.8-0.3-1.7-0.6-2.6-0.8
	c-1-0.2-2-0.5-3-0.8s-2-0.6-3-0.9c-0.9-0.3-1.8-0.8-2.6-1.4c-0.8-0.6-1.4-1.3-1.9-2.2c-0.5-1-0.7-2.1-0.7-3.2c0-1.3,0.3-2.5,0.9-3.7
	c0.6-1,1.4-1.9,2.4-2.6c1-0.7,2.1-1.2,3.3-1.5c1.2-0.3,2.4-0.5,3.7-0.5c1.4,0,2.8,0.2,4.1,0.5c1.3,0.3,2.4,0.8,3.5,1.5
	c1,0.7,1.8,1.6,2.4,2.7c0.6,1.2,0.9,2.6,0.9,4h-5.8c0-0.7-0.2-1.4-0.5-2c-0.3-0.5-0.7-0.9-1.2-1.3c-0.5-0.3-1.1-0.5-1.7-0.7
	c-0.7-0.1-1.4-0.2-2-0.2c-0.5,0-1,0.1-1.5,0.2c-0.5,0.1-0.9,0.3-1.3,0.5c-0.4,0.3-0.7,0.6-1,1s-0.4,0.9-0.4,1.5
	c0,0.5,0.1,0.9,0.3,1.3c0.3,0.4,0.7,0.7,1.2,0.9c0.8,0.4,1.6,0.6,2.5,0.8c1.1,0.3,2.4,0.6,4.1,1.1c0.5,0.1,1.2,0.3,2.1,0.6
	c1,0.3,1.9,0.7,2.7,1.3c0.9,0.6,1.7,1.4,2.3,2.3c0.7,1.1,1,2.4,1,3.8c0,1.2-0.2,2.4-0.7,3.5s-1.2,2-2.2,2.8
	c-1.1,0.8-2.3,1.4-3.6,1.8c-1.6,0.5-3.3,0.7-4.9,0.7c-1.5,0-3-0.2-4.4-0.5c-1.3-0.3-2.6-0.9-3.8-1.7c-1.1-0.8-2-1.8-2.6-3
	c-0.7-1.4-1-2.9-0.9-4.4h5.8C490.4,735.7,490.6,736.4,491,737.2z"/>
<path d="M519.7,716.6l6.4,18.8h0.1l6-18.8h8.5v27.3H535v-19.4l0,0l-6.7,19.4h-4.6l-6.7-19.2h-0.1v19.2h-5.6v-27.3H519.7z"/>
<path d="M545.7,724.7c0.6-1.7,1.5-3.2,2.6-4.6c1.2-1.3,2.6-2.4,4.2-3.1c3.6-1.5,7.7-1.5,11.3,0c1.6,0.7,3,1.8,4.2,3.1
	s2.1,2.9,2.7,4.6c0.6,1.8,0.9,3.8,0.9,5.7s-0.3,3.8-0.9,5.6c-0.6,1.7-1.5,3.2-2.7,4.5s-2.6,2.3-4.2,3c-3.6,1.5-7.7,1.5-11.3,0
	c-1.6-0.7-3.1-1.7-4.2-3c-1.2-1.3-2.1-2.8-2.6-4.5c-0.6-1.8-0.9-3.7-0.9-5.6C544.7,728.4,545,726.5,545.7,724.7z M551.2,733.7
	c0.3,1,0.7,2,1.3,2.9s1.4,1.6,2.3,2.1c2.2,1.1,4.7,1.1,6.9,0c0.9-0.5,1.7-1.2,2.3-2.1c0.6-0.9,1-1.9,1.3-2.9
	c0.3-1.1,0.4-2.2,0.4-3.3c0-1.2-0.1-2.3-0.4-3.5c-0.2-1.1-0.7-2.1-1.3-3s-1.4-1.6-2.3-2.1c-2.2-1-4.7-1-6.9,0
	c-0.9,0.5-1.7,1.2-2.3,2.1c-0.6,0.9-1,1.9-1.3,3s-0.4,2.3-0.4,3.5C550.8,731.4,550.9,732.6,551.2,733.7L551.2,733.7z"/>
<path d="M580.3,737.2c0.3,0.6,0.8,1.1,1.3,1.5c0.6,0.4,1.2,0.7,1.9,0.9c0.8,0.2,1.5,0.3,2.3,0.3c0.6,0,1.2,0,1.7-0.1
	c0.6-0.1,1.2-0.3,1.7-0.5s1-0.6,1.3-1c0.4-0.5,0.6-1.1,0.5-1.7c0-0.7-0.2-1.3-0.7-1.8s-1.2-0.9-1.9-1.1c-0.8-0.3-1.7-0.6-2.6-0.8
	c-1-0.2-2-0.5-3-0.8s-2-0.6-3-0.9c-0.9-0.3-1.8-0.8-2.6-1.4c-0.8-0.6-1.4-1.3-1.8-2.2c-0.5-1-0.7-2.1-0.7-3.2c0-1.3,0.3-2.5,0.9-3.7
	c0.6-1,1.4-1.9,2.3-2.6c1-0.7,2.1-1.2,3.3-1.5s2.4-0.5,3.7-0.5c1.4,0,2.8,0.2,4.1,0.5s2.4,0.8,3.5,1.5c1,0.7,1.8,1.6,2.4,2.7
	c0.6,1.2,0.9,2.6,0.9,4H590c0-0.7-0.2-1.4-0.5-2c-0.3-0.5-0.7-0.9-1.2-1.3c-0.5-0.3-1.1-0.5-1.7-0.7c-0.7-0.1-1.3-0.2-2-0.2
	c-0.5,0-1,0.1-1.5,0.2c-0.5,0.1-0.9,0.3-1.3,0.5c-0.4,0.3-0.7,0.6-1,1s-0.4,0.9-0.4,1.5c0,0.5,0.1,0.9,0.3,1.3
	c0.3,0.4,0.7,0.7,1.2,0.9c0.8,0.4,1.6,0.6,2.5,0.8c1.1,0.3,2.4,0.6,4.2,1.1c0.5,0.1,1.2,0.3,2.1,0.6c1,0.3,1.9,0.7,2.7,1.3
	c0.9,0.6,1.7,1.4,2.3,2.3c0.7,1.1,1,2.4,1,3.8c0,1.2-0.2,2.4-0.7,3.5s-1.2,2-2.2,2.8c-1.1,0.8-2.3,1.4-3.6,1.8
	c-1.6,0.5-3.3,0.7-4.9,0.7c-1.5,0-3-0.2-4.4-0.5c-1.3-0.3-2.6-0.9-3.8-1.7c-1.1-0.8-2-1.8-2.6-3c-0.7-1.4-1-2.9-0.9-4.4h5.8
	C579.8,735.6,580,736.4,580.3,737.2z"/>
<path class="st8" d="M568,757.2l6.3,4.7c4.5,3.4,9.8,5.6,15.4,6.5l13.3,2.1"/>
<line class="st3" x1="603.3" y1="770.5" x2="600.8" y2="769.6"/>
<polygon points="602.5,767.8 602.6,770.2 601,772 606.7,771.7 "/>
<path class="st8" d="M611,737.6l7.2,3.8c5,2.6,10.7,3.9,16.3,3.5l13.4-0.8"/>
<line class="st3" x1="648.2" y1="744.1" x2="645.6" y2="743.7"/>
<polygon points="646.8,741.6 647.4,744 646.2,746 651.7,744.7 "/>
<path class="st8" d="M415.8,707.5l-3.9-3.2c-2.8-2.3-6-4-9.5-4.8l-21.7-5.2"/>
<line class="st3" x1="380.5" y1="694.2" x2="383" y2="695.1"/>
<polygon points="381.3,696.8 381.2,694.5 382.8,692.7 377.1,693 "/>
<path class="st8" d="M461.3,705.8l11.4-3.4c1.8-0.5,3.7-0.8,5.6-0.7l1.7,0.1c2.8,0.1,5.6-0.4,8.1-1.7l11-5.2"/>
<line class="st3" x1="498.2" y1="695.2" x2="497.5" y2="695.4"/>
<polygon points="496,693.5 497.5,695.4 497.2,697.8 501.6,694.2 "/>
<path class="st6" d="M97.9,450.9c0,0-2.3-4.6,8-4.6s4.6,19.4,4.6,19.4c10.3-6.8,19.4,5.7,19.4,5.7c18.2-1.1,9.1,16,9.1,16
	c8-1.1,9.1,5.7,9.1,5.7c11.4-4.6,12.6,8,12.6,8c6.8,2.3,4.6,11.4,4.6,11.4c6.8-11.4,19.4,6.8,19.4,6.8c21.7-8,6.8,16,6.8,16
	c-2.3,2.3,4.6,4.6,4.6,4.6c14.8-2.3,13.7,14.8,13.7,14.8c5.7-3.4,10.3,3.4,10.3,3.4c3.4,9.1,16,6.8,16,6.8
	c13.7-3.4,5.7,12.5,5.7,12.5c-2.3,5.7,3.4,3.4,3.4,3.4c19.4-24,26.2,4.6,26.2,4.6c22.8-14.8,28.5,16,28.5,16
	c-2.3,12.5,9.1,9.1,9.1,9.1c6.8-26.2,13.7,0,13.7,0c0,2.3,3.4,0,3.4,0c12.5-10.3,21.7,18.2,21.7,18.2c2.3,8,6.8,5.7,6.8,5.7
	c0.1-3.6,1.8-6.9,4.6-9.1c8-4.6,11.4,5.7,11.4,5.7c10.3-12.5,21.7,0,21.7,0c12.5,8,18.2-1.1,18.2-1.1c34.1-32.1,47.8,16.9,47.8,16.9
	c14.8-1.1,2.3,25.1,2.3,25.1s9.2-4.7,9.2,6.1"/>
<path class="st7" d="M555,674.9c-4.7-6.2,7-5.7,7-5.7s-19.4-18.2,5.7-27.4c0,0,5.7-8,18.2-5.7c0,0,1.1-17.1,20.5-6.8
	c0,0,11.4,4.6,14.8-5.7c0,0,0-12.5,19.4-9.1c0,0,8-1.2,8-11.4c0,0-2.3-21.7,23.9-12.5c0,0,8-3.4,0-11.4c0,0-3.4-22.8,22.8-18.2
	c0,0,9.1-4.6,3.4-10.3c0,0-9.1-14.8,11.4-20.5c0,0,3.4-26.2,31.9-30.8c0,0,33.1-61.6,62.7-96.9c0,0,4.6-25.1,11.4-4.6
	c0,0,6.8-14.8,14.8-4.6c0,0,3.4-22.8,12.5-27.4c0,0-4.6-13.7,16-49c0,0,17.9-60.3,46.8-41c3.4,2.3,5.7,0,5.7,0c0-0.3,0.1-0.7,0.2-1
	c2.4-10.1,16.4-11.4,20.8-2l15.7,33.4c5.6,11.9,13.9,22.4,24.4,30.5l0,0c7.9,6.2,14.4,13.9,19,22.8l14.4,27.7
	c0.2,0.4,0.5,0.8,0.7,1.2l43,72.2l52.4,59.9c22.3,25.5,99.8,71.6,109.8,87.9"/>
<path class="st0" d="M438.5,380.3l6.1,7l0.9,1c0.3,0.4,0.9-0.2,0.5-0.5l-6.1-7l-0.9-1C438.8,379.4,438.2,379.9,438.5,380.3z"/>
<path class="st0" d="M451.7,363.3l5.2,6.1l0.8,0.9c0.3,0.4,0.9-0.2,0.5-0.5l-5.3-6.1l-0.8-0.9C451.9,362.4,451.4,362.9,451.7,363.3
	L451.7,363.3z"/>
<path class="st0" d="M473.7,367.3l4.4,5.3l0.6,0.7c0.3,0.4,0.8-0.2,0.5-0.5l-4.4-5.3l-0.6-0.7C474,366.4,473.4,366.9,473.7,367.3z"
	/>
<path class="st0" d="M507.6,353.1l6.1,7l0.9,1c0.3,0.4,0.8-0.2,0.5-0.5l-6.1-7l-0.9-1C507.8,352.2,507.3,352.7,507.6,353.1
	L507.6,353.1z"/>
<path class="st0" d="M511.1,377.6l5.2,6.1l0.8,0.9c0.3,0.4,0.8-0.2,0.5-0.5l-5.2-6.1l-0.8-0.9C511.3,376.7,510.8,377.2,511.1,377.6
	L511.1,377.6z"/>
<path class="st0" d="M508.1,392.6l5.2,6.1l0.8,0.9c0.3,0.4,0.8-0.2,0.5-0.5l-5.2-6.1l-0.8-0.9C508.3,391.7,507.8,392.2,508.1,392.6
	L508.1,392.6z"/>
<path class="st0" d="M552.6,338.6l5.2,6.1l0.8,0.9c0.3,0.4,0.8-0.2,0.5-0.5l-5.2-6.1l-0.8-0.9C552.9,337.7,552.3,338.2,552.6,338.6z
	"/>
<path class="st0" d="M531.6,346.6l5.2,6.1l0.8,0.9c0.3,0.4,0.8-0.2,0.5-0.5l-5.2-6.1l-0.8-0.9C531.9,345.7,531.3,346.2,531.6,346.6z
	"/>
<path class="st0" d="M561.1,393.1l6.1,7l0.9,1c0.3,0.4,0.8-0.2,0.5-0.5l-6.1-7l-0.9-1C561.4,392.2,560.8,392.7,561.1,393.1z"/>
<path class="st0" d="M545.9,432.7l6.1,7l0.9,1c0.3,0.4,0.8-0.2,0.5-0.5l-6.1-7l-0.9-1C546.1,431.8,545.6,432.3,545.9,432.7z"/>
<path class="st0" d="M569.9,367.7l6.1,7l0.9,1c0.3,0.4,0.8-0.2,0.5-0.5l-6.1-7l-0.9-1C570.1,366.8,569.6,367.3,569.9,367.7z"/>
<path class="st0" d="M606.1,446l5.2,6.1l0.8,0.9c0.3,0.4,0.8-0.2,0.5-0.5l-5.2-6.1l-0.8-0.9C606.4,445.1,605.8,445.6,606.1,446z"/>
<path class="st0" d="M378.7,365.2l6.1,7l0.9,1c0.3,0.4,0.9-0.2,0.5-0.5l-6.1-7l-0.9-1C378.9,364.3,378.4,364.8,378.7,365.2z"/>
<linearGradient id="SVGID_2_" gradientUnits="userSpaceOnUse" x1="169.6464" y1="117.3669" x2="792.5928" y2="117.3669" gradientTransform="matrix(1 0 0 1 0 184)">
	<stop  offset="0" style="stop-color:#FFFFFF"/>
	<stop  offset="1" style="stop-color:#000000"/>
</linearGradient>
<path class="st11" d="M453.4,260.7c0,0-138.6-0.4-147.7,15.5c0,0-8,4.6-1.1,11.4c0,0,1.1,8-24,5.7c0,0-81.2-2.3-64.1,3.4
	c0,0-70.9-2.3-37.8,11.4c0,0,18.3,11.4,77.8,17.1c0,0,179.7,30.3,346.9,9.6c17.9,4.4,106.5,5.5,112.5-1.9c3.1-3.8,7.3-6.6,12.2-6.6
	c25.9,0.2,59.9-1.3,40.1-11c-5-2.4,28.5-3.4,21.7-6.8c0,0,10.3-9.1-11.4-12.5c-19.4-1.6-38.6-4.8-57.4-9.5c0,0-90.4-9.1-164.8-8
	c0,0-41.4-2.5-39.9-6.6c1.7-4.6-22.1-3.8-26.8-5.3C482.8,264.3,471.6,262.1,453.4,260.7z"/>
<path d="M303.9,296.3h6l10.9,19.2v-19.2h5.4v27.6h-5.8l-11.2-19.6v19.6h-5.4L303.9,296.3z"/>
<path d="M331.6,296.3h5.9v16.9c-0.1,1.4,0.1,2.8,0.7,4.1c0.7,1.5,2.2,2.3,4.5,2.3s3.8-0.8,4.5-2.3c0.5-1.3,0.8-2.7,0.7-4.1v-16.9
	h5.9v16.9c0.1,2.4-0.3,4.7-1.4,6.8c-1.7,3-4.9,4.5-9.7,4.5s-8-1.5-9.7-4.5c-1-2.1-1.5-4.5-1.4-6.8V296.3z"/>
<path d="M379.7,301.2h-14.6v5.8h13.4v4.8h-13.4v7.1h15.2v5h-20.9v-27.6h20.2L379.7,301.2L379.7,301.2z"/>
<path d="M401,296.3h6l-9.4,27.6h-5.4l-9.3-27.6h6.1l6,20.9L401,296.3z"/>
<path d="M431.6,321.4c-2.1,2.1-5.1,3.2-9,3.2s-6.9-1.1-9-3.2c-2.8-2.6-4.2-6.4-4.2-11.4s1.4-8.7,4.2-11.4c2.1-2.1,5.1-3.2,9-3.2
	s6.9,1.1,9,3.2c2.8,2.5,4.2,6.3,4.2,11.4C435.8,315.1,434.4,318.9,431.6,321.4z M428,317.2c1.3-1.7,2-4.1,2-7.2s-0.7-5.5-2-7.2
	s-3.3-2.6-5.4-2.5c-2.1-0.1-4.1,0.9-5.5,2.5c-1.4,1.7-2,4.1-2,7.2s0.7,5.5,2,7.2s3.3,2.6,5.5,2.5C424.7,319.8,426.7,318.9,428,317.2
	z"/>
<path d="M444.3,315.3c0.1,1,0.4,2,1,2.8c1,1.1,2.6,1.7,4.9,1.7c1.1,0,2.3-0.1,3.4-0.5c1.5-0.3,2.5-1.7,2.5-3.2
	c0-0.9-0.4-1.7-1.2-2.1c-1.2-0.6-2.5-1.1-3.8-1.3l-3-0.7c-2.1-0.4-4.1-1.1-6-2.1c-1.9-1.3-2.8-3.3-2.8-6c0-2.4,1-4.6,2.7-6.1
	c1.8-1.6,4.5-2.4,8-2.4c2.7-0.1,5.3,0.7,7.5,2.3c2.1,1.6,3.3,4.1,3.3,6.7h-5.5c0-1.5-0.9-2.8-2.3-3.5c-1.1-0.5-2.2-0.7-3.4-0.7
	c-1.3-0.1-2.5,0.3-3.6,0.9c-0.9,0.5-1.4,1.5-1.4,2.5c0,0.9,0.5,1.8,1.3,2.2c1.2,0.5,2.4,0.9,3.7,1.1l4.8,1.1c1.7,0.3,3.3,1,4.8,2
	c1.7,1.4,2.6,3.5,2.5,5.6c0,2.4-1,4.7-2.9,6.3c-2,1.7-4.7,2.5-8.2,2.5s-6.5-0.8-8.6-2.5c-2.1-1.6-3.2-4.1-3.1-6.8L444.3,315.3z"/>
<path d="M496.7,301.2h-14.6v5.8h13.4v4.8h-13.4v7.1h15.2v5h-20.9v-27.6h20.2L496.7,301.2L496.7,301.2z"/>
<path d="M506,315.3c0.1,1,0.4,2,1,2.8c1,1.1,2.6,1.7,4.9,1.7c1.1,0,2.3-0.1,3.4-0.5c1.5-0.3,2.5-1.7,2.5-3.2c0-0.9-0.4-1.7-1.2-2.1
	c-1.2-0.6-2.5-1.1-3.8-1.3l-3-0.7c-2.1-0.4-4.1-1.1-6-2.1c-1.9-1.3-2.8-3.3-2.8-6c0-2.4,1-4.6,2.7-6.1c1.8-1.6,4.5-2.4,8-2.4
	c2.7-0.1,5.3,0.7,7.5,2.3c2.1,1.6,3.3,4.1,3.3,6.7H517c0-1.5-0.9-2.9-2.2-3.5c-1.1-0.5-2.2-0.7-3.4-0.7c-1.3-0.1-2.5,0.3-3.6,0.9
	c-0.9,0.5-1.4,1.5-1.4,2.5c0,0.9,0.5,1.8,1.3,2.2c1.2,0.5,2.4,0.9,3.6,1.2l4.8,1.1c1.7,0.3,3.3,1,4.8,2c1.7,1.4,2.6,3.5,2.5,5.6
	c0,2.4-1,4.7-2.9,6.3c-2,1.7-4.7,2.5-8.2,2.5s-6.5-0.8-8.6-2.5c-2.1-1.6-3.2-4.1-3.1-6.8L506,315.3z"/>
<path d="M530,299.2c2.2-2.3,5.3-3.5,8.5-3.4c4.6,0,7.9,1.5,10.1,4.6c1.1,1.5,1.8,3.3,1.9,5.1h-5.7c-0.3-1.1-0.7-2.1-1.4-3
	c-2.5-2.4-6.4-2.4-8.8,0.1c-0.2,0.2-0.4,0.4-0.6,0.7c-1.2,1.7-1.8,4.1-1.8,7.2s0.6,5.4,1.9,7c1.1,1.5,2.9,2.3,4.8,2.3
	c1.7,0.1,3.4-0.6,4.5-2c0.7-1,1.2-2,1.4-3.2h5.7c-0.4,2.8-1.7,5.4-3.8,7.3s-4.9,2.9-7.8,2.8c-3.5,0.2-6.9-1.2-9.2-3.8
	c-2.2-2.6-3.4-6.1-3.4-10.5C526.2,305.5,527.5,301.8,530,299.2z"/>
<path d="M575.4,301.2h-14.6v5.8h13.4v4.8h-13.4v7.1H576v5h-20.9v-27.6h20.2L575.4,301.2L575.4,301.2z"/>
<path d="M580.5,296.3h6l10.9,19.2v-19.2h5.4v27.6H597l-11.2-19.6v19.6h-5.3V296.3z"/>
<path d="M616.1,296.3h6.5l9.8,27.6h-6.2l-1.8-5.7h-10.2l-1.9,5.7h-6L616.1,296.3z M615.7,313.4h7.1l-3.5-10.8L615.7,313.4z"/>
<path d="M653.5,297c1,0.4,1.9,1.1,2.6,1.9c0.6,0.7,1,1.5,1.4,2.3c0.4,0.9,0.5,1.9,0.5,2.9c0,1.3-0.4,2.7-1,3.9
	c-0.7,1.3-1.9,2.3-3.3,2.7c1.1,0.4,2.1,1.2,2.7,2.2c0.6,1.3,0.9,2.8,0.8,4.3v1.8c0,0.9,0,1.7,0.2,2.6c0.1,0.7,0.5,1.2,1.1,1.6v0.7
	h-6.3c-0.2-0.6-0.3-1.1-0.4-1.5c-0.2-0.8-0.2-1.6-0.2-2.4v-2.6c0-1.8-0.3-2.9-0.9-3.5c-0.9-0.7-2.1-1-3.3-0.9h-5.6v10.8H636v-27.5
	h13.2C650.7,296.3,652.2,296.5,653.5,297z M641.6,301.1v7.4h6.2c0.9,0.1,1.9-0.1,2.8-0.5c1.1-0.6,1.8-1.8,1.6-3.1
	c0-1.7-0.5-2.8-1.6-3.4c-0.8-0.4-1.8-0.5-2.7-0.5h-6.3V301.1z"/>
<path d="M668.8,323.9h-5.7v-27.6h5.7V323.9z"/>
<path d="M695.4,321.4c-2.1,2.1-5.1,3.2-9,3.2s-6.9-1.1-9-3.2c-2.8-2.6-4.2-6.4-4.2-11.4s1.4-8.7,4.2-11.4c2.1-2.1,5.1-3.2,9-3.2
	s6.9,1.1,9,3.2c2.8,2.5,4.2,6.3,4.2,11.4C699.6,315.1,698.2,318.9,695.4,321.4z M691.8,317.2c1.3-1.7,2-4.1,2-7.2s-0.7-5.5-2-7.2
	s-3.3-2.6-5.4-2.5c-2.1-0.1-4.1,0.9-5.5,2.5c-1.4,1.7-2,4.1-2,7.2s0.7,5.5,2,7.2s3.3,2.6,5.5,2.5
	C688.5,319.8,690.5,318.9,691.8,317.2L691.8,317.2z"/>
<path d="M708.1,315.3c0.1,1,0.4,2,1,2.8c1,1.1,2.6,1.7,4.9,1.7c1.1,0,2.3-0.1,3.4-0.5c1.5-0.3,2.5-1.7,2.5-3.2
	c0-0.9-0.4-1.7-1.2-2.1c-1.2-0.6-2.5-1.1-3.8-1.3l-3-0.7c-2.1-0.4-4.1-1.1-6-2.1c-1.9-1.3-2.8-3.3-2.8-6c0-2.4,1-4.6,2.7-6.1
	c1.8-1.6,4.5-2.4,8-2.4c2.7-0.1,5.3,0.7,7.5,2.3c2.1,1.6,3.3,4.1,3.3,6.7H719c0-1.5-0.9-2.9-2.2-3.5c-1.1-0.5-2.2-0.7-3.4-0.7
	c-1.3-0.1-2.5,0.3-3.6,0.9c-0.9,0.5-1.4,1.5-1.4,2.5c0,0.9,0.5,1.8,1.3,2.2c1.2,0.5,2.4,0.9,3.7,1.1l4.8,1.1c1.7,0.3,3.3,1,4.8,2
	c1.7,1.4,2.6,3.5,2.5,5.6c0,2.4-1,4.7-2.9,6.3c-2,1.7-4.7,2.5-8.2,2.5s-6.5-0.8-8.6-2.5c-2.1-1.6-3.2-4.1-3.1-6.8L708.1,315.3z"/>
<path class="st2" d="M434,332.2c1.4,5.7,10.6,37.2,41.6,22.5c0,0,10.9-7.2,20.1,1.8"/>
<line class="st3" x1="496.8" y1="357.4" x2="494.3" y2="354.7"/>
<polygon points="497.3,354.6 496.3,356.8 494.1,357.7 499.3,360 "/>
<path class="st0" d="M614.1,399l5.2,6.1l0.8,0.9c0.3,0.4,0.8-0.2,0.5-0.5l-5.2-6.1l-0.8-0.9C614.3,398.1,613.8,398.6,614.1,399z"/>
<path class="st10" d="M692.4,571.5c0,0-53.9-43-55.3-109.8"/>
<path class="st12" d="M1026.4,279.8c0,0-43.4-0.4-46.2,15.5c0,0-2.5,4.6-0.4,11.4c0,0,0.4,8-7.5,5.7c0,0-25.4-2.3-20,3.4
	c0,0-22.2-2.3-11.8,11.4c0,0,5.7,11.4,24.3,17.1c0,0,56.2,30.3,108.5,9.6c5.6,4.4,33.3,5.5,35.2-1.9c1-3.9,2.3-6.6,3.8-6.6
	c8.1,0.2,18.8-1.3,12.5-11c-1.6-2.4,8.9-3.4,6.8-6.8c0,0,3.2-9.1-3.6-12.5c0,0-7.9-1.6-17.9-9.6c0,0-28.3-9.1-51.5-8
	c0,0-13-2.5-12.5-6.6c0.5-4.6-6.9-3.8-8.4-5.4C1035.6,283.4,1032.1,281.2,1026.4,279.8z"/>
<line class="st13" x1="245" y1="84" x2="709" y2="249"/>
</svg>
