<?xml version="1.0" encoding="utf-8"?>
<!-- Generator: Adobe Illustrator 24.3.0, SVG Export Plug-In . SVG Version: 6.00 Build 0)  -->
<svg version="1.1" xmlns="http://www.w3.org/2000/svg" xmlns:xlink="http://www.w3.org/1999/xlink" x="0px" y="0px"
	 viewBox="0 0 1057.6 845.5" style="enable-background:new 0 0 1057.6 845.5;" xml:space="preserve">
<style type="text/css">
	.st0{fill:none;}
	.st1{fill:#808080;stroke:#000000;stroke-linecap:round;stroke-miterlimit:10;stroke-dasharray:0,2;}
	.st2{fill:url(#SVGID_1_);}
	.st3{fill:url(#SVGID_2_);}
	.st4{fill:none;stroke:url(#SVGID_3_);stroke-width:79;stroke-linecap:round;stroke-miterlimit:10;}
	.st5{fill:none;stroke:url(#SVGID_4_);stroke-width:20;stroke-linecap:round;stroke-miterlimit:10;}
	.st6{fill:none;stroke:url(#SVGID_5_);stroke-width:30;stroke-linecap:round;stroke-miterlimit:10;}
	.st7{fill:none;stroke:url(#SVGID_6_);stroke-width:30;stroke-linecap:round;stroke-miterlimit:10;stroke-dasharray:0,1.9498;}
	.st8{fill:none;stroke:url(#SVGID_7_);stroke-width:30;stroke-linecap:round;stroke-miterlimit:10;}
	.st9{fill:none;stroke:url(#SVGID_8_);stroke-width:30;stroke-linecap:round;stroke-miterlimit:10;stroke-dasharray:0,1.9931;}
	.st10{fill:none;stroke:url(#SVGID_9_);stroke-width:30;stroke-linecap:round;stroke-miterlimit:10;}
	.st11{fill:none;stroke:url(#SVGID_10_);stroke-width:32;stroke-miterlimit:10;}
	.st12{fill:none;stroke:url(#SVGID_11_);stroke-width:31;stroke-miterlimit:10;}
	.st13{fill:none;stroke:url(#SVGID_12_);stroke-width:33;stroke-miterlimit:10;}
	.st14{fill:none;stroke:url(#SVGID_13_);stroke-width:32;stroke-miterlimit:10;}
	.st15{fill:none;stroke:url(#SVGID_14_);stroke-width:31;stroke-miterlimit:10;}
	.st16{fill:none;stroke:url(#SVGID_15_);stroke-width:32;stroke-miterlimit:10;}
	.st17{fill:none;stroke:url(#SVGID_16_);stroke-width:23;stroke-linecap:round;stroke-miterlimit:10;}
	.st18{fill:none;stroke:url(#SVGID_17_);stroke-width:23;stroke-linecap:round;stroke-miterlimit:10;stroke-dasharray:0,2.0767;}
	.st19{fill:none;stroke:url(#SVGID_18_);stroke-width:23;stroke-linecap:round;stroke-miterlimit:10;}
	.st20{fill:none;stroke:url(#SVGID_19_);stroke-width:23;stroke-linecap:round;stroke-miterlimit:10;stroke-dasharray:0,2.1122;}
	.st21{fill:none;stroke:url(#SVGID_20_);stroke-width:23;stroke-linecap:round;stroke-miterlimit:10;}
	.st22{fill:none;stroke:url(#SVGID_21_);stroke-width:23;stroke-linecap:round;stroke-miterlimit:10;}
	.st23{fill:none;stroke:url(#SVGID_22_);stroke-width:23;stroke-linecap:round;stroke-miterlimit:10;stroke-dasharray:0,2.0767;}
	.st24{fill:none;stroke:url(#SVGID_23_);stroke-width:23;stroke-linecap:round;stroke-miterlimit:10;}
	.st25{fill:none;stroke:url(#SVGID_24_);stroke-width:23;stroke-linecap:round;stroke-miterlimit:10;stroke-dasharray:0,2.1122;}
	.st26{fill:none;stroke:url(#SVGID_25_);stroke-width:23;stroke-linecap:round;stroke-miterlimit:10;}
	.st27{fill:none;stroke:url(#SVGID_26_);stroke-width:23;stroke-linecap:round;stroke-miterlimit:10;}
	.st28{fill:none;stroke:url(#SVGID_27_);stroke-width:23;stroke-linecap:round;stroke-miterlimit:10;stroke-dasharray:0,2.0767;}
	.st29{fill:none;stroke:url(#SVGID_28_);stroke-width:23;stroke-linecap:round;stroke-miterlimit:10;}
	.st30{fill:none;stroke:url(#SVGID_29_);stroke-width:23;stroke-linecap:round;stroke-miterlimit:10;stroke-dasharray:0,2.1122;}
	.st31{fill:none;stroke:url(#SVGID_30_);stroke-width:23;stroke-linecap:round;stroke-miterlimit:10;}
	.st32{fill:none;stroke:url(#SVGID_31_);stroke-width:20;stroke-linecap:round;stroke-miterlimit:10;}
	.st33{fill:none;stroke:url(#SVGID_32_);stroke-width:23;stroke-linecap:round;stroke-miterlimit:10;}
	.st34{fill:none;stroke:url(#SVGID_33_);stroke-width:23;stroke-linecap:round;stroke-miterlimit:10;stroke-dasharray:0,2.0767;}
	.st35{fill:none;stroke:url(#SVGID_34_);stroke-width:23;stroke-linecap:round;stroke-miterlimit:10;}
	.st36{fill:none;stroke:url(#SVGID_35_);stroke-width:23;stroke-linecap:round;stroke-miterlimit:10;stroke-dasharray:0,2.1122;}
	.st37{fill:none;stroke:url(#SVGID_36_);stroke-width:23;stroke-linecap:round;stroke-miterlimit:10;}
	.st38{fill:none;stroke:url(#SVGID_37_);stroke-width:23;stroke-linecap:round;stroke-miterlimit:10;}
	.st39{fill:none;stroke:url(#SVGID_38_);stroke-width:23;stroke-linecap:round;stroke-miterlimit:10;stroke-dasharray:0,2.0767;}
	.st40{fill:none;stroke:url(#SVGID_39_);stroke-width:23;stroke-linecap:round;stroke-miterlimit:10;}
	.st41{fill:none;stroke:url(#SVGID_40_);stroke-width:23;stroke-linecap:round;stroke-miterlimit:10;stroke-dasharray:0,2.1122;}
	.st42{fill:none;stroke:url(#SVGID_41_);stroke-width:23;stroke-linecap:round;stroke-miterlimit:10;}
	.st43{fill:none;stroke:url(#SVGID_42_);stroke-width:29;stroke-linecap:round;stroke-miterlimit:10;}
	.st44{fill:none;stroke:url(#SVGID_43_);stroke-width:29;stroke-linecap:round;stroke-miterlimit:10;stroke-dasharray:0,2.0767;}
	.st45{fill:none;stroke:url(#SVGID_44_);stroke-width:29;stroke-linecap:round;stroke-miterlimit:10;}
	.st46{fill:none;stroke:url(#SVGID_45_);stroke-width:29;stroke-linecap:round;stroke-miterlimit:10;stroke-dasharray:0,2.1122;}
	.st47{fill:none;stroke:url(#SVGID_46_);stroke-width:29;stroke-linecap:round;stroke-miterlimit:10;}
	.st48{fill:none;stroke:url(#SVGID_47_);stroke-width:23;stroke-linecap:round;stroke-miterlimit:10;}
	.st49{fill:none;stroke:url(#SVGID_48_);stroke-width:23;stroke-linecap:round;stroke-miterlimit:10;stroke-dasharray:0,2.0767;}
	.st50{fill:none;stroke:url(#SVGID_49_);stroke-width:23;stroke-linecap:round;stroke-miterlimit:10;}
	.st51{fill:none;stroke:url(#SVGID_50_);stroke-width:23;stroke-linecap:round;stroke-miterlimit:10;stroke-dasharray:0,2.1122;}
	.st52{fill:none;stroke:url(#SVGID_51_);stroke-width:23;stroke-linecap:round;stroke-miterlimit:10;}
	.st53{fill:none;stroke:#000000;stroke-linecap:round;stroke-miterlimit:10;}
	.st54{fill:#FFFFFF;}
	.st55{fill:none;stroke:url(#SVGID_52_);stroke-width:23;stroke-linecap:round;stroke-miterlimit:10;}
	.st56{fill:none;stroke:url(#SVGID_53_);stroke-width:23;stroke-linecap:round;stroke-miterlimit:10;stroke-dasharray:0,2.0767;}
	.st57{fill:none;stroke:url(#SVGID_54_);stroke-width:23;stroke-linecap:round;stroke-miterlimit:10;}
	.st58{fill:none;stroke:url(#SVGID_55_);stroke-width:23;stroke-linecap:round;stroke-miterlimit:10;stroke-dasharray:0,2.1122;}
	.st59{fill:none;stroke:url(#SVGID_56_);stroke-width:23;stroke-linecap:round;stroke-miterlimit:10;}
	.st60{fill:none;stroke:url(#SVGID_57_);stroke-width:31;stroke-miterlimit:10;}
	.st61{fill:none;stroke:url(#SVGID_58_);stroke-width:23;stroke-linecap:round;stroke-miterlimit:10;}
	.st62{fill:none;stroke:url(#SVGID_59_);stroke-width:23;stroke-linecap:round;stroke-miterlimit:10;stroke-dasharray:0,2.0767;}
	.st63{fill:none;stroke:url(#SVGID_60_);stroke-width:23;stroke-linecap:round;stroke-miterlimit:10;}
	.st64{fill:none;stroke:url(#SVGID_61_);stroke-width:23;stroke-linecap:round;stroke-miterlimit:10;stroke-dasharray:0,2.1122;}
	.st65{fill:none;stroke:url(#SVGID_62_);stroke-width:23;stroke-linecap:round;stroke-miterlimit:10;}
	.st66{fill:none;stroke:url(#SVGID_63_);stroke-width:23;stroke-linecap:round;stroke-miterlimit:10;}
	.st67{fill:none;stroke:url(#SVGID_64_);stroke-width:23;stroke-linecap:round;stroke-miterlimit:10;stroke-dasharray:0,2.0501;}
	.st68{fill:none;stroke:url(#SVGID_65_);stroke-width:23;stroke-linecap:round;stroke-miterlimit:10;}
	.st69{fill:none;stroke:url(#SVGID_66_);stroke-width:23;stroke-linecap:round;stroke-miterlimit:10;}
	.st70{fill:none;stroke:url(#SVGID_67_);stroke-width:23;stroke-linecap:round;stroke-miterlimit:10;stroke-dasharray:0,2.1774;}
	.st71{fill:none;stroke:url(#SVGID_68_);stroke-width:23;stroke-linecap:round;stroke-miterlimit:10;}
	.st72{fill:none;stroke:url(#SVGID_69_);stroke-width:23;stroke-linecap:round;stroke-miterlimit:10;}
	.st73{fill:none;stroke:url(#SVGID_70_);stroke-width:23;stroke-linecap:round;stroke-miterlimit:10;stroke-dasharray:0,2.1774;}
	.st74{fill:none;stroke:url(#SVGID_71_);stroke-width:23;stroke-linecap:round;stroke-miterlimit:10;}
	.st75{fill:none;stroke:url(#SVGID_72_);stroke-width:23;stroke-linecap:round;stroke-miterlimit:10;}
	.st76{fill:none;stroke:url(#SVGID_73_);stroke-width:23;stroke-linecap:round;stroke-miterlimit:10;stroke-dasharray:0,1.8687;}
	.st77{fill:none;stroke:url(#SVGID_74_);stroke-width:23;stroke-linecap:round;stroke-miterlimit:10;}
	.st78{fill:none;stroke:url(#SVGID_75_);stroke-width:23;stroke-linecap:round;stroke-miterlimit:10;}
	.st79{fill:none;stroke:url(#SVGID_76_);stroke-width:23;stroke-linecap:round;stroke-miterlimit:10;stroke-dasharray:0,1.8687;}
	.st80{fill:none;stroke:url(#SVGID_77_);stroke-width:23;stroke-linecap:round;stroke-miterlimit:10;}
	.st81{fill:none;stroke:#000000;stroke-width:5;stroke-miterlimit:10;}
	.st82{fill:none;stroke:url(#SVGID_78_);stroke-width:23;stroke-linecap:round;stroke-miterlimit:10;}
	.st83{fill:none;stroke:url(#SVGID_79_);stroke-width:23;stroke-linecap:round;stroke-miterlimit:10;stroke-dasharray:0,2.1774;}
	.st84{fill:none;stroke:url(#SVGID_80_);stroke-width:23;stroke-linecap:round;stroke-miterlimit:10;}
	.st85{fill:none;stroke:#000000;stroke-width:2;stroke-miterlimit:10;}
	.st86{fill:none;stroke:#000000;stroke-width:0.5;stroke-linecap:round;stroke-miterlimit:10;}
	.st87{fill:none;stroke:#000000;stroke-miterlimit:10;}
	.st88{fill:none;stroke:#000000;stroke-width:0.75;stroke-linecap:round;stroke-miterlimit:10;}
</style>
<pattern  x="-55" y="-1353" width="6" height="7.5" patternUnits="userSpaceOnUse" id="Motivo_nuevo" viewBox="1 -8.5 6 7.5" style="overflow:visible;">
	<g>
		<rect x="1" y="-8.5" class="st0" width="6" height="7.5"/>
		<circle cx="7" cy="-1" r="1"/>
		<circle cx="1" cy="-1" r="1"/>
		<circle cx="4" cy="-4.8" r="1"/>
		<circle cx="7" cy="-8.5" r="1"/>
		<circle cx="1" cy="-8.5" r="1"/>
	</g>
</pattern>
<pattern  x="-55" y="-1353" width="30.9" height="30" patternUnits="userSpaceOnUse" id="Motivo_nuevo_2" viewBox="2.1 -31.8 30.9 30" style="overflow:visible;">
	<g>
		<rect x="2.1" y="-31.8" class="st0" width="30.9" height="30"/>
		<g>
			<path d="M27.6-11.8c0,1.1-0.9,1.9-1.9,1.9c-1.1,0-1.9-0.9-1.9-1.9s0.9-1.9,1.9-1.9C26.7-13.7,27.6-12.8,27.6-11.8z"/>
			<path d="M27.5-1.8c0,1-0.8,1.8-1.8,1.8c-1,0-1.8-0.8-1.8-1.8c0-1,0.8-1.8,1.8-1.8C26.7-3.5,27.5-2.7,27.5-1.8z"/>
		</g>
		<g>
			<path d="M12.2-11.8c0,1.1-0.9,1.9-1.9,1.9c-1.1,0-1.9-0.9-1.9-1.9s0.9-1.9,1.9-1.9C11.3-13.7,12.2-12.8,12.2-11.8z"/>
			<path d="M12-1.8c0,1-0.8,1.8-1.8,1.8c-1,0-1.8-0.8-1.8-1.8c0-1,0.8-1.8,1.8-1.8C11.2-3.5,12-2.7,12-1.8z"/>
			<path d="M21.8-11.8c0,0.9-0.7,1.6-1.6,1.6c-0.9,0-1.6-0.7-1.6-1.6c0-0.9,0.7-1.6,1.6-1.6C21.1-13.3,21.8-12.6,21.8-11.8z"/>
			<path d="M21.6-1.8c0,0.7-0.6,1.3-1.3,1.3C19.5-0.5,19-1,19-1.8s0.6-1.3,1.3-1.3C21-3.1,21.6-2.5,21.6-1.8z"/>
			<path d="M32.1-11.8c0,1-0.8,1.9-1.9,1.9c-1,0-1.9-0.8-1.9-1.9s0.8-1.9,1.9-1.9C31.3-13.6,32.1-12.8,32.1-11.8z"/>
			<path d="M32-1.8c0,1-0.8,1.8-1.8,1.8c-1,0-1.8-0.8-1.8-1.8c0-1,0.8-1.8,1.8-1.8C31.2-3.5,32-2.7,32-1.8z"/>
		</g>
		<g>
			<path d="M6.4-11.8c0,0.9-0.7,1.6-1.6,1.6c-0.9,0-1.6-0.7-1.6-1.6c0-0.9,0.7-1.6,1.6-1.6C5.7-13.3,6.4-12.6,6.4-11.8z"/>
			<circle cx="4.8" cy="-1.8" r="1.3"/>
			<path d="M16.7-11.8c0,1-0.8,1.9-1.9,1.9S13-10.7,13-11.8s0.8-1.9,1.9-1.9S16.7-12.8,16.7-11.8z"/>
			<path d="M16.6-1.8c0,1-0.8,1.8-1.8,1.8c-1,0-1.8-0.8-1.8-1.8c0-1,0.8-1.8,1.8-1.8C15.8-3.5,16.6-2.7,16.6-1.8z"/>
			<path d="M26.5-11.8c0,0.9-0.7,1.7-1.7,1.7c-0.9,0-1.7-0.7-1.7-1.7c0-0.9,0.7-1.7,1.7-1.7C25.8-13.4,26.5-12.7,26.5-11.8z"/>
			<path d="M26.1-1.8c0,0.7-0.6,1.3-1.3,1.3c-0.7,0-1.3-0.6-1.3-1.3s0.6-1.3,1.3-1.3C25.6-3.1,26.1-2.5,26.1-1.8z"/>
		</g>
		<g>
			<path d="M11.1-11.8c0,0.9-0.7,1.7-1.7,1.7c-0.9,0-1.7-0.7-1.7-1.7c0-0.9,0.7-1.7,1.7-1.7C10.3-13.4,11.1-12.7,11.1-11.8z"/>
			<path d="M10.7-1.8c0,0.7-0.6,1.3-1.3,1.3C8.7-0.5,8.1-1,8.1-1.8s0.6-1.3,1.3-1.3C10.1-3.1,10.7-2.5,10.7-1.8z"/>
		</g>
		<g>
			<path d="M35.3-26.8c0,1.1-0.9,1.9-1.9,1.9c-1.1,0-1.9-0.9-1.9-1.9s0.9-1.9,1.9-1.9C34.5-28.7,35.3-27.8,35.3-26.8z"/>
			<path d="M35.2-16.8c0,1-0.8,1.8-1.8,1.8c-1,0-1.8-0.8-1.8-1.8s0.8-1.8,1.8-1.8C34.4-18.5,35.2-17.7,35.2-16.8z"/>
			<path d="M35-6.8c0,0.9-0.7,1.6-1.6,1.6c-0.9,0-1.6-0.7-1.6-1.6s0.7-1.6,1.6-1.6C34.3-8.3,35-7.6,35-6.8z"/>
		</g>
		<g>
			<path d="M19.9-26.8c0,1.1-0.9,1.9-1.9,1.9s-1.9-0.9-1.9-1.9s0.9-1.9,1.9-1.9S19.9-27.8,19.9-26.8z"/>
			<path d="M19.7-16.8c0,1-0.8,1.8-1.8,1.8c-1,0-1.8-0.8-1.8-1.8s0.8-1.8,1.8-1.8C19-18.5,19.7-17.7,19.7-16.8z"/>
			<path d="M19.6-6.8c0,0.9-0.7,1.6-1.6,1.6c-0.9,0-1.6-0.7-1.6-1.6s0.7-1.6,1.6-1.6C18.8-8.3,19.6-7.6,19.6-6.8z"/>
			<path d="M29.6-26.8c0,0.9-0.7,1.6-1.6,1.6c-0.9,0-1.6-0.7-1.6-1.6c0-0.9,0.7-1.6,1.6-1.6C28.8-28.3,29.6-27.6,29.6-26.8z"/>
			<path d="M29.3-16.8c0,0.7-0.6,1.3-1.3,1.3c-0.7,0-1.3-0.6-1.3-1.3c0-0.7,0.6-1.3,1.3-1.3C28.7-18.1,29.3-17.5,29.3-16.8z"/>
			<path d="M29.5-6.8c0,0.8-0.7,1.5-1.5,1.5s-1.5-0.7-1.5-1.5s0.7-1.5,1.5-1.5S29.5-7.6,29.5-6.8z"/>
		</g>
		<g>
			<path d="M4.5-26.8c0,1.1-0.9,1.9-1.9,1.9c-1.1,0-1.9-0.9-1.9-1.9s0.9-1.9,1.9-1.9C3.6-28.7,4.5-27.8,4.5-26.8z"/>
			<path d="M4.3-16.8c0,1-0.8,1.8-1.8,1.8c-1,0-1.8-0.8-1.8-1.8s0.8-1.8,1.8-1.8C3.5-18.5,4.3-17.7,4.3-16.8z"/>
			<circle cx="2.6" cy="-6.8" r="1.6"/>
			<path d="M14.1-26.8c0,0.9-0.7,1.6-1.6,1.6S11-25.9,11-26.8c0-0.9,0.7-1.6,1.6-1.6S14.1-27.6,14.1-26.8z"/>
			<path d="M13.9-16.8c0,0.7-0.6,1.3-1.3,1.3c-0.7,0-1.3-0.6-1.3-1.3c0-0.7,0.6-1.3,1.3-1.3C13.3-18.1,13.9-17.5,13.9-16.8z"/>
			<path d="M14-6.8c0,0.8-0.7,1.5-1.5,1.5s-1.5-0.7-1.5-1.5s0.7-1.5,1.5-1.5S14-7.6,14-6.8z"/>
			<path d="M24.4-26.8c0,1-0.8,1.9-1.9,1.9c-1,0-1.9-0.8-1.9-1.9c0-1,0.8-1.9,1.9-1.9C23.6-28.6,24.4-27.8,24.4-26.8z"/>
			<path d="M24.3-16.8c0,1-0.8,1.8-1.8,1.8c-1,0-1.8-0.8-1.8-1.8c0-1,0.8-1.8,1.8-1.8C23.5-18.5,24.3-17.7,24.3-16.8z"/>
			<path d="M24.2-6.8c0,0.9-0.7,1.6-1.6,1.6c-0.9,0-1.6-0.7-1.6-1.6s0.7-1.6,1.6-1.6C23.5-8.4,24.2-7.7,24.2-6.8z"/>
			<path d="M34.2-26.8c0,0.9-0.7,1.7-1.7,1.7c-0.9,0-1.7-0.7-1.7-1.7c0-0.9,0.7-1.7,1.7-1.7C33.5-28.4,34.2-27.7,34.2-26.8z"/>
			<path d="M33.9-16.8c0,0.7-0.6,1.3-1.3,1.3c-0.7,0-1.3-0.6-1.3-1.3c0-0.7,0.6-1.3,1.3-1.3C33.3-18.1,33.9-17.5,33.9-16.8z"/>
			<circle cx="32.6" cy="-6.8" r="1.7"/>
		</g>
		<g>
			<path d="M9-26.8c0,1-0.8,1.9-1.9,1.9s-1.9-0.8-1.9-1.9c0-1,0.8-1.9,1.9-1.9S9-27.8,9-26.8z"/>
			<path d="M8.9-16.8c0,1-0.8,1.8-1.8,1.8s-1.8-0.8-1.8-1.8c0-1,0.8-1.8,1.8-1.8S8.9-17.7,8.9-16.8z"/>
			<circle cx="7.1" cy="-6.8" r="1.6"/>
			<path d="M18.8-26.8c0,0.9-0.7,1.7-1.7,1.7c-0.9,0-1.7-0.7-1.7-1.7c0-0.9,0.7-1.7,1.7-1.7C18-28.4,18.8-27.7,18.8-26.8z"/>
			<path d="M18.4-16.8c0,0.7-0.6,1.3-1.3,1.3c-0.7,0-1.3-0.6-1.3-1.3c0-0.7,0.6-1.3,1.3-1.3C17.8-18.1,18.4-17.5,18.4-16.8z"/>
			<circle cx="17.1" cy="-6.8" r="1.7"/>
		</g>
		<g>
			<path d="M3.4-26.8c0,0.9-0.7,1.7-1.7,1.7c-0.9,0-1.7-0.7-1.7-1.7c0-0.9,0.7-1.7,1.7-1.7C2.6-28.4,3.4-27.7,3.4-26.8z"/>
			<path d="M3-16.8c0,0.7-0.6,1.3-1.3,1.3c-0.7,0-1.3-0.6-1.3-1.3c0-0.7,0.6-1.3,1.3-1.3C2.4-18.1,3-17.5,3-16.8z"/>
			<circle cx="1.7" cy="-6.8" r="1.7"/>
		</g>
		<g>
			<path d="M27.5-31.8c0,1-0.8,1.8-1.8,1.8c-1,0-1.8-0.8-1.8-1.8c0-1,0.8-1.8,1.8-1.8C26.7-33.5,27.5-32.7,27.5-31.8z"/>
			<path d="M27.3-21.8c0,0.9-0.7,1.6-1.6,1.6c-0.9,0-1.6-0.7-1.6-1.6c0-0.9,0.7-1.6,1.6-1.6C26.6-23.3,27.3-22.6,27.3-21.8z"/>
		</g>
		<g>
			<path d="M12-31.8c0,1-0.8,1.8-1.8,1.8c-1,0-1.8-0.8-1.8-1.8c0-1,0.8-1.8,1.8-1.8C11.2-33.5,12-32.7,12-31.8z"/>
			<path d="M11.8-21.8c0,0.9-0.7,1.6-1.6,1.6c-0.9,0-1.6-0.7-1.6-1.6c0-0.9,0.7-1.6,1.6-1.6C11.1-23.3,11.8-22.6,11.8-21.8z"/>
			<path d="M21.6-31.8c0,0.7-0.6,1.3-1.3,1.3c-0.7,0-1.3-0.6-1.3-1.3c0-0.7,0.6-1.3,1.3-1.3C21-33.1,21.6-32.5,21.6-31.8z"/>
			<path d="M21.7-21.8c0,0.8-0.7,1.5-1.5,1.5s-1.5-0.7-1.5-1.5s0.7-1.5,1.5-1.5S21.7-22.6,21.7-21.8z"/>
			<path d="M32-31.8c0,1-0.8,1.8-1.8,1.8c-1,0-1.8-0.8-1.8-1.8c0-1,0.8-1.8,1.8-1.8C31.2-33.5,32-32.7,32-31.8z"/>
			<path d="M31.9-21.8c0,0.9-0.7,1.6-1.6,1.6c-0.9,0-1.6-0.7-1.6-1.6c0-0.9,0.7-1.6,1.6-1.6C31.2-23.4,31.9-22.7,31.9-21.8z"/>
		</g>
		<g>
			<path d="M6.1-31.8c0,0.7-0.6,1.3-1.3,1.3c-0.7,0-1.3-0.6-1.3-1.3c0-0.7,0.6-1.3,1.3-1.3C5.6-33.1,6.1-32.5,6.1-31.8z"/>
			<path d="M6.3-21.8c0,0.8-0.7,1.5-1.5,1.5c-0.8,0-1.5-0.7-1.5-1.5s0.7-1.5,1.5-1.5C5.7-23.2,6.3-22.6,6.3-21.8z"/>
			<path d="M16.6-31.8c0,1-0.8,1.8-1.8,1.8c-1,0-1.8-0.8-1.8-1.8c0-1,0.8-1.8,1.8-1.8C15.8-33.5,16.6-32.7,16.6-31.8z"/>
			<path d="M16.5-21.8c0,0.9-0.7,1.6-1.6,1.6c-0.9,0-1.6-0.7-1.6-1.6c0-0.9,0.7-1.6,1.6-1.6C15.7-23.4,16.5-22.7,16.5-21.8z"/>
			<path d="M26.1-31.8c0,0.7-0.6,1.3-1.3,1.3c-0.7,0-1.3-0.6-1.3-1.3c0-0.7,0.6-1.3,1.3-1.3C25.6-33.1,26.1-32.5,26.1-31.8z"/>
			<circle cx="24.8" cy="-21.8" r="1.7"/>
		</g>
		<g>
			<path d="M10.7-31.8c0,0.7-0.6,1.3-1.3,1.3c-0.7,0-1.3-0.6-1.3-1.3c0-0.7,0.6-1.3,1.3-1.3C10.1-33.1,10.7-32.5,10.7-31.8z"/>
			<path d="M11.1-21.8c0,0.9-0.8,1.7-1.7,1.7c-0.9,0-1.7-0.8-1.7-1.7c0-0.9,0.8-1.7,1.7-1.7C10.4-23.5,11.1-22.7,11.1-21.8z"/>
		</g>
	</g>
</pattern>
<pattern  x="-55" y="-1353" width="82" height="82" patternUnits="userSpaceOnUse" id="puntos" viewBox="13.5 -95.5 82 82" style="overflow:visible;">
	<g>
		<rect x="13.5" y="-95.5" class="st0" width="82" height="82"/>
		<circle class="st1" cx="95.5" cy="-34" r="13"/>
		<circle class="st1" cx="54.5" cy="-13.5" r="13"/>
		<circle class="st1" cx="13.5" cy="-34" r="13"/>
		<circle class="st1" cx="95.5" cy="-75" r="13"/>
		<circle class="st1" cx="54.5" cy="-54.5" r="13"/>
		<circle class="st1" cx="13.5" cy="-75" r="13"/>
		<circle class="st1" cx="54.5" cy="-95.5" r="13"/>
	</g>
</pattern>
<g id="Guías_para_la_mesa_de_trabajo">
</g>
<g id="Capa_1">
	
		<linearGradient id="SVGID_1_" gradientUnits="userSpaceOnUse" x1="3393.6221" y1="530.4668" x2="4154.145" y2="530.4668" gradientTransform="matrix(0 -1 1 0 -0.9668 4239.6221)">
		<stop  offset="0" style="stop-color:#8B6339"/>
		<stop  offset="0.2418" style="stop-color:#8D663C"/>
		<stop  offset="0.4031" style="stop-color:#946E45"/>
		<stop  offset="0.5409" style="stop-color:#9F7D54"/>
		<stop  offset="0.6655" style="stop-color:#AF9169"/>
		<stop  offset="0.7812" style="stop-color:#C3AC85"/>
		<stop  offset="0.8902" style="stop-color:#DCCCA7"/>
		<stop  offset="0.9924" style="stop-color:#FAF2CE"/>
		<stop  offset="0.9993" style="stop-color:#FCF5D1"/>
	</linearGradient>
	<polygon class="st2" points="1058,2 1058,846 1,846 1,2 	"/>
	<g>
		<pattern  id="SVGID_2_" xlink:href="#Motivo_nuevo_2" patternTransform="matrix(1.2961 0 0 1.2961 2356.0981 2699.698)">
		</pattern>
		<path class="st3" d="M49.6,496.8c0,0-3.8-6.5,0.8-5.6c0,0-5.2-5.2,16.7-3c0,0,14.8,1.5,15.7,0.4c0,0-6.5,7.8,17.8,6.1
			c0,0,12.5-3.7,25.6,7.7c0,0,1,0.6,4.6-0.9c0,0,10.2-4,23.3,0c0.3,0.1,2.3,5.1,2.6,5.2c6.2,2,11.5,2.7,18,8c0,0,10.1,4.2,19.5,3.2
			c0,0,20.9-0.2,29.5,10.3c0,0,10.6,5.4,13.7,2.8c0,0,9.8-6.8,28.5,7.9c0,0,25.9-5.1,44.6,9.7c0,0,18.7-9.1,34.2,1.4
			c0,0,27.9-7.2,38.5-1.8c0,0,9.6-3.9,14.5,1.1c0,0,10.7-6.5,19.6-1.7c0,0,11.7-3.2,35-0.6c0,0,24.6-1.3,27.2,0c0,0,14.3-2.6,27.2,0
			c0,0,3.9,0,10.3-0.4c0,0,5.4-1,5.2-2.2c-1.3-7.8,11.4-4,43.9-1.2c0,0,11.1-0.3,15.9-2.3c0,0,16.1-5.2,21.6-1.9
			c0,0,22.8-9.4,31-9.9c0,0,16.8,0.1,26.4-3.9c0,0,10.8-4.4,14.7-1.8c0,0,16.3-8.1,20.2-5.5c0,0,27.1-12.5,31.9-7.5
			c0,0,25.9-12,32.6-9.2c0,0,20.9-7.2,30.7-7c0,0,16.5-11,31.2-12.8c0,0,43.9-19.4,49.4-16.1c0,0,55.1-2.3,55.3-5.2l20.3,8.5
			c-172.3,49.9-161.6,46.5-237.2,70.8c0,0-20.3,3.8-48.9,8.5c-2.2,0.4-4.3,2.7-6.6,3.1c-2.3,0.4-4.8-1.2-7.2-0.8
			c-58.3,9.5-139.3,21.2-160.8,16.5c0,0-163.8,23-261.9-20c0,0-19.7-6.8-40.9-12.6c-4.8-1.3-9.5-1.3-14.3-2.6
			c-5.2-1.4-11.1-4.1-15.6-5.2c-2.5-0.6-0.5-4.8-2.6-5.2c-2.6-0.5-11.1,0.1-13,0c-2.8-0.2-0.9-2.7-3.1-2.8c0,0-20.9,1.8-37.1-8.9
			c-4-2.6-7.8-1.3-11.8-1c-15.3,1.2-28.6-5.2-32.2-5.1L49.6,496.8z"/>
		<pattern  id="SVGID_3_" xlink:href="#puntos" patternTransform="matrix(1.1989 -0.4924 0.4924 1.1989 4735.3726 1020.2947)">
		</pattern>
		<path class="st4" d="M80.5,561.5c0,0-8.8-35.4-7-38c2-3,53.8,21.6,53,27c-0.2,1.3-24.4,29.8-24,31c15,45,93.1,2.8,123,3
			c1.2,0,1.3,23.1,2.4,23.6c8,4,41.2,3.8,54.4,2.9c1.4-0.1-1.3-24.1,0-23.8c7.1,1.6,27.9,22.2,49.1,27.5c13.8,3.4-24-49.2,45.4-8.8
			c0,0,8.6,16.1,21.3,17.9c2.7,0.4,15.3-20.5,18.3-20.1c12.1,1.5,28.7,18.8,42.1,20.6c6.6,0.9,1.9-19.1,8-21.5
			c10.2-3.9,33.4,21.1,44.9,17.9c0,0,8.4-16.4,12.6-15.2c1.9,0.5,3.9,0.8,5.9,0.5c5.1-0.7,14.2-2,25.7-3.6
			c3.8-0.5,16.5,33,20.7,32.4c3.5-0.5-1.6-35.1,2.1-35.7c23-3.4,29-71.4,72-5.4c2.3,3.6,14.2,8.7,18,8c4.2-0.7,1.4-17.3,4.9-17.9
			c6.6-1.3,11.9-2.5,15.2-3.5c0,0,3.4,1.6,5.1-1.3c1.9-3.3,5.7-6.2,10.8-8.9c2.2-1.1,19.3,32.1,22.1,31.1c3.2-1.2-7.9-36.7-4.2-37.8
			c5.9-1.8,12.6-3.4,19.7-5c5.2-1.2,6.6-24.9,12.3-26c5.2-1.1,14.6,20.4,20.1,19.4c9.2-1.8,18.8-3.7,28.4-5.6
			c2.4-0.5,5.2-9.7,7.6-10.2c2.5-0.5,4.6,7.6,7.1,7c3.4-0.8,8.8,9.7,12.1,8.9c1.7-0.4,1.3-12.1,3-12.5c7.3-1.8,11.7-2.4,18.9-4.6
			c4.9-1.5,4.7,4.1,6.4,3.4c1.6-0.7,23.9,25.7,29.8,23.3c7.5-3.1-1.1-35.1,0-36.3c1.6-1.8,5.6-6.7,7.8-7.5
			c7.3-2.4,9.4-20.6,14.9-21.5c4.5-0.8,10.5,24,13.9,23.7c8.5-0.8,83.1,11.8,31.1-24.2"/>
		<g>
			<g>
				<path class="st0" d="M138.5,547.9"/>
			</g>
		</g>
		<g>
			<g>
				<path class="st0" d="M103.2,560.9"/>
			</g>
		</g>
		<g>
			<g>
				
					<pattern  id="SVGID_4_" xlink:href="#Motivo_nuevo_2" patternTransform="matrix(1.1989 -0.4924 0.4924 1.1989 4301.1299 -371.7758)">
				</pattern>
				<path class="st5" d="M902.8,508.6c0,0-26.2,9.9-63.8,23.5c-4.4,1.6-8.9,3.2-13.6,4.9c-4.9,1.8-9.9,3.6-15,5.4
					c-5.3,1.9-10.8,3.9-16.4,5.9C725.7,572.7,643,601,602,610.3c-5.8,1.3-11.7,1.5-17.6,0.4c-27.8-4.8-124.7-16.3-223.7,32.8
					c-5,2.5-10.5,4.1-16.1,4.6c-28,2.7-119.2,13.2-181.3,42.2c0,0-25.8,19-35.3,13.1"/>
			</g>
		</g>
		<g>
			<g>
				<g>
					<pattern  id="SVGID_5_" xlink:href="#puntos" patternTransform="matrix(1.1989 -0.4924 0.4924 1.1989 4708.5049 1100.9158)">
					</pattern>
					<line class="st6" x1="199.7" y1="789" x2="199.7" y2="789"/>
					<pattern  id="SVGID_6_" xlink:href="#puntos" patternTransform="matrix(1.1989 -0.4924 0.4924 1.1989 4708.5049 1100.9158)">
					</pattern>
					<path class="st7" d="M198.2,790.8c-5.2,6.3-22.8,25.7-25,1.7"/>
					<pattern  id="SVGID_7_" xlink:href="#puntos" patternTransform="matrix(1.1989 -0.4924 0.4924 1.1989 4708.5049 1100.9158)">
					</pattern>
					<line class="st8" x1="173.1" y1="791.3" x2="173.1" y2="791.3"/>
					<pattern  id="SVGID_8_" xlink:href="#puntos" patternTransform="matrix(1.1989 -0.4924 0.4924 1.1989 4708.5049 1100.9158)">
					</pattern>
					<path class="st9" d="M171.1,792.5c-6.1,3.4-24,13-26.9,10.5"/>
					<pattern  id="SVGID_9_" xlink:href="#puntos" patternTransform="matrix(1.1989 -0.4924 0.4924 1.1989 4708.5049 1100.9158)">
					</pattern>
					<line class="st10" x1="143.8" y1="801.9" x2="143.8" y2="801.9"/>
				</g>
			</g>
		</g>
		<pattern  id="SVGID_10_" xlink:href="#puntos" patternTransform="matrix(1.2446 -0.5111 0.5111 1.2446 5063.4067 1246.1333)">
		</pattern>
		<path class="st11" d="M261.9,747.7c0,0-25.4,33.7-27.6,2.4c0,0-30.9,17.7-30.4,11"/>
		<pattern  id="SVGID_11_" xlink:href="#puntos" patternTransform="matrix(1.2446 -0.5111 0.5111 1.2446 4994.6226 1226.3898)">
		</pattern>
		<path class="st12" d="M193.1,728c0,0-25.4,33.7-27.6,2.4c0,0-30.9,17.7-30.4,11"/>
		<pattern  id="SVGID_12_" xlink:href="#puntos" patternTransform="matrix(1.2446 -0.5111 0.5111 1.2446 5007.8423 1243.6647)">
		</pattern>
		<path class="st13" d="M308.4,703.3c0,0-25.4,33.7-27.6,2.4c0,0-30.9,17.7-30.4,11"/>
		<pattern  id="SVGID_13_" xlink:href="#puntos" patternTransform="matrix(1.2446 -0.5111 0.5111 1.2446 5125.207 1234.6005)">
		</pattern>
		<path class="st14" d="M425.7,694.3c0,0-25.4,33.7-27.6,2.4c0,0-30.9,17.7-30.4,11"/>
		<pattern  id="SVGID_14_" xlink:href="#puntos" patternTransform="matrix(1.2446 -0.5111 0.5111 1.2446 4995.7739 1246.5677)">
		</pattern>
		<path class="st15" d="M398.4,664.3c0,0-25.4,33.7-27.6,2.4c0,0-30.9,17.7-30.4,11"/>
		<path class="st0" d="M369.2,704.5c0,0-19.8,64.2-21.9,32.9c0,0-36.5-12.7-36-19.4"/>
		<pattern  id="SVGID_15_" xlink:href="#puntos" patternTransform="matrix(1.2446 -0.5111 0.5111 1.2446 5013.5913 1259.5867)">
		</pattern>
		<path class="st16" d="M518.2,635.4c0,0-25.4,33.7-27.6,2.4c0,0-30.9,17.7-30.4,11"/>
		<g>
			<g>
				<g>
					<pattern  id="SVGID_16_" xlink:href="#puntos" patternTransform="matrix(0.801 -0.329 0.329 0.801 1435.5555 -408.0076)">
					</pattern>
					<line class="st17" x1="231.1" y1="701.8" x2="231.1" y2="701.8"/>
					<pattern  id="SVGID_17_" xlink:href="#puntos" patternTransform="matrix(0.801 -0.329 0.329 0.801 1435.5555 -408.0076)">
					</pattern>
					<path class="st18" d="M229.9,703.9c-2.6,4.1-8.6,11.7-9.9-2.4"/>
					<pattern  id="SVGID_18_" xlink:href="#puntos" patternTransform="matrix(0.801 -0.329 0.329 0.801 1435.5555 -408.0076)">
					</pattern>
					<line class="st19" x1="219.8" y1="700.3" x2="219.8" y2="700.3"/>
					<pattern  id="SVGID_19_" xlink:href="#puntos" patternTransform="matrix(0.801 -0.329 0.329 0.801 1435.5555 -408.0076)">
					</pattern>
					<path class="st20" d="M217.8,701.8c-2.9,2.1-8.1,5.7-9.8,5.1"/>
					<pattern  id="SVGID_20_" xlink:href="#puntos" patternTransform="matrix(0.801 -0.329 0.329 0.801 1435.5555 -408.0076)">
					</pattern>
					<line class="st21" x1="207.6" y1="705.9" x2="207.6" y2="705.9"/>
				</g>
			</g>
		</g>
		<g>
			<g>
				<g>
					<pattern  id="SVGID_21_" xlink:href="#puntos" patternTransform="matrix(0.801 -0.329 0.329 0.801 1402.7822 -425.0073)">
					</pattern>
					<line class="st22" x1="105.7" y1="646.1" x2="105.7" y2="646.1"/>
					<pattern  id="SVGID_22_" xlink:href="#puntos" patternTransform="matrix(0.801 -0.329 0.329 0.801 1402.7822 -425.0073)">
					</pattern>
					<path class="st23" d="M104.4,648.2c-2.6,4.1-8.6,11.7-9.9-2.4"/>
					<pattern  id="SVGID_23_" xlink:href="#puntos" patternTransform="matrix(0.801 -0.329 0.329 0.801 1402.7822 -425.0073)">
					</pattern>
					<line class="st24" x1="94.4" y1="644.6" x2="94.4" y2="644.6"/>
					<pattern  id="SVGID_24_" xlink:href="#puntos" patternTransform="matrix(0.801 -0.329 0.329 0.801 1402.7822 -425.0073)">
					</pattern>
					<path class="st25" d="M92.4,646.1c-2.9,2.1-8.1,5.7-9.8,5.1"/>
					<pattern  id="SVGID_25_" xlink:href="#puntos" patternTransform="matrix(0.801 -0.329 0.329 0.801 1402.7822 -425.0073)">
					</pattern>
					<line class="st26" x1="82.1" y1="650.1" x2="82.1" y2="650.1"/>
				</g>
			</g>
		</g>
		<g>
			<g>
				<g>
					<pattern  id="SVGID_26_" xlink:href="#puntos" patternTransform="matrix(0.801 -0.329 0.329 0.801 1494.2338 -292.7785)">
					</pattern>
					<line class="st27" x1="552.5" y1="709.1" x2="552.5" y2="709.1"/>
					<pattern  id="SVGID_27_" xlink:href="#puntos" patternTransform="matrix(0.801 -0.329 0.329 0.801 1494.2338 -292.7785)">
					</pattern>
					<path class="st28" d="M551.3,711.2c-2.6,4.1-8.6,11.7-9.9-2.4"/>
					<pattern  id="SVGID_28_" xlink:href="#puntos" patternTransform="matrix(0.801 -0.329 0.329 0.801 1494.2338 -292.7785)">
					</pattern>
					<line class="st29" x1="541.2" y1="707.6" x2="541.2" y2="707.6"/>
					<pattern  id="SVGID_29_" xlink:href="#puntos" patternTransform="matrix(0.801 -0.329 0.329 0.801 1494.2338 -292.7785)">
					</pattern>
					<path class="st30" d="M539.2,709.1c-2.9,2.1-8.1,5.7-9.8,5.1"/>
					<pattern  id="SVGID_30_" xlink:href="#puntos" patternTransform="matrix(0.801 -0.329 0.329 0.801 1494.2338 -292.7785)">
					</pattern>
					<line class="st31" x1="529" y1="713.2" x2="529" y2="713.2"/>
				</g>
			</g>
		</g>
		<g>
			<g>
				<pattern  id="SVGID_31_" xlink:href="#Motivo_nuevo" patternTransform="matrix(1.2961 0 0 1.2961 2224.7761 1924.8582)">
				</pattern>
				<path class="st32" d="M1014,612.1c0,0-27.1,7-65.9,16.5c-4.5,1.1-9.2,2.3-14,3.4c-5,1.2-10.2,2.5-15.5,3.8
					c-5.5,1.3-11.2,2.7-16.9,4.1c-70.6,16.9-155.9,36.1-197.7,41c-5.9,0.7-11.8,0.2-17.5-1.4c-27.1-7.7-122.3-29.6-225.9,8.6
					c-5.3,1.9-10.9,2.9-16.5,2.9c-28.1-0.4-120,0.3-184.7,22.4c0,0-27.7,16.1-36.5,9.2"/>
			</g>
		</g>
		<g>
			<g>
				<g>
					<pattern  id="SVGID_32_" xlink:href="#puntos" patternTransform="matrix(0.801 -0.329 0.329 0.801 1553.6155 -335.4965)">
					</pattern>
					<line class="st33" x1="175.6" y1="538.5" x2="175.6" y2="538.5"/>
					<pattern  id="SVGID_33_" xlink:href="#puntos" patternTransform="matrix(0.801 -0.329 0.329 0.801 1553.6155 -335.4965)">
					</pattern>
					<path class="st34" d="M174.3,540.6c-2.6,4.1-8.6,11.7-9.9-2.4"/>
					<pattern  id="SVGID_34_" xlink:href="#puntos" patternTransform="matrix(0.801 -0.329 0.329 0.801 1553.6155 -335.4965)">
					</pattern>
					<line class="st35" x1="164.3" y1="537" x2="164.3" y2="537"/>
					<pattern  id="SVGID_35_" xlink:href="#puntos" patternTransform="matrix(0.801 -0.329 0.329 0.801 1553.6155 -335.4965)">
					</pattern>
					<path class="st36" d="M162.3,538.5c-2.9,2.1-8.1,5.7-9.8,5.1"/>
					<pattern  id="SVGID_36_" xlink:href="#puntos" patternTransform="matrix(0.801 -0.329 0.329 0.801 1553.6155 -335.4965)">
					</pattern>
					<line class="st37" x1="152" y1="542.6" x2="152" y2="542.6"/>
				</g>
			</g>
		</g>
		<g>
			<g>
				<g>
					<pattern  id="SVGID_37_" xlink:href="#puntos" patternTransform="matrix(0.801 -0.329 0.329 0.801 1596.6042 -194.1632)">
					</pattern>
					<line class="st38" x1="852" y1="726.8" x2="852" y2="726.8"/>
					<pattern  id="SVGID_38_" xlink:href="#puntos" patternTransform="matrix(0.801 -0.329 0.329 0.801 1596.6042 -194.1632)">
					</pattern>
					<path class="st39" d="M850.7,728.9c-2.6,4.1-8.6,11.7-9.9-2.4"/>
					<pattern  id="SVGID_39_" xlink:href="#puntos" patternTransform="matrix(0.801 -0.329 0.329 0.801 1596.6042 -194.1632)">
					</pattern>
					<line class="st40" x1="840.7" y1="725.3" x2="840.7" y2="725.3"/>
					<pattern  id="SVGID_40_" xlink:href="#puntos" patternTransform="matrix(0.801 -0.329 0.329 0.801 1596.6042 -194.1632)">
					</pattern>
					<path class="st41" d="M838.7,726.8c-2.9,2.1-8.1,5.7-9.8,5.1"/>
					<pattern  id="SVGID_41_" xlink:href="#puntos" patternTransform="matrix(0.801 -0.329 0.329 0.801 1596.6042 -194.1632)">
					</pattern>
					<line class="st42" x1="828.4" y1="730.9" x2="828.4" y2="730.9"/>
				</g>
			</g>
		</g>
		<g>
			<g>
				<g>
					<pattern  id="SVGID_42_" xlink:href="#puntos" patternTransform="matrix(0.801 -0.329 0.329 0.801 1542.4041 -258.382)">
					</pattern>
					<line class="st43" x1="705.1" y1="623.9" x2="705.1" y2="623.9"/>
					<pattern  id="SVGID_43_" xlink:href="#puntos" patternTransform="matrix(0.801 -0.329 0.329 0.801 1542.4041 -258.382)">
					</pattern>
					<path class="st44" d="M703.8,626c-2.6,4.1-8.6,11.7-9.9-2.4"/>
					<pattern  id="SVGID_44_" xlink:href="#puntos" patternTransform="matrix(0.801 -0.329 0.329 0.801 1542.4041 -258.382)">
					</pattern>
					<line class="st45" x1="693.8" y1="622.4" x2="693.8" y2="622.4"/>
					<pattern  id="SVGID_45_" xlink:href="#puntos" patternTransform="matrix(0.801 -0.329 0.329 0.801 1542.4041 -258.382)">
					</pattern>
					<path class="st46" d="M691.8,623.9c-2.9,2.1-8.1,5.7-9.8,5.1"/>
					<pattern  id="SVGID_46_" xlink:href="#puntos" patternTransform="matrix(0.801 -0.329 0.329 0.801 1542.4041 -258.382)">
					</pattern>
					<line class="st47" x1="681.5" y1="627.9" x2="681.5" y2="627.9"/>
				</g>
			</g>
		</g>
		<g>
			<g>
				<g>
					<pattern  id="SVGID_47_" xlink:href="#puntos" patternTransform="matrix(0.801 -0.329 0.329 0.801 1552.5946 -267.1465)">
					</pattern>
					<line class="st48" x1="939.3" y1="599.9" x2="939.3" y2="599.9"/>
					<pattern  id="SVGID_48_" xlink:href="#puntos" patternTransform="matrix(0.801 -0.329 0.329 0.801 1552.5946 -267.1465)">
					</pattern>
					<path class="st49" d="M938.1,602c-2.6,4.1-8.6,11.7-9.9-2.4"/>
					<pattern  id="SVGID_49_" xlink:href="#puntos" patternTransform="matrix(0.801 -0.329 0.329 0.801 1552.5946 -267.1465)">
					</pattern>
					<line class="st50" x1="928" y1="598.4" x2="928" y2="598.4"/>
					<pattern  id="SVGID_50_" xlink:href="#puntos" patternTransform="matrix(0.801 -0.329 0.329 0.801 1552.5946 -267.1465)">
					</pattern>
					<path class="st51" d="M926,599.9c-2.9,2.1-8.1,5.7-9.8,5.1"/>
					<pattern  id="SVGID_51_" xlink:href="#puntos" patternTransform="matrix(0.801 -0.329 0.329 0.801 1552.5946 -267.1465)">
					</pattern>
					<line class="st52" x1="915.8" y1="603.9" x2="915.8" y2="603.9"/>
				</g>
			</g>
		</g>
		<path class="st53" d="M302.5,313c-9.1,14.7-19.1,23.7-26.8,28.9c-7.2,4.9-15.9,6.9-24.5,6.1c-6-0.6-6.8,0.5-20.8,14.7
			c-1.7,1.8-3.8,3.2-6,4.3c-22.2,11.2-26.9,23.6-27.3,31.4c-0.3,5.2,5.9,8.4,9.7,4.9c3-2.7,1.9-6.2,0-9.1c-2.1-3.1-5.3-5.3-8.9-6.2
			c-12.5-3.1-22.7-3.2-30.8-1.9c-13.4,2.1-25.1,10.2-32.2,21.7c-13.8,22.5-10.9,32.5-8.6,38.3c1.5,3.7,6,5.3,9.3,3.2
			c3.5-2.3,3.2-7,1.3-12.4c-7.6-20.8-24.8-23-46.5-18.4c-18.8,4-34.8,21.1-45.6,36.1c-2.1,2.9-3.8,5.7-5.6,8.2
			c-6.5,9.4-11.6-1-11.6-1"/>
		<path class="st53" d="M231.2,447.8c0,0,88.1-13,141.3,86.8c0,0,7.8-123.1,202.2-159.4"/>
		<path class="st53" d="M464.5,538.6c0,0,18.1-79.1,81.7-32.4"/>
		<path class="st53" d="M744.4,485.4c0,0,0-68.7,112.8-71.3"/>
		<path class="st53" d="M638.2,419.3c0,0,7.6-69.7,74.2-63.7c1.7,0.2,3.4,0.8,4.9,1.7c3.3,2.2,8.4,6.9,5.7,13
			c-2.8,6.2-10.8,7.9-16.2,3.8c-6-4.6-7.6-14,25.8-32.4c0.2-0.1,0.3-0.2,0.5-0.2c3-1.5,36.6-18,48.3-29.6c2.3-2.3,3.5-5.5,3-8.8
			c-0.8-6.3-4.1-15.6-17.2-5.7c-2.4,1.8-4,4.7-4.2,7.7c-0.4,7.6,2.7,20.4,31.1,13.3c0.6-0.1,63.3-5.6,100.7-24.9"/>
		<circle class="st54" cx="152.8" cy="617" r="27.9"/>
		<path class="st54" d="M47.2,569.7c0,18.3,14.1,28.4,32.1,33.1c17.1,4.4,32.1-14.8,32.1-33.1c0-18.3-13.5-26.9-30-30.4
			C64,535.6,47.2,551.4,47.2,569.7z"/>
		<g>
			<g>
				<g>
					<pattern  id="SVGID_52_" xlink:href="#puntos" patternTransform="matrix(0.801 -0.329 0.329 0.801 1404.7346 -455.4156)">
					</pattern>
					<line class="st55" x1="409.1" y1="415.1" x2="409.1" y2="415.1"/>
					<pattern  id="SVGID_53_" xlink:href="#puntos" patternTransform="matrix(0.801 -0.329 0.329 0.801 1404.7346 -455.4156)">
					</pattern>
					<path class="st56" d="M407.8,417.2c-2.6,4.1-8.6,11.7-9.9-2.4"/>
					<pattern  id="SVGID_54_" xlink:href="#puntos" patternTransform="matrix(0.801 -0.329 0.329 0.801 1404.7346 -455.4156)">
					</pattern>
					<line class="st57" x1="397.8" y1="413.6" x2="397.8" y2="413.6"/>
					<pattern  id="SVGID_55_" xlink:href="#puntos" patternTransform="matrix(0.801 -0.329 0.329 0.801 1404.7346 -455.4156)">
					</pattern>
					<path class="st58" d="M395.8,415.1c-2.9,2.1-8.1,5.7-9.8,5.1"/>
					<pattern  id="SVGID_56_" xlink:href="#puntos" patternTransform="matrix(0.801 -0.329 0.329 0.801 1404.7346 -455.4156)">
					</pattern>
					<line class="st59" x1="385.5" y1="419.2" x2="385.5" y2="419.2"/>
				</g>
			</g>
		</g>
		<pattern  id="SVGID_57_" xlink:href="#puntos" patternTransform="matrix(1.2446 -0.5111 0.5111 1.2446 5068.5542 1087.8591)">
		</pattern>
		<path class="st60" d="M573.2,463.7c0,0-25.4,33.7-27.6,2.4c0,0-30.9,17.7-30.4,11"/>
		<g>
			<g>
				<g>
					<pattern  id="SVGID_58_" xlink:href="#puntos" patternTransform="matrix(0.801 -0.329 0.329 0.801 1461.5242 -216.5021)">
					</pattern>
					<line class="st61" x1="160.9" y1="472.2" x2="160.9" y2="472.2"/>
					<pattern  id="SVGID_59_" xlink:href="#puntos" patternTransform="matrix(0.801 -0.329 0.329 0.801 1461.5242 -216.5021)">
					</pattern>
					<path class="st62" d="M159.7,474.3c-2.6,4.1-8.6,11.7-9.9-2.4"/>
					<pattern  id="SVGID_60_" xlink:href="#puntos" patternTransform="matrix(0.801 -0.329 0.329 0.801 1461.5242 -216.5021)">
					</pattern>
					<line class="st63" x1="149.6" y1="470.7" x2="149.6" y2="470.7"/>
					<pattern  id="SVGID_61_" xlink:href="#puntos" patternTransform="matrix(0.801 -0.329 0.329 0.801 1461.5242 -216.5021)">
					</pattern>
					<path class="st64" d="M147.6,472.2c-2.9,2.1-8.1,5.7-9.8,5.1"/>
					<pattern  id="SVGID_62_" xlink:href="#puntos" patternTransform="matrix(0.801 -0.329 0.329 0.801 1461.5242 -216.5021)">
					</pattern>
					<line class="st65" x1="137.4" y1="476.3" x2="137.4" y2="476.3"/>
				</g>
			</g>
		</g>
		<g>
			<g>
				<g>
					<pattern  id="SVGID_63_" xlink:href="#puntos" patternTransform="matrix(0.6202 -0.2547 0.2547 0.6202 -521.0792 -1361.9293)">
					</pattern>
					<line class="st66" x1="188.9" y1="344.4" x2="188.9" y2="344.4"/>
					<pattern  id="SVGID_64_" xlink:href="#puntos" patternTransform="matrix(0.6202 -0.2547 0.2547 0.6202 -521.0792 -1361.9293)">
					</pattern>
					<path class="st67" d="M187.3,346.2c-1,1-2.2,2.1-2.9,2.1"/>
					<pattern  id="SVGID_65_" xlink:href="#puntos" patternTransform="matrix(0.6202 -0.2547 0.2547 0.6202 -521.0792 -1361.9293)">
					</pattern>
					<line class="st68" x1="184" y1="347.4" x2="184" y2="347.4"/>
				</g>
			</g>
		</g>
		<g>
			<g>
				<g>
					<pattern  id="SVGID_66_" xlink:href="#puntos" patternTransform="matrix(0.7025 -0.2885 0.2885 0.7025 452.1961 -687.0856)">
					</pattern>
					<line class="st69" x1="306.3" y1="488.5" x2="306.3" y2="488.5"/>
					<pattern  id="SVGID_67_" xlink:href="#puntos" patternTransform="matrix(0.7025 -0.2885 0.2885 0.7025 452.1961 -687.0856)">
					</pattern>
					<path class="st70" d="M305,490.7c-1,1.3-2.2,2.6-2.9,1.3"/>
					<pattern  id="SVGID_68_" xlink:href="#puntos" patternTransform="matrix(0.7025 -0.2885 0.2885 0.7025 452.1961 -687.0856)">
					</pattern>
					<line class="st71" x1="301.8" y1="490.8" x2="301.8" y2="490.8"/>
				</g>
			</g>
		</g>
		<g>
			<g>
				<g>
					<pattern  id="SVGID_69_" xlink:href="#puntos" patternTransform="matrix(0.7025 -0.2885 0.2885 0.7025 518.5121 -731.1719)">
					</pattern>
					<line class="st72" x1="603.1" y1="349.8" x2="603.1" y2="349.8"/>
					<pattern  id="SVGID_70_" xlink:href="#puntos" patternTransform="matrix(0.7025 -0.2885 0.2885 0.7025 518.5121 -731.1719)">
					</pattern>
					<path class="st73" d="M601.7,352c-1,1.3-2.2,2.6-2.9,1.3"/>
					<pattern  id="SVGID_71_" xlink:href="#puntos" patternTransform="matrix(0.7025 -0.2885 0.2885 0.7025 518.5121 -731.1719)">
					</pattern>
					<line class="st74" x1="598.5" y1="352.1" x2="598.5" y2="352.1"/>
				</g>
			</g>
		</g>
		<g>
			<g>
				<g>
					<pattern  id="SVGID_72_" xlink:href="#puntos" patternTransform="matrix(0.6033 -0.2477 0.2477 0.6033 -540.0545 -1550.5377)">
					</pattern>
					<line class="st75" x1="720.8" y1="417.7" x2="720.8" y2="417.7"/>
					<pattern  id="SVGID_73_" xlink:href="#puntos" patternTransform="matrix(0.6033 -0.2477 0.2477 0.6033 -540.0545 -1550.5377)">
					</pattern>
					<path class="st76" d="M719.7,419.6c-0.8,1.2-1.9,2.2-2.5,1.2"/>
					<pattern  id="SVGID_74_" xlink:href="#puntos" patternTransform="matrix(0.6033 -0.2477 0.2477 0.6033 -540.0545 -1550.5377)">
					</pattern>
					<line class="st77" x1="716.9" y1="419.7" x2="716.9" y2="419.7"/>
				</g>
			</g>
		</g>
		<g>
			<g>
				<g>
					<pattern  id="SVGID_75_" xlink:href="#puntos" patternTransform="matrix(0.6033 -0.2477 0.2477 0.6033 -577.6581 -1503.2081)">
					</pattern>
					<line class="st78" x1="584.3" y1="505.7" x2="584.3" y2="505.7"/>
					<pattern  id="SVGID_76_" xlink:href="#puntos" patternTransform="matrix(0.6033 -0.2477 0.2477 0.6033 -577.6581 -1503.2081)">
					</pattern>
					<path class="st79" d="M583.1,507.5c-0.8,1.2-1.9,2.2-2.5,1.2"/>
					<pattern  id="SVGID_77_" xlink:href="#puntos" patternTransform="matrix(0.6033 -0.2477 0.2477 0.6033 -577.6581 -1503.2081)">
					</pattern>
					<line class="st80" x1="580.4" y1="507.6" x2="580.4" y2="507.6"/>
				</g>
			</g>
		</g>
		<path class="st81" d="M342.7,328.6c0,0.7-0.6,1.3-1.3,1.3c-0.7,0-1.3-0.6-1.3-1.3c0-0.7,0.6-1.3,1.3-1.3
			C342.1,327.3,342.7,327.9,342.7,328.6z"/>
		<path class="st81" d="M511.2,468.4c0,0.7-0.6,1.3-1.3,1.3c-0.7,0-1.3-0.6-1.3-1.3c0-0.7,0.6-1.3,1.3-1.3
			C510.7,467.1,511.2,467.7,511.2,468.4z"/>
		<path class="st81" d="M420.5,468.4c0,0.7-0.6,1.3-1.3,1.3c-0.7,0-1.3-0.6-1.3-1.3c0-0.7,0.6-1.3,1.3-1.3
			C419.9,467.1,420.5,467.7,420.5,468.4z"/>
		<path class="st81" d="M647.2,499.7c0,0.7-0.6,1.3-1.3,1.3c-0.7,0-1.3-0.6-1.3-1.3c0-0.7,0.6-1.3,1.3-1.3
			C646.7,498.4,647.2,499,647.2,499.7z"/>
		<path class="st81" d="M459.4,546.2c0,0.7-0.6,1.3-1.3,1.3c-0.7,0-1.3-0.6-1.3-1.3s0.6-1.3,1.3-1.3
			C458.8,544.9,459.4,545.4,459.4,546.2z"/>
		<path class="st81" d="M227.5,517.4c0,0.7-0.6,1.3-1.3,1.3s-1.3-0.6-1.3-1.3s0.6-1.3,1.3-1.3S227.5,516.7,227.5,517.4z"/>
		<path class="st81" d="M98.2,393.9c0,0.7-0.6,1.3-1.3,1.3s-1.3-0.6-1.3-1.3c0-0.7,0.6-1.3,1.3-1.3S98.2,393.2,98.2,393.9z"/>
		<circle class="st81" cx="674" cy="443" r="0.5"/>
		<path class="st81" d="M815.6,461.7c0,0.3-0.2,0.5-0.5,0.5c-0.3,0-0.5-0.2-0.5-0.5c0-0.3,0.2-0.5,0.5-0.5
			C815.4,461.2,815.6,461.4,815.6,461.7z"/>
		<circle class="st81" cx="533.4" cy="366.6" r="3"/>
		<g>
			<g>
				<g>
					<pattern  id="SVGID_78_" xlink:href="#puntos" patternTransform="matrix(0.7025 -0.2885 0.2885 0.7025 483.5372 -771.4525)">
					</pattern>
					<line class="st82" x1="93.9" y1="302.3" x2="93.9" y2="302.3"/>
					<pattern  id="SVGID_79_" xlink:href="#puntos" patternTransform="matrix(0.7025 -0.2885 0.2885 0.7025 483.5372 -771.4525)">
					</pattern>
					<path class="st83" d="M92.5,304.5c-1,1.3-2.2,2.6-2.9,1.3"/>
					<pattern  id="SVGID_80_" xlink:href="#puntos" patternTransform="matrix(0.7025 -0.2885 0.2885 0.7025 483.5372 -771.4525)">
					</pattern>
					<line class="st84" x1="89.3" y1="304.6" x2="89.3" y2="304.6"/>
				</g>
			</g>
		</g>
		<path class="st85" d="M318.7,436.8c0,0.7-0.6,1.3-1.3,1.3c-0.7,0-1.3-0.6-1.3-1.3c0-0.7,0.6-1.3,1.3-1.3
			C318.1,435.5,318.7,436.1,318.7,436.8z"/>
		<path class="st85" d="M550.7,395.4c0,0.7-0.6,1.3-1.3,1.3c-0.7,0-1.3-0.6-1.3-1.3c0-0.7,0.6-1.3,1.3-1.3
			C550.1,394.1,550.7,394.6,550.7,395.4z"/>
		<path class="st85" d="M443.1,329.2c0,0.7-0.6,1.3-1.3,1.3c-0.7,0-1.3-0.6-1.3-1.3c0-0.7,0.6-1.3,1.3-1.3
			C442.5,328,443.1,328.5,443.1,329.2z"/>
		<path class="st85" d="M863,366.8c0,0.7-0.6,1.3-1.3,1.3s-1.3-0.6-1.3-1.3c0-0.7,0.6-1.3,1.3-1.3S863,366.1,863,366.8z"/>
		<path class="st53" d="M299.9,314.3"/>
		<path class="st53" d="M303,316.1"/>
		<path class="st53" d="M300.7,314.9"/>
		<path class="st53" d="M230.5,447.5"/>
		<path class="st53" d="M232.6,448.9"/>
		<polyline class="st53" points="29,193.8 29,190.3 31.4,192.8 		"/>
		<path class="st53" d="M572.4,377.7"/>
		<path class="st53" d="M574.7,376.6"/>
		<path class="st53" d="M572,375.1"/>
		<path class="st53" d="M743.7,484.5"/>
		<path class="st53" d="M411.3,358.4c0,0,16.8,32.4,75.2,22"/>
		<path class="st53" d="M485.7,381.9"/>
		<path class="st53" d="M487,379.7"/>
		<path class="st53" d="M484.5,379.7"/>
		<path class="st81" d="M179.3,608.6c0,0.7-0.6,1.3-1.3,1.3s-1.3-0.6-1.3-1.3c0-0.7,0.6-1.3,1.3-1.3S179.3,607.8,179.3,608.6z"/>
		<g>
			<g>
				<g>
					<line class="st86" x1="230.1" y1="447.9" x2="231.2" y2="447.8"/>
					<g>
						<polygon points="231.7,450 230.8,447.8 231.7,445.7 226.6,447.9 						"/>
					</g>
				</g>
			</g>
		</g>
		<g>
			<g>
				<g>
					<line class="st86" x1="27.8" y1="461.7" x2="28.7" y2="463.1"/>
					<g>
						<polygon points="26.8,464.2 28.2,462.3 30.5,462 26,458.7 						"/>
					</g>
				</g>
			</g>
		</g>
		<g>
			<g>
				<g>
					<line class="st86" x1="302.5" y1="313.4" x2="301.5" y2="314.8"/>
					<g>
						<polygon points="299.8,313.4 302.1,314 303.3,316.1 304.6,310.6 						"/>
					</g>
				</g>
			</g>
		</g>
		<g>
			<g>
				<g>
					<line class="st86" x1="574.4" y1="375" x2="572.1" y2="375.3"/>
					<g>
						<polygon points="572.5,373 573.7,375.1 573.1,377.3 577.9,374.5 						"/>
					</g>
				</g>
			</g>
		</g>
		<g>
			<g>
				<g>
					<polygon points="410.6,360.8 411.5,358.6 413.7,357.6 408.5,355.6 					"/>
				</g>
			</g>
		</g>
		<g>
			<g>
				<g>
					<line class="st86" x1="486.6" y1="380.1" x2="485.1" y2="380.8"/>
					<g>
						<polygon points="484.2,378.8 486,380.4 486,382.8 489.8,378.6 						"/>
					</g>
				</g>
			</g>
		</g>
		<path class="st85" d="M519.6,544.4c0,0.7-0.6,1.3-1.3,1.3s-1.3-0.6-1.3-1.3s0.6-1.3,1.3-1.3S519.6,543.7,519.6,544.4z"/>
		<g>
			<g>
				<g>
					<line class="st86" x1="464.6" y1="538.7" x2="465.1" y2="536.4"/>
					<g>
						<polygon points="467.1,537.6 464.8,538 462.8,536.6 463.8,542.1 						"/>
					</g>
				</g>
			</g>
		</g>
		<g>
			<g>
				<g>
					<line class="st86" x1="546.5" y1="506.9" x2="544.9" y2="505.1"/>
					<g>
						<polygon points="547,504.2 546,506.3 543.7,507.1 548.7,509.6 						"/>
					</g>
				</g>
			</g>
		</g>
		<g>
			<g>
				<g>
					<line class="st86" x1="744.3" y1="486.3" x2="744.4" y2="484.1"/>
					<g>
						<polygon points="746.6,484.9 744.3,485.6 742.2,484.5 744,489.9 						"/>
					</g>
				</g>
			</g>
		</g>
		<g>
			<g>
				<g>
					<line class="st86" x1="857.6" y1="414" x2="855.1" y2="413.9"/>
					<g>
						<polygon points="856,411.8 856.9,414 855.9,416.1 861.1,414.1 						"/>
					</g>
				</g>
			</g>
		</g>
		<g>
			<g>
				<g>
					<line class="st86" x1="638" y1="419.8" x2="638.2" y2="418"/>
					<g>
						<polygon points="640.3,418.3 638.1,419.1 636,418 637.7,423.3 						"/>
					</g>
				</g>
			</g>
		</g>
		<g>
			<g>
				<g>
					<line class="st86" x1="896.2" y1="293" x2="893.9" y2="293.8"/>
					<g>
						<polygon points="893.9,291.5 895.5,293.2 895.3,295.6 899.5,291.8 						"/>
					</g>
				</g>
			</g>
		</g>
		<path class="st87" d="M58.2,591.1c0,0,9.1-15.6,32.4-5.2c23.3,10.4,31.1,20.7,31.1,20.7s13,20.7-35,9.1
			C86.7,615.7,43.9,622.2,58.2,591.1z"/>
		<path class="st53" d="M588.3,575.5c0,0-13-3.9-14.3,2.6c0,0-2.6,14.3,13,9.1C587,587.2,602.5,582,588.3,575.5z"/>
		<path class="st88" d="M793.7,618.9c0,0-28.5-1.3-27.2,16.8c0,0,5.2,18.1,29.8,9.1c0,0,14.4-6.7,20.9-7.8c2.2-0.4,4.2-1.7,5.1-3.7
			c1-2.3,0.6-4.7-6.6-4C815.7,629.3,815.7,612.4,793.7,618.9z"/>
		<g>
			<path class="st0" d="M382.2,491.3c0,0,48-151.6,250.1-154.2"/>
			<path class="st54" d="M374.4,443.8c0.6-1.1,1.4-1.9,2.2-2.6c0.8-0.7,1.8-1.1,2.7-1.4c1-0.3,1.9-0.3,2.9-0.2s1.9,0.5,2.9,1
				c1.4,0.8,2.5,1.8,3.1,3s0.9,2.6,0.7,4.3l0.1,0c0.6-0.5,1.1-0.9,1.8-1.1c0.6-0.2,1.3-0.3,1.9-0.3s1.3,0.2,2,0.4
				c0.7,0.2,1.3,0.5,2,0.8c0.4,0.2,0.9,0.4,1.4,0.7s1.1,0.5,1.6,0.8c0.6,0.3,1.1,0.5,1.7,0.6c0.6,0.2,1.1,0.2,1.5,0.2l-3.1,5.3
				c-0.9-0.2-1.9-0.5-3-1c-1.1-0.5-2.2-1-3.2-1.5c-1.4-0.6-2.5-0.7-3.4-0.5c-0.9,0.2-1.8,1-2.5,2.3l-3.1,5.3l9.4,5.5l-3.1,5.3
				l-24-14L374.4,443.8z M384.1,452c0.7-1.2,1-2.3,0.8-3.2c-0.2-0.9-0.9-1.7-2.1-2.4c-1.2-0.7-2.2-0.9-3.1-0.6
				c-0.9,0.3-1.7,1.1-2.4,2.3l-3.4,5.8l6.8,3.9L384.1,452z"/>
			<path class="st54" d="M395.5,413.4l4.1,3.1l-8.8,11.7l4.8,3.6l8.1-10.8l3.8,2.8l-8.1,10.8l5.4,4.1l9-12l4.1,3.1l-12.6,16.9
				l-22.2-16.6L395.5,413.4z"/>
			<path class="st54" d="M404.4,403.4l16.7,15.3l9.2-10l3.8,3.5l-13.3,14.5l-20.4-18.8L404.4,403.4z"/>
			<path class="st54" d="M428.4,379.9l26.2,13.9l-4.7,4.2l-5.7-3.2l-7.8,6.9l2.5,6.1l-4.6,4.1L423.7,384L428.4,379.9z M439.9,392.4
				l-9.4-5.3l-0.1,0.1l4,10L439.9,392.4z"/>
			<path class="st54" d="M438.6,377.7l-3-4.1l18.3-13.5l3,4.1l-6.7,4.9l13.4,18.2l-4.9,3.6l-13.4-18.2L438.6,377.7z"/>
			<path class="st54" d="M463,363.9c-0.3-1.8-0.3-3.6,0-5.4c0.3-1.7,1.1-3.3,2.2-4.8c1.1-1.5,2.6-2.8,4.4-3.8
				c1.9-1.1,3.7-1.7,5.5-1.9c1.8-0.2,3.6,0,5.3,0.6c1.7,0.6,3.2,1.5,4.6,2.7s2.7,2.7,3.7,4.5c1,1.8,1.7,3.5,2,5.4s0.3,3.6,0,5.3
				c-0.4,1.7-1.1,3.3-2.2,4.8c-1.1,1.5-2.6,2.8-4.4,3.8c-1.8,1.1-3.7,1.7-5.5,1.9c-1.8,0.2-3.6,0-5.2-0.5c-1.7-0.5-3.2-1.4-4.6-2.6
				s-2.6-2.7-3.6-4.4C464,367.6,463.4,365.8,463,363.9z M472.4,369.1c0.8,0.8,1.7,1.5,2.6,1.9c1,0.5,2,0.7,3.1,0.7
				c1.1,0,2.2-0.4,3.4-1.1c1.2-0.7,2.1-1.5,2.6-2.4s0.9-1.9,1-3c0.1-1.1,0-2.1-0.4-3.2c-0.3-1.1-0.8-2.1-1.3-3.2
				c-0.6-1.1-1.3-2-2.1-2.9c-0.8-0.9-1.7-1.5-2.7-2c-1-0.5-2-0.7-3.1-0.7c-1.1,0-2.2,0.4-3.4,1.1c-1.2,0.7-2.1,1.5-2.6,2.4
				s-0.9,1.9-1,3c-0.1,1.1,0.1,2.2,0.4,3.3c0.3,1.1,0.8,2.2,1.4,3.3C471,367.3,471.6,368.3,472.4,369.1z"/>
			<path class="st54" d="M500.9,357.8c0.6,0.5,1.2,0.8,1.9,0.9c0.7,0.1,1.4,0.2,2.2,0c0.8-0.1,1.5-0.3,2.3-0.7
				c0.5-0.2,1-0.5,1.5-0.8c0.5-0.3,1-0.7,1.4-1.2s0.7-1,0.8-1.5c0.1-0.6,0.1-1.2-0.2-1.8c-0.3-0.7-0.8-1.1-1.4-1.4
				c-0.6-0.2-1.4-0.3-2.2-0.3c-0.8,0-1.8,0.1-2.7,0.3c-1,0.2-2,0.3-3.1,0.5c-1.1,0.2-2.1,0.3-3.2,0.3c-1.1,0.1-2.1,0-3-0.3
				c-1-0.2-1.8-0.7-2.6-1.3c-0.8-0.6-1.5-1.5-2-2.7c-0.6-1.3-0.8-2.6-0.7-3.8c0.1-1.2,0.5-2.3,1.1-3.4c0.6-1,1.4-2,2.4-2.8
				c1-0.8,2.1-1.5,3.2-2c1.3-0.6,2.7-1,4-1.2c1.4-0.2,2.6-0.2,3.9,0c1.2,0.2,2.4,0.8,3.4,1.6c1,0.8,1.8,1.9,2.5,3.4l-5.4,2.4
				c-0.4-0.7-0.8-1.3-1.3-1.7c-0.5-0.4-1-0.6-1.6-0.7c-0.6-0.1-1.2-0.1-1.8,0.1c-0.6,0.1-1.3,0.4-2,0.7c-0.5,0.2-0.9,0.4-1.3,0.7
				s-0.7,0.6-1,1c-0.3,0.4-0.4,0.8-0.5,1.3s0,1,0.2,1.5c0.2,0.5,0.5,0.9,0.8,1.1c0.3,0.2,0.8,0.3,1.5,0.4c0.7,0,1.6-0.1,2.7-0.2
				c1.1-0.2,2.5-0.4,4.3-0.7c0.5-0.1,1.2-0.2,2.2-0.4c1-0.1,2-0.1,3,0.1s2.1,0.6,3.1,1.2c1,0.6,1.8,1.7,2.4,3.1
				c0.5,1.2,0.8,2.3,0.7,3.5c0,1.2-0.3,2.4-0.9,3.5c-0.6,1.1-1.4,2.2-2.6,3.1s-2.6,1.9-4.3,2.6c-1.4,0.6-2.8,1-4.3,1.3
				c-1.5,0.2-2.9,0.2-4.2-0.1s-2.5-0.9-3.6-1.8c-1.1-0.9-2-2.1-2.6-3.7l5.4-2.4C499.9,356.7,500.4,357.4,500.9,357.8z"/>
		</g>
		<g>
			<path class="st0" d="M613.8,425c0,0,190.6-28.1,343.2-140.3"/>
			<path class="st54" d="M654.6,388.4c1.2-0.3,2.3-0.3,3.4-0.2c1.1,0.2,2,0.5,2.9,1c0.9,0.5,1.6,1.2,2.1,2s1,1.7,1.2,2.8
				c0.4,1.6,0.4,3,0,4.4c-0.4,1.3-1.3,2.5-2.7,3.4l0,0.1c0.8,0,1.5,0.2,2,0.5c0.6,0.3,1.1,0.7,1.5,1.2s0.8,1.1,1.1,1.7
				c0.3,0.7,0.5,1.3,0.8,2c0.1,0.4,0.3,0.9,0.4,1.5s0.3,1.2,0.5,1.7c0.2,0.6,0.4,1.1,0.7,1.7c0.3,0.5,0.6,0.9,0.9,1.2l-5.9,1.4
				c-0.5-0.8-1-1.8-1.3-2.9c-0.4-1.2-0.7-2.3-1.1-3.3c-0.5-1.4-1.2-2.3-2-2.8c-0.8-0.5-2-0.6-3.4-0.2l-5.9,1.4l2.4,10.6l-5.9,1.4
				l-6.3-27L654.6,388.4z M655.3,401.2c1.4-0.3,2.3-0.9,2.9-1.6c0.5-0.8,0.7-1.8,0.3-3.2c-0.3-1.3-0.9-2.2-1.7-2.6s-1.9-0.5-3.3-0.2
				l-6.5,1.5l1.8,7.6L655.3,401.2z"/>
			<path class="st54" d="M686.7,380.3l1.3,5l-14.2,3.7l1.5,5.8l13-3.4l1.2,4.6l-13,3.4l1.7,6.6l14.5-3.8l1.3,5l-20.4,5.4l-7.1-26.9
				L686.7,380.3z"/>
			<path class="st54" d="M696.1,377.6l6.3,21.7l13-3.8l1.4,4.9L698,406l-7.7-26.7L696.1,377.6z"/>
			<path class="st54" d="M724.9,368.8l18.3,23.3l-6,1.9l-3.9-5.3l-9.9,3.1l-0.2,6.6l-5.9,1.9l1.6-29.6L724.9,368.8z M730.4,385
				l-6.4-8.6l-0.1,0l-0.4,10.8L730.4,385z"/>
			<path class="st54" d="M732.7,371.8l-1.7-4.9l21.5-7.4l1.7,4.9l-7.9,2.7l7.3,21.4l-5.8,2l-7.3-21.4L732.7,371.8z"/>
			<path class="st54" d="M757.4,366.6c0-1.9,0.3-3.6,0.9-5.3c0.6-1.6,1.6-3.1,2.9-4.4c1.3-1.3,3-2.3,5-3.1c2-0.8,3.9-1.1,5.8-1
				c1.8,0.1,3.5,0.6,5.1,1.4s2.9,2,4.1,3.4c1.2,1.4,2.2,3.1,2.9,5.1c0.7,1.9,1.1,3.8,1.1,5.6c0,1.9-0.3,3.6-0.9,5.2
				c-0.6,1.6-1.6,3.1-2.9,4.4c-1.3,1.3-3,2.3-5,3.1c-2,0.7-3.9,1.1-5.8,1c-1.8-0.1-3.5-0.5-5.1-1.3c-1.5-0.8-2.9-1.9-4.1-3.3
				c-1.2-1.4-2.2-3.1-2.9-5C757.8,370.3,757.4,368.4,757.4,366.6z M765.8,373.2c0.6,0.9,1.4,1.7,2.3,2.3c0.9,0.6,1.8,1,2.9,1.2
				c1.1,0.2,2.3,0,3.6-0.5s2.3-1.1,3-2c0.7-0.8,1.2-1.8,1.4-2.8c0.2-1,0.3-2.1,0.2-3.2c-0.1-1.1-0.4-2.2-0.8-3.3
				c-0.4-1.1-1-2.2-1.6-3.2c-0.7-1-1.4-1.8-2.3-2.4c-0.9-0.6-1.9-1-2.9-1.2c-1.1-0.2-2.3,0-3.6,0.5c-1.3,0.5-2.3,1.1-3,2
				c-0.7,0.8-1.2,1.8-1.4,2.8c-0.2,1-0.3,2.2-0.1,3.3c0.1,1.2,0.4,2.3,0.9,3.5C764.7,371.2,765.2,372.2,765.8,373.2z"/>
			<path class="st54" d="M794.5,365.9c0.6,0.5,1.2,0.8,1.8,0.9c0.7,0.2,1.4,0.2,2.2,0.1c0.8-0.1,1.5-0.3,2.3-0.6
				c0.5-0.2,1-0.5,1.6-0.8c0.5-0.3,1-0.7,1.4-1.2c0.4-0.4,0.7-0.9,0.9-1.5c0.2-0.6,0.1-1.2-0.2-1.8c-0.3-0.7-0.7-1.2-1.4-1.4
				c-0.6-0.2-1.3-0.4-2.2-0.4c-0.8,0-1.8,0.1-2.8,0.3c-1,0.2-2,0.3-3.1,0.4c-1.1,0.2-2.1,0.2-3.2,0.3c-1.1,0-2.1-0.1-3-0.3
				s-1.8-0.7-2.6-1.3c-0.8-0.6-1.4-1.6-1.9-2.7c-0.5-1.3-0.7-2.6-0.6-3.8c0.2-1.2,0.6-2.3,1.2-3.3c0.6-1,1.5-1.9,2.5-2.7
				c1-0.8,2.1-1.4,3.3-1.9c1.3-0.6,2.7-0.9,4-1.1c1.4-0.2,2.7-0.2,3.9,0.1c1.2,0.3,2.3,0.8,3.3,1.6c1,0.8,1.8,2,2.4,3.4l-5.5,2.2
				c-0.4-0.7-0.8-1.3-1.3-1.7c-0.5-0.4-1-0.6-1.6-0.7c-0.6-0.1-1.2-0.1-1.8,0c-0.6,0.1-1.3,0.3-2,0.6c-0.5,0.2-0.9,0.4-1.3,0.7
				c-0.4,0.3-0.8,0.6-1,1c-0.3,0.4-0.5,0.8-0.5,1.3c-0.1,0.5,0,1,0.2,1.5c0.2,0.5,0.5,0.9,0.8,1.1c0.3,0.2,0.8,0.4,1.5,0.4
				s1.6,0,2.7-0.2c1.1-0.1,2.5-0.3,4.3-0.6c0.5-0.1,1.3-0.2,2.2-0.3c1-0.1,2,0,3,0.2c1.1,0.2,2.1,0.6,3.1,1.3c1,0.7,1.8,1.7,2.4,3.2
				c0.5,1.2,0.7,2.4,0.7,3.6c0,1.2-0.4,2.3-1,3.4c-0.6,1.1-1.5,2.1-2.6,3.1c-1.2,1-2.6,1.8-4.4,2.5c-1.4,0.6-2.9,1-4.3,1.2
				c-1.5,0.2-2.9,0.1-4.2-0.2c-1.3-0.3-2.5-0.9-3.6-1.8c-1.1-0.9-1.9-2.2-2.5-3.7l5.5-2.2C793.5,364.8,794,365.4,794.5,365.9z"/>
		</g>
		<g>
			<path class="st0" d="M148,478.9c0,0,22.5-157.5,221.5-193.1"/>
			<path class="st54" d="M132,434.6l29.6,0l-2.2,5.9l-6.5-0.2l-3.7,9.7l5,4.2l-2.2,5.8l-22.3-19.6L132,434.6z M148.1,440.2
				l-10.8-0.3l0,0.1l8.3,7L148.1,440.2z"/>
			<path class="st54" d="M153,407.2c-0.7,0.1-1.3,0.2-2,0.5c-0.6,0.3-1.2,0.7-1.8,1.2c-0.5,0.5-1,1.1-1.3,1.7
				c-0.6,1.2-0.9,2.4-0.9,3.5c0,1.1,0.3,2.1,0.8,3.1c0.5,0.9,1.2,1.8,2.1,2.6c0.9,0.8,1.9,1.4,3,2c1,0.5,2.1,0.9,3.2,1.2
				c1.1,0.3,2.2,0.3,3.2,0.2s2-0.5,3-1.1c0.9-0.6,1.7-1.5,2.3-2.7c0.9-1.7,1-3.2,0.5-4.7c-0.5-1.5-1.6-2.7-3.1-3.8l2.7-5.2
				c1.5,0.9,2.7,2,3.6,3.2c0.9,1.2,1.6,2.5,2,3.9c0.4,1.4,0.5,2.8,0.3,4.4c-0.2,1.5-0.7,3-1.5,4.5c-1,1.9-2.2,3.4-3.6,4.6
				s-3,2-4.7,2.4c-1.7,0.4-3.5,0.5-5.3,0.3s-3.7-0.8-5.5-1.8c-1.8-1-3.4-2.1-4.7-3.5c-1.3-1.4-2.3-2.9-2.9-4.5
				c-0.6-1.6-0.9-3.4-0.8-5.2c0.1-1.9,0.7-3.7,1.6-5.6c0.7-1.4,1.6-2.5,2.6-3.5c1-1,2.2-1.8,3.4-2.4c1.2-0.6,2.6-0.9,4-0.9
				c1.4,0,2.9,0.2,4.4,0.8l-2.7,5.2C154.3,407.3,153.6,407.2,153,407.2z"/>
			<path class="st54" d="M186.2,389c0.3,2.8-0.6,5.7-2.7,8.7c-2.1,3.1-4.5,5-7.2,5.7c-2.7,0.7-5.6-0.1-8.7-2.2l-14.2-9.7l3.4-5
				l14.2,9.7c0.6,0.4,1.3,0.8,1.9,1.1c0.7,0.3,1.4,0.4,2,0.4c0.7,0,1.4-0.2,2.1-0.7c0.7-0.4,1.4-1.1,2.1-2.2
				c1.2-1.8,1.7-3.3,1.3-4.5c-0.3-1.2-1.4-2.4-3.1-3.6l-14.2-9.7l3.4-5l14.2,9.7C184.1,383.8,185.8,386.2,186.2,389z"/>
			<path class="st54" d="M177.9,358.3l18.5,8l0.1-0.1l-10.1-17.3l5.8-6.4l20.6,18.6l-3.8,4.2l-14.6-13.2l-0.1,0.1l10.1,18.2
				l-3.1,3.5l-19-8l-0.1,0.1l14.5,13l-3.8,4.2l-20.6-18.6L177.9,358.3z"/>
			<path class="st54" d="M231,342.6c-0.4,2.8-2,5.3-4.9,7.7c-2.9,2.4-5.7,3.6-8.4,3.6c-2.7,0-5.3-1.5-7.8-4.4l-11.2-13.1l4.6-4
				l11.2,13.1c0.5,0.6,1,1.1,1.6,1.6c0.6,0.5,1.2,0.8,1.9,0.9c0.7,0.2,1.4,0.1,2.2-0.1c0.8-0.2,1.7-0.7,2.6-1.5
				c1.7-1.4,2.5-2.8,2.5-4c0-1.3-0.7-2.7-2-4.3L212.1,325l4.6-4l11.2,13.1C230.4,337.1,231.4,339.9,231,342.6z"/>
			<path class="st54" d="M228.3,312.8l12.8,18.6l11.1-7.7l2.9,4.2l-16.2,11.1l-15.7-22.9L228.3,312.8z"/>
			<path class="st54" d="M256.7,295.2l22.6,19.2l-5.5,3.1l-4.8-4.4l-9.1,5.1l1.1,6.5l-5.4,3l-4.4-29.4L256.7,295.2z M265.3,309.9
				l-8-7.2l-0.1,0l1.8,10.7L265.3,309.9z"/>
			<path class="st54" d="M281.4,283.2c1.6-0.7,3.3-1.1,4.9-1.2c1.6-0.1,3.2,0.2,4.7,0.7c1.5,0.6,2.9,1.5,4.1,2.9
				c1.3,1.3,2.4,3,3.3,5.1c0.8,1.9,1.3,3.7,1.5,5.4c0.2,1.8,0.1,3.4-0.4,5c-0.5,1.6-1.3,3-2.4,4.3c-1.2,1.3-2.7,2.3-4.7,3.2l-11,4.8
				L270.4,288L281.4,283.2z M290.1,304.1c0.8-0.4,1.5-0.8,2.2-1.4c0.6-0.6,1.1-1.3,1.5-2.2c0.3-0.9,0.5-1.9,0.4-3
				c-0.1-1.1-0.4-2.4-1-3.8c-0.6-1.3-1.2-2.4-1.9-3.3c-0.7-0.9-1.5-1.6-2.4-2.1c-0.9-0.5-1.9-0.7-3-0.7c-1.1,0-2.4,0.3-3.7,0.9
				l-4,1.7l7,16L290.1,304.1z"/>
			<path class="st54" d="M301.7,283.6c0-1.9,0.4-3.6,1.1-5.3c0.7-1.6,1.7-3.1,3.1-4.3c1.4-1.2,3.1-2.2,5.1-2.9c2-0.7,4-0.9,5.8-0.7
				c1.8,0.2,3.5,0.7,5,1.6c1.5,0.9,2.9,2.1,4,3.6c1.1,1.5,2,3.2,2.7,5.2c0.6,1.9,0.9,3.8,0.9,5.7c0,1.9-0.4,3.6-1.1,5.2
				c-0.7,1.6-1.7,3-3.1,4.2c-1.4,1.2-3.1,2.2-5.1,2.8c-2,0.7-4,0.9-5.8,0.7c-1.8-0.2-3.5-0.7-5-1.6c-1.5-0.9-2.8-2-4-3.5
				c-1.1-1.5-2-3.2-2.7-5.1C302,287.4,301.7,285.5,301.7,283.6z M309.9,290.6c0.6,1,1.3,1.8,2.2,2.4c0.8,0.7,1.8,1.1,2.9,1.3
				c1.1,0.2,2.3,0.1,3.6-0.3c1.3-0.4,2.3-1,3.1-1.8c0.7-0.8,1.3-1.7,1.6-2.7c0.3-1,0.4-2.1,0.3-3.2c-0.1-1.1-0.3-2.3-0.7-3.4
				c-0.4-1.2-0.9-2.2-1.5-3.2c-0.6-1-1.3-1.8-2.2-2.5c-0.8-0.7-1.8-1.1-2.9-1.3c-1.1-0.2-2.3-0.1-3.6,0.3s-2.3,1-3.1,1.9
				c-0.7,0.8-1.3,1.7-1.5,2.8c-0.3,1-0.4,2.1-0.3,3.3c0.1,1.2,0.3,2.3,0.7,3.5C308.8,288.6,309.3,289.6,309.9,290.6z"/>
			<path class="st54" d="M339.8,285.2c0.5,0.6,1,1,1.7,1.2s1.3,0.4,2.1,0.4s1.6-0.1,2.3-0.3c0.5-0.1,1.1-0.3,1.7-0.5
				c0.6-0.2,1.1-0.5,1.6-0.9c0.5-0.4,0.8-0.8,1.1-1.4c0.2-0.5,0.3-1.1,0.1-1.8c-0.2-0.7-0.6-1.3-1.1-1.6c-0.6-0.3-1.3-0.6-2.1-0.7
				c-0.8-0.1-1.8-0.2-2.8-0.2c-1,0-2,0-3.1,0c-1.1,0-2.1-0.1-3.2-0.2c-1-0.1-2-0.4-2.9-0.8s-1.7-1-2.4-1.7c-0.7-0.8-1.2-1.8-1.5-3
				c-0.3-1.4-0.3-2.7,0-3.8c0.3-1.2,0.9-2.2,1.7-3.1c0.8-0.9,1.8-1.7,2.9-2.3c1.1-0.6,2.3-1.1,3.5-1.4c1.4-0.3,2.8-0.5,4.2-0.5
				c1.4,0,2.7,0.2,3.8,0.7c1.2,0.5,2.2,1.2,3.1,2.1c0.9,1,1.5,2.2,1.9,3.8l-5.7,1.4c-0.2-0.8-0.6-1.4-1-1.9c-0.4-0.5-0.9-0.8-1.5-1
				c-0.6-0.2-1.2-0.3-1.8-0.2c-0.6,0-1.3,0.1-2.1,0.3c-0.5,0.1-0.9,0.3-1.4,0.5c-0.5,0.2-0.8,0.5-1.2,0.8c-0.3,0.3-0.6,0.7-0.7,1.2
				c-0.2,0.4-0.2,0.9,0,1.5c0.1,0.5,0.3,0.9,0.6,1.2c0.3,0.3,0.8,0.5,1.4,0.6c0.7,0.1,1.5,0.2,2.7,0.2c1.1,0,2.6,0,4.4,0.1
				c0.5,0,1.3,0,2.2,0c1,0,1.9,0.3,3,0.6c1,0.4,2,1,2.8,1.8c0.9,0.8,1.5,2,1.9,3.5c0.3,1.2,0.3,2.4,0.1,3.6
				c-0.2,1.2-0.7,2.3-1.5,3.3c-0.8,1-1.8,1.9-3.1,2.6c-1.3,0.8-2.9,1.4-4.7,1.8c-1.5,0.4-3,0.5-4.5,0.5c-1.5,0-2.9-0.3-4.1-0.8
				c-1.3-0.5-2.4-1.3-3.3-2.4c-0.9-1.1-1.6-2.4-2-4.1l5.7-1.4C339,283.9,339.3,284.7,339.8,285.2z"/>
		</g>
		<g>
			<path class="st0" d="M311,201.5c0,0,192.3-11.3,354.2-109.7"/>
			<path class="st54" d="M360.7,167.8l0.7,5.1l-14.5,2l0.8,5.9L361,179l0.7,4.7l-13.3,1.9l0.9,6.7l14.8-2.1l0.7,5.1l-20.9,2.9
				l-3.8-27.5L360.7,167.8z"/>
			<path class="st54" d="M372.6,165.9l9.7,17.7l0.1,0l2.8-19.9l8.5-1.5l4.7,27.4l-5.6,1l-3.4-19.4l-0.1,0l-3.3,20.5l-4.6,0.8l-10-18
				l-0.1,0l3.3,19.2l-5.6,1l-4.7-27.4L372.6,165.9z"/>
			<path class="st54" d="M418.4,157.1l1,5l-14.4,3l1.2,5.8l13.2-2.7l1,4.6l-13.2,2.7l1.4,6.7l14.7-3l1,5l-20.6,4.2l-5.6-27.2
				L418.4,157.1z"/>
			<path class="st54" d="M436.5,152.9c1.2-0.3,2.3-0.3,3.4-0.2c1.1,0.2,2,0.5,2.9,1c0.9,0.5,1.6,1.2,2.1,2c0.6,0.8,1,1.7,1.2,2.8
				c0.4,1.6,0.4,3,0,4.4c-0.4,1.3-1.3,2.5-2.7,3.4l0,0.1c0.8,0,1.5,0.2,2,0.5c0.6,0.3,1.1,0.7,1.5,1.2c0.4,0.5,0.8,1.1,1.1,1.7
				c0.3,0.6,0.6,1.3,0.8,2c0.1,0.4,0.3,0.9,0.4,1.5c0.2,0.6,0.3,1.2,0.6,1.7c0.2,0.6,0.4,1.1,0.7,1.7c0.3,0.5,0.6,0.9,0.9,1.2
				l-5.9,1.4c-0.5-0.8-1-1.8-1.3-2.9c-0.4-1.2-0.7-2.3-1.1-3.3c-0.5-1.4-1.2-2.3-2-2.8c-0.8-0.5-2-0.6-3.4-0.2l-5.9,1.4l2.5,10.6
				l-5.9,1.4l-6.3-27L436.5,152.9z M437.3,165.7c1.4-0.3,2.3-0.9,2.9-1.6c0.5-0.8,0.6-1.8,0.3-3.2c-0.3-1.3-0.9-2.2-1.7-2.6
				c-0.8-0.4-1.9-0.5-3.3-0.2l-6.5,1.5l1.8,7.6L437.3,165.7z"/>
			<path class="st54" d="M471.4,172.4c-1.1,0.9-2.4,1.5-3.7,1.8c-2.1,0.5-4,0.7-5.8,0.4c-1.8-0.3-3.5-0.9-4.9-1.8
				c-1.5-1-2.7-2.2-3.8-3.7c-1.1-1.5-1.8-3.3-2.4-5.2c-0.5-2-0.7-3.9-0.6-5.8c0.1-1.9,0.6-3.6,1.4-5.2c0.8-1.6,1.9-3,3.3-4.1
				c1.4-1.2,3.2-2,5.2-2.6c1.4-0.4,2.8-0.5,4.2-0.4c1.4,0.1,2.7,0.4,4,0.9c1.3,0.5,2.4,1.3,3.4,2.3c1,1,1.8,2.2,2.3,3.7l-5.6,1.5
				c-0.8-1.4-1.7-2.4-2.9-2.8c-1.2-0.5-2.5-0.5-3.9-0.2c-1.3,0.4-2.4,0.9-3.2,1.7c-0.8,0.8-1.4,1.7-1.7,2.7c-0.3,1-0.5,2.1-0.5,3.3
				c0,1.2,0.2,2.3,0.5,3.5c0.3,1.1,0.7,2.2,1.3,3.2c0.5,1,1.2,1.8,2,2.5c0.8,0.7,1.7,1.2,2.8,1.4c1.1,0.3,2.3,0.2,3.6-0.1
				c2-0.5,3.3-1.4,4.1-2.7c0.8-1.3,1-2.9,0.7-4.8l-5.9,1.6l-1.2-4.4l11.3-3l3.9,14.5l-3.8,1l-1.4-2.9
				C473.5,170.3,472.6,171.6,471.4,172.4z"/>
			<path class="st54" d="M496,136.6l1.5,4.9l-14,4.2l1.7,5.7l12.9-3.9l1.4,4.5l-12.9,3.9l2,6.5l14.3-4.3l1.5,4.9l-20.2,6l-8-26.6
				L496,136.6z"/>
			<path class="st54" d="M505.2,133.6l16.9,14l0.1,0l-5.9-17.7l5.4-1.8l8.8,26.3l-5.8,1.9l-16.8-14l-0.1,0l5.9,17.6l-5.4,1.8
				l-8.8-26.3L505.2,133.6z"/>
			<path class="st54" d="M525.6,132.2l-1.8-4.8l21.3-7.9l1.8,4.8l-7.8,2.9l7.8,21.2l-5.7,2.1l-7.8-21.2L525.6,132.2z"/>
			<path class="st54" d="M566.6,110.8l1.9,4.8l-13.6,5.5l2.2,5.5l12.5-5l1.8,4.4l-12.5,5l2.6,6.3l13.9-5.6l1.9,4.8l-19.5,7.9
				l-10.4-25.7L566.6,110.8z"/>
			<path class="st54" d="M582.6,126.7c0.6,0.5,1.2,0.8,1.9,0.9c0.7,0.1,1.4,0.1,2.2,0s1.5-0.4,2.3-0.7c0.5-0.2,1-0.5,1.5-0.8
				c0.5-0.3,1-0.7,1.4-1.2c0.4-0.5,0.7-1,0.8-1.5c0.1-0.6,0.1-1.2-0.2-1.8c-0.3-0.7-0.8-1.1-1.4-1.4c-0.6-0.2-1.4-0.3-2.2-0.3
				c-0.8,0-1.8,0.1-2.7,0.3c-1,0.2-2,0.4-3.1,0.5c-1.1,0.2-2.1,0.3-3.2,0.4c-1.1,0.1-2.1,0-3-0.3c-1-0.2-1.8-0.7-2.6-1.3
				c-0.8-0.6-1.5-1.5-2-2.7c-0.6-1.3-0.8-2.6-0.7-3.8c0.1-1.2,0.5-2.3,1.1-3.4c0.6-1,1.4-2,2.4-2.8c1-0.8,2.1-1.5,3.2-2
				c1.3-0.6,2.7-1,4-1.3c1.4-0.2,2.6-0.2,3.9,0c1.2,0.2,2.4,0.8,3.4,1.5c1,0.8,1.8,1.9,2.5,3.4l-5.4,2.4c-0.4-0.7-0.8-1.3-1.3-1.7
				c-0.5-0.4-1-0.6-1.6-0.7c-0.6-0.1-1.2-0.1-1.8,0.1c-0.6,0.1-1.3,0.4-2,0.7c-0.5,0.2-0.9,0.4-1.3,0.7s-0.7,0.6-1,1
				s-0.4,0.8-0.5,1.3c-0.1,0.5,0,1,0.2,1.5c0.2,0.5,0.5,0.9,0.8,1.1c0.3,0.2,0.8,0.3,1.5,0.4c0.7,0,1.6-0.1,2.7-0.2
				c1.1-0.2,2.5-0.4,4.3-0.7c0.5-0.1,1.2-0.2,2.2-0.4c1-0.1,2-0.1,3,0.1s2.1,0.6,3.1,1.2c1,0.6,1.8,1.7,2.5,3.1
				c0.5,1.2,0.8,2.3,0.8,3.5c0,1.2-0.3,2.4-0.9,3.5c-0.6,1.1-1.4,2.2-2.6,3.2c-1.1,1-2.6,1.9-4.3,2.6c-1.4,0.6-2.8,1.1-4.3,1.3
				c-1.5,0.2-2.9,0.2-4.2-0.1c-1.3-0.3-2.5-0.9-3.6-1.7c-1.1-0.9-2-2.1-2.7-3.7l5.4-2.4C581.5,125.6,582,126.2,582.6,126.7z"/>
		</g>
		<g>
			<path class="st0" d="M375.2,561.9c0,0,146.7-125,216.5-301.1"/>
			<path class="st54" d="M384.1,515.6l21.4,4.9l0.1-0.1l-13.2-13.1l4-4l19.7,19.6l-4.3,4.3l-21.3-4.9l-0.1,0.1l13.2,13.1l-4,4
				l-19.7-19.6L384.1,515.6z"/>
			<path class="st54" d="M432.1,502.7c-0.1,2.8-1.4,5.5-3.9,8.2c-2.6,2.7-5.2,4.3-8,4.5c-2.7,0.3-5.5-0.9-8.2-3.5l-12.6-11.8
				l4.2-4.5l12.6,11.8c0.5,0.5,1.1,1,1.8,1.4c0.6,0.4,1.3,0.6,2,0.7c0.7,0.1,1.4,0,2.2-0.3c0.8-0.3,1.6-0.9,2.4-1.8
				c1.5-1.6,2.2-3,2-4.3c-0.1-1.3-1-2.6-2.5-4l-12.6-11.8l4.2-4.5l12.6,11.8C430.9,497.2,432.2,499.9,432.1,502.7z"/>
			<path class="st54" d="M432.3,464l3.8,3.4l-9.7,11l4.5,3.9l8.9-10.1l3.6,3.1l-8.9,10.1l5.1,4.5l9.9-11.2l3.8,3.4l-14,15.8
				l-20.8-18.4L432.3,464z"/>
			<path class="st54" d="M459.9,474.4l-27-11l4-4.8l18.9,7.8l0-0.1L444.9,449l4-4.8l15.3,24.9L459.9,474.4z"/>
			<path class="st54" d="M456.2,448.3c-1-1.6-1.7-3.3-2-5c-0.3-1.7-0.2-3.5,0.2-5.3c0.5-1.8,1.4-3.5,2.7-5.2c1.3-1.7,2.8-3,4.5-3.8
				c1.6-0.9,3.3-1.3,5.1-1.4s3.5,0.2,5.3,0.8c1.8,0.6,3.5,1.6,5.1,2.8c1.6,1.3,2.9,2.7,3.9,4.2c1,1.6,1.6,3.2,1.9,4.9
				c0.3,1.7,0.2,3.5-0.3,5.2c-0.5,1.8-1.4,3.5-2.7,5.2c-1.3,1.7-2.8,2.9-4.4,3.8c-1.6,0.9-3.3,1.4-5.1,1.5c-1.7,0.1-3.5-0.1-5.2-0.7
				c-1.8-0.6-3.4-1.5-5-2.8C458.5,451.3,457.2,449.9,456.2,448.3z M466.9,449.6c1,0.5,2.1,0.7,3.1,0.8c1.1,0.1,2.1-0.1,3.1-0.5
				s1.9-1.2,2.8-2.2c0.9-1.1,1.4-2.2,1.5-3.2c0.2-1.1,0.1-2.1-0.2-3.1c-0.3-1-0.8-2-1.5-2.9c-0.7-0.9-1.5-1.7-2.4-2.4
				c-1-0.8-2-1.4-3-1.9c-1.1-0.5-2.1-0.8-3.2-0.9c-1.1-0.1-2.1,0.1-3.1,0.5c-1,0.4-1.9,1.2-2.8,2.2c-0.9,1.1-1.4,2.2-1.5,3.2
				c-0.2,1.1-0.1,2.1,0.2,3.2c0.3,1,0.9,2,1.6,2.9c0.7,0.9,1.6,1.8,2.5,2.5C464.9,448.5,465.8,449.1,466.9,449.6z"/>
			<path class="st54" d="M487.7,428.6c0.7,0.1,1.4,0.1,2.1-0.1c0.7-0.2,1.3-0.6,1.9-1c0.6-0.5,1.1-1.1,1.6-1.7
				c0.3-0.4,0.6-0.9,0.9-1.5c0.3-0.6,0.5-1.1,0.6-1.7c0.1-0.6,0.1-1.2,0-1.7c-0.1-0.6-0.5-1.1-1.1-1.5c-0.6-0.4-1.2-0.6-1.9-0.5
				c-0.7,0.1-1.3,0.4-2.1,0.8c-0.7,0.4-1.5,1-2.2,1.6c-0.8,0.7-1.6,1.3-2.4,1.9c-0.8,0.7-1.7,1.3-2.6,1.9c-0.9,0.6-1.8,1-2.7,1.3
				c-0.9,0.3-1.9,0.3-2.9,0.2c-1-0.1-2-0.6-3-1.4c-1.1-0.8-2-1.8-2.4-2.9c-0.5-1.1-0.7-2.3-0.7-3.5c0-1.2,0.3-2.4,0.7-3.6
				c0.5-1.2,1.1-2.3,1.8-3.3c0.9-1.2,1.8-2.2,2.9-3.1c1.1-0.9,2.2-1.5,3.4-1.9c1.2-0.4,2.4-0.5,3.7-0.3c1.3,0.2,2.5,0.8,3.8,1.7
				l-3.5,4.7c-0.7-0.5-1.4-0.7-2-0.8c-0.6-0.1-1.2,0-1.7,0.2c-0.5,0.2-1.1,0.5-1.5,1c-0.5,0.4-0.9,1-1.4,1.6
				c-0.3,0.4-0.5,0.8-0.8,1.3c-0.2,0.5-0.3,0.9-0.4,1.4c0,0.5,0,0.9,0.2,1.4c0.2,0.4,0.5,0.8,1,1.2c0.4,0.3,0.9,0.5,1.2,0.5
				c0.4,0,0.9-0.1,1.5-0.4c0.6-0.3,1.3-0.8,2.2-1.5c0.9-0.7,2-1.6,3.4-2.7c0.4-0.4,1-0.8,1.7-1.4c0.8-0.6,1.7-1,2.7-1.4
				c1-0.4,2.1-0.5,3.3-0.5c1.2,0.1,2.4,0.6,3.7,1.5c1,0.8,1.8,1.7,2.4,2.7c0.6,1,0.9,2.2,1,3.4c0.1,1.3-0.2,2.6-0.7,4
				c-0.5,1.4-1.3,2.9-2.5,4.4c-0.9,1.2-1.9,2.3-3.1,3.2c-1.2,0.9-2.4,1.6-3.7,2s-2.6,0.5-4,0.3c-1.4-0.2-2.8-0.9-4.1-1.9l3.5-4.7
				C486.2,428.1,486.9,428.5,487.7,428.6z"/>
		</g>
		<g>
			<path class="st0" d="M191.4,528.7c0,0,146.7-125,216.5-301.1"/>
			<path class="st54" d="M210.7,471.9l3.6,3.6l-10.4,10.4l4.2,4.2l9.5-9.5l3.4,3.4l-9.5,9.5l4.8,4.8l10.6-10.6l3.6,3.6l-14.9,14.9
				L196,486.6L210.7,471.9z"/>
			<path class="st54" d="M231.6,480.3c0.7,0.2,1.4,0.2,2.1,0.1c0.7-0.1,1.3-0.4,2-0.8c0.7-0.4,1.3-0.9,1.8-1.5
				c0.4-0.4,0.7-0.8,1.1-1.4s0.6-1.1,0.8-1.6c0.2-0.6,0.2-1.1,0.2-1.7c-0.1-0.6-0.4-1.1-0.9-1.6c-0.5-0.5-1.2-0.8-1.8-0.7
				c-0.7,0-1.4,0.2-2.1,0.6c-0.8,0.4-1.6,0.8-2.4,1.4c-0.8,0.6-1.7,1.1-2.6,1.6c-0.9,0.6-1.8,1.1-2.8,1.5c-1,0.5-1.9,0.8-2.9,0.9
				c-1,0.2-1.9,0.1-2.9-0.2c-1-0.3-1.9-0.8-2.9-1.7c-1-1-1.7-2.1-2.1-3.2c-0.3-1.2-0.4-2.3-0.3-3.5c0.2-1.2,0.6-2.4,1.2-3.5
				c0.6-1.1,1.3-2.2,2.2-3.1c1-1.1,2.1-2,3.2-2.7c1.2-0.7,2.3-1.2,3.6-1.5c1.2-0.3,2.5-0.2,3.7,0.1c1.2,0.3,2.4,1.1,3.6,2.2
				l-4.1,4.3c-0.6-0.5-1.3-0.9-1.9-1c-0.6-0.2-1.2-0.2-1.7,0c-0.6,0.1-1.1,0.4-1.6,0.8c-0.5,0.4-1.1,0.8-1.6,1.4
				c-0.3,0.4-0.6,0.8-0.9,1.2c-0.3,0.4-0.4,0.9-0.5,1.3c-0.1,0.5-0.1,0.9,0,1.4c0.1,0.5,0.4,0.9,0.8,1.3c0.4,0.4,0.8,0.6,1.2,0.7
				c0.4,0.1,0.9,0,1.5-0.2c0.6-0.2,1.4-0.7,2.4-1.2c0.9-0.6,2.2-1.4,3.7-2.3c0.4-0.3,1.1-0.7,1.9-1.2c0.8-0.5,1.8-0.8,2.8-1.1
				c1.1-0.2,2.2-0.3,3.4-0.1c1.2,0.2,2.3,0.8,3.5,1.9c0.9,0.9,1.6,1.9,2.1,3c0.5,1.1,0.6,2.3,0.5,3.5c-0.1,1.2-0.5,2.5-1.1,3.9
				c-0.7,1.3-1.7,2.7-3,4.1c-1.1,1.1-2.2,2.1-3.5,2.8c-1.3,0.8-2.6,1.3-3.9,1.6c-1.3,0.2-2.7,0.2-4-0.2c-1.3-0.4-2.6-1.2-3.9-2.4
				l4.1-4.3C230.2,479.6,230.9,480.1,231.6,480.3z"/>
			<path class="st54" d="M247.4,443.1c-0.7-0.1-1.4-0.1-2.1,0c-0.7,0.1-1.4,0.3-2,0.7c-0.6,0.3-1.2,0.8-1.7,1.4
				c-0.9,1-1.5,2.1-1.7,3.1c-0.2,1.1-0.2,2.1,0,3.2c0.3,1,0.7,2,1.4,3c0.7,1,1.5,1.9,2.4,2.7c0.9,0.8,1.8,1.4,2.8,2
				c1,0.5,2,0.9,3.1,1c1.1,0.1,2.1,0,3.1-0.3c1-0.4,2-1.1,2.9-2.1c1.2-1.4,1.8-2.9,1.6-4.4c-0.2-1.5-0.8-3-2.1-4.4l3.9-4.4
				c1.2,1.3,2.1,2.6,2.7,4c0.6,1.4,0.9,2.8,1,4.3s-0.2,2.9-0.8,4.3c-0.6,1.4-1.4,2.8-2.6,4c-1.4,1.6-3,2.8-4.6,3.5s-3.4,1.2-5.1,1.2
				c-1.7,0-3.5-0.3-5.2-1c-1.7-0.7-3.3-1.7-4.8-3.1c-1.5-1.4-2.8-2.9-3.7-4.5c-0.9-1.6-1.5-3.3-1.7-5.1c-0.2-1.8,0-3.5,0.5-5.3
				c0.6-1.8,1.6-3.4,3-5c1-1.1,2.1-2.1,3.4-2.8c1.2-0.7,2.5-1.2,3.9-1.4c1.3-0.2,2.7-0.2,4.1,0.1c1.4,0.3,2.8,0.9,4.1,1.9l-3.9,4.4
				C248.7,443.5,248,443.3,247.4,443.1z"/>
			<path class="st54" d="M262,414.7l3.9,3.3l-9.5,11.2l4.5,3.8l8.7-10.3l3.6,3.1l-8.7,10.3l5.2,4.4l9.7-11.4l3.9,3.3l-13.6,16.1
				l-21.2-17.9L262,414.7z"/>
			<path class="st54" d="M268.1,407.1l21.8,2.5l0-0.1L275.4,398l3.6-4.5l21.7,17.3l-3.8,4.8l-21.7-2.6l0,0.1l14.5,11.6l-3.6,4.5
				l-21.7-17.3L268.1,407.1z"/>
			<path class="st54" d="M290,378.8l28.4,8.3l-3.8,5.1l-6.2-2l-6.2,8.3l3.6,5.4l-3.7,4.9l-15.9-25L290,378.8z M303.8,388.8
				l-10.3-3.3l0,0.1l6,9L303.8,388.8z"/>
			<path class="st54" d="M305.7,357c0.7-1,1.5-1.8,2.4-2.4c0.9-0.6,1.8-1,2.8-1.2c1-0.2,2-0.2,2.9,0.1c1,0.2,1.9,0.6,2.8,1.2
				c1.3,0.9,2.3,2,2.9,3.3c0.6,1.2,0.7,2.7,0.3,4.3l0.1,0c0.6-0.5,1.2-0.8,1.9-1s1.3-0.2,1.9-0.1c0.7,0.1,1.3,0.3,2,0.5
				c0.7,0.3,1.3,0.6,1.9,1c0.4,0.2,0.8,0.5,1.3,0.8c0.5,0.3,1,0.6,1.6,0.9c0.5,0.3,1.1,0.6,1.6,0.8c0.5,0.2,1,0.3,1.5,0.3l-3.5,5
				c-0.9-0.2-1.9-0.7-2.9-1.3c-1-0.6-2.1-1.2-3.1-1.7c-1.3-0.7-2.4-0.9-3.4-0.8c-0.9,0.2-1.8,0.9-2.7,2.1l-3.5,5l8.9,6.2l-3.5,5
				l-22.7-16L305.7,357z M314.8,366c0.8-1.1,1.2-2.2,1-3.1c-0.1-0.9-0.7-1.8-1.9-2.6c-1.1-0.8-2.1-1-3-0.8c-0.9,0.2-1.8,0.9-2.6,2.1
				l-3.8,5.5l6.4,4.5L314.8,366z"/>
			<path class="st54" d="M316.2,341.6l23.1,15.4l-3.4,5.1l-23.1-15.4L316.2,341.6z"/>
			<path class="st54" d="M325.6,342.4c-1.2-1.5-2-3.1-2.5-4.8c-0.5-1.7-0.6-3.5-0.3-5.3c0.3-1.8,1-3.7,2.1-5.5
				c1.1-1.8,2.5-3.2,4-4.3c1.5-1,3.2-1.7,4.9-2c1.7-0.3,3.5-0.2,5.4,0.2c1.8,0.4,3.6,1.2,5.4,2.3c1.7,1.1,3.1,2.4,4.3,3.8
				c1.1,1.5,2,3,2.4,4.7c0.5,1.7,0.6,3.4,0.3,5.2c-0.3,1.8-1,3.6-2.1,5.5c-1.1,1.8-2.5,3.2-4,4.3s-3.2,1.7-4.9,2
				c-1.7,0.3-3.5,0.2-5.3-0.2c-1.8-0.4-3.6-1.2-5.3-2.2C328.2,345.2,326.8,343.9,325.6,342.4z M336.3,342.6c1.1,0.4,2.1,0.5,3.2,0.5
				c1.1,0,2.1-0.3,3-0.8c1-0.5,1.8-1.4,2.5-2.5c0.7-1.2,1.1-2.3,1.2-3.4s-0.1-2.1-0.5-3.1c-0.4-1-1-1.9-1.8-2.7
				c-0.8-0.8-1.7-1.5-2.7-2.2c-1-0.7-2.1-1.2-3.2-1.5c-1.1-0.4-2.2-0.6-3.3-0.5c-1.1,0-2.1,0.3-3.1,0.8c-1,0.5-1.8,1.4-2.5,2.5
				c-0.7,1.2-1.1,2.3-1.2,3.4c-0.1,1.1,0.1,2.1,0.6,3.1c0.4,1,1.1,1.9,1.9,2.7c0.8,0.8,1.7,1.6,2.8,2.2
				C334.2,341.8,335.3,342.2,336.3,342.6z"/>
			<path class="st54" d="M354.7,319.5c0.7,0,1.4-0.1,2-0.4c0.6-0.3,1.2-0.7,1.8-1.2c0.5-0.6,1-1.2,1.4-1.9c0.3-0.5,0.5-1,0.8-1.6
				c0.2-0.6,0.4-1.2,0.4-1.8c0.1-0.6,0-1.2-0.2-1.7c-0.2-0.5-0.6-1-1.2-1.3c-0.6-0.4-1.3-0.5-1.9-0.3c-0.6,0.2-1.3,0.5-2,1
				c-0.7,0.5-1.3,1.1-2,1.9c-0.7,0.7-1.4,1.5-2.2,2.2c-0.7,0.8-1.5,1.5-2.4,2.1c-0.8,0.7-1.7,1.2-2.6,1.5c-0.9,0.4-1.9,0.5-2.9,0.5
				c-1,0-2.1-0.4-3.2-1c-1.2-0.7-2.1-1.6-2.7-2.7c-0.6-1.1-1-2.2-1.1-3.4c-0.1-1.2,0-2.4,0.3-3.7c0.3-1.2,0.8-2.4,1.4-3.5
				c0.7-1.3,1.6-2.4,2.5-3.4c1-1,2-1.7,3.2-2.3c1.1-0.5,2.4-0.8,3.6-0.7c1.3,0,2.6,0.5,4,1.3l-3,5.1c-0.7-0.4-1.4-0.6-2-0.6
				c-0.6,0-1.2,0.1-1.7,0.4c-0.5,0.3-1,0.6-1.4,1.1c-0.4,0.5-0.8,1-1.2,1.7c-0.2,0.4-0.5,0.9-0.6,1.4c-0.2,0.5-0.2,1-0.2,1.4
				c0,0.5,0.1,0.9,0.3,1.3c0.2,0.4,0.6,0.8,1.1,1.1c0.5,0.3,0.9,0.4,1.3,0.4c0.4,0,0.9-0.2,1.4-0.6c0.6-0.4,1.2-1,2-1.8
				c0.8-0.8,1.8-1.8,3.1-3.1c0.4-0.4,0.9-0.9,1.6-1.6c0.7-0.7,1.5-1.2,2.5-1.7c1-0.5,2.1-0.8,3.3-0.8c1.2-0.1,2.5,0.3,3.8,1.1
				c1.1,0.6,2,1.4,2.7,2.4c0.7,1,1.1,2.1,1.3,3.3c0.2,1.2,0.1,2.6-0.2,4.1c-0.3,1.5-1,3-1.9,4.6c-0.8,1.3-1.7,2.5-2.7,3.6
				c-1,1.1-2.2,1.9-3.4,2.4c-1.2,0.5-2.6,0.8-4,0.7c-1.4-0.1-2.8-0.5-4.3-1.4l3-5.1C353.2,319.2,354,319.5,354.7,319.5z"/>
		</g>
		<g>
			<path class="st0" d="M537.8,448.4c0,0,187.1,46.1,370.8,0"/>
			<path class="st54" d="M688.5,440c1.2,0.1,2.4,0.3,3.3,0.8c1,0.5,1.8,1,2.5,1.8c0.7,0.7,1.2,1.6,1.5,2.5c0.3,0.9,0.5,1.9,0.4,3
				c-0.1,1.6-0.5,3-1.2,4.2c-0.7,1.2-1.9,2-3.5,2.5l0,0.1c0.7,0.2,1.3,0.6,1.8,1s0.8,1,1.1,1.6c0.3,0.6,0.5,1.3,0.6,2
				c0.1,0.7,0.2,1.4,0.2,2.1c0,0.4,0,1,0,1.6c0,0.6,0,1.2,0,1.8c0,0.6,0.1,1.2,0.2,1.8c0.1,0.6,0.3,1,0.6,1.5l-6.1-0.3
				c-0.3-0.9-0.4-2-0.5-3.2c0-1.2-0.1-2.4-0.2-3.5c-0.1-1.5-0.5-2.5-1.2-3.3c-0.6-0.7-1.7-1.1-3.2-1.2l-6.1-0.3l-0.6,10.8l-6.1-0.3
				l1.4-27.7L688.5,440z M685.7,452.5c1.4,0.1,2.5-0.2,3.2-0.8s1.1-1.6,1.2-3c0.1-1.3-0.2-2.3-0.9-3c-0.7-0.6-1.7-1-3.1-1.1
				l-6.7-0.3l-0.4,7.8L685.7,452.5z"/>
			<path class="st54" d="M721.6,441.1l-0.1,5.1l-14.7-0.3l-0.1,5.9l13.4,0.3l-0.1,4.7l-13.4-0.3l-0.2,6.8l15,0.3l-0.1,5.1l-21.1-0.5
				l0.6-27.8L721.6,441.1z"/>
			<path class="st54" d="M737.1,441c1.8,0,3.5,0.3,5,0.8c1.5,0.6,2.9,1.4,4,2.5c1.1,1.1,2,2.6,2.7,4.3c0.6,1.7,1,3.7,1,6
				c0,2-0.2,3.9-0.7,5.6c-0.5,1.7-1.3,3.2-2.3,4.4c-1,1.3-2.3,2.2-3.9,3c-1.6,0.7-3.4,1.1-5.5,1.1l-12,0.1l-0.2-27.8L737.1,441z
				 M736.9,463.7c0.9,0,1.7-0.2,2.6-0.4c0.8-0.3,1.6-0.8,2.2-1.4c0.6-0.7,1.2-1.5,1.5-2.6c0.4-1.1,0.6-2.4,0.6-3.9
				c0-1.4-0.2-2.7-0.4-3.8c-0.3-1.1-0.7-2.1-1.4-2.9c-0.6-0.8-1.5-1.4-2.5-1.8c-1-0.4-2.3-0.6-3.8-0.6l-4.4,0l0.1,17.5L736.9,463.7z
				"/>
			<path class="st54" d="M773.9,440l0.2,5.1l-14.6,0.6l0.2,5.9l13.4-0.5l0.2,4.7l-13.4,0.5l0.3,6.8l15-0.6l0.2,5.1l-21.1,0.8
				l-1.1-27.7L773.9,440z"/>
			<path class="st54" d="M783.5,460.4c0.4,0.6,0.9,1.1,1.4,1.5c0.6,0.4,1.3,0.6,2,0.8c0.8,0.1,1.5,0.2,2.3,0.1
				c0.5,0,1.1-0.1,1.7-0.3c0.6-0.1,1.2-0.3,1.7-0.6c0.5-0.3,1-0.7,1.3-1.2c0.3-0.5,0.5-1.1,0.4-1.8c-0.1-0.8-0.3-1.3-0.8-1.8
				s-1.2-0.8-2-1c-0.8-0.3-1.7-0.5-2.7-0.6c-1-0.2-2-0.4-3-0.6c-1.1-0.2-2.1-0.4-3.1-0.7c-1-0.3-1.9-0.7-2.7-1.3
				c-0.8-0.5-1.5-1.2-2-2.1c-0.5-0.9-0.9-1.9-0.9-3.2c-0.1-1.4,0.1-2.7,0.7-3.8s1.3-2,2.2-2.8s2-1.4,3.2-1.8
				c1.2-0.4,2.4-0.7,3.7-0.8c1.4-0.1,2.8,0,4.2,0.2c1.4,0.2,2.6,0.7,3.7,1.3c1.1,0.7,2,1.5,2.7,2.6c0.7,1.1,1.1,2.4,1.2,4l-5.9,0.4
				c-0.1-0.8-0.3-1.5-0.7-2c-0.3-0.5-0.8-0.9-1.3-1.2c-0.5-0.3-1.1-0.5-1.7-0.5s-1.3-0.1-2.1,0c-0.5,0-1,0.1-1.5,0.3
				c-0.5,0.1-0.9,0.4-1.3,0.6c-0.4,0.3-0.7,0.6-0.9,1c-0.2,0.4-0.3,0.9-0.3,1.5c0,0.5,0.2,1,0.4,1.3c0.2,0.3,0.7,0.6,1.3,0.8
				c0.6,0.2,1.5,0.5,2.6,0.7c1.1,0.2,2.5,0.5,4.3,0.8c0.5,0.1,1.3,0.2,2.2,0.4c0.9,0.2,1.9,0.6,2.8,1.1c0.9,0.5,1.8,1.3,2.5,2.2
				c0.7,0.9,1.1,2.2,1.3,3.8c0.1,1.3-0.1,2.5-0.5,3.6c-0.4,1.1-1.1,2.1-2,3c-0.9,0.9-2.1,1.6-3.5,2.1c-1.4,0.5-3.1,0.9-4.9,1
				c-1.5,0.1-3,0-4.5-0.3c-1.5-0.3-2.8-0.8-3.9-1.5c-1.2-0.7-2.1-1.7-2.8-2.9c-0.7-1.2-1.1-2.6-1.2-4.4l5.9-0.4
				C782.9,459,783.2,459.7,783.5,460.4z"/>
		</g>
		<g>
			<path class="st0" d="M398.5,452.4c0,0,187.9,42.5,370.7-7.1"/>
			<path class="st54" d="M582.8,441.7l6.8-0.2l6.8,10.8l6.2-11.1l6.8-0.2l-9.9,17.4l0.3,10.7l-6.1,0.2l-0.3-10.8L582.8,441.7z"/>
		</g>
		<g>
			<path class="st0" d="M278.6,246c0,0,186.6,47.8,370.8,3.4"/>
			<path class="st54" d="M355.4,231.9l4,19.8l0.1,0l8.6-18.1l8.5,1.1l-3.6,27.5l-5.7-0.7l2.6-19.5l-0.1,0l-9.3,18.6l-4.7-0.6
				l-4.2-20.2l-0.1,0L349,259l-5.7-0.7l3.6-27.5L355.4,231.9z"/>
			<path class="st54" d="M401.7,237.1l-0.5,5.1l-14.6-1.4l-0.6,5.9l13.4,1.3l-0.5,4.7l-13.4-1.3l-0.7,6.8l14.9,1.5l-0.5,5.1l-21-2.1
				l2.7-27.6L401.7,237.1z"/>
			<path class="st54" d="M422.6,246.1c-0.3-0.6-0.7-1.2-1.3-1.6c-0.5-0.5-1.1-0.9-1.8-1.2c-0.7-0.3-1.4-0.5-2.1-0.5
				c-1.4-0.1-2.6,0.1-3.5,0.5c-1,0.5-1.8,1.1-2.5,2c-0.7,0.9-1.2,1.8-1.5,3c-0.4,1.1-0.6,2.3-0.7,3.5c-0.1,1.2,0,2.3,0.2,3.4
				c0.2,1.1,0.6,2.1,1.1,3.1c0.5,0.9,1.3,1.7,2.2,2.3c0.9,0.6,2.1,0.9,3.4,1c1.9,0.1,3.4-0.3,4.5-1.4c1.1-1.1,1.9-2.5,2.2-4.4
				l5.9,0.4c-0.3,1.7-0.8,3.3-1.5,4.6c-0.7,1.4-1.7,2.5-2.8,3.4c-1.1,0.9-2.4,1.6-3.9,2c-1.5,0.4-3,0.6-4.7,0.4
				c-2.1-0.2-4-0.7-5.6-1.5c-1.6-0.9-3-2-4.1-3.3s-1.9-3-2.4-4.7c-0.5-1.8-0.7-3.7-0.5-5.7c0.1-2.1,0.6-4,1.3-5.7
				c0.7-1.7,1.7-3.2,3-4.4s2.8-2.2,4.5-2.8c1.7-0.6,3.7-0.9,5.8-0.7c1.5,0.1,3,0.4,4.3,1c1.3,0.5,2.5,1.3,3.5,2.2
				c1,0.9,1.8,2,2.4,3.3c0.6,1.3,0.9,2.7,1,4.4l-5.9-0.4C423.1,247.4,422.9,246.7,422.6,246.1z"/>
			<path class="st54" d="M447.1,239.9l9.2,28.2l-6.3-0.3l-1.8-6.3l-10.4-0.4l-2.4,6.1l-6.1-0.3l11.6-27.3L447.1,239.9z M446.8,256.9
				l-3.1-10.3l-0.1,0l-4,10L446.8,256.9z"/>
			<path class="st54" d="M465.1,240.4l11.4,18.7l0.1,0l0.2-18.6l5.7,0.1l-0.3,27.8l-6.1-0.1l-11.4-18.7h-0.1l-0.2,18.6l-5.7-0.1
				l0.3-27.8L465.1,240.4z"/>
			<path class="st54" d="M493.3,240.4l0.4,27.8l-6.1,0.1l-0.4-27.8L493.3,240.4z"/>
			<path class="st54" d="M503.5,261.1c0.4,0.6,0.8,1.1,1.4,1.5c0.6,0.4,1.2,0.7,2,0.8s1.5,0.2,2.3,0.2c0.5,0,1.1-0.1,1.7-0.2
				c0.6-0.1,1.2-0.3,1.7-0.6c0.5-0.3,1-0.6,1.3-1.1c0.3-0.5,0.5-1,0.5-1.7c0-0.8-0.3-1.4-0.8-1.8c-0.5-0.5-1.1-0.8-1.9-1.1
				c-0.8-0.3-1.7-0.5-2.7-0.7c-1-0.2-2-0.4-3-0.7c-1-0.2-2.1-0.5-3.1-0.8c-1-0.3-1.9-0.8-2.7-1.4s-1.5-1.3-2-2.2
				c-0.5-0.9-0.8-2-0.8-3.2c0-1.4,0.2-2.7,0.8-3.7c0.6-1.1,1.3-2,2.3-2.7c1-0.7,2.1-1.3,3.3-1.7c1.2-0.4,2.5-0.6,3.7-0.6
				c1.5,0,2.8,0.1,4.2,0.3c1.3,0.3,2.5,0.8,3.6,1.5c1.1,0.7,1.9,1.6,2.6,2.7c0.6,1.1,1,2.5,1.1,4.1l-5.9,0.2c-0.1-0.8-0.3-1.5-0.6-2
				c-0.3-0.5-0.7-0.9-1.2-1.2c-0.5-0.3-1.1-0.5-1.7-0.6c-0.6-0.1-1.3-0.1-2.1-0.1c-0.5,0-1,0.1-1.5,0.2c-0.5,0.1-0.9,0.3-1.3,0.6
				c-0.4,0.3-0.7,0.6-1,1c-0.2,0.4-0.4,0.9-0.3,1.5c0,0.5,0.1,1,0.4,1.3c0.2,0.3,0.6,0.6,1.3,0.9c0.6,0.3,1.5,0.5,2.6,0.8
				s2.5,0.6,4.3,0.9c0.5,0.1,1.2,0.2,2.2,0.5c0.9,0.2,1.9,0.6,2.8,1.2c0.9,0.6,1.7,1.3,2.4,2.3s1.1,2.2,1.1,3.8
				c0,1.3-0.2,2.5-0.6,3.6c-0.5,1.1-1.2,2.1-2.1,2.9c-0.9,0.8-2.1,1.5-3.6,2c-1.4,0.5-3.1,0.8-5,0.8c-1.5,0.1-3-0.1-4.5-0.4
				c-1.5-0.3-2.7-0.9-3.9-1.6c-1.1-0.8-2-1.8-2.7-3c-0.7-1.2-1.1-2.7-1.1-4.4l5.9-0.2C502.9,259.7,503.1,260.5,503.5,261.1z"/>
			<path class="st54" d="M530.8,238.9l7.9,18.6l0.1,0l4.7-19.5l8.6-0.6l2,27.7l-5.7,0.4l-1.4-19.6l-0.1,0l-5.4,20.1l-4.7,0.3
				l-8.2-18.9l-0.1,0l1.4,19.4l-5.7,0.4l-2-27.7L530.8,238.9z"/>
			<path class="st54" d="M556.9,245.2c0.4-1.8,1.1-3.5,2.1-4.9c1-1.4,2.3-2.6,3.9-3.6c1.6-0.9,3.5-1.5,5.6-1.8
				c2.1-0.2,4.1-0.1,5.8,0.5c1.8,0.6,3.3,1.4,4.6,2.6c1.3,1.2,2.4,2.6,3.2,4.3c0.8,1.7,1.4,3.6,1.6,5.6c0.2,2,0.1,3.9-0.3,5.7
				c-0.4,1.8-1.1,3.4-2.1,4.8c-1,1.4-2.3,2.6-3.9,3.5c-1.6,0.9-3.5,1.5-5.6,1.8c-2.1,0.2-4.1,0.1-5.8-0.4c-1.8-0.5-3.3-1.4-4.6-2.5
				c-1.3-1.2-2.4-2.6-3.2-4.2c-0.8-1.7-1.3-3.5-1.6-5.5C556.4,248.9,556.5,247,556.9,245.2z M563.5,253.6c0.4,1.1,0.9,2,1.6,2.8
				c0.7,0.8,1.5,1.4,2.6,1.8c1,0.4,2.2,0.5,3.6,0.4c1.4-0.2,2.5-0.6,3.4-1.2c0.9-0.6,1.6-1.4,2.1-2.4c0.5-0.9,0.8-2,0.9-3.1
				c0.1-1.1,0.1-2.3,0-3.4c-0.1-1.2-0.4-2.4-0.8-3.5c-0.4-1.1-1-2.1-1.6-2.9c-0.7-0.8-1.6-1.4-2.6-1.9c-1-0.4-2.2-0.5-3.6-0.4
				s-2.5,0.6-3.4,1.2c-0.9,0.6-1.6,1.4-2.1,2.4c-0.5,1-0.8,2-0.9,3.2c-0.1,1.2-0.1,2.4,0,3.6C562.8,251.4,563.1,252.6,563.5,253.6z"
				/>
			<path class="st54" d="M593,253.4c0.4,0.6,1,1,1.6,1.3s1.3,0.5,2.1,0.6c0.8,0.1,1.6,0.1,2.4-0.1c0.5-0.1,1.1-0.2,1.7-0.4
				c0.6-0.2,1.1-0.5,1.6-0.8c0.5-0.3,0.9-0.8,1.2-1.3c0.3-0.5,0.4-1.1,0.3-1.8c-0.1-0.7-0.4-1.3-1-1.7c-0.5-0.4-1.2-0.7-2-0.9
				c-0.8-0.2-1.7-0.3-2.7-0.4c-1-0.1-2-0.2-3.1-0.3c-1.1-0.1-2.1-0.3-3.1-0.5c-1-0.2-2-0.6-2.8-1c-0.9-0.5-1.6-1.1-2.2-1.9
				c-0.6-0.8-1-1.8-1.2-3.1c-0.2-1.4-0.1-2.7,0.3-3.8c0.4-1.1,1.1-2.1,2-3c0.9-0.8,1.9-1.5,3.1-2.1c1.2-0.5,2.4-0.9,3.6-1.1
				c1.4-0.2,2.8-0.3,4.2-0.2c1.4,0.1,2.6,0.4,3.8,1c1.1,0.6,2.1,1.3,2.9,2.4s1.3,2.3,1.5,3.9l-5.8,0.9c-0.2-0.8-0.5-1.5-0.8-2
				c-0.4-0.5-0.8-0.9-1.4-1.1c-0.5-0.2-1.1-0.4-1.8-0.4c-0.6,0-1.3,0-2.1,0.1c-0.5,0.1-1,0.2-1.4,0.4c-0.5,0.2-0.9,0.4-1.2,0.7
				c-0.4,0.3-0.6,0.7-0.8,1.1c-0.2,0.4-0.2,0.9-0.2,1.5c0.1,0.5,0.3,1,0.5,1.3c0.3,0.3,0.7,0.5,1.4,0.7c0.6,0.2,1.5,0.3,2.6,0.5
				c1.1,0.1,2.6,0.3,4.3,0.4c0.5,0,1.3,0.1,2.2,0.2c1,0.1,1.9,0.4,2.9,0.9s1.9,1.1,2.7,2c0.8,0.9,1.3,2.1,1.6,3.6
				c0.2,1.3,0.1,2.5-0.2,3.6c-0.3,1.2-0.9,2.2-1.7,3.1c-0.8,0.9-1.9,1.7-3.3,2.4c-1.4,0.7-3,1.1-4.8,1.4c-1.5,0.2-3,0.3-4.5,0.1
				c-1.5-0.1-2.8-0.5-4-1.2c-1.2-0.6-2.2-1.5-3.1-2.6c-0.8-1.1-1.4-2.5-1.6-4.2l5.8-0.9C592.3,252,592.6,252.8,593,253.4z"/>
		</g>
		<g>
			<path class="st53" d="M249.4,296.6c0,0,33-5.8,31.3-39.1c-0.1-1-3.2-21.2,7.5-28.4c5.2-3.5,20.7-10.2,29.3,2.8
				c1.8,2.7,3,6.8,1.5,9.7c-1.2,2.4-4.7,4.4-9.3,3c-4.1-1.3-7.1-5.1-7.5-9.4c-0.6-6.7,2.4-18.7,22.2-36"/>
			<g>
				<g>
					<g>
						<line class="st86" x1="326" y1="197.4" x2="324.1" y2="199.4"/>
						<g>
							<polygon points="323.3,197.1 325.5,197.9 326.4,200.1 328.4,194.8 							"/>
						</g>
					</g>
				</g>
			</g>
			<g>
				<g>
					<g>
						<line class="st86" x1="247.7" y1="296.8" x2="250.4" y2="296.1"/>
						<g>
							<polygon points="249.9,298.5 248.4,296.6 248.7,294.3 244.3,297.8 							"/>
						</g>
					</g>
				</g>
			</g>
		</g>
		<g>
			<path class="st53" d="M630.4,201.7c0,0,19.3-4.7,32.2,11.9c3.5,4.5,5.4,10,6,15.7c0.8,7.3,6.4,22.1,33.7,41.2"/>
			<g>
				<g>
					<g>
						<line class="st86" x1="630" y1="201.8" x2="631.7" y2="201.7"/>
						<g>
							<polygon points="631.8,203.9 630.7,201.8 631.5,199.6 626.5,202.1 							"/>
						</g>
					</g>
				</g>
			</g>
			<g>
				<g>
					<g>
						<line class="st86" x1="703.6" y1="271.3" x2="700.6" y2="269.5"/>
						<g>
							<polygon points="703.3,268.6 703,270.9 701.1,272.4 706.7,273 							"/>
						</g>
					</g>
				</g>
			</g>
		</g>
		<path class="st54" d="M644,516.5c-0.1,7.7,10,13.9,22.7,17.5c12,3.4,22.7-7.8,22.7-17.5c0-9.7-9-12.6-22.7-17.5
			C654.9,494.8,644.1,506.9,644,516.5z"/>
		<ellipse class="st54" cx="373.5" cy="310.7" rx="16.5" ry="16.4"/>
		<path class="st54" d="M699.9,650c0,12.6,4.9,12.9,17,12.9c12.1,0,26.9-0.3,26.9-12.9c0-12.6-10.5-17.7-21.1-20.1
			C710.9,627.3,699.9,637.4,699.9,650z"/>
	</g>
	<path class="st81" d="M356.6,203.1c0,0.7-0.6,1.3-1.3,1.3c-0.7,0-1.3-0.6-1.3-1.3s0.6-1.3,1.3-1.3
		C356.1,201.8,356.6,202.4,356.6,203.1z"/>
	<path class="st81" d="M187.5,97.4c0,0.7-0.6,1.3-1.3,1.3s-1.3-0.6-1.3-1.3s0.6-1.3,1.3-1.3S187.5,96.6,187.5,97.4z"/>
	<path class="st85" d="M735.5,64c0,0.7-0.6,1.3-1.3,1.3c-0.7,0-1.3-0.6-1.3-1.3s0.6-1.3,1.3-1.3C734.9,62.7,735.5,63.3,735.5,64z"/>
	<path class="st85" d="M880.5,216c0,0.7-0.6,1.3-1.3,1.3c-0.7,0-1.3-0.6-1.3-1.3c0-0.7,0.6-1.3,1.3-1.3
		C879.9,214.7,880.5,215.3,880.5,216z"/>
	<path class="st85" d="M477.5,114c0,0.7-0.6,1.3-1.3,1.3c-0.7,0-1.3-0.6-1.3-1.3s0.6-1.3,1.3-1.3C476.9,112.7,477.5,113.3,477.5,114
		z"/>
	<path class="st85" d="M963.5,158c0,0.7-0.6,1.3-1.3,1.3c-0.7,0-1.3-0.6-1.3-1.3c0-0.7,0.6-1.3,1.3-1.3
		C962.9,156.7,963.5,157.3,963.5,158z"/>
	<path class="st85" d="M433.5,795c0,0.7-0.6,1.3-1.3,1.3c-0.7,0-1.3-0.6-1.3-1.3s0.6-1.3,1.3-1.3C432.9,793.7,433.5,794.3,433.5,795
		z"/>
	<circle class="st81" cx="673.2" cy="717" r="3"/>
	<g>
	</g>
	<g>
	</g>
	<g>
	</g>
	<g>
	</g>
	<g>
	</g>
	<g>
	</g>
	<g>
	</g>
	<g>
	</g>
	<g>
	</g>
	<g>
	</g>
	<g>
	</g>
	<g>
	</g>
	<g>
	</g>
	<g>
	</g>
	<g>
	</g>
</g>
</svg>
