<?xml version="1.0" encoding="utf-8"?>
<!-- Generator: Adobe Illustrator 24.3.0, SVG Export Plug-In . SVG Version: 6.00 Build 0)  -->
<svg version="1.1" id="Capa_1" xmlns="http://www.w3.org/2000/svg" xmlns:xlink="http://www.w3.org/1999/xlink" x="0px" y="0px"
	 viewBox="0 0 1244 952" style="enable-background:new 0 0 1244 952;" xml:space="preserve">
<style type="text/css">
	.st0{fill:url(#SVGID_1_);}
	.st1{opacity:0.6;fill:#C69C6D;enable-background:new    ;}
	.st2{fill:none;stroke:#000000;stroke-width:0.5;stroke-miterlimit:10;}
	.st3{fill:#FFFFFF;stroke:#000000;stroke-width:0.5;stroke-miterlimit:10;}
	.st4{fill:#FFFFFF;}
	.st5{fill:none;stroke:#000000;stroke-width:0.5;stroke-linecap:round;stroke-miterlimit:10;}
	.st6{fill:#FFFFFF;stroke:url(#SVGID_2_);stroke-width:0.5;stroke-miterlimit:10;}
	.st7{fill:#FFFFFF;stroke:#000000;stroke-width:0.25;stroke-miterlimit:10;}
	.st8{fill:none;}
</style>
<linearGradient id="SVGID_1_" gradientUnits="userSpaceOnUse" x1="1497" y1="-468" x2="2003.8301" y2="-468" gradientTransform="matrix(6.123234e-17 1 1 -6.123234e-17 1090 -1497)">
	<stop  offset="0.17" style="stop-color:#8B6339"/>
	<stop  offset="0.52" style="stop-color:#C0AB94"/>
	<stop  offset="0.85" style="stop-color:#EDE7E1"/>
	<stop  offset="1" style="stop-color:#FFFFFF"/>
</linearGradient>
<rect class="st0" width="1244" height="562.5"/>
<path class="st1" d="M547.5,681.3h-117c0,0-73.3-0.1-83.3,2.2c0,0-83.8,5.7-90.5,9.1c0,0,20.1,1.1,16.8,8c0,0-2.2,12.5-34.6,13.7
	c0,0-54.8,3.4-82.7,16c0,0-43.6,6.8-44.7,19.4c0,0-2.2,3.4,1.1,5.7c0,0,31.3-2.3,32.4,10.3c0,0,4.5,6.8,15.6,5.7
	c0,0,82.7-2.3,108.4,38.8c0,0,0,4.6,5.6,2.3c0,0,23.5-6.8,46.9,9.1c0,0,29.1-8,46.9,1.1c0,0,64.8-14.8,122.9,10.3
	c0,0,25.7,13.7,8.9,36.5c0,0,56.9,14.7,17.4,59.6c-7.3,8.3-19.6,12.1-34.3,23L1244,951v-69c0-44.4-111.2-84.3-167-93.6
	c0,0-80.5-14.8-111.8-41c0,0-46.9,4.6-72.6-8c0,0-49.2,0-68.2-11.4c0,0-124-6.8-179.9-19.4c0,0-57,3.4-95-12.5
	c0,0-15.6-6.8-2.2-12.5C547.3,683.5,555.4,681.3,547.5,681.3z"/>
<path class="st2" d="M240.8,564.2c0,0,8.7-34.6,36.1-43.7c0,0,19.4,1.1,29.6-2.3c0,0,16-10.3,31.9-10.3c0,0,102.6-49,141.4-46.8
	c0,0,133.4,2.3,180.2,26.2c0,0,27.4,17.1,34.2,17.1c0,0,28.1,3,25.8,7.6"/>
<circle class="st3" cx="188.5" cy="151.6" r="82"/>
<path class="st4" d="M425.6,339.2l4.4,5.3l0.6,0.7c0.3,0.4,0.8-0.2,0.5-0.5l-4.4-5.3l-0.6-0.7C425.9,338.3,425.3,338.8,425.6,339.2z
	"/>
<line class="st5" x1="603.2" y1="846.6" x2="600.6" y2="846.9"/>
<path class="st2" d="M97.9,450.9c0,0-2.3-4.6,8-4.6s4.6,19.4,4.6,19.4c10.3-6.8,19.4,5.7,19.4,5.7c18.2-1.1,9.1,16,9.1,16
	c8-1.1,9.1,5.7,9.1,5.7c11.4-4.6,12.6,8,12.6,8c6.8,2.3,4.6,11.4,4.6,11.4c6.8-11.4,19.4,6.8,19.4,6.8c21.7-8,6.8,16,6.8,16
	c-2.3,2.3,4.6,4.6,4.6,4.6c14.8-2.3,13.7,14.8,13.7,14.8c5.7-3.4,10.3,3.4,10.3,3.4c3.4,9.1,16,6.8,16,6.8
	c13.7-3.4,5.7,12.5,5.7,12.5c-2.3,5.7,3.4,3.4,3.4,3.4c19.4-24,26.2,4.6,26.2,4.6c22.8-14.8,28.5,16,28.5,16
	c-2.3,12.5,9.1,9.1,9.1,9.1c6.8-26.2,13.7,0,13.7,0c0,2.3,3.4,0,3.4,0c12.5-10.3,21.7,18.2,21.7,18.2c2.3,8,6.8,5.7,6.8,5.7
	c0.1-3.6,1.8-6.9,4.6-9.1c8-4.6,11.4,5.7,11.4,5.7c10.3-12.5,21.7,0,21.7,0c12.5,8,18.2-1.1,18.2-1.1c34.1-32.1,47.8,16.9,47.8,16.9
	c14.8-1.1,2.3,25.1,2.3,25.1s9.2-4.7,9.2,6.1"/>
<path class="st3" d="M555,674.9c-4.7-6.2,7-5.7,7-5.7s-19.4-18.2,5.7-27.4c0,0,5.7-8,18.2-5.7c0,0,1.1-17.1,20.5-6.8
	c0,0,11.4,4.6,14.8-5.7c0,0,0-12.5,19.4-9.1c0,0,8-1.2,8-11.4c0,0-2.3-21.7,23.9-12.5c0,0,8-3.4,0-11.4c0,0-3.4-22.8,22.8-18.2
	c0,0,9.1-4.6,3.4-10.3c0,0-9.1-14.8,11.4-20.5c0,0,3.4-26.2,31.9-30.8c0,0,33.1-61.6,62.7-96.9c0,0,4.6-25.1,11.4-4.6
	c0,0,6.8-14.8,14.8-4.6c0,0,3.4-22.8,12.5-27.4c0,0-4.6-13.7,16-49c0,0,17.9-60.3,46.8-41c3.4,2.3,5.7,0,5.7,0c0-0.3,0.1-0.7,0.2-1
	c2.4-10.1,16.4-11.4,20.8-2l15.7,33.4c5.6,11.9,13.9,22.4,24.4,30.5l0,0c7.9,6.2,14.4,13.9,19,22.8l14.4,27.7
	c0.2,0.4,0.5,0.8,0.7,1.2l43,72.2l52.4,59.9c22.3,25.5,99.8,71.6,109.8,87.9"/>
<path class="st4" d="M438.5,380.3l6.1,7l0.9,1c0.3,0.4,0.9-0.2,0.5-0.5l-6.1-7l-0.9-1C438.8,379.4,438.2,379.9,438.5,380.3z"/>
<path class="st4" d="M451.7,363.3l5.2,6.1l0.8,0.9c0.3,0.4,0.9-0.2,0.5-0.5l-5.3-6.1l-0.8-0.9C451.9,362.4,451.4,362.9,451.7,363.3
	L451.7,363.3z"/>
<path class="st4" d="M473.7,367.3l4.4,5.3l0.6,0.7c0.3,0.4,0.8-0.2,0.5-0.5l-4.4-5.3l-0.6-0.7C474,366.4,473.4,366.9,473.7,367.3z"
	/>
<path class="st4" d="M507.6,353.1l6.1,7l0.9,1c0.3,0.4,0.8-0.2,0.5-0.5l-6.1-7l-0.9-1C507.8,352.2,507.3,352.7,507.6,353.1
	L507.6,353.1z"/>
<path class="st4" d="M511.1,377.6l5.2,6.1l0.8,0.9c0.3,0.4,0.8-0.2,0.5-0.5l-5.2-6.1l-0.8-0.9C511.3,376.7,510.8,377.2,511.1,377.6
	L511.1,377.6z"/>
<path class="st4" d="M508.1,392.6l5.2,6.1l0.8,0.9c0.3,0.4,0.8-0.2,0.5-0.5l-5.2-6.1l-0.8-0.9C508.3,391.7,507.8,392.2,508.1,392.6
	L508.1,392.6z"/>
<path class="st4" d="M552.6,338.6l5.2,6.1l0.8,0.9c0.3,0.4,0.8-0.2,0.5-0.5l-5.2-6.1l-0.8-0.9C552.9,337.7,552.3,338.2,552.6,338.6z
	"/>
<path class="st4" d="M531.6,346.6l5.2,6.1l0.8,0.9c0.3,0.4,0.8-0.2,0.5-0.5l-5.2-6.1l-0.8-0.9C531.9,345.7,531.3,346.2,531.6,346.6z
	"/>
<path class="st4" d="M561.1,393.1l6.1,7l0.9,1c0.3,0.4,0.8-0.2,0.5-0.5l-6.1-7l-0.9-1C561.4,392.2,560.8,392.7,561.1,393.1z"/>
<path class="st4" d="M545.9,432.7l6.1,7l0.9,1c0.3,0.4,0.8-0.2,0.5-0.5l-6.1-7l-0.9-1C546.1,431.8,545.6,432.3,545.9,432.7z"/>
<path class="st4" d="M569.9,367.7l6.1,7l0.9,1c0.3,0.4,0.8-0.2,0.5-0.5l-6.1-7l-0.9-1C570.1,366.8,569.6,367.3,569.9,367.7z"/>
<path class="st4" d="M606.1,446l5.2,6.1l0.8,0.9c0.3,0.4,0.8-0.2,0.5-0.5l-5.2-6.1l-0.8-0.9C606.4,445.1,605.8,445.6,606.1,446z"/>
<path class="st4" d="M378.7,365.2l6.1,7l0.9,1c0.3,0.4,0.9-0.2,0.5-0.5l-6.1-7l-0.9-1C378.9,364.3,378.4,364.8,378.7,365.2z"/>
<linearGradient id="SVGID_2_" gradientUnits="userSpaceOnUse" x1="169.5591" y1="650.6186" x2="792.5182" y2="650.6186" gradientTransform="matrix(1 0 0 -1 0 952)">
	<stop  offset="0" style="stop-color:#FFFFFF"/>
	<stop  offset="1" style="stop-color:#000000"/>
</linearGradient>
<path class="st6" d="M453.4,260.7c0,0-138.6-0.4-147.7,15.5c0,0-8,4.6-1.1,11.4c0,0,1.1,8-24,5.7c0,0-81.2-2.3-64.1,3.4
	c0,0-70.9-2.3-37.8,11.4c0,0,18.3,11.4,77.8,17.1c0,0,179.7,30.3,346.9,9.6c17.9,4.4,106.5,5.5,112.5-1.9c3.1-3.8,7.3-6.6,12.2-6.6
	c25.9,0.2,59.9-1.3,40.1-11c-5-2.4,28.5-3.4,21.7-6.8c0,0,10.3-9.1-11.4-12.5c-19.4-1.6-38.6-4.8-57.4-9.5c0,0-90.4-9.1-164.8-8
	c0,0-41.4-2.5-39.9-6.6c1.7-4.6-22.1-3.8-26.8-5.3C482.8,264.3,471.6,262.1,453.4,260.7z"/>
<path class="st4" d="M614.1,399l5.2,6.1l0.8,0.9c0.3,0.4,0.8-0.2,0.5-0.5l-5.2-6.1l-0.8-0.9C614.3,398.1,613.8,398.6,614.1,399z"/>
<path class="st7" d="M1026.4,279.8c0,0-43.4-0.4-46.2,15.5c0,0-2.5,4.6-0.4,11.4c0,0,0.4,8-7.5,5.7c0,0-25.4-2.3-20,3.4
	c0,0-22.2-2.3-11.8,11.4c0,0,5.7,11.4,24.3,17.1c0,0,56.2,30.3,108.5,9.6c5.6,4.4,33.3,5.5,35.2-1.9c1-3.9,2.3-6.6,3.8-6.6
	c8.1,0.2,18.8-1.3,12.5-11c-1.6-2.4,8.9-3.4,6.8-6.8c0,0,3.2-9.1-3.6-12.5c0,0-7.9-1.6-17.9-9.6c0,0-28.3-9.1-51.5-8
	c0,0-13-2.5-12.5-6.6c0.5-4.6-6.9-3.8-8.4-5.4C1035.6,283.4,1032.1,281.2,1026.4,279.8z"/>
<line class="st8" x1="245" y1="84" x2="709" y2="249"/>
</svg>
