<?xml version="1.0" encoding="utf-8"?>
<!-- Generator: Adobe Illustrator 26.4.1, SVG Export Plug-In . SVG Version: 6.00 Build 0)  -->
<svg version="1.1" id="Capa_1" xmlns="http://www.w3.org/2000/svg" xmlns:xlink="http://www.w3.org/1999/xlink" x="0px" y="0px"
	 viewBox="0 0 400 400" style="enable-background:new 0 0 400 400;" xml:space="preserve">
<style type="text/css">
	.st0{fill:#0000FF;}
</style>
<g>
	<path class="st0" d="M253,253c-2.4-1.9-8.1-7-14-18.7c-1.8-3.5-6.4-13.2-9.3-29.2c-3.6-19.6-1.9-34.2,0-50.2
		c2.3-19.4,5.5-26.4,10.5-31.5c2-2,6.4-6.3,12.8-7c5.4-0.6,9.6,1.7,15.2,4.7c5.1,2.8,9.8,6.3,11.8,8.5c0-0.1-0.1-0.2-0.1-0.4
		c-0.3-0.9-1-1.8-2.3-3.5c-2-2.6-4-4.2-5.8-5.8c-1.5-1.3-2.8-2.3-4.7-3.5c-1.2-0.7-2.6-1.6-4.7-2.3c-1.3-0.5-3.3-1.2-5.8-1.2
		c-2.5,0-2.9,0.7-5.8,1.2c-3.5,0.6-6.4,0.2-8.2,0c-3.9-0.5-6.5-1.7-8.2-2.3c0,0-14.1-5.5-36.2-2.3c-0.1,0-0.6,0.1-1.2,0
		c-1.3-0.2-2.1-1-2.3-1.2c-1.5-1.3-3.7-1.6-8.2-3.5c-1.7-0.7-4.1-1.8-7-3.5V99c-0.5-0.3-1.3-0.8-2.3-1.2c-2-0.8-3.6-1-4.7-1.2
		c-5-0.7-7-0.8-9.3-1.2c-2.8-0.4-2.8-0.6-5.8-1.2c-4.2-0.7-4.9-0.5-11.7-1.2C139,92.5,137.4,92,134,92c-1.5,0-2.9,0.1-5.8,0
		c-1.1,0-1.5-0.1-2.3,0c-1.9,0.2-2.8,0.6-4.7,1.2c-1.1,0.3-3.9,1.1-7,1.2c-0.5,0-1.7,0-3.5,0c-2.1,0-2.1,0-2.3,0
		c-1.4,0.1-3.1,0.2-4.7,1.2c-1.5,1-1.2,1.8-2.3,2.3c-1.6,0.7-2.4-0.7-5.8-1.2c-1.2-0.2-4.2-0.5-7,0c-0.5,0.1-1.3,0.3-2.3,0
		c-0.7-0.2-1.1-0.5-2.3-1.2c-1.3-0.7-1.9-1.1-2.3-1.2c-2.4-0.6-4.5,1-4.7,1.2c-0.7,0.5-0.5,0.7-1.2,1.2c-1.2,1-2.4,0.9-4.7,1.2
		c-2.9,0.3-4.3,0.5-5.8,1.2c-1.6,0.7-2.3,1.4-3.5,1.2c-1-0.2-1-0.8-2.3-1.2c-1.6-0.5-2.9-0.1-3.5,0c-0.8,0.2-1.6,0.4-2.3,1.2
		c-0.2,0.2-1,1-1.2,2.3c-0.1,0.7,0.1,0.8,0,1.2c-0.2,1.1-1.7,1.3-3.5,2.3c-2.7,1.6-2.7,3.3-4.7,3.5c-0.1,0-0.8,0-2.3,0
		c-2,0-2,0-2.3,0c-1.2,0.1-2.5,0.2-3.5,1.2c-0.8,0.8-1,1.8-1.2,2.3c-0.1,0.5-0.2,1.3,0,2.3c0.1,0.3,0.3,1.4,1.2,2.3
		c0.7,0.7,1,0.7,1.2,1.2c0.2,0.6-0.4,1.1-1.2,2.3c-1,1.6-0.6,1.8-1.2,2.3c-1.2,1.3-2.9,0.2-5.8,1.2c-0.9,0.3-2.5,0.8-3.5,2.3
		c-1.1,1.7-1.2,4.3,0,5.8c0.7,0.9,1.2,0.6,3.5,2.3c1.8,1.4,2.2,2.1,2.3,2.3c0.4,0.9,0.7,2.5,0,3.5c-0.4,0.6-0.7,0.4-2.3,1.2
		c-0.8,0.4-2.2,1.1-3.5,2.3c-0.2,0.2-0.3,0.3-1.2,1.2c-1,1-1,1-1.2,1.2c-0.2,0.3-1,1.2-1.2,2.3c-0.3,1.8,1,3.3,1.2,3.5
		c1.2,1.4,3.1,1.8,5.8,2.3c1.7,0.3,2.6,0.3,3.5,1.2c0.2,0.2,1.2,1.1,1.2,2.3c0,1-0.6,1.8-1.2,2.3c-1.3,1.4-2,1.1-3.5,2.3
		c-0.4,0.3-1.8,1.5-2.3,3.5c-0.2,0.8-0.7,2.3,0,3.5c1,1.8,3.7,2.1,5.8,2.3c1.7,0.2,3,0.3,4.7,0c1-0.2,1.7-0.4,2.3,0
		c0.4,0.2,0.4,0.5,1.2,2.3c0.7,1.6,0.9,2,1.2,2.3c0.7,0.8,1,0.7,1.2,1.2c0.5,1.2-1.7,2.3-2.3,4.7c-0.4,1.6-0.1,3.8,1.2,4.7
		c0.8,0.5,2.1,0.3,4.7,0c1.9-0.2,3.1-0.6,3.5,0c0.2,0.3,0,0.5,0,1.2c0.1,1.3,1,2.1,1.2,2.3c0.2,0.2,1.1,1.1,2.3,1.2
		c1.3,0.1,1.6-0.8,3.5-1.2c1.1-0.2,1.9-0.1,2.3,0c0.8,0.2,1.9,0.4,2.3,1.2c0.2,0.4,0.1,0.6,0,2.3c-0.1,1.2-0.1,1.9,0,2.3
		c0.3,1.2,0.9,2,1.2,2.3c0.5,0.7,0.7,0.6,1.2,1.2c0.8,1,0.6,1.6,1.2,2.3c0.8,1,2.4,1.3,3.5,1.2c1.3-0.2,2.2-1,3.5-2.3
		c2.1-2.1,2.3-3.4,3.5-3.5c0.7,0,0.7,0.5,2.3,1.2c2.1,0.9,2.7,0.4,3.5,1.2c0.9,0.9,0.1,1.7,1.2,3.5c0.5,0.9,1.1,1.4,1.2,2.3
		c0,0.2,0,1.2,0,1.2c-0.6,0.1-1.4,0.2-2.3,0c-0.9-0.2-1.1-0.5-2.3-1.2c-1.6-0.8-2.4-1.3-3.5-1.2c-0.2,0-1.6,0.1-2.3,1.2
		c-0.8,1.1-0.3,2.6,0,3.5c0.2,0.5,0.5,1.1,1.2,2.3c0.9,1.6,1.3,2.2,1.2,2.3c-0.2,0.2-0.9-0.4-2.3-1.2c-1.7-0.9-2.6-1.4-3.5-1.2
		c-1.5,0.3-2.2,2.1-2.3,2.3c-0.4,1.1-0.3,2,0,3.5c0.4,2.2,0.9,2.6,1.2,4.7c0.1,0.9,0.2,1.5,0,2.3c-0.1,0.4-0.6,2.8-2.3,3.5
		c-0.4,0.2-0.5,0.1-2.3,0c0,0-1.2,0-3.5,0c-2.3,0-3.5,0-3.5,0c-1.9,0-2-0.1-2.3,0c-1.5,0.6-2.6,2.8-2.3,4.7c0.2,1,0.9,1.9,2.3,3.5
		c1,1.2,2.2,2.2,2.3,2.3c1.7,1.5,2.4,1.8,2.3,2.3c-0.1,0.7-1.5,1.1-2.3,1.2c-0.3,0-0.4,0-1.2,0c0,0-1.2,0-2.3,0
		c-1.1,0-4,0.5-4.7,2.3c-0.4,1.2,0.2,2.7,1.2,3.5c1,0.8,2.1,0.5,2.3,1.2c0.3,0.7-0.6,1.7-1.2,2.3c-0.7,0.8-0.9,0.7-1.2,1.2
		c-0.6,1-0.6,2.4,0,3.5c0.7,1.3,1.8,1.1,2.3,2.3c0.4,0.9,0.2,1.7,0,2.3c-0.1,0.5-0.6,2.1-3.5,4.7c-2.1,1.9-3.1,2.1-3.5,3.5
		c-0.1,0.4-0.3,1.3,0,2.3c0.4,1.1,1.2,2,2.3,2.3c1.1,0.3,1.4-0.4,2.3,0c0.9,0.3,0.8,1,2.3,2.3c0.8,0.8,1.1,0.8,1.2,1.2
		c0,0.7-1.1,0.9-2.3,2.3c-0.6,0.7-1.2,1.4-1.2,2.3c0,0.5,0.4,1.1,1.2,2.3c0.7,1.1,1.1,1.5,1.2,2.3c0.1,0.6-0.1,0.6,0,1.2
		c0.1,1.3,1,2.2,1.2,2.3c1.1,1.1,2.6,1.1,4.7,1.2c2.9,0,4.3-0.6,4.7,0c0.3,0.6-0.8,1.3-1.2,3.5c-0.1,0.7-0.3,1.5,0,2.3
		c0.5,1.5,1.9,2.1,2.3,2.3c2.2,1.1,3.3-0.2,7,0c1.7,0.1,0.9,0.3,5.8,1.2c2.9,0.5,3.6,0.5,4.7,1.2c0.7,0.4,1.2,0.9,2.3,1.2
		c1.2,0.3,2.1,0,2.3,0c1.1-0.3,1.4-0.8,2.3-1.2c1.2-0.5,2.2-0.2,3.5,0c1.4,0.2,2.9,0.1,5.8,0c2.1-0.1,3.7-0.5,7-1.2
		c4.2-0.9,4.8-1.3,9.3-2.3c1.3-0.3,3.3-0.7,5.8-1.2c1.9-0.3,5.6-0.9,10.5-1.2c5.6-0.3,9.9-0.1,11.7,0c7.5,0.3,8.2-0.4,37.3-2.3
		c5.9-0.4,9-0.6,14-1.2c9.1-1.1,13.7-1.6,17.5-3.5c5.3-2.6,3.7-4,14-11.7c5.4-4,5.9-3.7,11.7-8.2c0.8-0.6,3.9-3,8.2-5.8
		c3.5-2.3,5-3.1,7-3.5c2.8-0.6,4.3-0.1,7,0c1.5,0.1,3-0.1,4.3-0.2C260,259,257.4,256.6,253,253z M157.8,228.8c0,0-0.1-0.1-0.1-0.2
		L154,224c-1.7-2.9-2.5-5.4-3-7c-0.8-2.8-2.3-8.1-1-14c0.2-0.9,0.9-3.7,0.4-7.1c-0.2-1.2-0.5-2.3-1.4-2.9c-0.8-0.5-1.8-0.3-3,0
		c-0.9,0.2-2.3,0.7-3.8,1.7c-0.5,0.9-0.9,1.6-1.4,2.2c0.1,0,0.2,0,0.2,0.1c0.1,0.3-0.6,0.9-1.7,1.4c-0.6,0.5-1.3,0.8-1.8,0.9
		c-1.7,0.4-3.5,0-3.5,0c0,0,1,0.2,2.3,0c1.1-0.1,2.1-0.5,3-0.9c0.5-0.4,1-0.9,1.5-1.5c-0.5,0-1.7,0.3-3.8,0.1c-1.1-0.1-2.1-0.4-4-1
		c-3.4-1-3.6-1.4-4.8-1.3c-1.6,0.1-3,0.9-3.5,1.2c-0.8,0.4-1.2,0.7-1.7,1.1c-1.1,1.2-0.8,2.1-1.8,4.7c-0.5,1.1-0.7,1.7-1.2,2.3
		c-0.3,0.4-1.7,2-4,2c-0.5,0-2.1,0-3-1c-0.7-0.7-0.4-1.3-1.1-2.1c-0.8-0.9-2-1.1-2.3-1.2c-1.6-0.3-2.2,0.9-4.7,1.2
		c-0.9,0.1-1.5,0.1-2.3,0c-2.5-0.2-4.7-0.9-4.7-1.2c0-0.3,3,0.8,7,0c2.8-0.5,3.1-1.6,4.7-1.2c2.1,0.5,2.1,2.7,4.7,3.5
		c0.3,0.1,1.8,0.6,3.5,0c1.5-0.5,3.1-1.8,3.5-3.5c0.4-1.7-0.6-2.3,0-3.5c0.4-0.8,0.9-0.8,4.7-2.3c2.4-1,2.7-1.2,3.5-1.2
		c1,0,1.2,0.3,3.5,1.2c2.2,0.8,3.3,1.2,4.7,1.2c0.9,0,2.4-0.1,3.5-1.2c1.3-1.3,1.2-3.1,1.2-3.5c-0.1-2-1.3-3.4-1.2-3.5
		c0.1-0.1,0.5,0.5,1.2,1.2c1,1,2.1,2.1,3.5,2.3c1.1,0.2,2.7-0.2,3.5-1.2c0.7-0.8,0.3-1.4,0.8-4c0.4-2.1,0.8-2.3,1-4
		c0.3-1.8,0-2.8,0-4c-0.2-4.2,1.6-8.1,2-8c0.4,0.1-0.7,5.9-1.5,17.7c-0.6,8.9,0,10.8,0,11.7c0.1,1.2,0.7,2.8,0.6,5.1
		c-0.1,1.9-0.5,2.6-0.6,4.2c-0.1,1.9,0.3,2.8,1.2,5.8c1.5,5.3,2,9.1,3.3,11.5c0.6,1.2,1.4,2.2,1.7,2.6l0.8,1.1
		C158.4,229.5,158.1,229.2,157.8,228.8z"/>
	<path class="st0" d="M375.6,165.5c0,0-2-9.5-8.2-22.2c-0.6-1.2-1.9-3.8-4.7-5.8c-1.2-0.9-3.3-2.4-5.8-2.3c-0.8,0-1.3,0.2-2.3,0
		c-1.6-0.3-1.9-1-3.5-1.2c0,0,0,0-2.3,0c0,0-1.1,0-2.3,0c-0.8,0-1.6,0-2.3,0c-1.2,0-2.3,0-3.5,0c-0.8,0-1.6,0-2.3,0
		c-0.8,0-1.6,0-2.3,0c-0.1,0-2.3,0-2.3,0c-1.1,0-1.2,0-1.2,0c-2,0-3.6-0.8-5.8-1.2c0,0,0,0-4.7,0c-1.2,0-2.3,0-3.5,0
		c-0.8,0-1.6,0-2.3,0s-1.6,0-2.3,0c-4.7,0-4.7,0-4.7,0c-4-0.1-4.1-1.1-8.2-1.2c0,0,0,0-3.5,0c-1.2,0-2.3,0-3.5,0c-1.6,0-3.1,0-4.7,0
		c0,0-2.5-0.6-5.8,0c-0.9,0.2-1.7,0.4-2.3,0c-0.5,0.9-5-1.6-14-2.3c-2.3-0.2-3.8-0.3-5.8,0c-1,0.1-6.2,0.9-10.5,4.7
		c-3,2.6-4.3,5.6-5.8,9.3c-3.8,9.5-5.7,14.3-7,21c-0.7,3.4-3,16.9,0,35c1.4,8.4,3.5,20.2,11.7,31.5c2.7,3.7,8.2,11.1,14,10.5
		c2.1-0.2,4.2-1.5,8.2-1.2c3.1,0.2,3.6,1.1,5.8,1.2c5.5,0.1,8.8-5.1,9.3-4.7c0.8,0.6-3.6,11.1-10.4,17.8c4.3-3,7.1-6.5,8.1-8.4
		c2.2-4.1,2.3-4.7,2.3-4.7c0.2-0.7,0.4-1.6,1.2-2.3c0.9-0.9,2-1.1,2.3-1.2c1.1-0.2,1.2,0.1,2.3,0c1.6-0.2,1.8-0.9,3.5-1.2
		c0.1,0,0.8,0,2.3,0c2.2,0,2.2,0,2.3,0c1.7-0.2,1.9-1,3.5-1.2c1.2-0.1,1.3,0.3,2.3,0c1.1-0.3,1.2-0.9,2.3-1.2c0.2-0.1,0.2,0,2.3,0
		c1.1,0,2.3,0,2.3,0c0.8,0.2,1.6,0.2,2.3,0c1-0.3,1.3-0.9,2.3-1.2c1-0.3,1.1,0.1,2.3,0c1.7-0.2,1.8-1,3.5-1.2c1.3-0.1,1.4,0.3,2.3,0
		c1-0.3,1.2-1,2.3-1.2c0.6-0.1,0.6,0.1,1.2,0c1.1-0.2,1.3-0.9,2.3-1.2c0.3-0.1,0.5,0,1.2,0c1.4,0.1,1.2,0,3.5,0c2.9,0,2.9,0.2,3.5,0
		c1.1-0.4,1.2-0.9,2.3-1.2c1.1-0.2,1.3,0.2,2.3,0c1.2-0.3,1.1-0.9,2.3-1.2c0.4-0.1,0.4,0,2.3,0c1.2,0,1.1,0,2.3,0
		c1.9,0,1.9,0.1,2.3,0c1.1-0.3,1.2-0.8,2.3-1.2c1-0.3,1.7-0.1,2.3,0c2.2,0.3,4.3-1.2,5.8-2.3c2.1-1.5,3.3-3.3,4.7-5.8
		c3.1-5.7,4.4-10.6,4.7-11.7c1.9-7.1,3.1-11.9,3.5-18.7C378.4,178.8,377,172.4,375.6,165.5z M373.2,199.4c-1.2,4.6-2.8,10.4-7,11.7
		c-2.7,0.8-5.6-0.5-7-1.2c-3.2-1.5-5-3.7-5.8-4.7c-1.3-1.6-6-8.1-7-24.5c-1-15.8,2.5-23.6,3.5-25.7c1.8-3.7,3.6-7.5,7-8.2
		c5.5-1.1,11.4,6.7,14,11.7c2.6,4.9,2.9,10.3,3.5,21C375,190.7,374.2,195.7,373.2,199.4z"/>
</g>
</svg>
