<svg id="Layer_1" data-name="Layer 1" xmlns="http://www.w3.org/2000/svg" viewBox="0 0 293.08 131.21"><title>logo46snav4</title><path d="M185.56,206.14V191.51h2.14v14.63Z" transform="translate(-185.56 -147.3)"/><path d="M199.07,206.14l-3.39-7.5a.56.56,0,0,0-.52-.31.58.58,0,0,0-.57.6v7.21h-2.16V191.51h2.16L198,199a.57.57,0,0,0,.51.31.58.58,0,0,0,.58-.6v-7.21h2.16v14.63Z" transform="translate(-185.56 -147.3)"/><path d="M211.63,206.14l-.19-.84a.66.66,0,0,0-.66-.51H208a.68.68,0,0,0-.68.51l-.18.84H205l3.31-14.63h2.14l3.33,14.63Zm-1-4.35-.58-2.51a.69.69,0,0,0-1.35,0l-.58,2.51a.44.44,0,0,0,0,.16.69.69,0,0,0,.7.68H210a.69.69,0,0,0,.68-.68A.44.44,0,0,0,210.64,201.79Z" transform="translate(-185.56 -147.3)"/><path d="M222,206.14a4.4,4.4,0,0,1-4.4-4.4V191.51h2.15v10.23a2.25,2.25,0,1,0,4.49,0V191.51h2.15v10.23A4.4,4.4,0,0,1,222,206.14Z" transform="translate(-185.56 -147.3)"/><path d="M235.33,206.14h-4.4V204h.78V193.64h-.78v-2.13h4.4a4.41,4.41,0,0,1,4.4,4.4v5.83A4.41,4.41,0,0,1,235.33,206.14Zm2.24-10.23a2.24,2.24,0,0,0-2.24-2.27h-1.46V204h1.46a2.24,2.24,0,0,0,2.24-2.27Z" transform="translate(-185.56 -147.3)"/><path d="M244.06,206.14V191.51h2.14v14.63Z" transform="translate(-185.56 -147.3)"/><path d="M255.74,193.64v12.5H253.6v-12.5h-3.31v-2.13h8.78v2.13Z" transform="translate(-185.56 -147.3)"/><path d="M266.92,206.14a4.4,4.4,0,0,1-4.38-4.4v-5.83a4.39,4.39,0,1,1,8.78,0v5.83A4.4,4.4,0,0,1,266.92,206.14Zm2.26-10.23a2.25,2.25,0,1,0-4.5,0v5.83a2.25,2.25,0,1,0,4.5,0Z" transform="translate(-185.56 -147.3)"/><path d="M376,206.14v-7.81a.68.68,0,0,0-.67-.68.69.69,0,0,0-.64.46l-.93,2.34-.92-2.34a.68.68,0,0,0-1.32.22v7.81h-2.16V191.51h2.16l2.24,5.73,2.24-5.73h2.16v14.63Z" transform="translate(-185.56 -147.3)"/><path d="M388.54,206.14l-.18-.84a.66.66,0,0,0-.66-.51h-2.77a.68.68,0,0,0-.68.51l-.19.84h-2.14l3.31-14.63h2.14l3.33,14.63Zm-1-4.35-.58-2.51a.71.71,0,0,0-.68-.56.72.72,0,0,0-.68.56l-.57,2.51a.44.44,0,0,0,0,.16.69.69,0,0,0,.7.68h1.17a.69.69,0,0,0,.68-.68A.44.44,0,0,0,387.56,201.79Z" transform="translate(-185.56 -147.3)"/><path d="M398.47,206.14a4.4,4.4,0,0,1-4.38-4.4v-5.83a4.39,4.39,0,1,1,8.78,0h-2.14a2.25,2.25,0,1,0-4.5,0v5.83a2.25,2.25,0,1,0,4.5,0v-1.85h-2.26v-2.13h4.4v4A4.4,4.4,0,0,1,398.47,206.14Z" transform="translate(-185.56 -147.3)"/><path d="M411.46,206.14h-4.4V204h.78V193.64h-.78v-2.13h4.4a4.4,4.4,0,0,1,4.4,4.4v5.83A4.4,4.4,0,0,1,411.46,206.14Zm2.24-10.23a2.24,2.24,0,0,0-2.24-2.27H410V204h1.46a2.24,2.24,0,0,0,2.24-2.27Z" transform="translate(-185.56 -147.3)"/><path d="M425.87,206.14l-.18-.84a.67.67,0,0,0-.66-.51h-2.78a.69.69,0,0,0-.68.51l-.18.84h-2.14l3.31-14.63h2.14L428,206.14Zm-1-4.35-.58-2.51a.69.69,0,0,0-1.36,0l-.57,2.51a.44.44,0,0,0,0,.16.69.69,0,0,0,.7.68h1.17a.69.69,0,0,0,.68-.68A.44.44,0,0,0,424.89,201.79Z" transform="translate(-185.56 -147.3)"/><path d="M432,206.14V191.51h2.14V204h6.64v2.13Z" transform="translate(-185.56 -147.3)"/><path d="M444.54,206.14V191.51h8.79v2.13h-6.64v4.12h4.69v2.13h-4.69V204h6.64v2.13Z" transform="translate(-185.56 -147.3)"/><path d="M463.92,206.14l-3.39-7.5a.55.55,0,0,0-.52-.31.58.58,0,0,0-.57.6v7.21h-2.16V191.51h2.16l3.39,7.5a.57.57,0,0,0,.51.31.58.58,0,0,0,.58-.6v-7.21h2.16v14.63Z" transform="translate(-185.56 -147.3)"/><path d="M476.48,206.14l-.19-.84a.65.65,0,0,0-.65-.51h-2.78a.68.68,0,0,0-.68.51l-.18.84h-2.14l3.31-14.63h2.14l3.33,14.63Zm-1-4.35-.57-2.51a.72.72,0,0,0-.68-.56.71.71,0,0,0-.68.56l-.58,2.51a.44.44,0,0,0,0,.16.69.69,0,0,0,.7.68h1.17a.69.69,0,0,0,.68-.68A.44.44,0,0,0,475.49,201.79Z" transform="translate(-185.56 -147.3)"/><path d="M246.08,231.6v2.18h-2.16V231.6h-5.65v-2.16l6.64-10.3h2.14l-6.15,9.54a.44.44,0,0,0-.1.29.48.48,0,0,0,.49.47h2.63v-2.18h2.16v2.18h1v2.16Z" transform="translate(-185.56 -147.3)"/><path d="M254.7,233.78a4.4,4.4,0,0,1-4.38-4.4v-5.84a4.39,4.39,0,1,1,8.77,0H257a2.26,2.26,0,1,0-4.51,0V225a.41.41,0,0,0,.4.39.58.58,0,0,0,.18,0,4,4,0,0,1,1.67-.33,4.39,4.39,0,1,1,0,8.78Zm0-6.64a2.25,2.25,0,1,0,2.26,2.24A2.25,2.25,0,0,0,254.7,227.14Z" transform="translate(-185.56 -147.3)"/><path d="M373.77,233.78a4.43,4.43,0,0,1-4.38-3.91h2.18a2.27,2.27,0,0,0,2.2,1.77,2.25,2.25,0,0,0,.43-4.46l-1.64-.29a3.91,3.91,0,0,1,.72-7.75h.49a4.41,4.41,0,0,1,4.36,3.91H376a2.22,2.22,0,0,0-2.18-1.77h-.49a1.75,1.75,0,0,0-1.75,1.77,1.67,1.67,0,0,0,1.3,1.68l1.64.33a4.39,4.39,0,0,1-.7,8.72Z" transform="translate(-185.56 -147.3)"/><path d="M388.69,233.78l-3.39-7.5a.55.55,0,0,0-.51-.31.58.58,0,0,0-.58.59v7.22h-2.16V219.14h2.16l3.4,7.5a.54.54,0,0,0,.51.31.57.57,0,0,0,.57-.59v-7.22h2.16v14.64Z" transform="translate(-185.56 -147.3)"/><path d="M401.25,233.78l-.18-.84a.67.67,0,0,0-.66-.52h-2.77a.69.69,0,0,0-.68.52l-.19.84h-2.14l3.31-14.64h2.14l3.33,14.64Zm-1-4.36-.58-2.51a.7.7,0,0,0-.68-.55.69.69,0,0,0-.67.55l-.58,2.51a.44.44,0,0,0,0,.16.69.69,0,0,0,.7.68h1.17a.69.69,0,0,0,.68-.68A.44.44,0,0,0,400.27,229.42Z" transform="translate(-185.56 -147.3)"/><path d="M361.63,203.92c-1.86-.6-4-.57-5.76-1.35-2.17-.94-3.18-3-3.61-5.28s-.52-4.8-1.73-6.83-3.52-3.5-4.31-5.79c-.5-1.43-.33-3-.85-4.45-.76-2.08-2.8-3.35-4.46-4.83s-3.56-5.19-2.16-5.8c1.75-.76,2.07,4.09,4.23,4.76,1.85.57,3-2,3.26-3.87q.56-4.12,1.13-8.25c0-.1,0-.2,0-.3.07-.25.14-.49.2-.74a3.83,3.83,0,0,0-.42-3.5c-.41-.45-1-.7-1.42-1.13a3.86,3.86,0,0,1-.91-2.95c.05-1.07.31-2.11.32-3.18a2.1,2.1,0,0,0-.31-1.3,2.49,2.49,0,0,0-.88-.65,4.69,4.69,0,0,0-3.12-.62,4.11,4.11,0,0,0-2.14,1.54c-1.14,1.45-1.79,4-3.24,5.19a40,40,0,0,1-7.55,5,32.18,32.18,0,0,1-6.41,2.72,63.27,63.27,0,0,1-6.85.8,3,3,0,0,1,0-1.08,8.66,8.66,0,0,1,.83-2.11c.5-1,.95-2.09,1.39-3.15q2-4.62,3.91-9.24a2.58,2.58,0,0,0-2.76.5,7.46,7.46,0,0,0-1.68,2.42,7.61,7.61,0,0,1-1.68,2.43,14.18,14.18,0,0,1-.79-2.68,8.47,8.47,0,0,0-.3-1.67,1.55,1.55,0,0,0-1.19-1.08,1.52,1.52,0,0,0-1.48,1.29,5.14,5.14,0,0,0,.17,2.13c1,4.89-.6,9.55-3.33,13.72l0,0c-.18.31-.34.65-.49,1a56.65,56.65,0,0,1-13.59,18.63c-3.14,2.84-6.68,5.42-8.81,9.08-1.76,3-2.41,6.55-3,10Q280,213.14,278.27,223a9.83,9.83,0,0,1-1,3.16c-1.09,1.88-3.27,2.78-5.31,3.52a33.16,33.16,0,0,0-7.81,3.59,10.14,10.14,0,0,0-4.58,7c-.48,4.94,4.11,9.07,8.88,10.44s9.86.9,14.76,1.64v-.06a22.94,22.94,0,0,1,8.93,6.08,15.68,15.68,0,0,1,4,9.92,7.79,7.79,0,0,1-1.23,4.65c-1,1.47-2.92,2.73-2.66,4.51a1,1,0,0,0,.54.83,1.56,1.56,0,0,0,.7.16c.43,0,1.7.7,2.95-1.06s2.53-4.23,2.29-6.57a10.77,10.77,0,0,0-.46-1.84c-1.38-4.88.58-10.55-2-14.9-1.38-2.32-3.83-3.79-6.31-4.87a34.75,34.75,0,0,0-8.89-2.52c-4.42-.63-9.06-.43-13.11-2.28a7.92,7.92,0,0,1-3.31-2.56,4.25,4.25,0,0,1-.54-4,5.3,5.3,0,0,1,3.49-2.61c1.43-.42,2.95-.54,4.37-1,2.5-.88,4.46-2.83,6.33-4.72s3.83-4,4.27-6.58c.2-1.23.05-2.49.17-3.73a15.24,15.24,0,0,1,1.08-3.95,105.1,105.1,0,0,1,10.93-21.34c1.14-1.72.55-4,1.25-6.82.41-1.67,14.33-14.5,23.19-19.47a4.43,4.43,0,0,1-1.57,4.83c-1,.73-2.43,1.18-2.71,2.38s.57,2.15.29,3.19a3.41,3.41,0,0,1-1.46,1.62,26.9,26.9,0,0,0-7.22,7.92c-.9,1.52-1.67,3.37-1,5,.25.62.69,1.16.88,1.8a5.1,5.1,0,0,1,0,2.2A102.54,102.54,0,0,1,304.29,207a7.61,7.61,0,0,0-.34,2.16c0,.54.16,1.07.18,1.61a16.5,16.5,0,0,1-.69,3.59,7.38,7.38,0,0,0,4,7.78l-.62,1.15c.87,1.13,1.73,2.27,2.59,3.4a6.09,6.09,0,0,1,.68,1,12.47,12.47,0,0,1,.43,1.39c.8,2.53,3.32,4.11,5.8,5s5.18,1.46,7.38,2.94a2.18,2.18,0,0,1,1.06,1.33c.12.84-.65,1.52-1,2.31a2.85,2.85,0,0,0,1.64,3.55,4.6,4.6,0,0,0,2.65,0c.93-.26,1.48-.84,1.64-.72s-.1.94-.42,1.36a10.53,10.53,0,0,1-3.14,2.28,51,51,0,0,0-10.66,8.57c-2.95,3.17-4.28,5.83-4.27,6.57,0,1.49,2.13.84,3.38-.71a18.6,18.6,0,0,1,2.4-3,1.39,1.39,0,0,1,.66-.34,1.35,1.35,0,0,1,1.23.79,3,3,0,0,1-1,4.19c-.25.17-.56.32-.67.61a.8.8,0,0,0,.54.95,2.32,2.32,0,0,0,1.2,0,7.15,7.15,0,0,0-.81,2.45c-.07.57.13,1.35.7,1.3a.8.8,0,0,0,.49-.27,2.68,2.68,0,0,0,.54-3c.81-.59,2.29-.05,2.35-.59s-1.14-1.61-.94-2.59a6.4,6.4,0,0,0,.33-2.95c-.23-.77-.9-1.43-.83-2.23s.77-1.29,1.38-1.76a16.33,16.33,0,0,0,3.57-3.8c.81-1.21,1.84-2.72,3.28-2.5a2.23,2.23,0,0,0,.72.09c.46-.07.74-.57,1.19-.73s1.06.18,1.54.45a6.36,6.36,0,0,0,3.89.77c.45-.06,1-.26,1-.71s-.42-.78-.86-.9a2.31,2.31,0,0,1-1.22-.54,1.25,1.25,0,0,1,.27-1.58,9.59,9.59,0,0,1,1.45-1,1.17,1.17,0,0,0,.49-.52c.34-.8-.82-1.44-1.67-1.32s-1.77.55-2.54.14-.88-1.16-1.31-1.77a2.88,2.88,0,0,0-2.43-1.2,2.06,2.06,0,0,1-1.21-.1,1.15,1.15,0,0,1-.25-1.44c.21-.48.6-.87.83-1.35a2.47,2.47,0,0,0-.63-2.89c-.55-.46-1.35-.73-1.57-1.41a4.13,4.13,0,0,1-.09-.93c-.11-1.44-1.48-2.42-2.74-3.12s-2.68-1.49-3.07-2.88a.61.61,0,0,1,.05-.56.51.51,0,0,1,.35-.15c.94-.13,2,.6,2.75,0a1.46,1.46,0,0,0,0-1.86c-.38-.55-1-1-1.33-1.52a1.45,1.45,0,0,1,0-1.85,1.24,1.24,0,0,1,1.81.54c.23.48.29,1.14.78,1.35s1.21-.49,1.3-1.16,0-1.42.42-1.93a1.21,1.21,0,0,1,2,.35c.22.62-.13,1.3-.15,2a2.1,2.1,0,0,0,2.49,2,5.51,5.51,0,0,0,2.11-1.54,2.29,2.29,0,0,1,2.38-.7,2.37,2.37,0,0,1,1,2.22,4.64,4.64,0,0,0,.38,2.49l.65.46c.66.22,1.64,1.24.64,2.81-.27.43-.92.64-.94,1.15s.83.86,1.47.82,1.48,0,1.63.61c.1.39-.17.77-.38,1.11a4.57,4.57,0,0,0-.33,4c.43,1.1,1.79,2.07,2.73,1.36s.74-2.1,1.68-2.49c.69-.28,1.78.07,2-.63.19-.55-.47-1.08-.36-1.65s1.21-.63,1.58-.07a3.17,3.17,0,0,1,.25,2,2,2,0,0,0,.6,1.84,1.11,1.11,0,0,0,1.55-.38,2.81,2.81,0,0,0,.27-1.75,12,12,0,0,1-.12-3.73c.33-1.4,1.35-2.52,2.06-3.76s1.09-2.93.17-4c-1.45-1.73-4.86-.65-6.06-2.56a.82.82,0,0,1-.14-.56c.11-.43.71-.45,1.14-.35,2.93.66,5.72,2.51,8.68,2a1.12,1.12,0,0,0,.61-.26,1.06,1.06,0,0,0,.23-.74c0-.88-.23-1.76-.13-2.63s.75-1.81,1.63-1.76a12,12,0,0,0,0,2.32,5.2,5.2,0,0,0,2-1.46,1.78,1.78,0,0,0-.06-2.29c-.21-.2-.51-.35-.57-.63s.39-.7.79-.75a2.3,2.3,0,0,0,1.18-.25c.73-.57-.06-1.79.28-2.66.13-.36.47-.65.5-1s-.46-.87-.9-1.13a4.68,4.68,0,0,0-2-.8,8.6,8.6,0,0,0-2.55.6,5.11,5.11,0,0,1-4.22-.8c-.81-.58-1.52-1.43-2.51-1.55-.38-.05-.81,0-1.11-.23s-.28-1.1-.59-1.57-1-.57-1.35-1.06,0-1.41-.35-2-1.49-.66-1.52-1.37c-.05-.95,1.83-.79,2.07-1.72a1.28,1.28,0,0,0-.06-.64c-.21-.77-1.23-1.66-.9-3.58s-2.06-2.85-3.2-4.35c-1-1.28-1-3-1.39-4.57-.79-2.82-3.07-4.93-5.23-6.92s-4.37-4.2-5-7.07,1.26-6.43,4.19-6.42a1.79,1.79,0,0,1,1.35.48c.8.89-.09,2.2-.67,3.24a6.21,6.21,0,0,0,1.8,7.88c1.53,1.07,3.57,1.43,4.78,2.85,1.45,1.7,1.2,4.23,1.92,6.34,1,2.88,3.73,4.8,5.07,7.54,1.46,3,1.21,6.88,3.61,9.2,2.87,2.77,8.47,2.11,10.23,5.69a6.53,6.53,0,0,1,.51,3.07c-.15,5.19-2.75,9.94-5,14.6-3.72,7.58-4,15.1-3.12,15,.47-.06.79-3.87,1.92-7.8a117.47,117.47,0,0,1,5.05-13.15c1.16-2.73,2.49-5.49,2.61-8.46S364.46,204.82,361.63,203.92Z" transform="translate(-185.56 -147.3)"/></svg>