<svg id="Layer_1" data-name="Layer 1" xmlns="http://www.w3.org/2000/svg" viewBox="0 0 214.65 112.33"><defs><style>.cls-1{fill:#222221;}</style></defs><title>logo46snav5</title><path class="cls-1" d="M422.25,265c.06.26.67-.21.85-.63a2.49,2.49,0,0,0-.15-2.08,1.75,1.75,0,0,0-1.66-.55,5.6,5.6,0,0,0-1.68.7c-.3.16-.68.32-.95.12a.67.67,0,0,1-.23-.52c0-.71.66-1.21,1.16-1.72a5,5,0,0,0,1-1.43,1.93,1.93,0,0,0,.24-.94,1.48,1.48,0,0,0-.58-1,2.85,2.85,0,0,0-1.09-.46,8.81,8.81,0,0,0-4.19.35,17.54,17.54,0,0,1-4.16.83,1.18,1.18,0,0,1-.42-.05c-.52-.17-.62-.9-.37-1.39a4.78,4.78,0,0,1,1.12-1.17,6.7,6.7,0,0,0,1.43-2.44,12.37,12.37,0,0,0,.54-3.08c0-1.32.32-2.63.41-3.95a6.18,6.18,0,0,0-.79-3.81,5.6,5.6,0,0,0-2.66-2,30.09,30.09,0,0,0-3.24-.95c-2.17-.58-4.25-1.44-6.41-2-1.28-.36-2.58-.63-3.88-.9l-.77-.16a5,5,0,0,0-.54-.08,4.27,4.27,0,0,0-2.12.7,26.24,26.24,0,0,1-4.88,1.66l-.9.11A3.58,3.58,0,0,1,384.7,237c-.8-1-.65-2.42-1-3.65a4.59,4.59,0,0,0-2.22-2.72,2,2,0,0,0-.87-.26,2.22,2.22,0,0,0-.72.16c-2.73,1-4.51,3.62-6.8,5.43s-5.19,2.93-6.81,5.34c-.36.54-.64,1.12-1,1.67a16.6,16.6,0,0,1-2.93,3.62c-.72.42-3.1,1.1-4.64,1.73a33.85,33.85,0,0,1-5.82,1.51,17.86,17.86,0,0,0-2.38.66c-.8.31-1.57.72-2.35,1.07a33.8,33.8,0,0,1-6.26,1.94c-1.32.22-4.64-1.17-6.78-.37a6.67,6.67,0,0,0-1,.5,23.21,23.21,0,0,1-4.23,2.25,16.25,16.25,0,0,1-5.39.58,4,4,0,0,1-2.2-.46c-1-.67-1.18-2.07-1.81-3.12a25.28,25.28,0,0,1-1.6-2.28,7.12,7.12,0,0,1-.41-1.84,19,19,0,0,0-3.39-8.42s-1.51-2.17-2-2.72a3.92,3.92,0,0,1-.93-1.23,3.2,3.2,0,0,1,.2-2.06,8,8,0,0,1,.66-1.57,15.32,15.32,0,0,1,2.07-2.42c1.28-1.43,2.2-3.18,3.64-4.45a15.19,15.19,0,0,1,2.7-1.78,39.61,39.61,0,0,0,4.35-2.12c1.14-.77,2.1-2.12,1.75-3.46-.44-1.71-2.63-2.26-4.4-2.09s-3.63.71-5.24,0a1.31,1.31,0,0,1-.66-.56,1.59,1.59,0,0,1-.09-.78c.06-.85.12-1.7.17-2.54s.25-1.79,1-2a3.14,3.14,0,0,1,1.25.08c1.85.22,3.27-1.53,4.36-3,3.52-4.88,8-9.55,13.9-10.88,1.28-.29,3.37-.1,4.29-1a5.68,5.68,0,0,0,1.21-2.89c.4-1.85-.61-4.13,0-5.94,2.26-6.31,2.52-8.18,2.54-12.37,0-.36.51-.5.57-.8a2.32,2.32,0,0,0,0-1.39,12.12,12.12,0,0,0-1.05-2.14c-1.27-2.6-1.24-3.89-.17-5.68a10.73,10.73,0,0,1,5.41-4c1.62-.55,3.57-1.94,3.89-2.82l-2-.14c-1.67,1.45-3.89,2.07-5.79,3.21a4.68,4.68,0,0,0-1.44,1.21c-.15.22-.28.45-.45.66a7.53,7.53,0,0,1-.77.72,5.06,5.06,0,0,0-1.47,5,15.47,15.47,0,0,0,1.43,3,10.13,10.13,0,0,1,.78,4.23,16.63,16.63,0,0,1-1.08,4.52c-.14.46-.29.92-.47,1.36s-.3.67-.45,1a20.22,20.22,0,0,0-.67,2,16.82,16.82,0,0,0-.78,3.55,3.1,3.1,0,0,0,.07,1c.07.24.18.47.25.7a3.77,3.77,0,0,1,.06,1.38v.85a4,4,0,0,1-.62,1.94,2.62,2.62,0,0,1-.73.79,4.07,4.07,0,0,1-1.68.55l-2.22.37a.7.7,0,0,0-.42.16c-.06.07-.11.16-.2.18s-.23-.11-.34-.18a.52.52,0,0,0-.59.05,1.55,1.55,0,0,0-.38.5,1.7,1.7,0,0,0-1.32.16,5.46,5.46,0,0,0-1.09.82c-2,1.71-4.41,3-6.25,4.91l-.55.63a13.64,13.64,0,0,0-2.44,3.65c-.23.51-.49,1.08-1,1.26a2,2,0,0,1-.85,0,7.64,7.64,0,0,0-3.21.49,2,2,0,0,0-.68.38,6.22,6.22,0,0,0-.73,1.15c-.19.26-.44.48-.63.74a4.51,4.51,0,0,0-.6,1.32,9.15,9.15,0,0,0-.53,2.3,4.4,4.4,0,0,0,.88,2.82,6.88,6.88,0,0,0,2.41,1.89,7.63,7.63,0,0,0,2.9.47,6.34,6.34,0,0,0,2.85-1,1.9,1.9,0,0,1,1.28-.35,1.2,1.2,0,0,1,.84,1.3,2.05,2.05,0,0,1-.9,1.38,7.63,7.63,0,0,1-1.5.78,15,15,0,0,0-3.18,1.94,1.17,1.17,0,0,1-.31.2,1.26,1.26,0,0,1-.28,0,3,3,0,0,0-1.71.91,14.16,14.16,0,0,0-1.24,1.54c-.39.51-2.07,1.93-3.32,3.31a19.26,19.26,0,0,0-2.35,3.3,6.67,6.67,0,0,1-1,1.52,6.52,6.52,0,0,1-2.36,1.12,3.22,3.22,0,0,0-2,1.54.71.71,0,0,0,0,.68.6.6,0,0,0,.76.08A3.28,3.28,0,0,0,306,237a2.53,2.53,0,0,1,2.87-.59,4.48,4.48,0,0,1,1.68,2c.31.53,1.61,1.37,2.56,2.63a15.53,15.53,0,0,1,1.82,3.59l2.94,7.69a25.67,25.67,0,0,0,1.55,3.47,2.49,2.49,0,0,0,.76.91,2.8,2.8,0,0,0,1.35.32c3.1.19,6.3.38,9.23-.67,2.29-.83,4.49-2.41,6.9-2.06,1.08.16,2.18.71,3.22.39.31-.1.59-.26.9-.33a.8.8,0,0,1,.84.29l.38-.34s7.57-2.49,11-3.63c.94-.31,1.87-.63,2.82-.89A23.41,23.41,0,0,0,362,248a22.94,22.94,0,0,0,3.17-2.93c3.36-4.47,8.21-7.56,12.36-11.33a7.93,7.93,0,0,1,2.2-1.62,1.66,1.66,0,0,1,1-.13,1.89,1.89,0,0,1,1,.79A8.4,8.4,0,0,1,383,236.5a7.38,7.38,0,0,0,1.06,1.87,2.31,2.31,0,0,0,1.53.84c.59.09,3,.17,3,.17l6.7-1.58a2.47,2.47,0,0,1,1.14-.09c.16,0,.32.1.48.12a2.16,2.16,0,0,0,.71-.16,2.24,2.24,0,0,1,1.68.22.36.36,0,0,1,.17.15c.09.22-.23.38-.46.41-.92.12-1.84.21-2.77.28.14.55.77.79,1.32.94,1.22.33,2.45.58,3.68.83a6.36,6.36,0,0,0,2.17.2c.48-.07.95-.24,1.44-.27s.95.11,1.43.08a6,6,0,0,1,1.33-.09,8.91,8.91,0,0,1,1.23.55c.31.11.66.13,1,.22a2.84,2.84,0,0,1,1.67,1.59,8,8,0,0,1,.54,2.31,15,15,0,0,1,.08,3.84,5.82,5.82,0,0,1-1.6,3.41l-.83,1a24.09,24.09,0,0,0-1.82,3.25c-.83,1.91-1.18,4.05-2.31,5.81-.28.44-.61.85-.88,1.3s-.49.93-.76,1.38a16.25,16.25,0,0,1-5,4.77l2.18-.18c1.61-1.07,3.31-2.23,4.09-4,.25-.57.4-1.18.66-1.75.56-1.22,1.62-2.15,2.21-3.36.3-.61.52-1.34,1.12-1.67a2.62,2.62,0,0,1,1.08-.24,24.55,24.55,0,0,0,5.43-1.09,9.47,9.47,0,0,1,1.74-.45,2.47,2.47,0,0,1,1.72.37,1,1,0,0,1,.45.81,1,1,0,0,1-.18.42,18.89,18.89,0,0,1-1.53,1.84,2.61,2.61,0,0,0-.68,2.2.72.72,0,0,0,.12.25.67.67,0,0,0,.31.17,3.47,3.47,0,0,0,2.81-.39c.41-.25.83-.61,1.31-.52a1,1,0,0,1,.75.81,3,3,0,0,1,0,1.16C422.38,264.58,422.2,264.76,422.25,265Z" transform="translate(-225.01 -157.48)"/><path d="M225,216.13V201.49h2.14v14.64Z" transform="translate(-225.01 -157.48)"/><path d="M238.52,216.13l-3.39-7.51a.58.58,0,0,0-1.09.29v7.22h-2.16V201.49H234l3.39,7.5a.55.55,0,0,0,.51.31.58.58,0,0,0,.58-.6v-7.21h2.16v14.64Z" transform="translate(-225.01 -157.48)"/><path d="M251.08,216.13l-.19-.85a.67.67,0,0,0-.65-.51h-2.78a.7.7,0,0,0-.68.51l-.18.85h-2.14l3.31-14.64h2.14l3.33,14.64Zm-1-4.36-.57-2.51a.72.72,0,0,0-.68-.56.71.71,0,0,0-.68.56l-.58,2.51a.44.44,0,0,0,0,.16.69.69,0,0,0,.7.68h1.17a.69.69,0,0,0,.68-.68A.44.44,0,0,0,250.09,211.77Z" transform="translate(-225.01 -157.48)"/><path d="M261.4,216.13a4.41,4.41,0,0,1-4.4-4.4V201.49h2.16v10.24a2.24,2.24,0,1,0,4.48,0V201.49h2.16v10.24A4.41,4.41,0,0,1,261.4,216.13Z" transform="translate(-225.01 -157.48)"/><path d="M274.78,216.13h-4.4V214h.78V203.63h-.78v-2.14h4.4a4.41,4.41,0,0,1,4.4,4.4v5.84A4.41,4.41,0,0,1,274.78,216.13ZM277,205.89a2.23,2.23,0,0,0-2.24-2.26h-1.46V214h1.46a2.24,2.24,0,0,0,2.24-2.26Z" transform="translate(-225.01 -157.48)"/><path d="M283.51,216.13V201.49h2.14v14.64Z" transform="translate(-225.01 -157.48)"/><path d="M295.19,203.63v12.5h-2.14v-12.5h-3.31v-2.14h8.78v2.14Z" transform="translate(-225.01 -157.48)"/><path d="M306.37,216.13a4.41,4.41,0,0,1-4.38-4.4v-5.84a4.39,4.39,0,1,1,8.78,0v5.84A4.41,4.41,0,0,1,306.37,216.13Zm2.26-10.24a2.25,2.25,0,1,0-4.5,0v5.84a2.25,2.25,0,1,0,4.5,0Z" transform="translate(-225.01 -157.48)"/><path d="M337,216.13v-7.82a.68.68,0,0,0-1.32-.22l-.92,2.34-.93-2.34a.68.68,0,0,0-1.32.22v7.82h-2.15V201.49h2.15l2.25,5.73,2.24-5.73h2.15v14.64Z" transform="translate(-225.01 -157.48)"/><path d="M349.57,216.13l-.19-.85a.67.67,0,0,0-.66-.51H346a.7.7,0,0,0-.68.51l-.19.85H343l3.31-14.64h2.13l3.33,14.64Zm-1-4.36-.58-2.51a.69.69,0,0,0-1.35,0l-.58,2.51a.44.44,0,0,0,0,.16.69.69,0,0,0,.7.68h1.17a.69.69,0,0,0,.68-.68A.44.44,0,0,0,348.58,211.77Z" transform="translate(-225.01 -157.48)"/><path d="M359.49,216.13a4.41,4.41,0,0,1-4.38-4.4v-5.84a4.39,4.39,0,1,1,8.78,0h-2.14a2.25,2.25,0,1,0-4.5,0v5.84a2.25,2.25,0,1,0,4.5,0v-1.85h-2.26v-2.14h4.4v4A4.41,4.41,0,0,1,359.49,216.13Z" transform="translate(-225.01 -157.48)"/><path d="M372.48,216.13h-4.4V214h.79V203.63h-.79v-2.14h4.4a4.4,4.4,0,0,1,4.4,4.4v5.84A4.41,4.41,0,0,1,372.48,216.13Zm2.25-10.24a2.24,2.24,0,0,0-2.25-2.26H371V214h1.46a2.24,2.24,0,0,0,2.25-2.26Z" transform="translate(-225.01 -157.48)"/><path d="M386.89,216.13l-.18-.85a.67.67,0,0,0-.66-.51h-2.77a.7.7,0,0,0-.68.51l-.19.85h-2.14l3.31-14.64h2.14l3.33,14.64Zm-1-4.36-.58-2.51a.71.71,0,0,0-.68-.56.72.72,0,0,0-.68.56l-.57,2.51a.44.44,0,0,0,0,.16.69.69,0,0,0,.7.68h1.17a.69.69,0,0,0,.68-.68A.44.44,0,0,0,385.91,211.77Z" transform="translate(-225.01 -157.48)"/><path d="M393.06,216.13V201.49h2.14V214h6.64v2.14Z" transform="translate(-225.01 -157.48)"/><path d="M405.56,216.13V201.49h8.8v2.14h-6.64v4.11h4.68v2.14h-4.68V214h6.64v2.14Z" transform="translate(-225.01 -157.48)"/><path d="M424.94,216.13l-3.39-7.51a.57.57,0,0,0-.51-.31.58.58,0,0,0-.58.6v7.22H418.3V201.49h2.16l3.39,7.5a.55.55,0,0,0,.52.31.58.58,0,0,0,.57-.6v-7.21h2.16v14.64Z" transform="translate(-225.01 -157.48)"/><path d="M437.5,216.13l-.18-.85a.68.68,0,0,0-.66-.51h-2.78a.7.7,0,0,0-.68.51l-.18.85h-2.14l3.31-14.64h2.14l3.33,14.64Zm-1-4.36-.57-2.51a.69.69,0,0,0-1.36,0l-.57,2.51a.44.44,0,0,0,0,.16.68.68,0,0,0,.69.68h1.18a.68.68,0,0,0,.67-.68A.44.44,0,0,0,436.51,211.77Z" transform="translate(-225.01 -157.48)"/><path d="M285.53,241.58v2.18h-2.15v-2.18h-5.66v-2.16l6.64-10.3h2.14l-6.15,9.54a.47.47,0,0,0,.39.76h2.64v-2.18h2.15v2.18h1v2.16Z" transform="translate(-225.01 -157.48)"/><path d="M294.15,243.76a4.4,4.4,0,0,1-4.38-4.4v-5.84a4.39,4.39,0,1,1,8.78,0h-2.14a2.25,2.25,0,1,0-4.5,0V235a.4.4,0,0,0,.39.39.58.58,0,0,0,.18,0,4.22,4.22,0,0,1,1.67-.33,4.39,4.39,0,1,1,0,8.78Zm0-6.64a2.25,2.25,0,1,0,2.26,2.24A2.24,2.24,0,0,0,294.15,237.12Z" transform="translate(-225.01 -157.48)"/><path d="M334.79,243.76a4.43,4.43,0,0,1-4.38-3.9h2.18a2.27,2.27,0,0,0,2.2,1.76,2.25,2.25,0,0,0,.44-4.46l-1.65-.29a3.88,3.88,0,0,1-3.19-3.84,3.92,3.92,0,0,1,3.91-3.91h.49a4.4,4.4,0,0,1,4.36,3.91H337a2.22,2.22,0,0,0-2.18-1.77h-.49a1.75,1.75,0,0,0-1.75,1.77,1.69,1.69,0,0,0,1.3,1.69l1.64.32a4.45,4.45,0,0,1,3.68,4.32A4.4,4.4,0,0,1,334.79,243.76Z" transform="translate(-225.01 -157.48)"/><path d="M349.72,243.76l-3.4-7.5a.54.54,0,0,0-.51-.31.58.58,0,0,0-.58.6v7.21h-2.15V229.12h2.15l3.4,7.51a.56.56,0,0,0,.51.31.58.58,0,0,0,.58-.6v-7.22h2.16v14.64Z" transform="translate(-225.01 -157.48)"/><path d="M362.28,243.76l-.19-.84a.67.67,0,0,0-.66-.52h-2.77a.69.69,0,0,0-.68.52l-.19.84h-2.13L359,229.12h2.13l3.33,14.64Zm-1-4.36-.58-2.5a.69.69,0,0,0-1.35,0l-.58,2.5a.52.52,0,0,0,0,.17.69.69,0,0,0,.7.68h1.17a.69.69,0,0,0,.68-.68A.52.52,0,0,0,361.29,239.4Z" transform="translate(-225.01 -157.48)"/></svg>