<svg id="Layer_1" data-name="Layer 1" xmlns="http://www.w3.org/2000/svg" viewBox="0 0 362 72"><defs><style>.cls-1{fill:#fff;}</style></defs><title>logomincul</title><g id="Layer_1-2" data-name="Layer 1"><path class="cls-1" d="M362,0H0V72H362ZM2,2H70V70H2ZM72,2H224.24V70H72ZM360,70H226.24V2H360Z"/><path class="cls-1" d="M59.53,28.32h0v-.15l-.15.06-1.82.67-1.92.68h-.09v.08c0,.48-.4.77-.9,1.07V29.8l-.21-2.37h.2a1.29,1.29,0,0,0,.88-.14,9.73,9.73,0,0,0,1.65-1.86l.15-.21c.06-.06.21-.25.38-.45H58c.65,0,.74-.42.74-.67,0-.55-.81-1.06-1.25-1.26v-.09c0-.68-1.36-1.41-2.38-1.9h-.08a1.08,1.08,0,0,0-.24-.57,47.18,47.18,0,0,0-10.36-7,5.17,5.17,0,0,0-2.29-.5,12.39,12.39,0,0,0-4,.76A2,2,0,0,0,37.49,15a2.92,2.92,0,0,0,.8,1.8,1.59,1.59,0,0,1,.46.85c0,.15-.09.24-.25.29A1.52,1.52,0,0,0,37,17.14H36.3A1,1,0,0,1,36,17a.74.74,0,0,1,0-.21,1,1,0,0,0,0-.25c0-.45-.29-.67-.69-.9a.43.43,0,0,0,0-.16.58.58,0,0,0-.53-.3,3.3,3.3,0,0,0-.74.22H34a1.57,1.57,0,0,0,.13-.74c0-1.94-2.83-2-3.15-2-4,0-8.83,3.38-13.07,6.58a4.45,4.45,0,0,0-.82.86,3,3,0,0,1-.84.86c-.17.12-.35.2-.52.3a4.12,4.12,0,0,0-1.17.82,1.25,1.25,0,0,0-.22.37,1.13,1.13,0,0,1-.12.21c-.12.11-.24.22-.37.32-.36.3-.74.61-.74,1a.6.6,0,0,0,.58.62h0a1.42,1.42,0,0,0,.78-.23.09.09,0,0,1,.07,0h0c.83,1,2.5,3,2.52,3h0a1.22,1.22,0,0,0,.93.16h.19L18,29.8v.94l-.13-.07a2.26,2.26,0,0,1-.59-.42.82.82,0,0,1-.1-.26.63.63,0,0,0-.27-.48l-4.5-1.61.32.39c2.85,3.37,3,3.37,3.08,3.37h1l-.22,2.48v5.22a45.52,45.52,0,0,0,.73,5.33,17.55,17.55,0,0,0,3.45,7.48l.21.24h.09a8.53,8.53,0,0,0,6.25,3.09,12,12,0,0,0,6.13-2.19,25.23,25.23,0,0,1-2.46,5l-.11.15.19,0a3,3,0,0,0,.43.08h.86a2.57,2.57,0,0,1,.68.06l-.32,1h0v.22a.11.11,0,0,0,0,.08h0c.1.36.87.46.88.46a5.34,5.34,0,0,0,.8,0l-.13.8h0c.28.86,1.44.86,2.08.86h.18A2.33,2.33,0,0,0,38,61.89a.63.63,0,0,0,.18-.45,4.21,4.21,0,0,0-.09-.49c0-.11-.06-.23-.08-.34a2.54,2.54,0,0,0,1.45-.32.59.59,0,0,0,.17-.33h0V59.9h0a5.45,5.45,0,0,0-.2-.69c0-.16-.12-.38-.15-.51H41.5l-.15-.2a20.76,20.76,0,0,1-2-4l-.13-.31c-.06-.17-.13-.35-.17-.49l.16.1a11.85,11.85,0,0,0,6,1.88c3.7,0,6.15-2.59,7.56-4.77a18.69,18.69,0,0,0,2.85-8.6,3.35,3.35,0,0,1,.08-.72c.09-.79.22-1.85.22-2.13V34.11l-.21-2.48h1a40.37,40.37,0,0,0,2.72-3.13.38.38,0,0,0,0-.15m-2-3.76-.13.13h0c-.07.07-.18.21-.29.35h0s-.1.13-.16.19a9.62,9.62,0,0,1-1.57,1.8,1.23,1.23,0,0,1-.73.12H54.2l1.57-1.26c.38-.29.75-.59,1-.82l.42-.34h0c.08-.08.07-.1.07-.13v-.18l.52-.21-.29.35m-6.74,6.82.43-.41c.64-.64,1.57-1.74,1.58-1.75l-.21-.17s-.93,1.09-1.56,1.73a3.07,3.07,0,0,1-.26.25c0-.53-.06-1-.08-1.23l3.22-2.4-.16-.21L47.5,31.81v-.17l2.3-1.78c1.27-1,2.56-2,3.89-3a1.28,1.28,0,0,0,.47-.79.56.56,0,0,1,.2-.4,6.07,6.07,0,0,1,1.72-.78l.23-.09h.07l.48-.17h0l.23-.09-3,2L54,27.3h.07l.22,2.57V31l-3.65,2.45c0-.36.08-1,.09-1.5v-.5m-2.4,2.92v-.65h1.86l-1,.65Zm.55.27-.69.47a3.33,3.33,0,0,1,.1-.47Zm1.56-3.74v.45l-.25.23H48.44V31.5l.83-.63Zm-.85-.26L50.4,30v.58Zm-1.16,1.88v-.66h1.46l-.78.66Zm.34.27-.34.27v-.27Zm-.35.65h0c.23-.2.49-.4.77-.63h1.24v.65Zm1.1-.92.77-.66h.18v.66ZM47.62,34l.44-.33h.1v.51a5.82,5.82,0,0,1-.2,1.08h-.33V34m0-.33Zm.37-.28h-.39a7.74,7.74,0,0,0-.07-1.23l.47-.35h.19v1.42a1.16,1.16,0,0,0-.21.16m3.15,1.2v.67H49.29l1-.67Zm-.44-.27.47-.32v.32Zm.4,1.21h0c-.3.23-.59.46-.88.65H48.77v-.61l.07,0Zm-.42.66.4-.29v.29Zm.36.27v.66H49a7.65,7.65,0,0,0,1.31-.66Zm-1.27,0a9.18,9.18,0,0,1-1,.48v-.48Zm1.21.93v.67H48.63l.06-.67Zm-.07.93-.06.66h-2.3l.06-.66Zm-.09.94a2.22,2.22,0,0,1-.07.67h-2.3a2.15,2.15,0,0,1,.07-.67ZM44.19,52c-.21-.14-.41-.29-.6-.44l.16-.21h2.44L45.7,52Zm1.3.28c-.09.12-.19.23-.29.34a4.53,4.53,0,0,1-.61-.34Zm-6.34-1.69.1-.69-.76-.2L38,50l-.22-.28H38l1-.45,1.14.86.44.82.48-.16c-.47.46-.94.91-1.42,1.33L39.55,52l.09-.89Zm-.9,1.54v-.07a1.51,1.51,0,0,1,0-.79v-.18h-.42v-.45h-.51v.45h-.57v-.45h-.51v.45h-.58v-.45h-.51v.45h-.29v.12a2,2,0,0,0-.07.42l-.48.5H33.5L34,53l.7.44H38l.55-.31a17.29,17.29,0,0,1-2.26,1.63,20.93,20.93,0,0,1-3.47-2.67l.22-.33.7-.13.17-.53.34-.46h.67l.43-.39L37.57,50l.36.45.61-.41.41.11-.08.57.49.52-.09.87.2.27c-.21.18-.42.37-.62.53l.19-.73Zm-.21.09v.1h-.16v-.1Zm-.24-.45h-.45a.49.49,0,0,1,0-.17.43.43,0,0,1,0-.16h.45a.43.43,0,0,0,0,.16v.17m-1,.55v-.1h.57v.1h-.26v.18H37v-.18Zm0-.55h-.46V51.6a.43.43,0,0,1,0-.16h.45a.43.43,0,0,0,0,.16v.17m-1.06.55v-.1h.58v.1H36v.18h0v-.18Zm0-.55h-.46a.49.49,0,0,1,0-.17.43.43,0,0,1,0-.16h.46a.43.43,0,0,0,0,.16v.17m-.5.45v.1H35l-.13-.18.06-.06h0v.1ZM38.46,59l-.21-.11a.85.85,0,0,1,.22-.09,1.81,1.81,0,0,1,.56-.12,3,3,0,0,1,.1.32Zm.75.28v.07l-.13-.07Zm-.93,0h.11l.25.1H37.35c0-.46-.08-1-.12-1.59h.42c0,.27.09.54.15.8v.09a.86.86,0,0,0,.23.39h0a1.64,1.64,0,0,0,.22.14M37.18,57.5c0-.52-.07-1.07-.1-1.6h.28c.07.54.15,1.12.22,1.6Zm-1-2.54h.55v.68H35.65V55Zm-.48-.27Zm1.14,1.21v.66h-1.3a2.89,2.89,0,0,1,.05-.66Zm.06.94v.66H35.52v-.66Zm.06.94v.65H35.45v-.65Zm.07.92a2.43,2.43,0,0,0,.06.67H35.37a2.65,2.65,0,0,1,.06-.67Zm0-4.11.18-.12c0,.25.08.67.15,1.17h-.27a5.88,5.88,0,0,0-.06-1m.08,5a4.57,4.57,0,0,0,.08.66H35.26c0-.15.06-.38.09-.66ZM26.9,52l-.49-.65h2.43l.17.22c-.19.14-.39.29-.6.43Zm1.1.28a4.53,4.53,0,0,1-.61.34l-.28-.34ZM22.32,34.57l1,.67H21.5v-.67Zm-.86-.27V34l.46.31Zm2.25,1.21.08.05v.61H22.4c-.29-.19-.59-.42-.88-.65h2.19Zm.13.93v.47a7.58,7.58,0,0,1-1-.47Zm-1.91-.27h-.38v-.29l.4.29m.39.27a7.94,7.94,0,0,0,1.3.66h-2a2.89,2.89,0,0,0-.05-.66Zm1.59.93A2.5,2.5,0,0,0,24,38H21.68a2.94,2.94,0,0,0-.05-.66Zm.08.93.06.66H21.76l-.06-.66Zm.09.94c0,.22,0,.44.07.67h-2.3a2.15,2.15,0,0,0-.07-.67Zm1-4h-.4c-.05-.2-.16-.72-.21-1.08v-.51h.63v1.59m-.65-1.87V31.79h.22l.5.37a7.72,7.72,0,0,1-.06,1.21Zm.73,3.73h-.73l-.32-.1c0-.46-.06-.87-.08-1.26l1.05.71v.64m-6.3-12.83.08.1c.8,1,1.39,1.36,2.18,1.36a3.72,3.72,0,0,0,1.46-.42,4.65,4.65,0,0,1,1.25-.39,6.26,6.26,0,0,1-.57.45,5,5,0,0,0-.7.6.92.92,0,0,0-.15.51,4.18,4.18,0,0,0,1.38,2.94,2,2,0,0,0,1.36.45h.11a.49.49,0,0,1,0,.17,1.41,1.41,0,0,1,0,.29v.79h0v.2c-2.27-1.64-4.45-3.25-6.41-4.93a.53.53,0,0,1-.08-.32.71.71,0,0,0-.24-.56h0s-2-.78-3.25-1.32l.57-.16a2.26,2.26,0,0,1,.37-.11,1.37,1.37,0,0,0,.65.2,4.11,4.11,0,0,0,1.78-.48.24.24,0,0,0,0,.12c0,.1.07.2.34.52m1.45-.48L20.18,23v-.17l.2.16a2.43,2.43,0,0,0,1.28.56,3,3,0,0,0,.84-.21,4.82,4.82,0,0,1,1-.22c.71,0,1.66,1.17,1.93,2a2.22,2.22,0,0,0-.41-.2,2.88,2.88,0,0,0-.81-.23h0a2.92,2.92,0,0,0-1.69.37,3.83,3.83,0,0,1-1.36.41c-.7,0-1.23-.34-2-1.26l-.08-.1a2.43,2.43,0,0,0-.2-.25l1.47.1Zm10-4.44c-.17.23-.22.68-.61.78a.45.45,0,0,1,0-.23,1.37,1.37,0,0,1,1.32-1.17c.06,0,.06,0,.11.05-.25.22-.58.32-.78.57m.64.59v.23c0,.31-.37.75-.38,1.16a.46.46,0,0,1-.29-.38c0-.35.19-.93.67-1m-1.32-1.19a.25.25,0,0,1,0-.17c0-.68,1-.87,1.32-.93h.11a4.27,4.27,0,0,1-1.38,1.08m-.07-2.85H29.4c0-.05-.06-.09-.06-.15,0-.35,1-.44,1-.44s.29,0,.29.17-1,.37-1.15.42m.25.33c.09,0,.63,0,.63.21s-.08.28-.18.29a2.59,2.59,0,0,0-1.27.33c-.05-.07-.13-.11-.13-.18,0-.45.72-.65,1-.65m0,1.07a2.13,2.13,0,0,1,.42.1,12.33,12.33,0,0,1-1.23.68.26.26,0,0,1-.24-.24c0-.32.9-.54,1.05-.54m-1,1.61A4.78,4.78,0,0,0,28.4,20c0,.25,0,.24.27.63a1.14,1.14,0,0,1-.32.07c-.43,0-.4-.46-.4-.65a1.66,1.66,0,0,1,.77-1.18m-1.31,1.41c0,.28,0,.16.18.52H27.3c-.31,0-.4-.24-.4-.46a1.63,1.63,0,0,1,1-1.29H28c-.3.45-.59.77-.59,1.16m-.26,1.35.26-.07.3-.09h.14a.93.93,0,0,0,.57-.23.28.28,0,0,0,.17.07.47.47,0,0,0,.33-.17h0a1.14,1.14,0,0,0,.36.1.6.6,0,0,0,.43-.2h0v.25c0,.49,1.3,1.32,1.54,1.32h0a.47.47,0,0,0,.37-.14c.12.24.24.43.4.46a2.48,2.48,0,0,0-.12.66c0,.46,0,1.17.49,1.52a8.49,8.49,0,0,0-.4,1.1v.05a6.84,6.84,0,0,0-1.85-.32,10.32,10.32,0,0,0-2.76.49,8.14,8.14,0,0,1-2.07.39,2.93,2.93,0,0,0,.47-1.24c0-.85-1.29-2.64-2.29-2.64a3.88,3.88,0,0,0-1.07.25,3.26,3.26,0,0,1-.76.19,2.12,2.12,0,0,1-1-.39h0a2.18,2.18,0,0,0,1.8-.6l.1-.08h.09a2,2,0,0,0,.35.07,2.62,2.62,0,0,0,1.47-.69l.14-.11a1.36,1.36,0,0,1,.29-.06,1,1,0,0,0,.38-.08l.43-.28a4.46,4.46,0,0,1,.66-.4,2,2,0,0,1,.12.34c.07.27.16.61.65.61m12-1.38a1.53,1.53,0,0,1,.54,1.09c0,.21-.11.74-.44.84a1.4,1.4,0,0,1-.09-.29c0-.07.16-.69.16-.76s-.13-.56-.17-.88M39,19.12c0-.06.14-.12.21-.12.55,0,.92.82.92,1.08v.2h-.08a.23.23,0,0,1-.17-.08L39,19.12m.07,3.56a.41.41,0,0,0,.26.07h0a.77.77,0,0,0,.44-.14.4.4,0,0,0,.36.17c.38,0,.58-.24.84-.59a.38.38,0,0,1,.09-.09.45.45,0,0,0,.42-.05,1,1,0,0,0,.34-.73l.45.06a.71.71,0,0,0,.57-.2.5.5,0,0,0,.32.15.24.24,0,0,0,.14,0,1.67,1.67,0,0,0,1.16.61.84.84,0,0,0,.63-.28,1.07,1.07,0,0,0,.22-.68.37.37,0,0,0,.2-.07c.5.42,2.34,1.7,3.07,1.7h0a.47.47,0,0,0,.34-.11,3.53,3.53,0,0,0,1.59.8H50.3l-1.53-.31a1.43,1.43,0,0,0-1.19.35,3.54,3.54,0,0,0-1.3,2.19A2.36,2.36,0,0,0,47,26.81h-.07a11.2,11.2,0,0,1-2.14-.47,10.16,10.16,0,0,0-2.56-.48,5.56,5.56,0,0,0-1,.1h-.11L41,26a.81.81,0,0,0-.1-.21l-.09-.16-.12.14a.23.23,0,0,1-.07.07.6.6,0,0,0-.2.32h-.25l-.12.05v-.59l-.21.18c-.3.22-.39.33-.39.44a.61.61,0,0,0,0,.19h0l-.13.05h0a.41.41,0,0,0-.15-.37L39.06,26l-.11.15-.18.28c-.15-.17-.28-.31-.33-.38s0-.09,0-.14a3,3,0,0,0,.14-.66,2,2,0,0,0-.21-.9,1.38,1.38,0,0,1-.16-.6,2.26,2.26,0,0,1,.19-.72l.06-.17h.16a.49.49,0,0,0,.44-.28m2.16-6.83c.29,0,1.21.15,1.21.74a.38.38,0,0,1-.13.22,1.85,1.85,0,0,0-.73-.39c-.16-.05-.38,0-.51-.11A.18.18,0,0,1,41,16a1,1,0,0,1,.29-.1M41,15.43c0-.07.06-.12.06-.19h.29a1.17,1.17,0,0,1,.94.42v.19h-.18c-.28,0-.7-.29-1.07-.31v-.11M43.09,19a1.38,1.38,0,0,1,.77,1.29.5.5,0,0,1-.26.52h-.14v-.06l-.06.06h0a.33.33,0,0,1,0-.14c0-.06.08-.56.08-.63a3.15,3.15,0,0,0-.31-1m.4-.81c-.3,0-.18-.18-.69-.46a9.5,9.5,0,0,0-1.22-.48,1.3,1.3,0,0,1,.48-.11c.48,0,1.46.27,1.69.92-.16.06-.18.13-.26.13M43,19.89c0,.15-.08.47-.22.47s-.11,0-.17-.07c0-.35-.41-1-.41-1.12s0-.09.1-.16c.52.24.7.49.7.88m-1.83-2.44c.44,0,1.6.49,1.6,1.14,0,.13,0,.23-.14.23A6.9,6.9,0,0,1,41,17.46Zm.76,1.91a.73.73,0,0,1-.21.64c-.37-.28-.24-.73-.37-1.1-.06-.21-.37-.53-.49-.8H41c.58,0,1,1.11,1,1.26M41.31,21c0,.17,0,.37-.26.4-.08-.37-.39-.77-.39-1a.24.24,0,0,1,.07-.16.77.77,0,0,1,.58.72m-.49-1.47a1.67,1.67,0,0,1-.16.58,6.49,6.49,0,0,1-.41-1.43.83.83,0,0,1,.57.85m-.45,1.29c.2,0,.37.26.37.41v.59a.22.22,0,0,1-.16,0c-.23,0-.34-.72-.4-1a.44.44,0,0,1,.19-.07m3.52-1.29H44a1.54,1.54,0,0,1,.74,1.29c0,.22-.08.57-.39.57s-.16,0-.36-.14a.74.74,0,0,0,.27-.65,2.75,2.75,0,0,0-.38-1.07m9,4.44h.26a3,3,0,0,1-2.32,1.61A5.42,5.42,0,0,1,49,25.06L48.72,25h0a2.51,2.51,0,0,0-.6-.21h0a2.12,2.12,0,0,0-.93.19,2.41,2.41,0,0,0-.48.3,3.33,3.33,0,0,1,1.15-1.74,1.09,1.09,0,0,1,1-.29l1.36.26h.44a1.28,1.28,0,0,0,.51-.13,2.82,2.82,0,0,0,.81-.84v.81a.17.17,0,0,1,0,.1,1.87,1.87,0,0,1-.08.34V24Zm-.8-.28v-.09h0v-.12l.16.06c.16.05.34.11.52.15Zm1.24.26h0l.07.05.15-.22h0a3.42,3.42,0,0,0,1.61.53,1.36,1.36,0,0,0,.52-.23c.14.05.51.23.78.36h-.1c-.17.06-.33.13-.5.18a6.6,6.6,0,0,0-1.79.82.89.89,0,0,0-.3.54,1,1,0,0,1-.37.65q-2,1.5-3.9,3L47.34,31.2V31h0l-.1-1.32a1.84,1.84,0,0,0,1.21-.53,4.58,4.58,0,0,0,1.22-2.87c0-.38-.37-.73-.78-1a5.14,5.14,0,0,0,1.85.46c.94,0,1.8-.6,2.61-1.84Zm-10.7,24.3.07.51h-.57l-1.83,1,.57.38.12.59-.24.08-.37-.7-1.31-1-1.1.5-3.06.1-1.14-.76-2.59-.53L30,47.5l-1.38-2H45.15a13.15,13.15,0,0,1-.67,1.29,14.22,14.22,0,0,1-1,1.44Zm.63.33-.28.34v-.36Zm-15.7-.17h-.4a17.93,17.93,0,0,1-.83-1.59h1.45a1.13,1.13,0,0,0,.12.21c.14.21.28.44.44.66a3.34,3.34,0,0,1-.78.72m.95-.49.36.49H28a3.17,3.17,0,0,0,.48-.49m-2.32-1.37a15.15,15.15,0,0,1-.66-1.6h1.4a13.43,13.43,0,0,0,.71,1.6ZM24.46,42a2,2,0,0,0,.07.35c-.24-.11-.47-.23-.68-.35Zm-1.09-.26L23,41.51a4.17,4.17,0,0,1-.53-.41h1.88a5.2,5.2,0,0,0,.11.67Zm1-2.53h1c.07.38.18.94.32,1.59H24.54c-.07-.52-.13-1.06-.19-1.59M23.64,26.9a5.69,5.69,0,0,0,1.3.14h.32a9.37,9.37,0,0,0,2.16-.41,10.28,10.28,0,0,1,2.69-.48,7.34,7.34,0,0,1,1.86.33h0a4.72,4.72,0,0,1,1.63,1c.07.27.35,1.63.78,1.63.25,0,.18-.33.18-.34a3.6,3.6,0,0,0-.13-.73.53.53,0,0,1,.23.16c-.06,0-.07.07-.07.15a2.29,2.29,0,0,0,.37.73c-.17.08-.35.14-.54.22-.31-.12-.92-.37-1.27-.49a6.88,6.88,0,0,0-1.63-.22h-.07q-.36,0-.72,0a6.58,6.58,0,0,0-2.16.27l-.35.09c-.28.1-.65.23-1.15.36a12.75,12.75,0,0,1-1.49.32H25.4A1.68,1.68,0,0,1,24,29.2a3.93,3.93,0,0,1-1.28-2.72v-.11a2,2,0,0,0,1,.53m-.85-.79a5.17,5.17,0,0,1,.62-.52A6.6,6.6,0,0,0,24.2,25a3,3,0,0,1,.71.2,2.29,2.29,0,0,1,.59.33h0a2.73,2.73,0,0,1-.5,1.28,5.81,5.81,0,0,1-1.25-.11,2,2,0,0,1-.92-.54m9.35-5.44c.24.22.22.66.22.9a1.77,1.77,0,0,1-.21,1.06h0a2.89,2.89,0,0,1-.21-1,5.74,5.74,0,0,1,.21-1M32,20.54h-.12v-.32a4,4,0,0,1,.52-1.64.84.84,0,0,1,.08.41A3.36,3.36,0,0,1,32,20.54m.53,2.27A2.1,2.1,0,0,1,32.79,24a3.19,3.19,0,0,1-.07.71h0a.92.92,0,0,1-.23-.29,5.51,5.51,0,0,1-.1-.9,1.25,1.25,0,0,1,.17-.78m.66-1.43v.45c-.47-.39-.47-.95-.64-1.42V20a2.22,2.22,0,0,1,.6,1.4m-.5-3a1.89,1.89,0,0,1,.13-.52,1.9,1.9,0,0,1,.3,1.2,1.4,1.4,0,0,1-.11.7,2.65,2.65,0,0,1-.32-1.38m3.34,7c-.16-.08-.25-.87-.25-1.12a2.76,2.76,0,0,1,.19-.86,4.53,4.53,0,0,1,.24,1.15,1.34,1.34,0,0,1-.18.83m.22,0c.12,0,.2.57.2.74a2.17,2.17,0,0,1-.44,1.3,3.76,3.76,0,0,1-.12-.67,3.73,3.73,0,0,1,.25-1.32m.49,3.38h0l.1.06a8.39,8.39,0,0,0,.94.49H35l.42-.2,1.23-.35m-.13-2.26a.89.89,0,0,1,.11-.35,2.58,2.58,0,0,1,.4,1.48,1.62,1.62,0,0,1,0,.44,3,3,0,0,1-.47-1.57m4.07,2.32h0l.17-.05h.66a5.06,5.06,0,0,1,1.73.19c.15.06.51.19.86.34a5.76,5.76,0,0,1-2.58.58,5.57,5.57,0,0,1-1,0,1.13,1.13,0,0,1-.26,0,6.81,6.81,0,0,1-1-.2L39,29.49a2.1,2.1,0,0,1-.58-.2c.36-.12.9-.29,1.26-.39H40a1.05,1.05,0,0,0,.48.35h.13c.06,0,.06-.11.06-.14a.44.44,0,0,0-.07-.19m-2.15.76h0l.37.12h.09c.25.07.5.14.74.19h.09a7.2,7.2,0,0,0,1.67.13h0a5.87,5.87,0,0,0,2.41-.49h1.68c.62.08,1.27.16,1.57.17v.57H37.6l.3-.49L37,30l-.24-.37Zm8.76,1.75h-2.5a.87.87,0,0,0-.61-.26H44a.84.84,0,0,0-.53.26H38a2,2,0,0,0-.4-.73h9.57v.5h0v.23m-21.81,1v-.72H27.6a.63.63,0,0,0-.07.38.71.71,0,0,0,.15.33H25.36Zm2.19.27a1.7,1.7,0,0,0-.13.74h-2.1V32.7Zm1.18-3a6,6,0,0,0,2,.49H32a9.41,9.41,0,0,0,2.22-.51h.61l.17.72H25.5v-.52c.31-.05.73-.12,1.16-.22Zm-1.08-.27.3-.1.2.1Zm3.06.49a6.45,6.45,0,0,1-2.39-.69,6.61,6.61,0,0,1,2.38-.35h.52a9.4,9.4,0,0,1-.51,1m.77,0h-.36V29.7h0s.28.09.35.21m.39-.18h.28a1.42,1.42,0,0,1,.08.18H32l-.08-.19m.61-.12a.46.46,0,0,1,.22-.11c.06,0,.15.16.25.29l-.32.06a1.2,1.2,0,0,0-.15-.24m.68.12c0-.2.11-.38.15-.56.31.1.5.12.5.33v.06l-.61.17m3,1.24a.36.36,0,0,1-.36.36h0a.29.29,0,0,1-.21-.09,1.85,1.85,0,0,1,.29-.62.36.36,0,0,1,.28.35M36,30v0h0m1.2.61a1.56,1.56,0,0,1,.64,1.27,1.6,1.6,0,0,1-1.18,1.56,2.33,2.33,0,0,0,.51-1.58,2.25,2.25,0,0,0-.48-1.52h0a1.55,1.55,0,0,1,.29.14.76.76,0,0,1,.19.12m-.06-.38h.28l-.1.15h0a.57.57,0,0,0-.13-.08m.94,1.4h5.24v.11a1,1,0,0,0-.54.3.64.64,0,0,0-.19.34H38a1.69,1.69,0,0,0,.08-.5v-.25m6,.44a1.29,1.29,0,0,1,.39.23l.07.06a1.37,1.37,0,0,1,.26.37,1.48,1.48,0,0,1,.07.93,1.43,1.43,0,0,1-.14.2v-.1a1.51,1.51,0,0,0-.15-.28l-.11-.18a2.59,2.59,0,0,0-.4-.41,1.46,1.46,0,0,0-1-.35h-.23a.63.63,0,0,1,.15-.32,1,1,0,0,1,1-.21m-.47-.36a.48.48,0,0,1,.46-.34.65.65,0,0,1,.57.22.45.45,0,0,1,.06.54,1.51,1.51,0,0,0-.53-.32,2,2,0,0,0-.35-.08h-.21m0,3.12v-.11a1.61,1.61,0,0,0-.08-.38,3.66,3.66,0,0,0-.18-.46.75.75,0,0,0-.07-.12,1.32,1.32,0,0,0-.16-.25l0-.13a1.46,1.46,0,0,0-.16-.19l-.11-.08-.2-.14h-.07a.77.77,0,0,1,.25-.1,1,1,0,0,1,.33-.06,1.19,1.19,0,0,1,.78.3,1.88,1.88,0,0,1,.34.35l.06.07a2.27,2.27,0,0,1,.19.34V34a1.45,1.45,0,0,1-.25,1.33,1,1,0,0,1-.71.36v-.19a.89.89,0,0,0,0-.23v-.38M39.13,36.3v-.06h0v-.09h0a.27.27,0,0,1,.07-.08h0l.11-.06h.19a.58.58,0,0,1,.57.57.6.6,0,0,1-.08.29h0a.58.58,0,0,1-.23.18h-.24a.56.56,0,0,1-.44-.22.29.29,0,0,0,0-.13.72.72,0,0,0-.06-.29m0-.66h0a2.1,2.1,0,0,1-.16-.82c0-.89.52-1.6,1.16-1.6a1.21,1.21,0,0,1,1.06,1,1,1,0,0,0-.7-.4A1.37,1.37,0,0,0,39,35.31h0a1.62,1.62,0,0,0,0,.44m-2.47-.61a10.68,10.68,0,0,1,0,1.6l-.28-.22a5.26,5.26,0,0,1,.07-.91v-.76A2.59,2.59,0,0,0,36,33.73h0a2.41,2.41,0,0,1,.43,1.06h.26a2.94,2.94,0,0,1,.5-1,3.75,3.75,0,0,1,.88-.66,4.06,4.06,0,0,1-.58,1.27,1.84,1.84,0,0,1-.93.59h-.1Zm-1,1.23c0-.21-.23-.36-.56-.42v-.16h0v-.1h1.14a2.44,2.44,0,0,1-.06.74h-.46v-.06Zm-.79-.08a.57.57,0,0,0,.13-.08c.26,0,.4.12.4.16s-.1.12-.29.16h-.23V36.3h0m-.41-3.91H30a.88.88,0,0,0-.19-.34,1.16,1.16,0,0,0-.54-.3.21.21,0,0,0,0-.11h5v.25a2.08,2.08,0,0,0,.07.5m1.35-2.05h0a2.23,2.23,0,0,0-.48,1.53,2.26,2.26,0,0,0,.51,1.58,1.62,1.62,0,0,1,0-3.11m-.38-.3.18.08h-.11Zm.7,1.45.09-.06a.62.62,0,0,0,.45.26.39.39,0,0,1,.1.25.36.36,0,0,1-.36.36h0a.35.35,0,0,1-.33-.23.57.57,0,0,0,.11-.33.54.54,0,0,0-.06-.25m1,2.18a3,3,0,0,0-.38.68,3,3,0,0,0-.25-.58,1.89,1.89,0,0,0,.41-.1Zm-1-.36a.63.63,0,0,0,.34-.26,1.21,1.21,0,0,0,.16.16,1.58,1.58,0,0,1-.3.28.7.7,0,0,1-.2-.18m0,1.09h-.21c-.09-.1-.16-.2-.25-.29a2.88,2.88,0,0,0-.59-.45h.55l.21.07a2.35,2.35,0,0,1,.29.67m.44-1.67h0a.54.54,0,0,0,0-.18.59.59,0,0,0,.43-.27h0a2.68,2.68,0,0,1-.21.68.37.37,0,0,1-.16-.24m-.4-.21a.39.39,0,0,1,.08.21.37.37,0,0,1-.35.36,2.05,2.05,0,0,1-.27-.75.63.63,0,0,0,.23-.08.61.61,0,0,0,.31.26m-.57-.44v-.22a2.94,2.94,0,0,1,0-.42.52.52,0,0,0,.21.07.35.35,0,0,1,.08.22.37.37,0,0,1-.31.35M35,33.39h-.91v.08H33.8a1.86,1.86,0,0,0-1.25-.74h1.87a1.92,1.92,0,0,0,.58.74m-.64,1h-.1a2,2,0,0,0-.27-.74h.11a1.82,1.82,0,0,0,.26.74m-2.23-1.75a1.84,1.84,0,0,0-.65.21,2,2,0,0,0-.6-.09,1.61,1.61,0,0,0-.49.07,1,1,0,0,0-.3-.19Zm-1.74.48a1.36,1.36,0,0,1,.49-.08h.28l-.1.12-.17.18a.66.66,0,0,0-.12.17,1.09,1.09,0,0,0-.14.23l-.08.17a3,3,0,0,0-.11.32v.15a2,2,0,0,0-.05.49,1.85,1.85,0,0,0,0,.47.61.61,0,0,0,0,.19,2.5,2.5,0,0,0,.07.26l.11.22a1.56,1.56,0,0,0,.09.17l.15.21.11.12.08.09h0a2.33,2.33,0,0,1-1.48-.9h0a1.19,1.19,0,0,1-.2-.6v-.34a1.37,1.37,0,0,1,.08-.35,2.61,2.61,0,0,1,.24-.54.57.57,0,0,1,.08-.13,1.13,1.13,0,0,1,.22-.27l.12-.12a2,2,0,0,1,.31-.19h.08M30.93,36v-.1a2.06,2.06,0,0,1-.12-.35.21.21,0,0,1,0-.11,2.42,2.42,0,0,1,0-.47,2.72,2.72,0,0,1,0-.49v-.13a3.42,3.42,0,0,1,.13-.34l.06-.11a1.78,1.78,0,0,1,.25-.36l.08-.08.24-.2a1.51,1.51,0,0,1,.87-.29,1.88,1.88,0,0,1,1.7,2,3.69,3.69,0,0,1,0,.47h0A2.54,2.54,0,0,0,34,35a1.7,1.7,0,0,0-1.44-1.87A1.7,1.7,0,0,0,31.15,35a1.78,1.78,0,0,0,1.21,1.84v.06a1.47,1.47,0,0,1-.92-.32,2.68,2.68,0,0,1-.3-.28h0a2.46,2.46,0,0,1-.22-.34m2.51-1.2a.93.93,0,0,0-.71-.25c-.45,0-.78.19-.78.45h0v.19a.21.21,0,0,0,0,.11.08.08,0,0,1-.06.07h0a.32.32,0,0,0-.08.2v.2a.2.2,0,0,0,.06.15v.06h0v.33A2,2,0,0,1,31.42,35c0-.89.53-1.6,1.16-1.6s1.1.63,1.16,1.43a1,1,0,0,0-.34-.11m.28.42h-.17a.22.22,0,0,0,0-.16v0a.21.21,0,0,1,.21.13m-1-.06h-.21c-.19,0-.29-.11-.29-.14s.18-.17.51-.17.49.1.5.16h0a.8.8,0,0,1-.51.16m.36.44a.65.65,0,0,1-.5.15c-.34,0-.51-.12-.51-.16h0a1.17,1.17,0,0,0,.26.1H33m-.71.66-.15-.07h0a1,1,0,0,0,.35,0h.12a.09.09,0,0,0-.07,0,.87.87,0,0,1-.28-.05h0m.41.31a1,1,0,0,1,.34-.07h.12v.1a.22.22,0,0,0,0,.16h-.17c-.34,0-.51-.11-.51-.16s0-.06.13-.1m.52-.61h0a.17.17,0,0,0,0-.1h.43s.07,0,.08.06h0a.74.74,0,0,1-.51.17H33m.29.47.19-.05a.17.17,0,0,0,.1,0l.12-.08h.45a.78.78,0,0,1-.51.17h-.18a.51.51,0,0,1-.24-.1h0m.88-.41h-.31v-.16a.17.17,0,0,0,0-.1h.1c.31,0,.48.13.48.18h-.08l-.14.06m.13-.52-.3-.06a1.84,1.84,0,0,0,.06-.47v-.22h.23l.19.25a1.77,1.77,0,0,0,.68.5Zm.37-.67a2.27,2.27,0,0,1-.54-1.07,2.75,2.75,0,0,1,1,.62,6.19,6.19,0,0,1,.75.94l.06.11a2,2,0,0,1-1.23-.6m1.28,0h0v.08a.16.16,0,0,0-.06-.08m2.53-1a2.46,2.46,0,0,0-.28.74h-.36a3.38,3.38,0,0,0,.36-.74Zm-.18-.27c.08-.26.14-.47.14-.48l.07-.26H40a1.88,1.88,0,0,0-1.26.74Zm-.13,1.69A1.14,1.14,0,0,0,37.9,35a.88.88,0,0,0-.74.4h-.32v-.21a2.28,2.28,0,0,0,.86-.54h.54v.41m-1.38.61h.21v.08a.7.7,0,0,0,.27.55v.11h-.45v-.74m.46.08a.54.54,0,0,1,.58-.48.53.53,0,0,1,.57.48h-.25a1,1,0,0,0-.41.09.13.13,0,0,0-.1.06.6.6,0,0,0-.21.14v.05a.42.42,0,0,1-.13-.32m.31.53.19-.16H38a.76.76,0,0,1,.33-.08.71.71,0,0,1,.29,0h.09a.7.7,0,0,1,.17.13.16.16,0,0,1,.06.08h0a.46.46,0,0,1,.05.2.72.72,0,0,1-1.4,0,.57.57,0,0,1,.11-.29m2-.78h-.26a1.13,1.13,0,0,1,0-.26c.06-.64.52-1.15,1-1.1a1,1,0,0,1,.79,1.12v.1h0c0,.1-.06.2-.1.3a.61.61,0,0,1-.07.14,1,1,0,0,1-.1.17l-.1.13a1.26,1.26,0,0,1-.24.22v-.1a.85.85,0,0,0-.84-.84h0m.7,1.29a.92.92,0,0,0,.31-.16h0a1.42,1.42,0,0,0,.3-.3h0a2,2,0,0,0,.38-.9h0a2.54,2.54,0,0,0,0-.39A1.71,1.71,0,0,0,40,33.13,1.7,1.7,0,0,0,38.53,35a2,2,0,0,0,0,.35.1.1,0,0,0-.06-.09,2.29,2.29,0,0,1,0-.37,1.88,1.88,0,0,1,1.71-2,1.48,1.48,0,0,1,.86.29l.26.2.06.07a2,2,0,0,1,.26.38v.09a2.09,2.09,0,0,1,.13.35v.13a2,2,0,0,1,.06.49,1.85,1.85,0,0,1,0,.47v.12a.88.88,0,0,1-.12.33.37.37,0,0,1,0,.11,1.63,1.63,0,0,1-.23.35l-.08.09-.2.2a1.64,1.64,0,0,1-.88.33v-.08m.09-4.16h2a1.17,1.17,0,0,0-.3.19,1.61,1.61,0,0,0-.49-.07,2,2,0,0,0-.59.09,1.84,1.84,0,0,0-.65-.21m1.17,3.86h0a1.94,1.94,0,0,0,.21-.29v0a3.54,3.54,0,0,0,.16-.34v-.12a1.67,1.67,0,0,0,.08-.3,1.85,1.85,0,0,0,0-.47,2,2,0,0,0,0-.49v-.16S42,34,42,33.94l-.09-.18a1.71,1.71,0,0,0-.13-.23l-.13-.18-.15-.16-.11-.13h.27a1.42,1.42,0,0,1,.5.08h.08a1.11,1.11,0,0,1,.3.17l.13.13a1.71,1.71,0,0,1,.21.26s.07.09.1.15a5,5,0,0,1,.23.53,1.55,1.55,0,0,1,.08.36v.1a.89.89,0,0,1,0,.23v.31l-.06.12a.61.61,0,0,1-.09.18,2.28,2.28,0,0,1-1.48.91h-.12a.52.52,0,0,0,.1-.11m-3-3.86-.23.1a4.36,4.36,0,0,0-1,.64h0a1.85,1.85,0,0,0,.59-.74Zm-2-2.63.12-.1.12.17a1.09,1.09,0,0,0-.24-.07m-.26-.14-.23-.28h.57Zm-.13.39a1.51,1.51,0,0,1,.64,1.11.3.3,0,0,1-.18.06.35.35,0,0,1-.32-.22.65.65,0,0,0,.11-.33.62.62,0,0,0-.35-.56l.1-.06m-.47-.37L35,29.6h.87Zm-.94.72a1.89,1.89,0,0,0-.41.73H29.11a.79.79,0,0,0-.52-.26h-.11a.83.83,0,0,0-.61.26H25.45v-.73ZM29,31.71h-.21a2,2,0,0,0-.35.08,1.68,1.68,0,0,0-.53.31.35.35,0,0,1-.06-.17.49.49,0,0,1,.13-.36.56.56,0,0,1,.48-.23h.08a.48.48,0,0,1,.46.34m-1.19,1a1.22,1.22,0,0,1,.26-.38l.06,0a1.23,1.23,0,0,1,.4-.23,1.29,1.29,0,0,1,.28-.08H29a.84.84,0,0,1,.58.24.58.58,0,0,1,.16.32h-.23a1.43,1.43,0,0,0-.95.35,2.33,2.33,0,0,0-.41.42l-.09.14a1.54,1.54,0,0,0-.17.34v.07a.9.9,0,0,1-.14-.2,1.35,1.35,0,0,1,.07-.93M28.16,34v-.1a2.37,2.37,0,0,1,.19-.35h0a2.31,2.31,0,0,1,.34-.36,1.27,1.27,0,0,1,.79-.3,1,1,0,0,1,.33.06.77.77,0,0,1,.25.1h-.05a1.14,1.14,0,0,0-.23.15l-.09.08a1.07,1.07,0,0,0-.18.19l-.1.11a1.59,1.59,0,0,1-.13.22c0,.06-.06.1-.08.15a3.71,3.71,0,0,0-.19.46,2.57,2.57,0,0,1-.08.38.17.17,0,0,1,0,.1,1.22,1.22,0,0,0,0,.27v.48h0a1,1,0,0,1-.71-.35A1.5,1.5,0,0,1,28.16,34m.32,1.74a1.59,1.59,0,0,0,.8.21,2,2,0,0,0,.56.53H25.39v-.74Zm1.84,1h0a2.47,2.47,0,0,0,.6.19h.47a1.77,1.77,0,0,0,1,.31h.27a1.09,1.09,0,0,0,.5.1,1.22,1.22,0,0,0,.46-.09.75.75,0,0,0,.65.31h-8.8v-.74Zm3.79.26h0m1,0v0a.59.59,0,0,0,.39-.26h.58l.68.53V37a1.41,1.41,0,0,0,0-.29h.48a.91.91,0,0,0,.93.7A1,1,0,0,0,39,37a.78.78,0,0,0,.56.22.8.8,0,0,0,.34-.07h.24a1.77,1.77,0,0,0,1-.31.76.76,0,0,0,.3,0h.17a2.54,2.54,0,0,0,.59-.19h5a3,3,0,0,1-.06.74H34.43c.39,0,.68-.19.68-.43m7.6-.59a2,2,0,0,0,.56-.53,1.66,1.66,0,0,0,.81-.21h3.2v.74Zm1.66-1a1.75,1.75,0,0,0,.33-.75h2.63v.75Zm.36-1v-.27a.75.75,0,0,0,.33-.37v-.1h2.26v0q0,.35,0,.69Zm.38-1a1.7,1.7,0,0,0-.13-.74h2.3v.74Zm-.27-1v-.05A.84.84,0,0,0,45,32a.63.63,0,0,0-.06-.38h2.33a4.1,4.1,0,0,0,0,.75Zm-9.28-8.9A4.75,4.75,0,0,1,35.18,22a1.52,1.52,0,0,1,.1-.47A2.46,2.46,0,0,1,35.66,23a.8.8,0,0,1-.1.48m-.16,5.36-.3.15a1.75,1.75,0,0,1-.37-.63,1.79,1.79,0,0,1,.67.48m-.4-7.3c-.39-.17-.69-1.29-.69-1.66a.74.74,0,0,1,0-.21A2.58,2.58,0,0,1,35,21.25v.29m-.1,6.09v.16h-.1c-.28,0-1.1-1.29-1.1-1.4v-.16a5,5,0,0,1,1.2,1.4M33,24.24a3.4,3.4,0,0,1,1,1.51,3.94,3.94,0,0,1-.93-1.51m.32,2.12v.49a2.43,2.43,0,0,1-.51-1.34v-.46a3.6,3.6,0,0,1,.46,1.31m.33.68a3.34,3.34,0,0,1,.74,1.55v.33c-.59-.09-.64-1-.8-1.56Zm.43-7.16H34c-.34,0-.77-1.29-.83-1.64v-.15c.26,0,.92,1.33.92,1.63Zm-.68,3.72v.26a2.81,2.81,0,0,1-.85-1.64v-.15a4.26,4.26,0,0,1,.81,1.53M25.33,33.73v-.07h2.15v.1a.77.77,0,0,0,.34.37,1.22,1.22,0,0,0,0,.27h-2.5v-.67m2.53.94a1.75,1.75,0,0,0,.33.75H25.35v-.75ZM25.77,41.1c.12.5.26,1,.42,1.6h-.91l-.45-.18c-.09-.45-.18-.92-.25-1.42ZM25.25,43a3.44,3.44,0,0,0,1.09.24c.14.46.29.91.45,1.36H25.41c-.06-.15-.12-.3-.17-.46-.11-.33-.21-.72-.31-1.14Zm.31-4.32c0-.25-.07-.58-.1-.93H47.15a5.8,5.8,0,0,1-.11.93,33.34,33.34,0,0,1-1.78,6.58H36.77l.52-.69-.16-.72.58.1a1.77,1.77,0,0,0,.42.71,1.24,1.24,0,0,0,.75.21,2.25,2.25,0,0,0,.58-.07h0l.52-.47-.92-.85a23.89,23.89,0,0,0-.49-3.76c-.27-1.32-.78-2-1.6-2a3.59,3.59,0,0,0-1.4.4,7.25,7.25,0,0,0-1.83,1h0l-.17,1.39h.56l-.6,2.16h.12a3,3,0,0,0,1.44.65l-.28,1.1.51.73h-8a33.34,33.34,0,0,1-1.78-6.58m10,3.94H36l-.16,2.64h-.12l-.56-.79ZM34,42.7c.31,0,.79-.08,1.3-.1l-.15.55A4,4,0,0,1,34,42.7m1.78-.39a17.14,17.14,0,0,0-1.89.13l.51-1.86a14.89,14.89,0,0,1,2.35-1.29c.6-.18,1,.78,1,.78L38,40c0-.06-.44-1.2-1.29-1a15.31,15.31,0,0,0-2.42,1.31H33.9l.13-1a7.22,7.22,0,0,1,1.72-1A3.89,3.89,0,0,1,37,38c.42,0,1,.19,1.33,1.74a20.71,20.71,0,0,1,.49,3.76v.06l.79.73-.25.23h-.5a.86.86,0,0,1-.58-.16A3.06,3.06,0,0,1,37.73,43h0a1.66,1.66,0,0,0-1.25-.56,3.64,3.64,0,0,0-.66,0m1.81,1.32a1.43,1.43,0,0,1-.55-.1l-.18-.82a1.21,1.21,0,0,1,.58.33,3.52,3.52,0,0,0,.15.59m-1.19-1h.17L37,44.48l-.56.75h-.13V42.6h.13m7.68,5.2a3.63,3.63,0,0,0,.47.49h-.84l.37-.49m.17-.22c.15-.23.31-.46.44-.67l.12-.21h1.46c-.29.57-.56,1.11-.83,1.59H45a3.72,3.72,0,0,1-.77-.71M45,46.44a12.05,12.05,0,0,0,.72-1.6h1.39c-.21.56-.44,1.1-.67,1.6Zm.83-1.87c.17-.45.32-.9.45-1.36A3.23,3.23,0,0,0,47.35,43h.32c-.1.42-.2.81-.31,1.14-.06.16-.12.31-.17.46Zm1.52-1.87h-.92c.16-.56.3-1.1.41-1.6H48c-.07.5-.15,1-.25,1.43l-.43.17m-.45-1.87c.15-.65.26-1.21.33-1.59h1c-.06.53-.12,1.07-.2,1.59ZM48.13,42h.63c-.21.12-.45.25-.69.36a.78.78,0,0,1,.06-.36m0-.26a5.2,5.2,0,0,1,.11-.67h1.88a4.17,4.17,0,0,1-.53.41l-.4.26Zm.1-2.81h-1a1.31,1.31,0,0,0,0-.28c.05-.27.09-.65.13-1.09a7.27,7.27,0,0,0,.8-.22h.19c0,.51-.09,1-.14,1.59m1.15-12.82a1.89,1.89,0,0,1-1,.64,4.7,4.7,0,0,1-1.06,0l-.13-.17a2.67,2.67,0,0,1-.54-1.06,3.12,3.12,0,0,1,.64-.43,1.73,1.73,0,0,1,.78-.15,2.82,2.82,0,0,0,.39.29,3.82,3.82,0,0,1,1,.83m-9.61.2h-.08a.09.09,0,0,1,0-.07l.08-.08v.12m-.78.3h0v0m-.45.37c-.07.06-.12.06-.17.1l-1-.63a.52.52,0,0,1,.33-.36Zm-.48.27a9.12,9.12,0,0,1-.82.56c-.06-.34-.08-.77-.14-1.12Zm.77-.27.23.23V26.8h.21l.24-.09c.09-.05.23-.1.37-.16H40l.37-.13h0l.22-.07a3.89,3.89,0,0,1,.49-.12h.18a5.51,5.51,0,0,1,.9-.1,9.55,9.55,0,0,1,2.48.48,13.43,13.43,0,0,0,2.16.47h.75a5.93,5.93,0,0,0,.84-.06,2.15,2.15,0,0,0,1.08-.6A4.34,4.34,0,0,1,48.36,29a1.52,1.52,0,0,1-1.16.45h-.15a17.44,17.44,0,0,1-2.69-.39,13,13,0,0,0-1.23-.47h0a5.18,5.18,0,0,0-1.75-.2h-.56a4.64,4.64,0,0,0-.77.09h0a12.74,12.74,0,0,0-2,.59,9.19,9.19,0,0,1-1.12-.59h0a7.62,7.62,0,0,1,2-1.52m-1.82-1.14a.11.11,0,0,1-.08,0c-.35,0-.58-1.11-.68-1.53l0-.29a4.55,4.55,0,0,1,.71,1.53Zm-.31-2.09a4.07,4.07,0,0,1-.92-1.55v-.16a4,4,0,0,1,.92,1.48Zm-.59-2H36.1a5.88,5.88,0,0,1-1-1.42v-.16a4.14,4.14,0,0,1,1.14,1.42ZM35.44,20h-.1c-.38,0-1.14-1.07-1.23-1.42.25.08,1.34,1,1.33,1.27Zm-1.15-1.69c-.07,0-1.42-.7-1.42-1s1.25.43,1.66,1Zm-2.08-.83A1.38,1.38,0,0,1,32,17c0-.26.51-.56.7-.56s.55,0,.55.3c0,.47-1.16.12-1,.75m.07.27c.2-.14,0-.48.34-.53v.15A3.24,3.24,0,0,1,31.77,19s-.1,0-.1-.07a7.69,7.69,0,0,1,.49-1.23.26.26,0,0,1,.16.1M18.67,23.57h0l.55-.28.67-.34v.12a4.08,4.08,0,0,0,.11.59Zm6.51,14a7.23,7.23,0,0,0,.11,1.09,1,1,0,0,0,.05.28h-1c-.06-.54-.1-1.08-.14-1.59h.19c.38.12.67.19.81.22m-1,2.57a1.9,1.9,0,0,0,.08.67H22.15l-.21-.23a1.35,1.35,0,0,0-.05-.44Zm-2.14.94a5.78,5.78,0,0,0,.76.63H22.1L22,41.1Zm1.26.93a12.69,12.69,0,0,0,1.26.67h-2.3a4.31,4.31,0,0,0-.12-.67Zm1.34.94c.06.24.11.46.17.67H22.48c-.06-.21-.11-.43-.16-.67Zm.25.94a.86.86,0,0,0,.09.3l.13.36H22.75v-.13c0-.05-.11-.34-.16-.53Zm.32.93c.09.23.17.45.26.67H23.1c-.08-.22-.16-.44-.25-.67Zm.37.94c.1.22.19.45.29.66H23.5c-.1-.22-.19-.44-.28-.66Zm.42.93.33.67H24l-.33-.67Zm.47.92c.12.24.24.46.35.67h-2.4c-.11-.22-.24-.43-.36-.67Zm.51,1h0a4.22,4.22,0,0,1-2.28.24l-.15-.26Zm-1.49.58a4,4,0,0,0,1.65-.32l.23.4H25l-.07-.12h.6m2.06.35.43.66H25.56c-.14-.2-.27-.42-.42-.66Zm.61.93.29.4.18.26H26.2l-.05,0-.41-.59Zm.5.25-.18-.25h1.85c-.26.24-.65.6-1.13,1-.16-.22-.33-.47-.54-.74m-.36-.52c-.26-.38-.58-.87-.92-1.45a2,2,0,0,0,.25-.14h1.45c.42.53.9,1.06,1.39,1.59Zm-.19-3.39a9.84,9.84,0,0,1-.67-1.29h.82l1.52,2.2,1.27.89,2.59.54,1.17.78,1.7-.07L35.24,50l-.42.38h-.69l-.45.61-.14.41-.66.14h0l-.23.34a27.16,27.16,0,0,1-4.5-5.13m12.69,2.89,1.37-.77h.68a22.8,22.8,0,0,1-1.59,1.72l-.17-.8Zm2.7-1.09H45c.08.06.17.1.25.15-.34.57-.65,1.06-.91,1.44H42.12a19.75,19.75,0,0,0,1.39-1.59m.6,1.86c-.07.08-.13.18-.19.25l-.54.74c-.46-.39-.86-.75-1.12-1ZM44,51.1l.19-.26.29-.4h2.43c-.15.23-.3.43-.4.59a.23.23,0,0,0-.07.07Zm.66-.93c.14-.2.28-.42.43-.66h2.42l-.42.66Zm.6-.93c.08-.12.15-.26.23-.39a4,4,0,0,0,1.64.33h.61l-.06.11Zm.38-.63H48l-.15.26a4.13,4.13,0,0,1-2.28-.23m.17-.31.37-.67h2.4l-.36.67Zm.5-.92.33-.67H49l-.33.67Zm.46-.94.28-.66h2.38c-.09.22-.19.44-.29.66Zm.4-.93c.09-.22.17-.44.26-.67h2.36c-.08.23-.16.45-.25.67Zm.36-.94c0-.12.09-.24.14-.36a1.11,1.11,0,0,1,.08-.3H50a4.68,4.68,0,0,1-.17.53v.13Zm.3-.93c.06-.21.11-.43.16-.67h2.33c0,.24-.1.46-.15.67Zm.24-1c.45-.21.89-.45,1.26-.67h1.16a2.94,2.94,0,0,1-.13.67Zm1.7-.93a.06.06,0,0,1,.06,0,5,5,0,0,0,.75-.63h.05a4,4,0,0,1-.1.67Zm.72-.94h-2.1c0-.22.07-.44.09-.67h2.3a1.27,1.27,0,0,1-.05.44l-.21.23m-2-3.82-.26.09h-.73v-.67l1-.68c0,.39-.05.81-.08,1.26m9.67-12.77-.07.11h0a.28.28,0,0,0,.09-.1M38,15.17A1.41,1.41,0,0,1,38.63,14a21.32,21.32,0,0,1,3.73-.6,3.46,3.46,0,0,1,1.49.27c.44.22,10.53,6,10.53,7.31a2.23,2.23,0,0,0-.09.32c0,.06,2.37,1,2.37,1.43,0,.15-.28.16-.32.16-.32,0-1.74-1.12-2.4-1.31h-.4a1.42,1.42,0,0,0,.26.29c.74.42,1.61,1.27,2.35,1.34a3.5,3.5,0,0,1,1.85.65.45.45,0,0,0-.23,0l-.61.25c-.81-.27-3.1-1.55-3.28-1.63v.08c0,.51,1.27.94,1.43,1a.49.49,0,0,1-.23.11,5.34,5.34,0,0,1-1.29-.45c-.15-.07-.34,0-.5,0a4.51,4.51,0,0,1-1-.39v-.61c.29.14.45.29.69.29h.43v-.05c0-.21-.61-.28-.66-.31-.25-.16-.48-.41-.72-.57h-.18a1.05,1.05,0,0,0,.18.35L52,22l-.1.14h0c-.08.12-.17.23-.25.33h-.25c-.27,0-.11.21-.44.21-.58,0-1.73-.89-1.93-.89s-.32.14-.42.14c-.46,0-1.31-.43-1.38-1-.1.18-.18.17-.25.17-.59,0-.93-1-1.59-1,0-1-1.33-1.18-1.33-2.06a.24.24,0,0,1,.2-.24c.29,0,.67.49.91.49s.21-.06.21-.15-.29-.32-.29-.43a.24.24,0,0,1,.07-.16,11.12,11.12,0,0,0,1.71.81c.81.28,1.48,1.56,2.11,1.56.19,0,.14-.18.14-.19a2.93,2.93,0,0,0-.05-.29c1.05,1.13,1.84,1.93,2.83,1.93.19,0,.38,0,.38-.17,0-.47-.8-.32-.87-.47.41-.68-1.62-.63-1.62-1.3a.26.26,0,0,1,.26-.26h0c.43,0,2.4,1.85,3.39,1.85.12,0,.22.06.22-.13,0-.82-1.48-1-1.78-1.16A2.93,2.93,0,0,1,50.58,19l-.09-.1c-.27-.57-.09-1.44-1-1.44-.13,0-.19.06-.19.16,0,.33.8.59.8.79v.17c-.48-.32-1.23-1.09-1.75-1.09-.08,0-.3.07-.3.17s.72.91.79,1.09c-.45-.11-1-.07-1.33-.52-.44-.67-1.21-1.63-1.83-1.63a.64.64,0,0,0-.3.11c.29.19.63.38,1,.63v.12c-.75-.15-1.57-.42-2.34-.52-.13,0-.27-.17-.4-.3v-.11h.21c.26,0,.77.32,1,.32a.9.9,0,0,0,.27-.07c-.06-.25-.49-.53-.56-.83h.16c.06,0,.58.19.64.19s.14-.06.14-.11c0-.25-.64-.54-.69-.58s.06-.11.12-.11c.6,0,2.32,1.51,2.89,1.51.09,0,.31,0,.31-.13,0-.62-1.45-1-1.65-1.08a5.27,5.27,0,0,0-2.21-1c-.78,0-.13,1-.79,1-.18,0-1.23-.25-1.23-.81,0-.22.4-.16.4-.48,0-.13-.51-.21-.52-.21-.35,0-.45.64-.85.64-.15,0-.24,0-.49-.24.23-.15.68-.06.68-.43,0-.21-.1-.3-.26-.3-.37,0-1.16.76-1.39.76a3.58,3.58,0,0,1-.6-.13c-.07,0-.42.15-.42.3s0,.09.09.09h.69a.85.85,0,0,1,.26.11c0,.4.42.59.42.78s-.67,0-.67.37,1,.17,1,.59c0,.17-.59.28-.59.42s.35.36.35.53c0,.38-.78-.05-.78.26,0,.07.21.34.21.41,0,.29-.43.39-.52.39s-.38,0-.44-.15a.62.62,0,0,0,.49-.61c0-1.11-1.22-1.78-1.22-2.75m.67,5.36a1.43,1.43,0,0,1,.24.63c0,.17-.2.64-.44.64-.06,0-.11-.09-.17-.16.13-.37.23-.74.37-1.11m-1.5-2.83c-.07.09-.27.24-.28.36h0a.69.69,0,0,1,.35-.18c.78,0,1,.76,1,1.27A1.86,1.86,0,0,1,38,20.25a2.83,2.83,0,0,1-.17-.4c-.12.15,0,.41,0,.57l-.08.08a1.94,1.94,0,0,1-.23-.33c-.06.14,0,.43-.23.59a3.52,3.52,0,0,0-.15-.42c-.1.13-.08.42-.28.58a5.23,5.23,0,0,1-.12-.54,1.19,1.19,0,0,1-.34.7,2.93,2.93,0,0,0-.13-.58,1,1,0,0,1-.13.34c-.15-.19-.34-.43-.56-.69.16-.15.13-.2.13-.26s-.08-.26-.08-.32a1.93,1.93,0,0,1,.19-.38h0l-.28.16c-.16-.17-.34-.35-.55-.54.13-.08.26-.13.36-.19a1.67,1.67,0,0,0-.32-.08l-.29.07a1,1,0,0,1,.48-.42c.12,0,.23.81.43.84s.59.35.73.35c.38,0,.32-.25.32-.44a3.41,3.41,0,0,1,.24-.63,4.56,4.56,0,0,0-.38-.59,5.08,5.08,0,0,1,.78,0M34.92,16c.17,0,.64.23.64.5V17c0,.33.85,1.09,1.07,1.35a1,1,0,0,0-.3.8.13.13,0,0,0-.1.06.73.73,0,0,0-.69-.25c0-.45-.3-1.5-1.06-1.5l-.5.05a5.3,5.3,0,0,1-.73-.42c.13-.13.1-.2.1-.33a1.94,1.94,0,0,0-.07-.32v-.06c.12-.06,1.62-.37,1.63-.37M14.66,23.67c-.06,0-.85.38-.91.38h-.1v-.21c0-.34,1-.73,1-.73,1.26.14,2.4-1,3.16-1.4.09,0,.12-.14.18-.23s-.08,0-.16,0c-1,0-2.1,1.29-2.67,1.29a1.19,1.19,0,0,1-.32-.1c.54-.77,1.39-1,2-1.48s1-1.33,1.74-1.87a65.39,65.39,0,0,1,6.78-4.39c.78-.39,1.59-.78,2.38-1.1a8.05,8.05,0,0,1,2.86-.69c.61,0,2.85.26,2.85,1.5a1.07,1.07,0,0,1-.18.7.76.76,0,0,0-.42.23c-.24.06-.45.1-.45.48a.86.86,0,0,0,.05.23c-.43.25-.69.35-.69.71a4,4,0,0,0,.26.6c0,.28-.33.35-.42.35s-.27,0-.27-.2.34-.32.34-.53-.56-.29-.56-.38c0-.47,1-.28,1-.67s-.82-.14-1-.23c.1-.27.78-.44.78-.78s-.36-.15-.43-.21a.58.58,0,0,1,.22-.08l.64.08c.25,0,.49,0,.49-.3s0-.28-.23-.28-.42.35-.6.35-1-.81-1.43-.81-.24.29-.24.37c0,.24.59.33.67.39a.74.74,0,0,1-.48.24c-.44,0-.42-.68-1-.68-.16,0-.42.15-.42.24,0,.33.38.16.38.45,0,.53-1.13.8-1.23.8-.63,0-.08-1-.89-1s-1.21.5-2,.92c-.6.34-1.45.34-1.82,1.12.18.13.15.14.3.14.44,0,2.52-1.48,2.88-1.48h.13c0,.06,0,.06.06.06-.12.14-.73.36-.73.61a.11.11,0,0,0,.11.13h0c.06,0,.52-.13.81-.18a6.81,6.81,0,0,1-.59.82.89.89,0,0,0,.28.07c.32,0,.63-.29.88-.29H28c-.24.53-.82.38-1.21.48s-1,.3-1.52.39v-.09a8,8,0,0,1,1-.63.41.41,0,0,0-.35-.11c-.55,0-1.42,1-1.78,1.57-.24.39-.88.39-1.25.52h-.1c.05-.26.82-1,.82-1.07s-.32-.19-.33-.19c-.56,0-1.19.83-1.74,1.05a.09.09,0,0,1,0-.1c0-.37.81-.45.81-.86,0-.18-.12-.14-.18-.14a.7.7,0,0,0-.71.54,1.64,1.64,0,0,0-.1.38c0,1.47-3.37,1.24-3.37,2.5,0,.14.18.07.22.07,1.18,0,3-1.77,3.43-1.77a.25.25,0,0,1,.28.22v0c0,.57-1.47.44-1.66,1.3-.13.08-.87,0-.87.47a.12.12,0,0,0,.06.13h.63c.73,0,1.92-1.38,2.55-1.85v.28c0,.07.06.17.13.17.49,0,1-.83,1.57-1.23a10.76,10.76,0,0,1,2.31-1s.05,0,.05.09-.3.29-.3.44.11.17.21.17c.31,0,.62-.49.87-.49s.24.16.24.29c0,.69-1,.94-1.32,1.65-.06.18,0,.48-.16.48s-.19-.06-.26-.06c-.44,0-.52.52-1,.79-.14.09-.34,0-.48.05s-1.09.79-1.42.79c-.07,0-.41-.15-.48-.15a5.72,5.72,0,0,1-1.82.76c-.35,0-.29-.22-.57-.22a22.17,22.17,0,0,1-3.33,1.41c-.19,0-.18,0-.46-.17a2.79,2.79,0,0,0,1.34-1V22.4h0A24.42,24.42,0,0,1,15,23.77c-.08,0-.21-.09-.28-.09M18,27.23a1.18,1.18,0,0,1-.74-.1L15,24.4c1.21.51,3.12,1.27,3.31,1.35s.09.2.11.34a.68.68,0,0,0,.18.5c2,1.73,4.25,3.37,6.56,5.05v.19l-6.27-4.64-.15.21,3.2,2.38c0,.28-.1,1.38-.09,2.1,0,.47,0,1.12.08,1.49L18.3,30.94V29.81l.22-2.6H18m5.32,3.6.82.61a.09.09,0,0,0,0,.07H22.11v-.68Zm-1.2-.26V30l.81.6Zm2,1.22v.66h-2v-.66Zm0,.93v.65h-2a3.12,3.12,0,0,0,0-.65Zm0,.93v.65H23.2l-1-.65Zm.12.92a2.21,2.21,0,0,0,.09.46l-.69-.46ZM21,52a17.16,17.16,0,0,1-3.4-7.37,44.47,44.47,0,0,1-.71-5.27V34.14l.24-2.76H15.87c-.23-.17-1.58-1.73-2.57-2.88l3.55,1.27A2,2,0,0,1,17,30a.86.86,0,0,0,.16.41,2.47,2.47,0,0,0,.65.46.21.21,0,0,0,.1.06h0l7.24,4.88v.26l-7.44-5-.15.22,3.67,2.47c0,.24,0,.75.05,1.49A29,29,0,0,1,18.81,33l-.19.19a33.88,33.88,0,0,0,2.63,2.45c.06,1.24.18,2.91.37,4.56a14.74,14.74,0,0,1-2.24-4.8h0l-.25.07a14.34,14.34,0,0,0,2.56,5.21,20.82,20.82,0,0,0,.78,3.83,24.3,24.3,0,0,0,1.93,4.25,6.19,6.19,0,0,1-1.46-.52C19,46.38,18.26,35.11,18.25,35H18c0,.13.76,11.53,4.83,13.51a6.59,6.59,0,0,0,1.75.54c.42.73.88,1.44,1.37,2.13a17.38,17.38,0,0,0,1.21,1.57,2.86,2.86,0,0,1-.41.15,7.9,7.9,0,0,1-4.39-.12l-1.11-.53c-.08-.09-.16-.17-.23-.26m6.32,3.3a8.09,8.09,0,0,1-5.6-2.51l.51.24a6.33,6.33,0,0,0,2.36.39,9.58,9.58,0,0,0,2.2-.25c1.47-.36,3.49-2.29,3.94-2.73A37,37,0,0,0,33.49,53a12,12,0,0,1-6.17,2.27M33,58.44h0a3,3,0,0,0-.6,0h-.9a.49.49,0,0,1-.17,0,27.5,27.5,0,0,0,2.45-5.1c.43.36.85.68,1.23,1-.23,1.67-.61,4.16-.69,4.39v.08l0,.16a1.88,1.88,0,0,0-.45-.22,5.34,5.34,0,0,0-.81-.21m1.08.63h0l-.36.15a3.36,3.36,0,0,0-.54.26l.23-.72a2.29,2.29,0,0,1,.37.12,1.22,1.22,0,0,1,.37.16m.48,1.2a3.47,3.47,0,0,1-.91,0,1.09,1.09,0,0,1-.63-.25.29.29,0,0,1,.12-.23,2,2,0,0,1,.61-.29l.28-.13.12,0a.76.76,0,0,0,.42-.52v-.1c.11-.29.56-3.38.69-4.31l.18.13c-.11,1.86-.29,4.65-.41,5.57a1,1,0,0,1-.21.09,1.34,1.34,0,0,1-.27.07Zm.4.18-.18.18-.1.07v-.19a1,1,0,0,0,.25-.06Zm-.36.82h0a.51.51,0,0,1,.15-.23l.06-.06a.8.8,0,0,1,.13-.13c.07-.06.16-.13.26-.23h2.09a.09.09,0,0,0,0,.07,1.18,1.18,0,0,0,.3.29l.13.13h0a.91.91,0,0,1,.11.16Zm3-.72h.21v.22h0l-.21-.22M38,61.77a2.27,2.27,0,0,1-1.35.28h-.13c-.53,0-1.32,0-1.67-.44h3.23a.35.35,0,0,1-.08.16M39.54,60a.3.3,0,0,1-.1.19,2.36,2.36,0,0,1-1.33.25H37.6a2.19,2.19,0,0,0-.06-.58h1.85a.27.27,0,0,1,.11.19M41,58.32H39.17a3.39,3.39,0,0,0-.83.16.66.66,0,0,0-.27.12v-.16a8,8,0,0,1-.2-1.09h2.62c.17.3.34.61.54.9m-.68-1.16H37.83c-.07-.49-.15-1-.22-1.6h2c.23.53.47,1.06.76,1.6m-1.2-2.67.33.8H37.58a8.28,8.28,0,0,0-.13-1c.27-.19.55-.4.85-.63h.53c.06.17.13.36.19.49Zm6.16.81a11.67,11.67,0,0,1-5.9-1.83,3.3,3.3,0,0,0-.41-.23h0a.11.11,0,0,1,0,.11h-.27v.06h-.13a38.36,38.36,0,0,0,3.24-3c.44.44,2.46,2.38,3.94,2.74a9.58,9.58,0,0,0,2.2.25A6.11,6.11,0,0,0,50.36,53l.63-.29A7.88,7.88,0,0,1,45.3,55.3M56.7,31.35H55.53v.14l.22,2.57v5.21c0,.26-.13,1.36-.21,2.09,0,.43-.08.68-.08.74a18.35,18.35,0,0,1-4,10s-.34.18-1.25.6a7.86,7.86,0,0,1-4.38.12,1.56,1.56,0,0,1-.41-.15c.16-.18.5-.6,1.21-1.57.3-.42.81-1.16,1.36-2.11a6.74,6.74,0,0,0,1.75-.56c4.08-2,4.83-13.38,4.83-13.5h-.26c0,.11-.75,11.38-4.68,13.26a5.78,5.78,0,0,1-1.46.52,24.3,24.3,0,0,0,1.93-4.25,21.7,21.7,0,0,0,.79-3.83,14.9,14.9,0,0,0,2.55-5.21l-.13-.05h-.13A15.11,15.11,0,0,1,51,40.21c.2-1.65.31-3.31.37-4.55A35.8,35.8,0,0,0,54,33.21L53.8,33a30.51,30.51,0,0,1-2.42,2.27c0-.73,0-1.24,0-1.49l3.66-2.46-.15-.22-7.4,5v-.28L54.75,31h0a1.72,1.72,0,0,0,1-1.18l1.84-.67,1.62-.59C58.83,29,57,31,56.7,31.35"/><path class="cls-1" d="M26.85,28.42h-.11a.6.6,0,0,1-.2.27,1.42,1.42,0,0,1-.4.12h-.2V27.68a.29.29,0,0,1,0-.13l.16-.06h0v-.1l-.71.1v.1h.09a.14.14,0,0,1,.09,0v1.28l-.15.06h0V29l1.29-.2Z"/><path class="cls-1" d="M27.14,27.35h.05a.18.18,0,0,0,.1-.07.21.21,0,0,0,0-.11.08.08,0,0,0,0-.09h-.1a.22.22,0,0,0-.1.09.21.21,0,0,0,0,.11.11.11,0,0,0,.05.09h.05"/><path class="cls-1" d="M27.5,28.49h0a.24.24,0,0,1-.12,0v-1h0a2.83,2.83,0,0,1-.28.2h-.05v.1h.07v.78a.28.28,0,0,1-.14.1h0v.08l.61-.23Z"/><path class="cls-1" d="M27.52,27.1a.09.09,0,0,1,0,.07v1.19c0,.08.11.09.14.09h.05a.67.67,0,0,0,.2,0,.88.88,0,0,0,.58-.8.41.41,0,0,0-.12-.33.29.29,0,0,0-.32-.06.62.62,0,0,0-.25.17v-.54h0l-.12.08-.28,0h0v.11h.14m.25.58a.24.24,0,0,1,.07-.12l.15-.1h.08a.14.14,0,0,1,.12.07.52.52,0,0,1,.07.27.61.61,0,0,1-.08.3.31.31,0,0,1-.22.18.24.24,0,0,1-.12,0h-.07Z"/><path class="cls-1" d="M29,28.13h.08a.61.61,0,0,0,.33-.19.66.66,0,0,0,.17-.29h-.09a.52.52,0,0,1-.14.19.37.37,0,0,1-.18.08.23.23,0,0,1-.23-.08.37.37,0,0,1-.11-.32l.71-.1h0a.39.39,0,0,0-.13-.32.38.38,0,0,0-.29-.06.47.47,0,0,0-.37.22.74.74,0,0,0-.14.43.63.63,0,0,0,.12.37.31.31,0,0,0,.27.13m-.12-.87a.2.2,0,0,1,.17-.14h.05s.08,0,.11.08,0,.07,0,.12l-.41.05v-.1"/><path class="cls-1" d="M30.31,27.93H30.2s0-.06,0-.12v-.5a.17.17,0,0,1,.05-.12c0-.05.07-.07.08-.07h.24a.11.11,0,0,0,0-.11.14.14,0,0,0,0-.09.41.41,0,0,0-.28.06l-.09.1V27h-.35V27h.09l0,.05a.33.33,0,0,1,0,.14v.61h-.12V28h.61Z"/><path class="cls-1" d="M30.62,27.15h.1v.59a.54.54,0,0,0,0,.18.21.21,0,0,0,.19.13H31a.32.32,0,0,0,.12-.11h0l-.07-.06H31a.09.09,0,0,1-.07,0,.24.24,0,0,1,0-.12V27.2h.21V27H31v-.23h0a.65.65,0,0,1-.15.18.24.24,0,0,1-.09.08h0"/><path class="cls-1" d="M31.45,27.61a.27.27,0,0,0-.15.24.21.21,0,0,0,.07.18.22.22,0,0,0,.16.09.28.28,0,0,0,.18,0l.1-.06a.11.11,0,0,0,0,.08.28.28,0,0,0,.11.08h0a.14.14,0,0,0,.09,0l.08,0h0V28H32v-.46a.41.41,0,0,0,0-.22.36.36,0,0,0-.28-.18.32.32,0,0,0-.27,0,.21.21,0,0,0-.1.14.17.17,0,0,0,0,.1.11.11,0,0,0,.08,0h.06c.06,0,0,0,0-.11h.07a.19.19,0,0,1,.12.07v.21a1.06,1.06,0,0,0-.35.09m.35.29V28h-.18a.13.13,0,0,1,0-.12c0-.06,0-.11.12-.15a.38.38,0,0,1,.15,0Z"/><path class="cls-1" d="M32.44,28.24h0l.13.1a.49.49,0,0,0,.17,0h0v.07H33V28.3H33a.09.09,0,0,1,0-.07v-1h-.31v.08h.08v.22h0a.31.31,0,0,0-.13-.06.26.26,0,0,0-.29.07.39.39,0,0,0-.13.32.47.47,0,0,0,.1.3c0,.06.09.07.13.11m0-.65a.11.11,0,0,1,.09-.05h.06a.14.14,0,0,1,.1.07.25.25,0,0,1,.06.16v.39h0l-.11-.05a.39.39,0,0,1-.08-.1.58.58,0,0,1-.06-.26.32.32,0,0,1,.06-.21"/><path class="cls-1" d="M44,28.43a.34.34,0,0,0,.2,0h.08v.1h.37v-.1h0c-.06,0-.07,0-.08-.06s0,0,0-.09V26.91h-.39V27h.15v.39h0a.56.56,0,0,0-.17-.09.38.38,0,0,0-.38.09.53.53,0,0,0-.14.4.67.67,0,0,0,.12.39.59.59,0,0,0,.33.25m-.13-.94a.15.15,0,0,1,.13-.07h.06a.24.24,0,0,1,.15.09.31.31,0,0,1,.07.21v.53a.08.08,0,0,1-.11,0h0a.28.28,0,0,1-.24-.18.81.81,0,0,1-.08-.34.41.41,0,0,1,.07-.26"/><path class="cls-1" d="M45.81,28.2h.07v.67a.21.21,0,0,1,0,.11h-.12v.09l.54.07v0h-.1a.21.21,0,0,1,0-.11v-.61a.44.44,0,0,0,.08-.07h.12c.06,0,.09,0,.12.08a.43.43,0,0,1,0,.16v.57h-.09v.08l.54.07v-.09h0a.14.14,0,0,1-.09,0,.21.21,0,0,1,0-.11v-.54a.41.41,0,0,0-.13-.33.2.2,0,0,0-.15-.06.34.34,0,0,0-.2,0l-.12.08v-.13h-.11l-.22.05h0v.09H46Z"/><path class="cls-1" d="M45.18,28.87h.33a.51.51,0,0,0,.19-.22h0l-.08-.06h0a.28.28,0,0,1-.14.12.25.25,0,0,1-.17,0,.69.69,0,0,1-.25-.2,1,1,0,0,1-.11-.38l.71.28h0a.63.63,0,0,0-.12-.37.62.62,0,0,0-.29-.24.37.37,0,0,0-.38,0,.43.43,0,0,0-.14.35.79.79,0,0,0,.12.42.66.66,0,0,0,.34.32m-.19-1a.11.11,0,0,1,.16,0h0a.26.26,0,0,1,.18.16v.12L45,28a.17.17,0,0,1,0-.1"/><path class="cls-1" d="M41.81,28.15h0A.69.69,0,0,0,42.3,28a.77.77,0,0,0,.24-.59.91.91,0,0,0-.23-.61.77.77,0,0,0-.52-.2.78.78,0,0,0-.53.17.77.77,0,0,0-.22.58.79.79,0,0,0,.21.58.73.73,0,0,0,.54.24m-.32-1.3a.41.41,0,0,1,.31-.14h0a.38.38,0,0,1,.31.16.77.77,0,0,1,.13.51.74.74,0,0,1-.13.5.37.37,0,0,1-.3.14h0a.4.4,0,0,1-.32-.17.8.8,0,0,1-.13-.5.74.74,0,0,1,.13-.5"/><path class="cls-1" d="M43.27,28.15h0a.29.29,0,0,1-.13,0,.15.15,0,0,1,0-.13v-.5a.11.11,0,0,1,.06-.1c0-.05,0-.05.07-.05h0s.07.06.1.06a.07.07,0,0,0,.09,0v-.09a.17.17,0,0,0,0-.1.16.16,0,0,0-.11,0,.15.15,0,0,0-.16,0l-.1.07v-.13h-.35v.08h.09a0,0,0,0,1,.05,0,.43.43,0,0,1,0,.16v.72h-.14v.09l.6.08Z"/><path class="cls-1" d="M39.49,27.15v.05l.3.57h0a.64.64,0,0,1-.06.18c0,.12-.08.13-.09.13h-.15a.14.14,0,0,0-.08.05.11.11,0,0,0,0,.08.11.11,0,0,0,.06.11h.12a.38.38,0,0,0,.19-.16,2,2,0,0,0,.15-.33l.3-.88a.06.06,0,0,1,0-.06h0V26.8l-.32.1V27H40l-.15.48-.19-.36h.06V27l-.45.14v.08h0"/><path class="cls-1" d="M55.63,31.28,57,30.22l.86-.67c.17-.13.29-.21.35-.27h0c.08-.07.07-.09.06-.13L58.22,29l-2.8,1.73Z"/><polygon class="cls-1" points="14.27 29.25 17 31.28 17.13 30.67 14.27 28.91 14.27 29.25"/><polygon class="cls-1" points="18.3 26.32 15.66 24.77 15.66 25.11 18.6 27.23 18.3 26.32"/><path class="cls-1" d="M38.4,48h.17v-.08a1.61,1.61,0,0,1-.06-.44,1.52,1.52,0,0,1,.06-.42V47H38v-.08a1.31,1.31,0,0,1-.07-.44A1.41,1.41,0,0,1,38,46v-.07h-.22l.28-.07-.75-.26-.07.33h-.59V46a1.64,1.64,0,0,0,0,.93h0v-.08a1.64,1.64,0,0,1,0-.88V45.9h-.08l.26-.07-.73-.26-.1.33h-.71V46a1.43,1.43,0,0,0-.07.46,1.49,1.49,0,0,0,.07.47H34.5V47a1.37,1.37,0,0,0-.07.45v.22H33.1l.26.68h.35l.43.59h4.27l.85-.85h-.78Zm-3.73-.58a.57.57,0,0,1,0-.26h.81a1.13,1.13,0,0,0,0,.26,1.22,1.22,0,0,0,0,.27h-.81a1.22,1.22,0,0,1,0-.27m.2.7L34.76,48h.14Zm.67,0h-.29V48h.29Zm-.07-1.47a1.22,1.22,0,0,1,0-.27,1.22,1.22,0,0,1,0-.27h.81a1.22,1.22,0,0,0,0,.27,1.22,1.22,0,0,0,0,.27Zm.67,1.47h-.23V48h.22Zm.64,0h-.27V48h.27Zm.1-.48h-.82v-.53h.81a1.13,1.13,0,0,0,0,.26.81.81,0,0,0,0,.22m0-1a1.22,1.22,0,0,1,0-.27,1.22,1.22,0,0,1,0-.27h.8a1.22,1.22,0,0,0,0,.27,1.22,1.22,0,0,0,0,.27Zm.57,1.47h-.25l0-.22v0h.2Zm.37,0v-.12H38l.09.12Zm.48-.43h-.82a1.22,1.22,0,0,1,0-.27.57.57,0,0,1,0-.26h.81a1.13,1.13,0,0,0,0,.26,1.22,1.22,0,0,0,0,.27"/><path class="cls-1" d="M34.26,16.56h.05a.35.35,0,0,0,.17-.06.18.18,0,1,0,.36,0,.16.16,0,0,0-.05-.11h.12v-.05l-.06-.08a.2.2,0,0,0-.15-.06,1.14,1.14,0,0,0-.32.07H34v.06a.36.36,0,0,0,.21.17"/></g><g id="Layer_2" data-name="Layer 2"><polygon class="cls-1" points="100.11 35.83 92.08 35.83 92.07 21.92 94.67 21.92 94.68 33.52 100.11 33.52 100.11 35.83"/><path class="cls-1" d="M107.41,34.57a2.82,2.82,0,0,1-2.72,1.34,3.29,3.29,0,0,1-2.37-.86,3,3,0,0,1-.87-2.19,2.78,2.78,0,0,1,1.11-2.34,5.23,5.23,0,0,1,3.22-.84h1.53V29a1.82,1.82,0,0,0-.45-1.32,2.12,2.12,0,0,0-1.55-.46,5.43,5.43,0,0,0-3.07.93V25.9a6.5,6.5,0,0,1,3.38-.72c2.84,0,4.25,1.32,4.25,4v6.69h-2.46Zm-1.86-.5a1.71,1.71,0,0,0,1.29-.48,1.75,1.75,0,0,0,.47-1.27v-1H106a2.32,2.32,0,0,0-1.49.4,1.26,1.26,0,0,0-.52,1Q104,34,105.52,34"/><path class="cls-1" d="M125.12,35.36a5.32,5.32,0,0,1-2.73.65,5.23,5.23,0,0,1-3.91-1.53,5.32,5.32,0,0,1-1.5-3.86,5.53,5.53,0,0,1,1.5-3.86,5.25,5.25,0,0,1,4-1.57,5.39,5.39,0,0,1,2.61.58V28a4.39,4.39,0,0,0-2.36-.66,3.07,3.07,0,0,0-2.33.91,3.41,3.41,0,0,0-.91,2.41,3.5,3.5,0,0,0,.9,2.39,3,3,0,0,0,2.32.91,4.3,4.3,0,0,0,2.38-.7Z"/><path class="cls-1" d="M136.22,35.81h-2.5V34.1a3.2,3.2,0,0,1-3.22,1.82A3.26,3.26,0,0,1,128,35a3.55,3.55,0,0,1-.89-2.58V25.35h2.47v6.5a2.11,2.11,0,0,0,.48,1.51,1.78,1.78,0,0,0,1.33.52,2.09,2.09,0,0,0,1.68-.73,3.3,3.3,0,0,0,.61-2.19V25.35h2.5Z"/><rect class="cls-1" x="139" y="21.22" width="2.48" height="14.59"/><path class="cls-1" d="M150.05,35.56a4.4,4.4,0,0,1-1.86.35c-2.26,0-3.38-1.14-3.38-3.42V27.21h-1.56V25.35h1.57V22.83h2.48v2.52h2.6V27.2h-2.6v5.33a1.35,1.35,0,0,0,.35,1,1.31,1.31,0,0,0,1,.34,2.67,2.67,0,0,0,1.45-.43Z"/><path class="cls-1" d="M161.07,35.8h-2.5V34.09a3.2,3.2,0,0,1-3.22,1.82,3.25,3.25,0,0,1-2.47-.91,3.48,3.48,0,0,1-.89-2.58V25.34h2.48v6.5a2.12,2.12,0,0,0,.49,1.51,1.78,1.78,0,0,0,1.33.52,2.09,2.09,0,0,0,1.68-.73,3.3,3.3,0,0,0,.61-2.19V25.34h2.5Z"/><path class="cls-1" d="M166.23,35.8h-2.5V25.34h2.47V27.2a2.64,2.64,0,0,1,2.64-1.95,2.73,2.73,0,0,1,.7.07v2.39a2.49,2.49,0,0,0-1-.21,2,2,0,0,0-1.65.83,3.24,3.24,0,0,0-.64,2.06Z"/><path class="cls-1" d="M176.49,34.54a2.83,2.83,0,0,1-2.73,1.34A3.24,3.24,0,0,1,171.4,35a2.92,2.92,0,0,1-.88-2.19,2.79,2.79,0,0,1,1.11-2.34,5.31,5.31,0,0,1,3.22-.84h1.53V29a1.75,1.75,0,0,0-.46-1.32,2.1,2.1,0,0,0-1.54-.46,5.44,5.44,0,0,0-3.08.93V25.87a6.54,6.54,0,0,1,3.39-.72q4.25,0,4.25,4V35.8h-2.45Zm-1.86-.5a1.71,1.71,0,0,0,1.29-.48,1.75,1.75,0,0,0,.46-1.27v-1H175.1a2.29,2.29,0,0,0-1.48.4,1.24,1.24,0,0,0-.52,1q0,1.32,1.53,1.32"/><path class="cls-1" d="M100,53.34a6.07,6.07,0,0,1-3.16.68,5,5,0,0,1-5.39-4.58,6.09,6.09,0,0,1,0-.74,5.46,5.46,0,0,1,1.36-3.92,4.53,4.53,0,0,1,3.41-1.43,4.3,4.3,0,0,1,3.24,1.24,5,5,0,0,1,1.2,3.61,9.29,9.29,0,0,1-.15,1.49H93.92A2.83,2.83,0,0,0,95,51.42a3.6,3.6,0,0,0,2.14.6,4.63,4.63,0,0,0,2.79-.83Zm-3.72-8.05a2.12,2.12,0,0,0-1.54.65,3.35,3.35,0,0,0-.83,1.89H98.3v-.31a2.72,2.72,0,0,0-.54-1.62,1.84,1.84,0,0,0-1.48-.61"/><path class="cls-1" d="M109.73,50.9a2.76,2.76,0,0,1-1,2.29,4.43,4.43,0,0,1-2.81.83,6.56,6.56,0,0,1-3.14-.64V51.11a5.27,5.27,0,0,0,3,.93,1.88,1.88,0,0,0,1.06-.26.81.81,0,0,0,.38-.71,1,1,0,0,0-.12-.49,1.49,1.49,0,0,0-.48-.42,5.86,5.86,0,0,0-.55-.3l-.77-.34h-.09a.17.17,0,0,0-.1,0H105c-1.53-.69-2.29-1.68-2.29-3a2.7,2.7,0,0,1,1.09-2.27,4.44,4.44,0,0,1,2.75-.82,6.62,6.62,0,0,1,2.64.45V46a5,5,0,0,0-2.58-.62,1.6,1.6,0,0,0-1,.28.84.84,0,0,0-.36.71.81.81,0,0,0,0,.31.75.75,0,0,0,.18.28l.26.24a2.5,2.5,0,0,0,.35.21l.4.2.45.21.45.2a6.51,6.51,0,0,1,1.74,1.2,2.4,2.4,0,0,1,.64,1.71"/><path class="cls-1" d="M126.4,53.91h-2.47V52.28a3.5,3.5,0,0,1-3.18,1.77,3.89,3.89,0,0,1-3.27-1.56,6,6,0,0,1-1.21-3.8,5.72,5.72,0,0,1,1.27-3.93,4.11,4.11,0,0,1,3.25-1.46,3.47,3.47,0,0,1,3.13,1.75V39.32h2.48Zm-7.59-5.18a3.55,3.55,0,0,0,.72,2.31,2.19,2.19,0,0,0,1.8.89,2.35,2.35,0,0,0,1.85-.86,3.66,3.66,0,0,0,.75-2.49,3.28,3.28,0,0,0-.79-2.38,2.44,2.44,0,0,0-1.79-.79,2.28,2.28,0,0,0-1.81.87,3.7,3.7,0,0,0-.73,2.45"/><path class="cls-1" d="M137.07,53.32a6,6,0,0,1-3.15.69,5,5,0,0,1-5.39-4.58,4.69,4.69,0,0,1,0-.75,5.46,5.46,0,0,1,1.36-3.92,4.51,4.51,0,0,1,3.4-1.42,4.3,4.3,0,0,1,3.24,1.23,5,5,0,0,1,1.2,3.61,10.58,10.58,0,0,1-.14,1.49H131a2.81,2.81,0,0,0,1.12,1.74,3.69,3.69,0,0,0,2.14.59,4.59,4.59,0,0,0,2.78-.82Zm-3.71-8a2.09,2.09,0,0,0-1.54.65,3.33,3.33,0,0,0-.84,1.89h4.4V47.5a2.62,2.62,0,0,0-.55-1.62,1.81,1.81,0,0,0-1.47-.6"/><path class="cls-1" d="M150.9,53.65A4.28,4.28,0,0,1,149,54c-2.25,0-3.37-1.14-3.38-3.42V45.29h-1.57V43.43h1.57V40.92h2.48v2.51h2.6v1.86h-2.6v5.33a1.32,1.32,0,0,0,.36,1,1.35,1.35,0,0,0,1,.34,2.57,2.57,0,0,0,1.44-.44Z"/><path class="cls-1" d="M162.48,48.63a5.72,5.72,0,0,1-1.33,3.9,5.33,5.33,0,0,1-7.43,0,5.42,5.42,0,0,1-1.33-3.79,5.78,5.78,0,0,1,1.38-4,4.65,4.65,0,0,1,3.65-1.56,4.73,4.73,0,0,1,3.74,1.52,5.68,5.68,0,0,1,1.32,3.85m-7.49.06a4.29,4.29,0,0,0,.64,2.42,2.21,2.21,0,0,0,3.07.58,2.28,2.28,0,0,0,.58-.58,4.38,4.38,0,0,0,.62-2.42,4.52,4.52,0,0,0-.6-2.46,2.06,2.06,0,0,0-1.88-1,2,2,0,0,0-1.81,1,4.41,4.41,0,0,0-.62,2.43"/><path class="cls-1" d="M174.18,53.89h-2.47V52.26A3.48,3.48,0,0,1,168.53,54a3.93,3.93,0,0,1-3.28-1.56,6.1,6.1,0,0,1-1.2-3.8,5.77,5.77,0,0,1,1.26-3.93,4.14,4.14,0,0,1,3.25-1.46A3.49,3.49,0,0,1,171.7,45V39.3h2.48Zm-7.6-5.18a3.51,3.51,0,0,0,.73,2.31,2.24,2.24,0,0,0,1.79.89,2.35,2.35,0,0,0,1.86-.86,3.66,3.66,0,0,0,.74-2.49,3.23,3.23,0,0,0-.78-2.38,2.42,2.42,0,0,0-1.8-.79,2.26,2.26,0,0,0-1.8.87,3.71,3.71,0,0,0-.74,2.45"/><path class="cls-1" d="M186.4,48.62a5.72,5.72,0,0,1-1.33,3.9,5.33,5.33,0,0,1-7.43,0,5.42,5.42,0,0,1-1.33-3.79,5.78,5.78,0,0,1,1.38-4,4.65,4.65,0,0,1,3.65-1.56,4.73,4.73,0,0,1,3.74,1.52,5.68,5.68,0,0,1,1.32,3.85m-7.49.06a4.29,4.29,0,0,0,.64,2.42,2.21,2.21,0,0,0,3.07.58,2.28,2.28,0,0,0,.58-.58,4.38,4.38,0,0,0,.62-2.42,4.52,4.52,0,0,0-.6-2.46,2.06,2.06,0,0,0-1.88-1,2,2,0,0,0-1.8,1,4.42,4.42,0,0,0-.63,2.43"/><path class="cls-1" d="M195.36,50.86a2.72,2.72,0,0,1-1.06,2.29,4.33,4.33,0,0,1-2.8.83,6.56,6.56,0,0,1-3.14-.64V51.07a5.27,5.27,0,0,0,3,.93,1.88,1.88,0,0,0,1.06-.26.8.8,0,0,0,.39-.71,1.05,1.05,0,0,0-.13-.49,1.27,1.27,0,0,0-.47-.42c-.24-.14-.42-.24-.55-.3l-.77-.34h-.29a3.28,3.28,0,0,1-2.3-3,2.71,2.71,0,0,1,1.1-2.27,4.48,4.48,0,0,1,2.74-.83,6.62,6.62,0,0,1,2.64.45V46a5,5,0,0,0-2.58-.62,1.62,1.62,0,0,0-1,.28.87.87,0,0,0-.37.71.81.81,0,0,0,0,.31A.77.77,0,0,0,191,47l.26.24a1.86,1.86,0,0,0,.35.22l.39.19a3.82,3.82,0,0,0,.46.21l.45.2a6.1,6.1,0,0,1,1.73,1.2,2.37,2.37,0,0,1,.65,1.71"/><polygon class="cls-1" points="257.92 41.9 256.16 41.9 256.16 35.02 256.28 31.75 256.27 31.75 252.65 41.9 251.04 41.9 247.43 31.75 247.41 31.75 247.55 35.02 247.55 41.9 245.77 41.9 245.77 30.02 248.63 30.02 251.03 36.9 251.85 39.72 251.89 39.72 252.74 36.9 255.11 30.02 257.92 30.02 257.92 41.9"/><path class="cls-1" d="M260.93,31.07a1.14,1.14,0,0,1-.34-.89,1.12,1.12,0,0,1,.34-.88,1.62,1.62,0,0,1,1.9,0,1.14,1.14,0,0,1,.33.88,1.18,1.18,0,0,1-.33.89,1.56,1.56,0,0,1-1.9,0m1.9,10.83h-1.92v-9h1.93Z"/><path class="cls-1" d="M272.85,33.58a3.21,3.21,0,0,1,.95,2.49V41.9h-1.93V36.68c0-1.58-.64-2.38-1.92-2.38a2.39,2.39,0,0,0-1.73.7,2.86,2.86,0,0,0-.72,2.13V41.9h-1.93v-9h1.71l.09,1.49a3,3,0,0,1,1.24-1.26,3.89,3.89,0,0,1,1.8-.41,3.47,3.47,0,0,1,2.44.86"/><path class="cls-1" d="M284.31,35.24l-1.8.72a2,2,0,0,0-2.1-1.71,2.28,2.28,0,0,0-1.88.83,3.68,3.68,0,0,0-.66,2.34,3.61,3.61,0,0,0,.66,2.32,2.6,2.6,0,0,0,3.35.36,2.2,2.2,0,0,0,.74-1.3l1.76.6a3.7,3.7,0,0,1-1.4,2,4.31,4.31,0,0,1-2.54.71,4.4,4.4,0,0,1-3.32-1.24,4.77,4.77,0,0,1-1.2-3.44A4.78,4.78,0,0,1,277.11,34a4.36,4.36,0,0,1,3.3-1.24,3.77,3.77,0,0,1,3.9,2.52"/><path class="cls-1" d="M294.52,32.9v9h-1.71l-.07-1.46a3.37,3.37,0,0,1-3.21,1.64,3.41,3.41,0,0,1-2.35-.8,3.16,3.16,0,0,1-.89-2.46V32.9h1.93v5.42a2.4,2.4,0,0,0,.47,1.68,1.81,1.81,0,0,0,1.38.5,2.49,2.49,0,0,0,1.81-.7,2.72,2.72,0,0,0,.71-2V32.9Z"/><path class="cls-1" d="M299.11,39.27a1.59,1.59,0,0,0,.2.93.87.87,0,0,0,.73.26,3.81,3.81,0,0,0,.59-.05,3.18,3.18,0,0,0,.6-.18L301,41.77a3.24,3.24,0,0,1-1.5.31,2.27,2.27,0,0,1-1.77-.61,2.74,2.74,0,0,1-.57-1.93V28.85h1.93Z"/><path class="cls-1" d="M308.07,41.31a3,3,0,0,1-1.05.56,4.32,4.32,0,0,1-1.34.21,3,3,0,0,1-2-.62,2.44,2.44,0,0,1-.76-1.94V34.41h-1.71V32.9h1.71V30.79l1.92-.54V32.9H308v1.51h-3.15V39.2a1.23,1.23,0,0,0,.35,1,1.4,1.4,0,0,0,1,.32,2.07,2.07,0,0,0,1.45-.58Z"/><path class="cls-1" d="M317.76,32.9v9h-1.71L316,40.44a3.37,3.37,0,0,1-3.21,1.64,3.41,3.41,0,0,1-2.35-.8,3.16,3.16,0,0,1-.89-2.46V32.9h1.93v5.42A2.4,2.4,0,0,0,312,40a1.81,1.81,0,0,0,1.38.5,2.49,2.49,0,0,0,1.81-.7,2.68,2.68,0,0,0,.71-2V32.9Z"/><path class="cls-1" d="M326.11,32.9l-.3,1.76a2.38,2.38,0,0,0-1.14-.23,2,2,0,0,0-1.09.31,2.3,2.3,0,0,0-.84.91,3,3,0,0,0-.34,1.48V41.9h-1.92v-9h1.64l.16,1.62a2.8,2.8,0,0,1,2.84-1.8,2.17,2.17,0,0,1,1,.18"/><path class="cls-1" d="M335.9,40.57l-.12,1.29a2.7,2.7,0,0,1-1.12.22,2.21,2.21,0,0,1-1.23-.31,1.47,1.47,0,0,1-.6-1,2.74,2.74,0,0,1-1.23,1,4.57,4.57,0,0,1-1.82.35,3.42,3.42,0,0,1-2.12-.61,2.06,2.06,0,0,1-.81-1.75,2.24,2.24,0,0,1,.88-1.79,5.58,5.58,0,0,1,2.63-1l2.29-.4V36a1.79,1.79,0,0,0-.49-1.3,1.82,1.82,0,0,0-1.35-.48,2.21,2.21,0,0,0-2.32,1.62l-1.5-.79a3,3,0,0,1,1.33-1.71,4.49,4.49,0,0,1,2.45-.63,4.39,4.39,0,0,1,2.78.81,2.85,2.85,0,0,1,1,2.38V40a.58.58,0,0,0,.67.67,2.47,2.47,0,0,0,.66-.07m-4-.42a1.4,1.4,0,0,0,.74-1.24V37.83l-2,.4a3.58,3.58,0,0,0-1.38.5,1,1,0,0,0-.45.87.89.89,0,0,0,.35.76,1.69,1.69,0,0,0,1,.26,3,3,0,0,0,1.71-.47"/></g></svg>