<svg id="Layer_1" data-name="Layer 1" xmlns="http://www.w3.org/2000/svg" viewBox="0 0 214.66 112.26"><defs><style>.cls-1{fill:#fff;}</style></defs><title>logo46snav6</title><path class="cls-1" d="M197.24,107.52c.06.26.67-.21.85-.63a2.49,2.49,0,0,0-.15-2.08,1.74,1.74,0,0,0-1.66-.55,5.75,5.75,0,0,0-1.68.7c-.3.16-.68.32-.95.12a.68.68,0,0,1-.23-.52c0-.71.66-1.21,1.16-1.72a5.12,5.12,0,0,0,1-1.43,1.93,1.93,0,0,0,.24-.94,1.48,1.48,0,0,0-.58-1,2.92,2.92,0,0,0-1.09-.46,8.9,8.9,0,0,0-4.19.35,17.85,17.85,0,0,1-4.16.83,1.21,1.21,0,0,1-.42,0c-.52-.17-.62-.9-.37-1.39a4.61,4.61,0,0,1,1.12-1.17,6.75,6.75,0,0,0,1.43-2.44,12.36,12.36,0,0,0,.54-3.08c0-1.32.32-2.63.41-4a6.18,6.18,0,0,0-.79-3.81,5.57,5.57,0,0,0-2.66-2,30.09,30.09,0,0,0-3.24-1c-2.17-.58-4.25-1.44-6.41-2-1.28-.36-2.58-.63-3.88-.9l-.77-.16a5,5,0,0,0-.54-.08,4.21,4.21,0,0,0-2.12.7,26.24,26.24,0,0,1-4.88,1.66l-.9.11a3.57,3.57,0,0,1-2.63-1.16c-.8-1-.65-2.42-1-3.65a4.59,4.59,0,0,0-2.22-2.72,2,2,0,0,0-.87-.26,2.22,2.22,0,0,0-.72.16c-2.73,1-4.51,3.62-6.8,5.43s-5.19,2.93-6.81,5.34c-.36.54-.64,1.12-1,1.67a16.5,16.5,0,0,1-2.93,3.62c-.72.42-3.1,1.1-4.64,1.73a34.33,34.33,0,0,1-5.82,1.51,17.86,17.86,0,0,0-2.38.66c-.8.31-1.57.72-2.35,1.07A33.6,33.6,0,0,1,115.89,96c-1.32.22-4.64-1.17-6.78-.37a7.18,7.18,0,0,0-1,.5,23.5,23.5,0,0,1-4.23,2.25,16.33,16.33,0,0,1-5.39.58,4,4,0,0,1-2.2-.46c-1-.67-1.18-2.07-1.81-3.12a25.89,25.89,0,0,1-1.6-2.28,6.82,6.82,0,0,1-.41-1.84,19,19,0,0,0-3.39-8.42s-1.51-2.17-2-2.72a3.89,3.89,0,0,1-.93-1.23,3.25,3.25,0,0,1,.2-2.06A7.46,7.46,0,0,1,87,75.28a15,15,0,0,1,2.07-2.42c1.28-1.43,2.2-3.18,3.64-4.45a15.19,15.19,0,0,1,2.7-1.78,41.58,41.58,0,0,0,4.35-2.12c1.14-.77,2.1-2.12,1.75-3.46-.44-1.71-2.63-2.26-4.4-2.09s-3.63.71-5.24,0a1.3,1.3,0,0,1-.66-.56,1.6,1.6,0,0,1-.09-.78c.06-.85.12-1.7.17-2.54s.25-1.79,1-2a3.1,3.1,0,0,1,1.25.08c1.85.22,3.27-1.53,4.36-3,3.52-4.88,8-9.55,13.9-10.88,1.28-.29,3.37-.1,4.29-1a5.6,5.6,0,0,0,1.21-2.89c.4-1.85-.61-4.13,0-5.94,2.26-6.31,2.52-8.18,2.54-12.37,0-.36.51-.5.57-.8a2.35,2.35,0,0,0,0-1.39,12.13,12.13,0,0,0-1-2.14c-1.27-2.6-1.24-3.89-.17-5.68a10.72,10.72,0,0,1,5.41-4c1.62-.55,3.57-1.94,3.89-2.82l-2-.14c-1.67,1.45-3.89,2.07-5.79,3.21a4.54,4.54,0,0,0-1.44,1.21c-.15.22-.28.45-.45.66a7.46,7.46,0,0,1-.77.72,5.06,5.06,0,0,0-1.47,5,15.87,15.87,0,0,0,1.43,3,10.07,10.07,0,0,1,.78,4.23,16.76,16.76,0,0,1-1.08,4.52c-.14.46-.29.92-.47,1.36s-.3.67-.45,1a19.55,19.55,0,0,0-.67,2,16.55,16.55,0,0,0-.78,3.55,3.07,3.07,0,0,0,.07,1c.07.24.18.47.25.7a3.77,3.77,0,0,1,.06,1.38v.85a4,4,0,0,1-.62,1.94,2.62,2.62,0,0,1-.73.79,4.16,4.16,0,0,1-1.68.55l-2.22.37a.73.73,0,0,0-.42.16c-.06.07-.11.16-.2.18s-.23-.11-.34-.18a.51.51,0,0,0-.59,0,1.55,1.55,0,0,0-.38.5,1.7,1.7,0,0,0-1.32.16,5.46,5.46,0,0,0-1.09.82c-2,1.71-4.41,3-6.25,4.91l-.55.63A13.56,13.56,0,0,0,96.89,49c-.23.51-.49,1.08-1,1.26a2,2,0,0,1-.85,0,7.64,7.64,0,0,0-3.21.49,2,2,0,0,0-.68.38,6.57,6.57,0,0,0-.73,1.15c-.19.26-.44.48-.63.74a4.51,4.51,0,0,0-.6,1.32,9,9,0,0,0-.53,2.3,4.4,4.4,0,0,0,.88,2.82A6.85,6.85,0,0,0,92,61.38a7.75,7.75,0,0,0,2.9.47,6.33,6.33,0,0,0,2.85-1A1.89,1.89,0,0,1,99,60.5a1.2,1.2,0,0,1,.84,1.3,2,2,0,0,1-.9,1.38,7.63,7.63,0,0,1-1.5.78,14.8,14.8,0,0,0-3.18,1.94,1.27,1.27,0,0,1-.31.2,1.31,1.31,0,0,1-.28,0,3.05,3.05,0,0,0-1.71.91,14.16,14.16,0,0,0-1.24,1.54c-.39.51-2.07,1.93-3.32,3.31A19.18,19.18,0,0,0,85,75.16a6.66,6.66,0,0,1-1,1.52,6.5,6.5,0,0,1-2.36,1.12,3.23,3.23,0,0,0-2,1.54.69.69,0,0,0,0,.68.59.59,0,0,0,.76.08,3.08,3.08,0,0,0,.56-.58,2.53,2.53,0,0,1,2.87-.59,4.48,4.48,0,0,1,1.68,2c.31.53,1.61,1.37,2.56,2.63a15.55,15.55,0,0,1,1.82,3.59l2.94,7.69a26.23,26.23,0,0,0,1.55,3.47,2.58,2.58,0,0,0,.76.91,2.77,2.77,0,0,0,1.35.32c3.1.19,6.3.38,9.23-.67,2.29-.83,4.49-2.41,6.9-2.06,1.08.16,2.18.71,3.22.39.31-.1.59-.26.9-.33a.8.8,0,0,1,.84.29l.38-.34,11-3.63c.94-.31,1.87-.63,2.82-.89A23.68,23.68,0,0,0,137,90.52a22.57,22.57,0,0,0,3.17-2.93c3.36-4.47,8.21-7.56,12.36-11.33a8,8,0,0,1,2.2-1.62,1.64,1.64,0,0,1,1-.13,1.91,1.91,0,0,1,1,.79A8.38,8.38,0,0,1,158,79a7.52,7.52,0,0,0,1.06,1.87,2.31,2.31,0,0,0,1.53.84c.59.09,3,.17,3,.17l6.7-1.58a2.45,2.45,0,0,1,1.14-.09,4.21,4.21,0,0,1,.48.12,2.22,2.22,0,0,0,.71-.16,2.24,2.24,0,0,1,1.68.22.35.35,0,0,1,.17.15c.09.22-.23.38-.46.41-.92.12-1.84.21-2.77.28.14.55.77.79,1.32.94,1.22.33,2.45.58,3.68.83a6.36,6.36,0,0,0,2.17.2c.48-.07.95-.24,1.44-.27s.95.11,1.43.08a5.92,5.92,0,0,1,1.33-.09,9.63,9.63,0,0,1,1.23.55c.31.11.66.13,1,.22a2.85,2.85,0,0,1,1.67,1.59,8,8,0,0,1,.54,2.31,15,15,0,0,1,.08,3.84,5.81,5.81,0,0,1-1.6,3.41l-.83,1a23.49,23.49,0,0,0-1.82,3.25c-.83,1.91-1.18,4-2.31,5.81-.28.44-.61.85-.88,1.3s-.49.93-.76,1.38a16.26,16.26,0,0,1-5,4.77l2.18-.18c1.61-1.07,3.31-2.23,4.09-4,.25-.57.4-1.18.66-1.75.56-1.22,1.62-2.15,2.21-3.36.3-.61.52-1.34,1.12-1.67a2.54,2.54,0,0,1,1.08-.24,24.44,24.44,0,0,0,5.43-1.09,9.47,9.47,0,0,1,1.74-.45,2.48,2.48,0,0,1,1.72.37,1,1,0,0,1,.45.81,1.05,1.05,0,0,1-.18.42,18,18,0,0,1-1.53,1.84,2.59,2.59,0,0,0-.68,2.2.58.58,0,0,0,.12.25.73.73,0,0,0,.31.17,3.47,3.47,0,0,0,2.81-.39c.41-.25.83-.61,1.31-.52a1,1,0,0,1,.75.81,2.83,2.83,0,0,1,0,1.16C197.37,107.1,197.19,107.28,197.24,107.52Z" transform="translate(0.01 -0.11)"/><path class="cls-1" d="M0,58.65V44H2.13V58.65Z" transform="translate(0.01 -0.11)"/><path class="cls-1" d="M13.51,58.65l-3.39-7.51a.58.58,0,0,0-.79-.23.56.56,0,0,0-.3.52v7.22H6.87V44H9l3.39,7.5a.54.54,0,0,0,.51.31.58.58,0,0,0,.58-.58V44h2.16V58.65Z" transform="translate(0.01 -0.11)"/><path class="cls-1" d="M26.07,58.65l-.19-.85a.66.66,0,0,0-.65-.51H22.45a.71.71,0,0,0-.68.51l-.18.85H19.45L22.76,44H24.9l3.33,14.64Zm-1-4.36-.57-2.51a.69.69,0,0,0-1.36,0l-.58,2.51a.43.43,0,0,0,0,.16.69.69,0,0,0,.7.68h1.17a.7.7,0,0,0,.68-.68.45.45,0,0,0,0-.16Z" transform="translate(0.01 -0.11)"/><path class="cls-1" d="M36.39,58.65a4.41,4.41,0,0,1-4.4-4.4V44h2.16V54.25a2.24,2.24,0,0,0,4.48,0V44h2.16V54.25A4.41,4.41,0,0,1,36.39,58.65Z" transform="translate(0.01 -0.11)"/><path class="cls-1" d="M49.77,58.65h-4.4V56.52h.78V46.15h-.78V44h4.4a4.41,4.41,0,0,1,4.4,4.4v5.84A4.41,4.41,0,0,1,49.77,58.65ZM52,48.41a2.23,2.23,0,0,0-2.2-2.26h-1.5V56.52h1.46A2.24,2.24,0,0,0,52,54.28V48.41Z" transform="translate(0.01 -0.11)"/><path class="cls-1" d="M58.5,58.65V44h2.14V58.65Z" transform="translate(0.01 -0.11)"/><path class="cls-1" d="M70.18,46.15v12.5H68V46.15H64.73V44h8.78v2.14Z" transform="translate(0.01 -0.11)"/><path class="cls-1" d="M81.36,58.65A4.42,4.42,0,0,1,77,54.25V48.41a4.39,4.39,0,0,1,8.78,0h0v5.84A4.41,4.41,0,0,1,81.36,58.65Zm2.26-10.24a2.25,2.25,0,0,0-4.5,0v5.84a2.25,2.25,0,0,0,4.5,0Z" transform="translate(0.01 -0.11)"/><path class="cls-1" d="M112,58.65V50.83a.68.68,0,0,0-1.32-.22L109.75,53l-.93-2.34a.68.68,0,0,0-1.32.22v7.82h-2.15V44h2.15l2.25,5.73L112,44h2.15V58.65Z" transform="translate(0.01 -0.11)"/><path class="cls-1" d="M124.56,58.65l-.19-.85a.68.68,0,0,0-.66-.51H121a.71.71,0,0,0-.68.51l-.19.85H118L121.3,44h2.13l3.33,14.64Zm-1-4.36L123,51.78a.69.69,0,0,0-.82-.53.69.69,0,0,0-.53.53l-.58,2.51a.43.43,0,0,0,0,.16.69.69,0,0,0,.7.68h1.17a.7.7,0,0,0,.68-.68.45.45,0,0,0,0-.16Z" transform="translate(0.01 -0.11)"/><path class="cls-1" d="M134.48,58.65a4.42,4.42,0,0,1-4.38-4.4V48.41a4.39,4.39,0,1,1,8.78,0h-2.14a2.25,2.25,0,0,0-4.5,0v5.84a2.25,2.25,0,0,0,4.5,0V52.4h-2.26V50.26h4.4v4A4.42,4.42,0,0,1,134.48,58.65Z" transform="translate(0.01 -0.11)"/><path class="cls-1" d="M147.47,58.65h-4.4V56.52h.79V46.15h-.79V44h4.4a4.4,4.4,0,0,1,4.4,4.4v5.84A4.41,4.41,0,0,1,147.47,58.65Zm2.25-10.24a2.24,2.24,0,0,0-2.22-2.26H146V56.52h1.46a2.24,2.24,0,0,0,2.25-2.23v0Z" transform="translate(0.01 -0.11)"/><path class="cls-1" d="M161.88,58.65l-.18-.85a.68.68,0,0,0-.66-.51h-2.77a.71.71,0,0,0-.68.51l-.19.85h-2.14L158.57,44h2.14L164,58.65Zm-1-4.36-.58-2.51a.69.69,0,0,0-1.36,0l-.57,2.51a.43.43,0,0,0,0,.16.69.69,0,0,0,.7.68h1.17a.7.7,0,0,0,.68-.68.44.44,0,0,0,0-.16Z" transform="translate(0.01 -0.11)"/><path class="cls-1" d="M168.05,58.65V44h2.14V56.52h6.64v2.14Z" transform="translate(0.01 -0.11)"/><path class="cls-1" d="M180.55,58.65V44h8.8v2.14h-6.64v4.11h4.68V52.4h-4.68v4.12h6.64v2.14Z" transform="translate(0.01 -0.11)"/><path class="cls-1" d="M199.93,58.65l-3.39-7.51a.58.58,0,0,0-1.09.27v7.24h-2.16V44h2.16l3.39,7.5a.55.55,0,0,0,.52.31.58.58,0,0,0,.57-.59h0V44h2.16V58.65Z" transform="translate(0.01 -0.11)"/><path class="cls-1" d="M212.49,58.65l-.18-.85a.68.68,0,0,0-.66-.51h-2.78a.71.71,0,0,0-.68.51l-.18.85h-2.14L209.18,44h2.14l3.33,14.64Zm-1-4.36-.57-2.51a.68.68,0,0,0-.8-.56.69.69,0,0,0-.56.56L209,54.29a.43.43,0,0,0,0,.16.67.67,0,0,0,.68.68h1.19a.69.69,0,0,0,.67-.68.45.45,0,0,0,0-.16Z" transform="translate(0.01 -0.11)"/><path class="cls-1" d="M60.52,84.1v2.18H58.37V84.1H52.71V81.94l6.64-10.3h2.14l-6.15,9.54a.47.47,0,0,0,.08.66.5.5,0,0,0,.31.1h2.64V79.76h2.15v2.18h1V84.1Z" transform="translate(0.01 -0.11)"/><path class="cls-1" d="M69.14,86.28a4.4,4.4,0,0,1-4.38-4.4V76a4.39,4.39,0,1,1,8.78,0H71.4a2.25,2.25,0,1,0-4.5,0v1.48a.41.41,0,0,0,.39.39.54.54,0,0,0,.18,0,4.39,4.39,0,1,1,1.67,8.45h0Zm0-6.64a2.25,2.25,0,1,0,2.26,2.24,2.25,2.25,0,0,0-2.26-2.24Z" transform="translate(0.01 -0.11)"/><path class="cls-1" d="M109.78,86.28a4.44,4.44,0,0,1-4.38-3.9h2.18a2.26,2.26,0,0,0,4.47-.47,2.24,2.24,0,0,0-1.83-2.23l-1.65-.29a3.91,3.91,0,0,1,.72-7.75h.49a4.4,4.4,0,0,1,4.36,3.91H112a2.23,2.23,0,0,0-2.18-1.77h-.49a1.75,1.75,0,0,0-1.75,1.75v0a1.69,1.69,0,0,0,1.3,1.69l1.64.32a4.45,4.45,0,0,1,3.68,4.32,4.4,4.4,0,0,1-4.4,4.4Z" transform="translate(0.01 -0.11)"/><path class="cls-1" d="M124.71,86.28l-3.4-7.5a.53.53,0,0,0-.51-.31.58.58,0,0,0-.58.58v7.23h-2.15V71.64h2.15l3.4,7.51a.57.57,0,0,0,.51.31.58.58,0,0,0,.58-.58V71.64h2.16V86.28Z" transform="translate(0.01 -0.11)"/><path class="cls-1" d="M137.27,86.28l-.19-.84a.67.67,0,0,0-.66-.52h-2.77a.69.69,0,0,0-.68.52l-.19.84h-2.13L134,71.64h2.13l3.33,14.64Zm-1-4.36-.58-2.5a.69.69,0,0,0-.82-.53.69.69,0,0,0-.53.53l-.58,2.5a.49.49,0,0,0,0,.17.69.69,0,0,0,.7.68h1.17a.7.7,0,0,0,.68-.68.47.47,0,0,0,0-.17Z" transform="translate(0.01 -0.11)"/></svg>