<svg id="Layer_1" data-name="Layer 1" xmlns="http://www.w3.org/2000/svg" viewBox="0 0 228.46 124.44"><title>logo46snav3</title><path d="M335.38,226c-1.47-1.53-3.22-2.78-4.59-4.41a12.65,12.65,0,0,1-2.27-4c-.39-1.14-.39-2.76.74-3.16.44-.16,1-.08,1.35-.32a1.9,1.9,0,0,0,.67-1.16,35.57,35.57,0,0,0,1.65-10.1,14.19,14.19,0,0,0-3.45-9.43,26.45,26.45,0,0,0-4.74-3.58,54.1,54.1,0,0,1-10.94-10.1,17.34,17.34,0,0,1-2.46-5.11,19.24,19.24,0,0,0-1.15-3,13.43,13.43,0,0,0-4.16-4.16,11.84,11.84,0,0,1-1.62-1.28,6.87,6.87,0,0,1-1.65-3.32,21.12,21.12,0,0,1-.34-3.73c0-1.3-.07-2.61-.11-3.91a6,6,0,0,0-.72-2.85,2,2,0,0,0-2.26-1.07c-1.18.27-1.69,1-1.52,1.88a6.52,6.52,0,0,1,.41,2.8,4.62,4.62,0,0,1-.59,1.2l-.79,1.31a1.53,1.53,0,0,1-.56.62,1,1,0,0,1-1-.13,3.11,3.11,0,0,1-.7-.79l-2.65-3.77a6.74,6.74,0,0,0-2.5-2.26c-.8-.32-1.85-1-5.26-.23-2.2.46-6.53-.56-8.76-.46-1.23,0-1.49.87-1.11,1.64s3.62,1.09,5.64.75,4.14-.88,6.07-.17c2.52.93,3.8,3.64,5.14,6a33.11,33.11,0,0,0,7.44,8.89,12.43,12.43,0,0,1,2.41,2.34c.8,1.17,1.1,2.61,1.8,3.83,1.13,2,3.32,3.41,3.75,5.66.39,2-.74,3.93-1,5.94a12.74,12.74,0,0,0,0,2.31c.18,2.43.1,6.81.73,8.11a5.67,5.67,0,0,0,2.87,2.53c.83.48,1.36,1.38,2.22,1.81a2.2,2.2,0,0,1,.91.57c.16.23.18.53.33.77s.25.3.36.47a1.81,1.81,0,0,1-.05,1.49c-.31.94-.62,1.88-.94,2.82a6.78,6.78,0,0,0-.4,1.7c-.08,1.24.5,2.57-.09,3.66a5.42,5.42,0,0,1-1,1.14,6.27,6.27,0,0,0-1.76,4.61s.4,7.25,1.39,10.27,1.31,9.1-.29,12.6c-.42.9-1.08,3.38-2,5.17a8.52,8.52,0,0,1-1.9,2.53,11.24,11.24,0,0,1-4,2.56c-1.49.43-3.14.23-4.58.82a6.09,6.09,0,0,0-2.92,3,24,24,0,0,0-1.41,4,17.32,17.32,0,0,1-1.75,3.83c-.49.74-.77.55-1.58.64a4.78,4.78,0,0,0-2.44,1.15A8.64,8.64,0,0,0,285.7,267a4.84,4.84,0,0,1-1.39,1.73c-.73.45-1.74.45-2.3,1.11a.7.7,0,0,0-.17.67.71.71,0,0,0,.87.32c.33-.08.62-.29,1-.4a1.56,1.56,0,0,1,1.64.51.72.72,0,0,1,.2.5c0,.31-.29.53-.54.71a2.53,2.53,0,0,1-1.32.6c-.42,0-.83-.19-1.25-.15-.75.06-1.25.85-2,1,.06-.56.83-1,.61-1.5-.14-.33-.63-.37-.95-.19a4.08,4.08,0,0,0-.76.79,13.13,13.13,0,0,0-1.05,1.06,1,1,0,0,0-.18.9c.17.5.8.62,1.32.66,2.59.2,8,.71,8.24-.6.52-2.58,1.69-4.27,3.75-5.13,1.05-.43,2.2-.57,3.26-1a23.28,23.28,0,0,1-3.38,5.28c-.47.51-1.27,1.5-1,1.75s3.63-.22,5-.25a.35.35,0,0,0,.24-.21,91.8,91.8,0,0,1,6-8.88c2.28-2.68,5.19-5.06,8.65-5.65l-1.82-.45q1.95-4.37,3.91-8.75a17,17,0,0,1,2.26-4c1.55-1.9,3.8-3,6-4.13a3.19,3.19,0,0,1-2.45-3.3c1.22-1,3.08.17,4.65-.09s2.46-1.81,3.11-3.26l0-.06c-.09-.14-.07-.37-.23-.41l-1.3,1.92a1.27,1.27,0,0,1-.56.54.66.66,0,0,1-.66-.11c.06-.32.38-.52.65-.72,1-.76,1.35-2.07,2.07-3.09.09-.14.22-.28.38-.25s.25.23.29.4.05.18.07.27q2.17-5,4.37-9.9c2.48-.35,4.69,2,5.1,4.5s-.45,5-1.31,7.33c-.72,2-2.83,5.66-2.16,6s2.61-4.73,3.92-7.1a10.18,10.18,0,0,0,1.56-4.19A7.86,7.86,0,0,0,335.38,226Zm-35.7,32.35a2.16,2.16,0,0,1-.79.6,24,24,0,0,0-2.79,2c-.69.53-1.22-.27-1-1.35a16.52,16.52,0,0,1,1.73-3.37c.15-.27.3-.53.47-.78a5.12,5.12,0,0,1,1.8-1.63c.15-.09.38-.15.48,0a.47.47,0,0,1,.06.15c.1.64-.06,1.29,0,1.93,0,.41.17.81.22,1.22A1.66,1.66,0,0,1,299.68,258.39ZM324,193.74a.85.85,0,0,1,.76-.73,1.19,1.19,0,0,1,.48.16,13.81,13.81,0,0,1,2,1.23,2,2,0,0,1,.77.91,1.7,1.7,0,0,1-.35,1.42c-.28.42-.51,1.17-.85,1.25s-.62-.47-.77-.54a3,3,0,0,1-1.24-1.09,6,6,0,0,1-.61-1.48A2.45,2.45,0,0,1,324,193.74Zm-1.42,18.17a26.06,26.06,0,0,1,1.36-3.12c.49-1.13.79-2.33,1.17-3.5a51.84,51.84,0,0,1,3.91-8.38c.42,1,.85,1.9,1.28,2.85a6.67,6.67,0,0,1,.55,1.59,4.93,4.93,0,0,1,0,1.58,17.24,17.24,0,0,1-1,3.44c-.61,1.66-1.9,5.17-3,7.35a5.89,5.89,0,0,1-1.4,1.9,1.7,1.7,0,0,1-2.12,0C321.54,214.44,322.43,212.46,322.58,211.91Zm-8-25.4c.05-.33.36-.65.68-.59a.89.89,0,0,1,.44.3,11.76,11.76,0,0,1,2.25,5.22c.08.54-.14.84-.22.86a.6.6,0,0,1-.66-.34,44.8,44.8,0,0,1-2.27-4.48A2,2,0,0,1,314.62,186.51Zm-5.09-5.66,1.76,1a1.7,1.7,0,0,1-.79,1.13l-.6-.4a5.79,5.79,0,0,1-.58-.82A.72.72,0,0,1,309.53,180.85Zm-1.8,3a1.41,1.41,0,0,1,.6-.89,4.06,4.06,0,0,1,.47,2,3,3,0,0,1-.79,1.89l-.2.12a1.06,1.06,0,0,1-.39-.91A6.51,6.51,0,0,1,307.73,183.85Zm3.63,13.63c-.46-.63-.64-1.43-1.16-2s-1.42-.9-1.93-1.55a3,3,0,0,1-.58-1.72,7.54,7.54,0,0,1,1.21-4.31,19.77,19.77,0,0,1,2.9-3.49l.92,1.2a6.65,6.65,0,0,1,1.18,2c.17.6.18,1.23.3,1.83a2.17,2.17,0,0,0,.93,1.54c.22.13.49.2.62.43a1.29,1.29,0,0,1,.11.44c.26,1.38,2.19,1.8,2.75,3.1a4.6,4.6,0,0,1-.13,2.64,44.64,44.64,0,0,0-.27,5.79,4.19,4.19,0,0,1-.17,1.05,7.47,7.47,0,0,1-.6,1.2c-.45.83-.31,2.69-1,2.81s-1.77-2.08-1.8-3.16.15-2.15.15-3.23a3.78,3.78,0,0,0-.45-2C313.62,198.92,312.14,198.53,311.36,197.48Zm7.19,29.57a1.07,1.07,0,0,1-.12.52c-.22.59-.45,1.18-.67,1.76a1.18,1.18,0,0,1-.24.44,1,1,0,0,1-1.08.26c-.36-.19-.43-.87-.42-1.15a1.5,1.5,0,0,1,.3-1,2.38,2.38,0,0,1,.43-.34c.37-.23.73-.47,1.09-.71a.59.59,0,0,1,.39-.14A.42.42,0,0,1,318.55,227.05Zm-7.32-9.89c-.17,0-.39-.28-.11-.6a4.26,4.26,0,0,0,.82-1.71,2.51,2.51,0,0,1,.36-1.16,4,4,0,0,1,.36-.35c.53-.54.46-1.45.91-2.06a2.88,2.88,0,0,1,2.19-.86.44.44,0,0,1,.34.06.39.39,0,0,1,.11.21,2.27,2.27,0,0,1-.61,1.65,10.92,10.92,0,0,0-1.46,3.27,2.93,2.93,0,0,1-.38,1C313.15,217.45,311.39,217.19,311.23,217.16ZM313,228c-.45-.07-1.21-2.31-.83-3.25.29-.71,1.05-1.07,1.57-1.64a5.58,5.58,0,0,0,.74-1.16,23,23,0,0,0,1.36-2.94.82.82,0,0,1,.74.51,2.39,2.39,0,0,1,.17.92l.18,3a2.16,2.16,0,0,1,0,.67c-.17.65-.9,1-1.33,1.49-.27.33-.42.74-.67,1.09C314.46,227.27,313.48,228,313,228Zm4.23,15.33a2,2,0,0,1-.4.46,2.55,2.55,0,0,1-.4.27c-.42.25-1.08.85-1.36.7s-.22-2.19-.09-3.2a2.11,2.11,0,0,1,.15-.6,1.22,1.22,0,0,1,.67-.65.82.82,0,0,1,.51,0,.49.49,0,0,1,.34.37c0,.31-.3.52-.47.79a.81.81,0,0,0-.08.68c.49.08.8-.62,1.3-.65a.3.3,0,0,1,.25.1.49.49,0,0,1,.05.16A2.52,2.52,0,0,1,317.25,243.29Zm6.39-8.38a6.4,6.4,0,0,1-4.54,2.29,1.76,1.76,0,0,0-1,.17,1.24,1.24,0,0,0-.35.37l-.53.72a2.21,2.21,0,0,1-.55.59.71.71,0,0,1-.76.07c-.39-.14-1.4-.59-.88-1.46a3.71,3.71,0,0,1,.94-.9,4.8,4.8,0,0,1,.83-.38,6.74,6.74,0,0,0,2.52-2.17,1.75,1.75,0,0,1,.81-.69,1.61,1.61,0,0,1,.44,0,8.51,8.51,0,0,1,1.65.35l1.68.48A.8.8,0,0,1,323.64,234.91Zm3.64-7.14a5.51,5.51,0,0,1-.71,1.36c-.39.6-.78,1.19-1.16,1.79a3.88,3.88,0,0,1-.74.91,1.45,1.45,0,0,1-1.1.28A1.43,1.43,0,0,1,322,231c-.1-.52.35-1,.66-1.4a5.48,5.48,0,0,0,.91-3.46,3.32,3.32,0,0,0-.29-1.36c-.37-.72-1.17-1.22-1.36-2-.24-1.06.7-2,1.13-3,.25-.58.34-1.23.63-1.79a1.45,1.45,0,0,1,1.51-.9,1.33,1.33,0,0,1,.85.89,4.4,4.4,0,0,1,.16,1.26,23.11,23.11,0,0,0,.76,5.1A6.31,6.31,0,0,1,327.28,227.77Zm1.7-15.08a.7.7,0,0,1-.13-.59,16.67,16.67,0,0,1,1.09-3.75.28.28,0,0,1,.08-.11c.1-.09.26,0,.37,0a1.85,1.85,0,0,1,.69.92,3.43,3.43,0,0,1-.12,1.92,2.18,2.18,0,0,1-.33.79,2.7,2.7,0,0,1-.88.72.89.89,0,0,1-.34.16A.55.55,0,0,1,329,212.69Z" transform="translate(-218.2 -151.24)"/><path d="M218.2,219.2V204.56h2.14V219.2Z" transform="translate(-218.2 -151.24)"/><path d="M231.71,219.2l-3.39-7.5a.55.55,0,0,0-.52-.31.58.58,0,0,0-.57.6v7.21h-2.16V204.56h2.16l3.39,7.51a.57.57,0,0,0,.51.31.58.58,0,0,0,.58-.6v-7.22h2.16V219.2Z" transform="translate(-218.2 -151.24)"/><path d="M244.27,219.2l-.18-.84a.67.67,0,0,0-.66-.51h-2.78a.69.69,0,0,0-.68.51l-.18.84h-2.14L241,204.56h2.14l3.33,14.64Zm-1-4.36-.57-2.5a.69.69,0,0,0-1.36,0l-.58,2.5a.52.52,0,0,0,0,.17.69.69,0,0,0,.7.68h1.18a.68.68,0,0,0,.67-.68A.52.52,0,0,0,243.28,214.84Z" transform="translate(-218.2 -151.24)"/><path d="M254.59,219.2a4.4,4.4,0,0,1-4.4-4.4V204.56h2.16V214.8a2.24,2.24,0,1,0,4.48,0V204.56H259V214.8A4.41,4.41,0,0,1,254.59,219.2Z" transform="translate(-218.2 -151.24)"/><path d="M268,219.2h-4.4v-2.14h.78V206.7h-.78v-2.14H268a4.41,4.41,0,0,1,4.4,4.4v5.84A4.4,4.4,0,0,1,268,219.2ZM270.21,209A2.24,2.24,0,0,0,268,206.7h-1.46v10.36H268a2.23,2.23,0,0,0,2.24-2.26Z" transform="translate(-218.2 -151.24)"/><path d="M276.71,219.2V204.56h2.13V219.2Z" transform="translate(-218.2 -151.24)"/><path d="M288.38,206.7v12.5h-2.14V206.7h-3.31v-2.14h8.78v2.14Z" transform="translate(-218.2 -151.24)"/><path d="M299.56,219.2a4.4,4.4,0,0,1-4.38-4.4V209a4.39,4.39,0,1,1,8.78,0v5.84A4.4,4.4,0,0,1,299.56,219.2ZM301.83,209a2.26,2.26,0,1,0-4.51,0v5.84a2.26,2.26,0,1,0,4.51,0Z" transform="translate(-218.2 -151.24)"/><path d="M344,219.2v-7.81a.68.68,0,0,0-1.32-.23l-.92,2.35-.93-2.35a.68.68,0,0,0-1.32.23v7.81h-2.15V204.56h2.15l2.25,5.74,2.24-5.74h2.15V219.2Z" transform="translate(-218.2 -151.24)"/><path d="M356.57,219.2l-.19-.84a.66.66,0,0,0-.66-.51H353a.68.68,0,0,0-.68.51l-.19.84H350l3.31-14.64h2.13l3.33,14.64Zm-1-4.36-.58-2.5a.69.69,0,0,0-1.35,0l-.58,2.5a.52.52,0,0,0,0,.17.69.69,0,0,0,.7.68h1.17a.69.69,0,0,0,.68-.68A.52.52,0,0,0,355.58,214.84Z" transform="translate(-218.2 -151.24)"/><path d="M366.49,219.2a4.4,4.4,0,0,1-4.38-4.4V209a4.39,4.39,0,1,1,8.78,0h-2.13a2.26,2.26,0,1,0-4.51,0v5.84a2.26,2.26,0,1,0,4.51,0V213h-2.27v-2.14h4.4v4A4.4,4.4,0,0,1,366.49,219.2Z" transform="translate(-218.2 -151.24)"/><path d="M379.48,219.2h-4.39v-2.14h.78V206.7h-.78v-2.14h4.39a4.41,4.41,0,0,1,4.4,4.4v5.84A4.4,4.4,0,0,1,379.48,219.2ZM381.73,209a2.24,2.24,0,0,0-2.25-2.26H378v10.36h1.46a2.24,2.24,0,0,0,2.25-2.26Z" transform="translate(-218.2 -151.24)"/><path d="M393.89,219.2l-.18-.84a.66.66,0,0,0-.66-.51h-2.77a.68.68,0,0,0-.68.51l-.19.84h-2.14l3.31-14.64h2.14l3.33,14.64Zm-1-4.36-.58-2.5a.71.71,0,0,0-.68-.56.72.72,0,0,0-.68.56l-.57,2.5a.52.52,0,0,0,0,.17.69.69,0,0,0,.7.68h1.17a.69.69,0,0,0,.68-.68A.52.52,0,0,0,392.91,214.84Z" transform="translate(-218.2 -151.24)"/><path d="M400.06,219.2V204.56h2.14v12.5h6.64v2.14Z" transform="translate(-218.2 -151.24)"/><path d="M412.56,219.2V204.56h8.8v2.14h-6.64v4.11h4.68V213h-4.68v4.11h6.64v2.14Z" transform="translate(-218.2 -151.24)"/><path d="M431.94,219.2l-3.39-7.5a.55.55,0,0,0-.51-.31.58.58,0,0,0-.58.6v7.21H425.3V204.56h2.16l3.39,7.51a.57.57,0,0,0,.52.31.58.58,0,0,0,.57-.6v-7.22h2.16V219.2Z" transform="translate(-218.2 -151.24)"/><path d="M444.5,219.2l-.18-.84a.67.67,0,0,0-.66-.51h-2.78a.69.69,0,0,0-.68.51l-.18.84h-2.14l3.31-14.64h2.14l3.33,14.64Zm-1-4.36-.57-2.5a.69.69,0,0,0-1.36,0l-.57,2.5a.52.52,0,0,0,0,.17.68.68,0,0,0,.69.68h1.18a.69.69,0,0,0,.68-.68A.36.36,0,0,0,443.51,214.84Z" transform="translate(-218.2 -151.24)"/><path d="M290.77,244.66v2.18h-2.16v-2.18H283V242.5l6.64-10.3h2.14l-6.15,9.54a.44.44,0,0,0-.1.29.48.48,0,0,0,.49.47h2.63v-2.18h2.16v2.18h1v2.16Z" transform="translate(-218.2 -151.24)"/><path d="M299.38,246.84a4.41,4.41,0,0,1-4.38-4.4V236.6a4.39,4.39,0,1,1,8.78,0h-2.13a2.26,2.26,0,1,0-4.51,0V238a.41.41,0,0,0,.39.39.58.58,0,0,0,.19,0,4,4,0,0,1,1.66-.33,4.39,4.39,0,1,1,0,8.78Zm0-6.64a2.25,2.25,0,1,0,2.27,2.24A2.24,2.24,0,0,0,299.38,240.2Z" transform="translate(-218.2 -151.24)"/><path d="M341.79,246.84a4.41,4.41,0,0,1-4.37-3.91h2.17a2.27,2.27,0,0,0,2.2,1.77,2.25,2.25,0,0,0,.44-4.46l-1.65-.29a3.91,3.91,0,0,1,.72-7.75h.49a4.4,4.4,0,0,1,4.36,3.91H344a2.22,2.22,0,0,0-2.18-1.77h-.49a1.75,1.75,0,0,0-1.75,1.77,1.67,1.67,0,0,0,1.3,1.68l1.64.33a4.39,4.39,0,0,1-.7,8.72Z" transform="translate(-218.2 -151.24)"/><path d="M356.72,246.84l-3.4-7.51a.55.55,0,0,0-.51-.3.57.57,0,0,0-.57.59v7.22h-2.16V232.2h2.16l3.39,7.5a.55.55,0,0,0,.51.31.58.58,0,0,0,.58-.59V232.2h2.16v14.64Z" transform="translate(-218.2 -151.24)"/><path d="M369.28,246.84l-.19-.85a.67.67,0,0,0-.66-.51h-2.77a.7.7,0,0,0-.68.51l-.18.85h-2.14L366,232.2h2.13l3.34,14.64Zm-1-4.36-.58-2.51a.69.69,0,0,0-1.35,0l-.58,2.51a.44.44,0,0,0,0,.16.69.69,0,0,0,.7.68h1.17a.69.69,0,0,0,.68-.68A.44.44,0,0,0,368.29,242.48Z" transform="translate(-218.2 -151.24)"/></svg>