<?xml version="1.0" encoding="utf-8"?>
<!-- Generator: Adobe Illustrator 24.3.0, SVG Export Plug-In . SVG Version: 6.00 Build 0)  -->
<svg version="1.1" id="Capa_1" xmlns="http://www.w3.org/2000/svg" xmlns:xlink="http://www.w3.org/1999/xlink" x="0px" y="0px"
	 viewBox="0 0 460.2 84.3" style="enable-background:new 0 0 460.2 84.3;" xml:space="preserve">
<style type="text/css">
	.st0{fill:none;stroke:#000000;stroke-miterlimit:10;}
</style>
<rect x="0.5" y="0.5" class="st0" width="84.4" height="83.3"/>
<rect x="84.9" y="0.5" class="st0" width="374.9" height="83.3"/>
<g>
	<path d="M121.2,50.1h-4v-7.8l0.2-5.3l0,0l-4.3,13.1h-3.7l-4.3-13.1l0,0l0.2,5.3v7.8h-4v-17h6.4l2.7,8.7l0.9,3.7l0,0l0.9-3.7
		l2.7-8.7h6.1C121.2,33.1,121.2,50.1,121.2,50.1z"/>
	<path d="M129.4,50.1H125v-17h4.4V50.1z"/>
	<path d="M148.6,50.1h-4.9l-5.3-9.3l-1.4-2.4l0,0l0.2,3.2v8.7h-4V33.1h4.9l5.3,9.3l1.4,2.6l0,0l-0.2-3.2v-8.7h4V50.1z"/>
	<path d="M156.8,50.1h-4.4v-17h4.4V50.1z"/>
	<path d="M174.6,36l-2.4,2.9c-1.1-1.7-2.6-2.4-4.7-2.4c-1.8,0-2.7,0.8-2.7,1.7c0,0.9,0.9,1.4,3.3,1.8c4.7,0.9,6.5,2.4,6.5,5.3
		c0,3.3-3,5.3-7.2,5.3s-6.1-1.1-7.9-2.9l2.3-3c1.4,2,3,2.6,5.3,2.6c2,0,2.9-0.6,2.9-1.5c0-0.8-0.9-1.2-3.3-1.7
		c-4.1-0.8-6.7-2-6.7-5.3c0-3.2,2.7-5.6,7.3-5.6C170.5,32.8,172.6,33.7,174.6,36z"/>
	<path d="M191.5,36.6h-5.6v13.7h-4.4V36.6h-5.6v-3.5h15.5v3.5H191.5z"/>
	<path d="M207.8,46.8v3.5h-13.7V33.1h13.2v3.5h-8.8v3.5h7v3.2h-7v3.5L207.8,46.8z"/>
	<path d="M217.5,43.9h-2.7v6.2h-4.4v-17h8.2c4.1,0,6.4,2,6.4,5.5c0,2.4-1.2,4.1-3.3,4.9l4.3,6.7H221L217.5,43.9z M214.8,40.9h3
		c1.8,0,2.7-0.6,2.7-2.1c0-1.5-0.8-2.1-2.7-2.1h-3V40.9z"/>
	<path d="M232.7,50.1h-4.4v-17h4.4V50.1z"/>
	<path d="M252.5,41.6c0,5.5-3.2,8.8-8.4,8.8s-8.4-3.3-8.4-8.8s3.2-8.8,8.4-8.8C249.3,32.8,252.5,36.1,252.5,41.6z M240.3,41.6
		c0,3.5,1.4,5.3,3.8,5.3s3.8-1.8,3.8-5.3c0-3.5-1.4-5.3-3.8-5.3C241.7,36.3,240.3,38.1,240.3,41.6z"/>
	<path d="M278.4,41.6c0,5.5-2.9,8.5-8.2,8.5h-7.3v-17h7.3C275.5,33.1,278.4,36.1,278.4,41.6z M274,41.6c0-3.3-1.2-5.2-4.1-5.2h-2.3
		v10.4h2.3C272.6,46.8,274,45.1,274,41.6z"/>
	<path d="M295.1,46.8v3.5h-13.7V33.1h13.2v3.5h-8.8v3.5h7v3.2h-7v3.5L295.1,46.8z"/>
	<path d="M312.9,50.4c-5.2,0-8.4-3.3-8.4-8.8s3.2-8.8,8.4-8.8c3.5,0,6.4,1.5,7.3,4.7l-4,1.5c-0.5-2.1-1.5-2.7-3.2-2.7
		c-2.4,0-4,1.8-4,5.3c0,3.5,1.4,5.3,3.8,5.3c2,0,3-0.9,3.3-2.7l4.1,1.1C319.3,48.9,316.6,50.4,312.9,50.4z"/>
	<path d="M337.7,43.3c0,4.9-2.6,7.2-7.6,7.2s-7.6-2.4-7.6-7.2v-10h4.4v10.2c0,2.4,1.1,3.7,3.2,3.7c2.1,0,3.2-1.2,3.2-3.7V33.2h4.4
		V43.3z"/>
	<path d="M354.3,46.8v3.5h-12.9V33.1h4.4v13.7H354.3z"/>
	<path d="M371.2,36.6h-5.6v13.7h-4.4V36.6h-5.6v-3.5h15.5v3.5H371.2z"/>
	<path d="M388.7,43.3c0,4.9-2.6,7.2-7.6,7.2s-7.6-2.4-7.6-7.2v-10h4.4v10.2c0,2.4,1.1,3.7,3.2,3.7c2.1,0,3.2-1.2,3.2-3.7V33.2h4.4
		V43.3z"/>
	<path d="M399.2,43.9h-2.7v6.2h-4.4v-17h8.2c4.1,0,6.4,2,6.4,5.5c0,2.4-1.2,4.1-3.3,4.9l4.3,6.7h-4.9L399.2,43.9z M396.7,40.9h3
		c1.8,0,2.7-0.6,2.7-2.1c0-1.5-0.8-2.1-2.7-2.1h-3V40.9z"/>
	<path d="M419.8,46.3H414l-1.2,3.8h-4.4l5.9-17h5.3l5.9,17H421L419.8,46.3z M418.9,43.3l-1.2-4.1l-0.8-2.7l0,0l-0.8,2.7l-1.2,4.1
		H418.9z"/>
</g>
<g>
	<path d="M68.9,30.7L68.9,30.7v-0.2l-0.2,0.1l-2.1,0.8l-2.3,0.8h-0.1v0.1c0,0.6-0.5,0.9-1.1,1.3v-1.1l-0.2-2.8h0.2
		c0.4,0.1,0.7,0,1-0.2c0.7-0.6,1.4-1.4,1.9-2.2l0.2-0.2c0.1-0.1,0.2-0.3,0.4-0.5h0.1h0.2c0.8,0,0.9-0.5,0.9-0.8c0-0.6-1-1.3-1.5-1.5
		c0,0,0-0.1,0-0.1c0-0.8-1.6-1.7-2.8-2.2h-0.1c0-0.2-0.1-0.5-0.3-0.7c-3.7-3.3-7.8-6.1-12.2-8.3c-0.8-0.4-1.8-0.6-2.7-0.6
		c-1.6,0-3.2,0.3-4.7,0.9c-0.5,0.4-0.8,1.1-0.8,1.7c0.1,0.8,0.4,1.5,0.9,2.1c0.3,0.3,0.5,0.6,0.5,1c0,0.2-0.1,0.3-0.3,0.3
		c-0.3-0.7-1.1-1.1-1.8-1h-0.4h-0.4c-0.1,0-0.2-0.1-0.4-0.2c0-0.1,0-0.2,0-0.2c0-0.1,0-0.2,0-0.3c0-0.5-0.3-0.8-0.8-1.1
		c0-0.1,0-0.1,0-0.2c-0.1-0.2-0.4-0.4-0.6-0.4c-0.3,0-0.6,0.1-0.9,0.3l0,0c0,0,0,0-0.1,0c0.1-0.3,0.2-0.6,0.2-0.9
		c0-2.3-3.3-2.4-3.7-2.4c-4.7,0-10.4,4-15.4,7.8c-0.4,0.3-0.7,0.6-1,1c-0.3,0.4-0.6,0.7-1,1c-0.2,0.1-0.4,0.2-0.6,0.4
		c-0.5,0.2-1,0.6-1.4,1c-0.1,0.1-0.2,0.3-0.3,0.4c0,0.1-0.1,0.2-0.1,0.2c-0.1,0.1-0.3,0.3-0.4,0.4c-0.4,0.4-0.9,0.7-0.9,1.2
		c0,0.4,0.3,0.7,0.7,0.7c0,0,0,0,0,0c0.3,0,0.6-0.1,0.9-0.3c0,0,0.1,0,0.1,0l0,0c1,1.2,3,3.5,3,3.5l0,0c0.3,0.2,0.7,0.3,1.1,0.2h0.2
		l-0.2,2.7v1.1l-0.2-0.1c-0.3-0.1-0.5-0.3-0.7-0.5c-0.1-0.1-0.1-0.2-0.1-0.3c0-0.2-0.1-0.4-0.3-0.6l-5.3-1.9l0.4,0.5
		c3.4,4,3.5,4,3.6,4h1.2l-0.3,2.9v6.2c0.2,2.1,0.4,4.2,0.9,6.3c0.6,3.2,2,6.2,4.1,8.8l0.2,0.3l0,0h0.1c1.8,2.2,4.5,3.5,7.4,3.6
		c2.6-0.2,5.1-1.1,7.2-2.6c-0.7,2.1-1.7,4-2.9,5.9L35,66.3l0.2,0.1c0.2,0,0.3,0.1,0.5,0.1h1c0.3,0,0.5,0,0.8,0.1l-0.4,1.2l0,0
		c0,0,0,0.1,0,0.1c0,0,0,0.1,0,0.1c0,0,0,0.1,0,0.1l0,0l0,0c0.1,0.4,1,0.5,1,0.5c0.3,0,0.6,0,0.9,0L39,69.5l0,0c0.3,1,1.7,1,2.5,1
		h0.2c0.6,0.1,1.2,0,1.7-0.2c0.1-0.1,0.2-0.3,0.2-0.5c0-0.2-0.1-0.4-0.1-0.6c0-0.1-0.1-0.3-0.1-0.4c0.6,0.1,1.2-0.1,1.7-0.4
		c0.1-0.1,0.2-0.2,0.2-0.4l0,0c0,0,0,0,0-0.1s0,0,0,0c-0.1-0.3-0.1-0.5-0.2-0.8C45.1,67,45,66.7,45,66.6c0.1,0,0.3,0,0.4,0h2.2
		l-0.2-0.2c-1-1.5-1.7-3.1-2.4-4.7l-0.2-0.4c-0.1-0.2-0.2-0.4-0.2-0.6c0.1,0,0.1,0.1,0.2,0.1c2.1,1.4,4.6,2.1,7.1,2.2
		c4.4,0,7.3-3.1,8.9-5.6c1.9-3.1,3.1-6.5,3.4-10.2c0-0.1,0-0.4,0.1-0.8c0.1-0.9,0.3-2.2,0.3-2.5v-6.3l-0.2-2.9h1.2l0,0
		c1.1-1.2,2.2-2.4,3.2-3.7c0-0.1,0-0.1,0-0.2 M66.4,26.3l-0.2,0.2l0,0c-0.1,0.1-0.2,0.2-0.3,0.4c-0.1,0.2,0,0,0,0s-0.1,0.2-0.2,0.2
		c-0.5,0.8-1.1,1.5-1.9,2.1c-0.3,0.1-0.6,0.2-0.9,0.1c-0.1,0-0.3,0-0.4,0l0,0l1.9-1.5c0.4-0.3,0.9-0.7,1.2-1l0.5-0.4l0,0l0,0
		c0.1-0.1,0.1-0.1,0.1-0.2v-0.2l0.6-0.2L66.4,26.3 M58.5,34.4l0.5-0.5c0.8-0.8,1.9-2.1,1.9-2.1l-0.2-0.2c0,0-1.1,1.3-1.8,2
		c-0.1,0.1-0.2,0.2-0.3,0.3c0-0.6-0.1-1.2-0.1-1.5l3.8-2.8L62,29.4l-7.3,5.4c0-0.1,0-0.1,0-0.2l2.7-2.1c1.5-1.2,3-2.4,4.6-3.5
		c0.3-0.2,0.5-0.6,0.6-0.9c0-0.2,0.1-0.4,0.2-0.5c0.6-0.4,1.3-0.7,2-0.9l0.3-0.1h0.1l0.6-0.2l0,0l0,0l0,0l0.3-0.1l-3.5,2.4l-0.1,0.9
		h0.1l0.3,3v1.3l-4.3,2.9c0-0.4,0.1-1.2,0.1-1.8C58.5,34.8,58.5,34.6,58.5,34.4 M55.7,37.8c0,0,0-0.1,0-0.1c0-0.2,0-0.4,0-0.6h2.2
		l-1.2,0.8L55.7,37.8z M56.3,38.1l-0.8,0.6c0-0.2,0.1-0.4,0.1-0.6H56.3z M58.2,33.7c0,0.2,0,0.3,0,0.5l-0.3,0.3h-2.1v-0.1l1-0.7
		H58.2z M57.2,33.4l0.9-0.7c0,0.2,0,0.4,0,0.7H57.2z M55.8,35.6c0-0.3,0-0.6,0-0.8h1.7l-0.9,0.8H55.8z M56.2,36l-0.4,0.3V36H56.2z
		 M55.8,36.7L55.8,36.7c0.3-0.2,0.6-0.5,0.9-0.7h1.5c0,0.3,0,0.6,0,0.8L55.8,36.7z M57.1,35.6l0.9-0.8h0.2V35c0,0.2,0,0.4,0,0.7
		H57.1z M54.8,37.4l0.5-0.4h0.1c0,0.2,0,0.4,0,0.6c0,0.4-0.2,1-0.2,1.3h-0.4C54.8,38.3,54.8,37.7,54.8,37.4 M54.8,37 M55.3,36.7
		h-0.5c0-0.4,0-0.9-0.1-1.5l0.6-0.4h0.2c0,0.4,0,1,0,1.7C55.4,36.6,55.3,36.6,55.3,36.7 M59,38.1c0,0.2,0,0.5,0,0.8h-2.2l1.2-0.8H59
		z M58.4,37.8l0.6-0.4c0,0.1,0,0.2,0,0.4H58.4z M58.9,39.2L58.9,39.2c-0.4,0.3-0.7,0.5-1,0.8h-1.7c0-0.2,0-0.5,0-0.7l0.1-0.1
		L58.9,39.2z M58.4,40l0.5-0.3c0,0.1,0,0.2,0,0.3H58.4z M58.8,40.3c0,0.2,0,0.5,0,0.8h-2.4c0.5-0.2,1.1-0.5,1.5-0.8H58.8z
		 M57.3,40.3c-0.4,0.2-0.8,0.4-1.2,0.6c0-0.2,0-0.4,0-0.6H57.3z M58.8,41.4c0,0.3,0,0.5,0,0.8H56l0.1-0.8H58.8z M58.7,42.5l-0.1,0.8
		h-2.7l0.1-0.8H58.7z M58.6,43.6c0,0.3,0,0.5-0.1,0.8h-2.7c0-0.3,0-0.5,0.1-0.8H58.6z M50.8,58.7c-0.2-0.2-0.5-0.3-0.7-0.5l0.2-0.2
		h2.9l-0.6,0.8H50.8z M52.3,59c-0.1,0.1-0.2,0.3-0.3,0.4c-0.2-0.1-0.5-0.3-0.7-0.4H52.3z M44.8,57l0.1-0.8L44,56l-0.6,0.4L43.2,56
		h0.3l1.2-0.5l1.3,1l0.5,1l0.6-0.2c-0.6,0.5-1.1,1.1-1.7,1.6l-0.1-0.2l0.1-1.1L44.8,57z M43.7,58.8L43.7,58.8c-0.1-0.4-0.1-0.7,0-1
		v-0.2h-0.5v-0.5h-0.6v0.5H42v-0.5h-0.6v0.5h-0.7v-0.5h-0.6v0.5h-0.3v0.1c0,0.2-0.1,0.3-0.1,0.5l-0.6,0.6h-1l0.6,1l0.8,0.5h3.9
		l0.6-0.4c-0.8,0.7-1.7,1.4-2.7,1.9c-1.5-0.9-2.8-2-4.1-3.2l0.3-0.4l0.8-0.2l0.2-0.6l0.4-0.5h0.8l0.5-0.5l2.6-0.3l0.4,0.5l0.7-0.5
		l0.5,0.1l-0.1,0.7l0.6,0.6l-0.1,1l0.2,0.3c-0.2,0.2-0.5,0.4-0.7,0.6l0.2-0.9L43.7,58.8z M43.5,58.9V59h-0.2v-0.1H43.5z M43.2,58.4
		h-0.5c0-0.1,0-0.1,0-0.2c0-0.1,0-0.1,0-0.2h0.5c0,0.1,0,0.1,0,0.2C43.2,58.3,43.2,58.3,43.2,58.4 M42,59v-0.1h0.7V59h-0.3v0.2h-0.1
		V59H42z M42,58.4h-0.5c0,0,0-0.1,0-0.2c0-0.1,0-0.1,0-0.2H42c0,0.1,0,0.1,0,0.2C42,58.3,42,58.3,42,58.4 M40.8,59v-0.1h0.7V59h-0.4
		v0.2H41V59H40.8z M40.8,58.4h-0.5c0-0.1,0-0.1,0-0.2c0-0.1,0-0.1,0-0.2h0.5c0,0.1,0,0.1,0,0.2C40.8,58.3,40.8,58.3,40.8,58.4
		 M40.2,58.9V59h-0.3l0,0l-0.2-0.2l0.1-0.1l0,0v0.1L40.2,58.9z M44,66.9l-0.2-0.1c0.1,0,0.2-0.1,0.3-0.1c0.2-0.1,0.4-0.1,0.7-0.1
		c0,0.1,0.1,0.2,0.1,0.4H44z M44.9,67.3C44.9,67.3,44.9,67.3,44.9,67.3h-0.2H44.9z M43.8,67.3h0.1l0,0l0.3,0.1h-1.5
		c0-0.5-0.1-1.2-0.1-1.9H43c0,0.3,0.1,0.6,0.2,0.9v0.1c0.1,0.2,0.1,0.3,0.3,0.5l0,0C43.6,67.1,43.7,67.1,43.8,67.3 M42.5,65.2
		c0-0.6-0.1-1.3-0.1-1.9h0.3c0.1,0.6,0.2,1.3,0.3,1.9H42.5z M41.3,62.2L41.3,62.2L41.3,62.2h0.2h0.1H42c0,0.3,0,0.5,0,0.8h-1.3
		c0-0.3,0-0.5,0-0.8H41.3z M40.7,61.8L40.7,61.8L40.7,61.8z M42.1,63.3c0,0.2,0,0.5,0,0.8h-1.5c0-0.3,0-0.5,0.1-0.8H42.1z
		 M42.2,64.4c0,0.3,0,0.5,0,0.8h-1.6c0-0.3,0-0.5,0-0.8H42.2z M42.2,65.5c0,0.3,0,0.5,0,0.8h-1.8c0-0.2,0-0.5,0-0.8H42.2z
		 M42.3,66.6c0,0.3,0,0.5,0.1,0.8h-2c0-0.2,0-0.5,0.1-0.8H42.3z M42.3,61.7l0.2-0.1c0,0.3,0.1,0.8,0.2,1.4h-0.3
		C42.4,62.5,42.4,62.1,42.3,61.7 M42.4,67.7c0,0.3,0.1,0.6,0.1,0.8h-2.3c0-0.2,0.1-0.4,0.1-0.8H42.4z M30.4,58.7l-0.6-0.8h2.9
		l0.2,0.3c-0.2,0.2-0.5,0.3-0.7,0.5H30.4z M31.6,59c-0.2,0.2-0.5,0.3-0.7,0.4L30.6,59H31.6z M24.9,38.1l1.2,0.8H24
		c0-0.3,0-0.6,0-0.8H24.9z M23.9,37.8c0-0.2,0-0.3,0-0.4l0.5,0.4H23.9z M26.6,39.2L26.6,39.2c0.1,0.3,0.1,0.5,0.1,0.8H25
		c-0.3-0.2-0.7-0.5-1-0.8L26.6,39.2L26.6,39.2z M26.7,40.3c0,0.2,0,0.4,0,0.6c-0.4-0.2-0.8-0.3-1.2-0.6H26.7z M24.5,40H24
		c0-0.1,0-0.2,0-0.3L24.5,40 M25,40.3c0.5,0.3,1,0.6,1.5,0.8h-2.4c0-0.3,0-0.5-0.1-0.8H25z M26.8,41.4c0,0.2,0,0.5,0.1,0.8h-2.7
		c0-0.3,0-0.5-0.1-0.8H26.8z M26.9,42.5l0.1,0.8h-2.7l-0.1-0.8H26.9z M27,43.6c0,0.3,0.1,0.5,0.1,0.8h-2.7c0-0.3,0-0.5-0.1-0.8H27z
		 M28.2,38.9h-0.5c-0.1-0.2-0.2-0.8-0.2-1.3c0-0.2,0-0.4,0-0.6h0.7v0.1C28.2,37.3,28.2,38,28.2,38.9 M27.5,36.7c0-0.7,0-1.4,0-1.9
		h0.3l0.6,0.4c0,0.5,0,1-0.1,1.4H27.5z M28.3,41.1h-0.9L27.1,41c0-0.5-0.1-1-0.1-1.5l1.2,0.8L28.3,41.1 M20.8,25.9l0.1,0.1
		c0.9,1.2,1.6,1.6,2.6,1.6c0.6,0,1.2-0.2,1.7-0.5c0.5-0.2,1-0.4,1.5-0.5c-0.2,0.2-0.4,0.4-0.7,0.5c-0.3,0.2-0.6,0.4-0.8,0.7
		c-0.1,0.2-0.2,0.4-0.2,0.6c0.1,1.3,0.6,2.6,1.6,3.5c0.5,0.4,1,0.6,1.6,0.5h0.1l0,0c0,0.1,0,0.1,0,0.2c0,0.1,0,0.2,0,0.3
		c0,0.4,0,0.7,0,0.9l0,0c0,0.1,0,0.2,0,0.2c-2.7-1.9-5.3-3.8-7.6-5.8c-0.1-0.1-0.1-0.2-0.1-0.4c0-0.3-0.1-0.5-0.3-0.7l0,0
		c0,0-2.4-0.9-3.8-1.6l0.7-0.2c0.1-0.1,0.3-0.1,0.4-0.1c0.2,0.1,0.5,0.2,0.8,0.2c0.7,0,1.5-0.2,2.1-0.6c0,0,0,0.1,0,0.1
		c0,0.1,0.1,0.2,0.4,0.6 M22.7,25.4l-0.3-0.9c0-0.1,0-0.1,0-0.2l0.2,0.2c0.4,0.4,1,0.6,1.5,0.7c0.3,0,0.7-0.1,1-0.2
		c0.4-0.1,0.8-0.2,1.2-0.3c0.8,0,2,1.4,2.3,2.4c-0.2-0.1-0.3-0.2-0.5-0.2c-0.3-0.1-0.6-0.2-1-0.3l0,0c-0.7-0.1-1.4,0.1-2,0.4
		c-0.5,0.3-1,0.4-1.6,0.5c-0.8,0-1.5-0.4-2.4-1.5l-0.1-0.1c-0.1-0.1-0.2-0.2-0.2-0.3l1.7,0.1L22.7,25.4z M34.5,20.1
		c-0.2,0.3-0.3,0.8-0.7,0.9c0-0.1,0-0.2,0-0.3c0.1-0.8,0.8-1.4,1.6-1.4c0.1,0,0.1,0,0.1,0.1C35.2,19.7,34.8,19.8,34.5,20.1
		 M35.3,20.8v0.3c0,0.4-0.4,0.9-0.4,1.4c-0.2-0.1-0.3-0.2-0.3-0.4C34.5,21.6,34.7,20.9,35.3,20.8 M33.7,19.4c0-0.1,0-0.1,0-0.2
		c0-0.8,1.2-1,1.6-1.1h0.1C35,18.7,34.4,19.1,33.7,19.4 M33.7,16h-0.4c0-0.1-0.1-0.1-0.1-0.2c0-0.4,1.2-0.5,1.2-0.5s0.3,0,0.3,0.2
		c0,0.2-1.2,0.4-1.4,0.5 M33.7,16.4c0.1,0,0.7,0,0.7,0.2c0,0.2-0.1,0.3-0.2,0.3c-0.5,0-1,0.1-1.5,0.4c-0.1-0.1-0.2-0.1-0.2-0.2
		C32.6,16.7,33.4,16.4,33.7,16.4 M33.7,17.7c0.2,0,0.3,0.1,0.5,0.1c-0.5,0.3-1,0.6-1.5,0.8c-0.2,0-0.3-0.1-0.3-0.3
		C32.5,18,33.6,17.7,33.7,17.7 M32.6,19.6c-0.2,0.4-0.4,0.8-0.4,1.3c0,0.3,0,0.3,0.3,0.7c-0.1,0-0.2,0.1-0.4,0.1
		c-0.5,0-0.5-0.5-0.5-0.8C31.7,20.4,32,19.9,32.6,19.6 M31,21.2c0,0.3,0,0.2,0.2,0.6h-0.3c-0.4,0-0.5-0.3-0.5-0.5
		c0.1-0.7,0.5-1.3,1.2-1.5h0.1C31.3,20.3,31,20.7,31,21.2 M30.7,22.7c0.1,0,0.2,0,0.3-0.1l0.4-0.1h0.2c0.2,0,0.5-0.1,0.7-0.3
		c0.1,0.1,0.1,0.1,0.2,0.1c0.2,0,0.3-0.1,0.4-0.2l0,0c0.1,0.1,0.3,0.1,0.4,0.1c0.2,0,0.4-0.1,0.5-0.2l0,0v0.3c0,0.6,1.5,1.6,1.8,1.6
		l0,0c0.2,0,0.3,0,0.4-0.2c0.1,0.3,0.3,0.5,0.5,0.5c-0.1,0.3-0.1,0.5-0.1,0.8c0,0.5,0,1.4,0.6,1.8c-0.2,0.4-0.3,0.9-0.5,1.3v0.1
		c-0.7-0.2-1.4-0.4-2.2-0.4c-1.1,0-2.2,0.2-3.3,0.6c-0.8,0.3-1.6,0.4-2.4,0.5c0.3-0.4,0.5-0.9,0.6-1.5c0-1-1.5-3.1-2.7-3.1
		c-0.4,0-0.9,0.1-1.3,0.3c-0.3,0.1-0.6,0.2-0.9,0.2c-0.4-0.1-0.8-0.2-1.2-0.5l0,0c0.8,0.1,1.6-0.2,2.1-0.7l0.1-0.1h0.1
		c0.1,0,0.3,0.1,0.4,0.1c0.7-0.1,1.3-0.4,1.7-0.8l0.2-0.1c0.1,0,0.2-0.1,0.3-0.1c0.2,0,0.3,0,0.4-0.1c0.2-0.1,0.3-0.2,0.5-0.3
		c0.2-0.2,0.5-0.3,0.8-0.5c0.1,0.1,0.1,0.3,0.1,0.4C30,22.4,30.1,22.8,30.7,22.7 M44.8,21.2c0.4,0.3,0.6,0.8,0.6,1.3
		c0,0.2-0.1,0.9-0.5,1c-0.1-0.1-0.1-0.2-0.1-0.3c0-0.1,0.2-0.8,0.2-0.9S44.9,21.6,44.8,21.2 M44.6,19.9c0-0.1,0.2-0.1,0.2-0.1
		c0.6,0,1.1,1,1.1,1.3c0,0.1,0,0.2,0,0.2c0,0,0,0-0.1,0c-0.1,0-0.1,0-0.2-0.1L44.6,19.9 M44.7,24.1c0.1,0.1,0.2,0.1,0.3,0.1l0,0
		c0.2,0,0.4-0.1,0.5-0.2c0.1,0.1,0.3,0.2,0.4,0.2c0.4,0,0.7-0.3,1-0.7c0,0,0.1-0.1,0.1-0.1c0.2,0.1,0.4,0,0.5-0.1
		c0.2-0.2,0.4-0.5,0.4-0.9l0.5,0.1c0.2,0,0.5-0.1,0.7-0.2c0.1,0.1,0.2,0.2,0.4,0.2c0.1,0,0.1,0,0.2-0.1c0.3,0.4,0.8,0.7,1.4,0.7
		c0.3,0,0.6-0.1,0.7-0.3c0.2-0.2,0.3-0.5,0.3-0.8c0.1,0,0.2,0,0.2-0.1c0.6,0.5,2.8,2,3.6,2l0,0c0.1,0,0.3,0,0.4-0.1
		c0.5,0.5,1.2,0.8,1.9,0.9H58l-1.8-0.4c-0.5-0.1-1,0.1-1.4,0.4c-0.8,0.6-1.4,1.6-1.5,2.6c0.1,0.6,0.4,1.2,0.8,1.6H54
		c-0.9-0.1-1.7-0.3-2.5-0.6c-1-0.3-2-0.5-3-0.6c-0.4,0-0.8,0-1.2,0.1h-0.1L47,28c0-0.1-0.1-0.2-0.1-0.2l-0.1-0.2l-0.1,0.2
		c0,0,0,0.1-0.1,0.1c-0.1,0.1-0.2,0.2-0.2,0.4h-0.2H46l-0.1,0.1c0-0.1,0-0.1,0-0.2s0-0.1,0-0.2v-0.4l-0.2,0.2
		c-0.4,0.3-0.5,0.4-0.5,0.5c0,0.1,0,0.1,0,0.2l0,0L45,28.5l0,0c0-0.2,0-0.3-0.2-0.4L44.7,28l-0.1,0.2l-0.2,0.3
		c-0.2-0.2-0.3-0.4-0.4-0.4s0-0.1,0-0.2c0.1-0.3,0.1-0.5,0.2-0.8c0-0.4-0.1-0.7-0.2-1.1c-0.1-0.2-0.2-0.5-0.2-0.7
		c0-0.3,0.1-0.6,0.2-0.8l0.1-0.2h0.2C44.4,24.3,44.6,24.2,44.7,24.1 M47.3,15.9c0.3,0,1.4,0.2,1.4,0.9c0,0.1-0.1,0.2-0.2,0.3
		c-0.2-0.2-0.5-0.4-0.9-0.5c-0.2-0.1-0.4,0-0.6-0.1c-0.2-0.1-0.1-0.3-0.1-0.3c0.1-0.1,0.2-0.1,0.3-0.1 M47,15.5
		c0-0.1,0.1-0.1,0.1-0.2h0.3c0.4,0,0.8,0.2,1.1,0.5V16h-0.2c-0.3,0-0.8-0.3-1.3-0.4C47,15.6,47,15.6,47,15.5 M49.5,19.7
		c0.6,0.3,0.9,0.9,0.9,1.5c0,0.2-0.1,0.5-0.3,0.6h-0.2v-0.1l-0.1,0.1l0,0c0-0.1,0-0.1,0-0.2c0-0.1,0.1-0.7,0.1-0.7
		C49.9,20.5,49.7,20.1,49.5,19.7 M50,18.8c-0.4,0-0.2-0.2-0.8-0.5c-0.6-0.3-0.9-0.4-1.4-0.6c0.2-0.1,0.4-0.1,0.6-0.1
		c0.6,0,1.7,0.3,2,1.1C50.1,18.7,50.1,18.8,50,18.8 M49.3,20.8c0,0.2-0.1,0.6-0.3,0.6s-0.1,0-0.2-0.1c0-0.4-0.5-1.2-0.5-1.3
		s0-0.1,0.1-0.2C49.1,20,49.3,20.3,49.3,20.8 M47.2,17.9c0.5,0,1.9,0.6,1.9,1.3c0,0.2,0,0.3-0.2,0.3c-0.7-0.4-1.3-1-1.9-1.6
		L47.2,17.9z M48.1,20.1c0,0.3-0.1,0.6-0.2,0.8c-0.4-0.3-0.3-0.9-0.4-1.3c-0.1-0.2-0.4-0.6-0.6-0.9h0.1C47.6,18.7,48.1,20,48.1,20.1
		 M47.4,22.1c0,0.2,0,0.4-0.3,0.5c-0.1-0.4-0.5-0.9-0.5-1.2c0-0.1,0-0.1,0.1-0.2C47.1,21.3,47.3,21.6,47.4,22.1 M46.8,20.3
		c0,0.2-0.1,0.5-0.2,0.7c-0.2-0.5-0.4-1.1-0.5-1.7C46.5,19.4,46.8,19.8,46.8,20.3 M46.2,21.8c0.2,0,0.4,0.3,0.4,0.5V23
		c-0.1,0-0.1,0-0.2,0c-0.3,0-0.4-0.8-0.5-1.2C46.1,21.8,46.2,21.7,46.2,21.8 M50.4,20.2h0.1c0.5,0.3,0.9,0.9,0.9,1.5
		c0,0.3-0.1,0.7-0.5,0.7c-0.4,0-0.2,0-0.4-0.2c0.2-0.2,0.3-0.5,0.3-0.8C50.8,21,50.6,20.6,50.4,20.2 M61,25.5h0.1h0.2
		c-0.5,1.1-1.6,1.8-2.7,1.9c-0.7,0-1.5-0.2-2.1-0.5l-0.3-0.1l0,0c-0.2-0.1-0.5-0.2-0.7-0.2l0,0c-0.4,0-0.8,0.1-1.1,0.2
		c-0.2,0.1-0.4,0.2-0.6,0.4c0.2-0.8,0.7-1.5,1.4-2.1c0.3-0.3,0.8-0.4,1.2-0.3l1.6,0.3H58h0.2l0,0h0.2c0.2,0,0.4-0.1,0.6-0.2
		c0.4-0.3,0.7-0.6,1-1c0,0.3,0,0.6,0,0.8c0,0.1,0,0.1,0,0.2c0,0,0,0.1,0,0.1c0,0.1-0.1,0.3-0.1,0.4v0.2L61,25.5z M60.1,25.1
		c0,0,0-0.1,0-0.1l0,0c0,0,0,0,0-0.1l0.2,0.1c0.2,0.1,0.4,0.1,0.6,0.2L60.1,25.1z M61.5,25.4L61.5,25.4L61.5,25.4l0.3-0.2l0,0
		c0.6,0.4,1.2,0.6,1.9,0.6c0.2,0,0.4-0.1,0.6-0.3c0.2,0.1,0.6,0.3,0.9,0.4l0,0h-0.1c-0.2,0.1-0.4,0.2-0.6,0.2
		c-0.7,0.2-1.5,0.5-2.1,1c-0.2,0.2-0.3,0.4-0.4,0.6c0,0.3-0.2,0.6-0.4,0.8C60,29.8,58.5,31,57,32.1l-2.5,2v-0.2l0,0l-0.1-1.6
		c0.5,0,1-0.2,1.4-0.6c0.9-0.9,1.4-2.1,1.4-3.4c0-0.4-0.4-0.9-0.9-1.2c0.7,0.3,1.4,0.5,2.2,0.5C59.6,27.7,60.6,27,61.5,25.4
		L61.5,25.4z M48.9,54.1l0.1,0.6h-0.7l-2.2,1.2l0.7,0.4L47,57l-0.3,0.1l-0.4-0.8l-1.5-1.2l-1.3,0.6l-3.6,0.1l-1.3-0.9l-3.1-0.6
		l-1.4-1L32.4,51h19.5c-0.2,0.5-0.5,1-0.8,1.5c-0.4,0.6-0.8,1.2-1.2,1.7L48.9,54.1z M49.6,54.5l-0.3,0.4v-0.4L49.6,54.5z M31.1,54.3
		h-0.5c-0.3-0.6-0.7-1.2-1-1.9h1.7c0,0.1,0.1,0.2,0.1,0.2c0.2,0.2,0.3,0.5,0.5,0.8C31.8,53.8,31.5,54.1,31.1,54.3 M32.2,53.7
		l0.4,0.6h-1C31.9,54.1,32,53.9,32.2,53.7 M29.5,52.1c-0.3-0.6-0.5-1.2-0.8-1.9h1.7c0.2,0.6,0.5,1.3,0.8,1.9H29.5z M27.5,46.9
		c0,0.1,0.1,0.3,0.1,0.4c-0.3-0.1-0.6-0.3-0.8-0.4H27.5z M26.2,46.6l-0.4-0.3c-0.2-0.1-0.4-0.3-0.6-0.5h2.2c0,0.3,0.1,0.5,0.1,0.8
		L26.2,46.6z M27.4,43.6h1.2c0.1,0.4,0.2,1.1,0.4,1.9h-1.4C27.5,44.8,27.4,44.2,27.4,43.6 M26.5,29c0.5,0.1,1,0.2,1.5,0.2h0.4
		c0.9-0.1,1.7-0.2,2.5-0.5c1-0.3,2.1-0.5,3.2-0.6c0.7,0,1.5,0.2,2.2,0.4l0,0c0.7,0.3,1.4,0.7,1.9,1.2c0.1,0.3,0.4,1.9,0.9,1.9
		c0.3,0,0.2-0.4,0.2-0.4c0-0.3-0.1-0.6-0.2-0.9c0.1,0,0.2,0.1,0.3,0.2c-0.1,0-0.1,0.1-0.1,0.2c0.1,0.3,0.2,0.6,0.4,0.9
		c-0.2,0.1-0.4,0.2-0.6,0.3c-0.4-0.1-1.1-0.4-1.5-0.6c-0.6-0.2-1.3-0.2-1.9-0.3h-0.1c-0.3,0-0.6,0-0.8,0c-0.9,0-1.7,0.1-2.5,0.3
		l-0.4,0.1c-0.3,0.1-0.8,0.3-1.4,0.4c-0.6,0.2-1.2,0.3-1.8,0.4l0,0h-0.2c-0.6,0.1-1.2-0.1-1.7-0.5c-0.9-0.8-1.5-2-1.5-3.2
		c0,0,0-0.1,0-0.1C25.7,28.7,26.1,28.9,26.5,29 M25.5,28.1c0.2-0.2,0.5-0.4,0.7-0.6c0.3-0.2,0.6-0.5,0.9-0.8c0.3,0,0.6,0.1,0.8,0.2
		c0.2,0.1,0.5,0.2,0.7,0.4l0,0l0,0c-0.1,0.5-0.3,1.1-0.6,1.5c-0.5,0-1,0-1.5-0.1C26.2,28.6,25.8,28.4,25.5,28.1 M36.6,21.7
		c0.3,0.3,0.3,0.8,0.3,1.1c0.1,0.4,0,0.9-0.2,1.3l0,0c-0.1-0.4-0.2-0.8-0.2-1.2C36.4,22.4,36.5,22,36.6,21.7 M36.3,21.5h-0.1
		c0-0.1,0-0.3,0-0.4c0.1-0.7,0.3-1.3,0.6-1.9c0.1,0.2,0.1,0.3,0.1,0.5C36.9,20.3,36.7,21,36.3,21.5 M37,24.2
		c0.3,0.4,0.4,0.9,0.3,1.5c0,0.1,0,0.5-0.1,0.8l0,0c-0.1-0.1-0.2-0.2-0.3-0.3c-0.1-0.4-0.1-0.7-0.1-1.1C36.8,24.8,36.9,24.5,37,24.2
		 M37.8,22.5V23c-0.6-0.5-0.6-1.1-0.8-1.7v-0.5C37.5,21.3,37.7,21.9,37.8,22.5 M37.2,19c0-0.2,0.1-0.4,0.2-0.6
		c0.3,0.4,0.4,0.9,0.4,1.4c0,0.3,0,0.6-0.1,0.8C37.3,20.1,37.2,19.5,37.2,19 M41.1,27.2c-0.2-0.1-0.3-1-0.3-1.3c0-0.3,0.1-0.7,0.2-1
		c0.2,0.4,0.2,0.9,0.3,1.4C41.4,26.6,41.3,26.9,41.1,27.2 M41.4,27.2c0.1,0,0.2,0.7,0.2,0.9c0,0.6-0.2,1.1-0.5,1.5
		c-0.1-0.3-0.1-0.5-0.1-0.8c0-0.5,0.1-1.1,0.3-1.6 M41.8,31.3L41.8,31.3L41.8,31.3L41.8,31.3l0.1,0.1c0.4,0.2,0.7,0.4,1.1,0.6l0,0
		h0.1h-3.2c0.2-0.1,0.3-0.1,0.5-0.2L41.8,31.3 M41.7,28.6c0-0.1,0.1-0.3,0.1-0.4c0.3,0.5,0.5,1.1,0.5,1.7c0,0.2,0,0.3,0,0.5
		C42,29.9,41.8,29.3,41.7,28.6 M46.6,31.3L46.6,31.3c0.1,0,0.1,0,0.2-0.1h0.5h0.3c0.7,0,1.4,0,2,0.2c0.2,0.1,0.6,0.2,1,0.4
		c-0.9,0.5-2,0.7-3,0.7c-0.4,0-0.8,0-1.2,0c-0.1,0-0.2,0-0.3,0c-0.4-0.1-0.8-0.1-1.2-0.2l-0.2-0.2c-0.2,0-0.5-0.2-0.7-0.2
		c0.4-0.1,1.1-0.3,1.5-0.5l0,0h0.4c0.1,0.2,0.3,0.3,0.6,0.4h0.1h0.1c0.1,0,0.1-0.1,0.1-0.2C46.6,31.6,46.5,31.5,46.6,31.3 M44,32.3
		L44,32.3l0.4,0.1h0.1c0.3,0.1,0.6,0.2,0.9,0.2h0.1c0.6,0.1,1.3,0.2,2,0.2l0,0c1,0,1.9-0.2,2.8-0.6h2c0.7,0.1,1.5,0.2,1.9,0.2v0.7
		H43l0.4-0.6l-1.1,0.1L42,32.3L44,32.3z M54.3,34.4h-3c-0.2-0.2-0.4-0.3-0.7-0.3h-0.1c-0.2,0-0.5,0.1-0.6,0.3h-6.5
		c-0.1-0.3-0.3-0.6-0.5-0.9h11.3v0.6l0,0C54.3,34.1,54.3,34.2,54.3,34.4 M28.5,35.6c0-0.3,0-0.6,0-0.8l0,0h2.6
		c-0.1,0.1-0.1,0.3-0.1,0.4c0,0.1,0.1,0.3,0.2,0.4l0,0L28.5,35.6z M31.1,35.9C31,36.2,31,36.5,31,36.8h-2.5c0-0.2,0-0.6,0-0.9H31.1z
		 M32.5,32.3c0.7,0.3,1.5,0.5,2.4,0.6l0,0h1.5c0.9-0.1,1.8-0.3,2.6-0.6h0.7l0.2,0.8l0,0H28.7c0-0.1,0-0.2,0-0.3s0-0.2,0-0.3
		c0.4-0.1,0.9-0.1,1.4-0.3L32.5,32.3z M31.2,32c0.1,0,0.2-0.1,0.4-0.1l0.2,0.1H31.2z M34.8,32.6c-1-0.1-1.9-0.4-2.8-0.8
		c0.9-0.3,1.9-0.5,2.8-0.4c0.1,0,0.4,0,0.6,0C35.3,31.8,35.1,32.2,34.8,32.6 M35.8,32.6h-0.4v-0.2l0,0
		C35.3,32.3,35.7,32.5,35.8,32.6 M36.2,32.4h0.3c0,0.1,0.1,0.1,0.1,0.2h-0.3L36.2,32.4 M37,32.2c0.1-0.1,0.2-0.1,0.3-0.1
		c0.1,0,0.2,0.2,0.3,0.3l-0.4,0.1C37.1,32.4,37.1,32.3,37,32.2 M37.8,32.4c0.1-0.2,0.1-0.4,0.2-0.7c0.4,0.1,0.6,0.1,0.6,0.4
		c0,0,0,0,0,0.1L37.8,32.4 M41.4,33.8c0,0.2-0.2,0.4-0.4,0.4l0,0c-0.1,0-0.2,0-0.2-0.1c0.1-0.3,0.2-0.5,0.3-0.7
		C41.2,33.5,41.4,33.6,41.4,33.8 M41.1,32.7L41.1,32.7L41.1,32.7L41.1,32.7 M42.5,33.4c0.5,0.3,0.8,0.9,0.8,1.5
		c0,0.9-0.6,1.6-1.4,1.8c0.4-0.5,0.6-1.2,0.6-1.9c0-0.6-0.2-1.3-0.6-1.8l0,0c0.1,0,0.2,0.1,0.3,0.2C42.3,33.3,42.4,33.3,42.5,33.4
		 M42.4,33h0.3l-0.1,0.2h-0.1l0,0C42.5,33.1,42.5,33.1,42.4,33 M43.5,34.7h6.2c0,0,0,0.1,0,0.1c-0.2,0.1-0.5,0.2-0.6,0.4
		c-0.1,0.1-0.2,0.2-0.2,0.4h-5.4c0.1-0.2,0.1-0.4,0.1-0.6C43.6,34.9,43.6,34.8,43.5,34.7 M50.6,35.2c0.2,0.1,0.3,0.2,0.5,0.3
		l0.1,0.1c0.1,0.1,0.2,0.3,0.3,0.4c0.1,0.3,0.2,0.7,0.1,1.1c0,0.1-0.1,0.2-0.2,0.2c0,0,0-0.1,0-0.1c0-0.1-0.1-0.2-0.2-0.3l-0.1-0.2
		c-0.1-0.2-0.3-0.3-0.5-0.5c-0.3-0.3-0.7-0.4-1.2-0.4h-0.3c0-0.1,0.1-0.3,0.2-0.4C49.7,35.1,50.1,35,50.6,35.2 M50,34.7
		c0.1-0.2,0.3-0.4,0.5-0.4c0.3,0,0.5,0.1,0.7,0.3c0.2,0.2,0.2,0.4,0.1,0.6c-0.2-0.2-0.4-0.3-0.6-0.4c-0.1,0-0.3-0.1-0.4-0.1L50,34.7
		 M50,38.4c0,0,0-0.1,0-0.1c0-0.2,0-0.3-0.1-0.4c-0.1-0.2-0.1-0.4-0.2-0.5c0,0-0.1-0.1-0.1-0.1c-0.1-0.1-0.1-0.2-0.2-0.3l0-0.2
		c-0.1-0.1-0.1-0.2-0.2-0.2L49,36.4l-0.2-0.2h-0.1c0.1-0.1,0.2-0.1,0.3-0.1c0.1,0,0.3-0.1,0.4-0.1c0.3,0,0.7,0.1,0.9,0.4
		c0.1,0.1,0.3,0.3,0.4,0.4l0.1,0.1c0.1,0.1,0.2,0.3,0.2,0.4c0,0,0,0.1,0,0.1c0.2,0.5,0.1,1.1-0.3,1.6c-0.2,0.3-0.5,0.4-0.8,0.4v-0.1
		c0,0,0-0.1,0-0.1c0-0.1,0-0.2,0-0.3c0,0,0-0.1,0-0.1C49.9,38.7,49.9,38.6,50,38.4 M44.8,40.1L44.8,40.1L44.8,40.1V40l0,0l0,0
		c0,0,0-0.1,0.1-0.1l0,0l0,0l0.1-0.1l0,0l0,0c0.1,0,0.1,0,0.2,0c0.4,0,0.7,0.3,0.7,0.7c0,0.1,0,0.2-0.1,0.3l0,0
		c-0.1,0.1-0.2,0.2-0.3,0.2h-0.1h-0.2c-0.2,0-0.4-0.1-0.5-0.3c0-0.1,0-0.1,0-0.2c0-0.1,0-0.2-0.1-0.3 M44.6,39.5L44.6,39.5
		L44.6,39.5c-0.1-0.3-0.2-0.6-0.2-1c0-1.1,0.6-1.9,1.4-1.9c0.6,0.1,1.1,0.5,1.3,1.2c-0.2-0.3-0.5-0.4-0.8-0.5
		c-0.9,0-1.6,0.7-1.6,1.6c0,0,0,0,0,0C44.6,39.1,44.6,39.3,44.6,39.5 M41.7,38.8c0,0.6,0,1.3,0,1.9l-0.3-0.3c0-0.2,0-0.6,0.1-1.1
		v-0.9c0-0.5-0.2-0.9-0.4-1.3l0,0l0,0c0.3,0.4,0.4,0.8,0.5,1.3h0.3c0.1-0.4,0.3-0.8,0.6-1.2c0.3-0.3,0.7-0.6,1-0.8
		c-0.1,0.5-0.4,1-0.7,1.5c-0.3,0.3-0.7,0.6-1.1,0.7h-0.1L41.7,38.8z M40.5,40.2c0-0.2-0.3-0.4-0.7-0.5v-0.2l0,0c0,0,0-0.1,0-0.1h1.3
		c0,0.4,0,0.7-0.1,0.9L40.5,40.2L40.5,40.2L40.5,40.2z M39.6,40.1c0.1,0,0.1-0.1,0.2-0.1c0.3,0,0.5,0.1,0.5,0.2s-0.1,0.1-0.3,0.2
		h-0.3L39.6,40.1L39.6,40.1 M39.1,35.5H34c0-0.1-0.1-0.3-0.2-0.4c-0.2-0.2-0.4-0.3-0.6-0.4c0,0,0-0.1,0-0.1H39c0,0.1,0,0.2,0,0.3
		C39.1,35.1,39.1,35.3,39.1,35.5 M40.7,33.1L40.7,33.1c-0.4,0.5-0.6,1.2-0.6,1.8c0,0.7,0.2,1.3,0.6,1.9c-1-0.3-1.6-1.4-1.3-2.4
		C39.6,33.8,40.1,33.3,40.7,33.1 M40.3,32.7l0.2,0.1l0,0c0,0,0,0-0.1,0L40.3,32.7L40.3,32.7z M41.1,34.5l0.1-0.1
		c0.1,0.2,0.3,0.3,0.5,0.3c0.1,0.1,0.1,0.2,0.1,0.3c0,0.2-0.2,0.4-0.4,0.4l0,0c-0.2,0-0.3-0.1-0.4-0.3c0.1-0.1,0.1-0.2,0.1-0.4
		C41.2,34.7,41.2,34.6,41.1,34.5 M42.3,37c-0.2,0.2-0.3,0.5-0.4,0.8c-0.1-0.2-0.2-0.5-0.3-0.7c0.2,0,0.3-0.1,0.5-0.1H42.3z
		 M41.1,36.6c0.2-0.1,0.3-0.2,0.4-0.3c0.1,0.1,0.1,0.1,0.2,0.2c-0.1,0.1-0.2,0.2-0.4,0.3C41.2,36.8,41.2,36.7,41.1,36.6 M41.1,37.9
		h-0.2c-0.1-0.1-0.2-0.2-0.3-0.3c-0.2-0.2-0.4-0.4-0.7-0.5h0.6l0.2,0.1C40.9,37.3,41,37.6,41.1,37.9 M41.6,35.9L41.6,35.9
		c0-0.1,0-0.1,0-0.2c0.2,0,0.4-0.1,0.5-0.3l0,0c0,0.3-0.1,0.5-0.2,0.8C41.7,36.1,41.7,36,41.6,35.9 M41.2,35.7
		c0.1,0.1,0.1,0.2,0.1,0.2c0,0.2-0.2,0.4-0.4,0.4c-0.2-0.3-0.3-0.6-0.3-0.9c0.1,0,0.2,0,0.3-0.1C40.9,35.5,41,35.6,41.2,35.7
		 M40.5,35.1c0-0.1,0-0.2,0-0.3c0-0.2,0-0.3,0-0.5c0.1,0,0.2,0.1,0.2,0.1c0.1,0.1,0.1,0.2,0.1,0.3C40.8,34.9,40.7,35.1,40.5,35.1
		 M39.9,36.7h-0.7H39h-0.2v0.1h-0.3c-0.4-0.5-0.9-0.8-1.5-0.9h2.2C39.4,36.3,39.6,36.6,39.9,36.7 M39.2,38H39
		c-0.1-0.3-0.2-0.6-0.3-0.9h0.1C38.9,37.4,39,37.7,39.2,38 M36.5,35.9c-0.3,0-0.5,0.1-0.8,0.2c-0.2-0.1-0.5-0.1-0.7-0.1
		c-0.2,0-0.4,0-0.6,0.1c-0.1-0.1-0.2-0.2-0.4-0.2H36.5z M34.5,36.5c0.2-0.1,0.4-0.1,0.6-0.1h0.3c0,0-0.1,0.1-0.1,0.1l-0.2,0.2
		c-0.1,0.1-0.1,0.1-0.1,0.2c-0.1,0.1-0.1,0.2-0.2,0.3l-0.1,0.2c-0.1,0.1-0.1,0.2-0.1,0.4V38c0,0.2-0.1,0.4-0.1,0.6
		c0,0.2,0,0.4,0,0.6c0,0.1,0,0.1,0,0.2c0,0.1,0,0.2,0.1,0.3l0.1,0.3c0,0,0.1,0.1,0.1,0.2l0.2,0.2l0.1,0.1c0,0,0.1,0.1,0.1,0.1h0
		c-0.7-0.1-1.3-0.5-1.7-1.1l0,0c-0.1-0.2-0.2-0.5-0.2-0.7c0-0.1,0-0.1,0-0.2c0-0.1,0-0.1,0-0.2c0-0.1,0-0.3,0.1-0.4
		c0.1-0.2,0.2-0.4,0.3-0.6c0-0.1,0.1-0.1,0.1-0.2c0.1-0.1,0.2-0.2,0.3-0.3l0.1-0.1C34.2,36.7,34.3,36.6,34.5,36.5L34.5,36.5
		 M35.1,39.8c0,0,0-0.1,0-0.1C35,39.6,35,39.4,35,39.3c0,0,0-0.1,0-0.1c0-0.2-0.1-0.4-0.1-0.6c0-0.2,0-0.4,0.1-0.6
		c0-0.1,0-0.1,0-0.2c0-0.1,0.1-0.3,0.2-0.4l0.1-0.1c0.1-0.2,0.2-0.3,0.3-0.4l0.1-0.1l0.3-0.2c0.3-0.2,0.7-0.3,1-0.3
		c1.2,0.1,2.1,1.2,2,2.4c0,0.2,0,0.4,0,0.6l0,0c0-0.2-0.1-0.4-0.2-0.6c0.1-1.1-0.6-2-1.7-2.2c-1.1,0.2-1.8,1.1-1.7,2.2
		c-0.1,1,0.5,1.9,1.4,2.2v0.1c-0.4,0-0.8-0.1-1.1-0.4c-0.1-0.1-0.2-0.2-0.4-0.3l0,0C35.3,40,35.2,39.9,35.1,39.8 M38.1,38.3
		c-0.2-0.2-0.5-0.3-0.8-0.3c-0.5,0-0.9,0.2-0.9,0.5l0,0v0.2c0,0,0,0.1,0,0.1c0,0,0,0.1-0.1,0.1l0,0c-0.1,0.1-0.1,0.1-0.1,0.2v0.2
		c0,0.1,0,0.1,0.1,0.2c0,0,0,0,0,0.1l0,0c0,0,0,0.1,0,0.1v0.3c-0.3-0.4-0.5-1-0.5-1.5c0-1.1,0.6-1.9,1.4-1.9c0.7,0,1.3,0.7,1.4,1.7
		C38.3,38.3,38.2,38.3,38.1,38.3 M38.4,38.8L38.4,38.8L38.4,38.8C38.3,38.8,38.3,38.8,38.4,38.8c-0.1,0-0.2,0-0.2,0l0,0
		c0-0.1,0-0.1,0-0.2v0C38.3,38.6,38.4,38.7,38.4,38.8 M37.2,38.7c-0.1,0-0.2,0-0.2,0l0,0c-0.2,0-0.3-0.1-0.3-0.2
		c0,0,0.2-0.2,0.6-0.2c0.4,0,0.6,0.1,0.6,0.2l0,0C37.8,38.5,37.6,38.7,37.2,38.7 M37.6,39.2c-0.2,0.1-0.4,0.2-0.6,0.2
		c-0.4,0-0.6-0.1-0.6-0.2l0,0l0,0l0,0c0.1,0.1,0.2,0.1,0.3,0.1c0.1,0,0.2,0,0.4,0c0.1,0,0.3,0,0.4,0l0,0 M36.7,40.1L36.5,40l0,0
		c0.1,0,0.3,0,0.4,0H37l0,0l0,0l0,0c0,0-0.1,0-0.1,0c-0.1,0-0.2,0-0.3-0.1l0,0 M37.1,40.3c0.1,0,0.3-0.1,0.4-0.1h0.1v0.1
		c0,0.1,0,0.1,0,0.2l0,0l0,0h-0.2c-0.4,0-0.6-0.1-0.6-0.2s0-0.1,0.2-0.1 M37.6,39.5L37.6,39.5c0,0,0-0.1,0-0.1h0.1
		c0.1,0,0.1,0,0.2,0c0,0,0.1,0,0.1,0h0.1l0,0c0,0,0.1,0,0.1,0.1l0,0l0,0c0,0-0.2,0.2-0.6,0.2h-0.1 M37.9,40.2c0.1,0,0.2,0,0.2-0.1
		c0,0,0.1,0,0.1,0l0.1-0.1h0.1c0.1,0,0.2,0,0.3,0h0.1l0,0h0.1l0,0l0,0c0,0-0.2,0.2-0.6,0.2h-0.2l0,0C38,40.3,37.9,40.2,37.9,40.2
		L37.9,40.2 M38.9,39.7h-0.1h-0.1h-0.1v-0.2c0,0,0-0.1,0-0.1h0.1c0.4,0,0.6,0.2,0.6,0.2l0,0l0,0h-0.1L38.9,39.7 M39.1,39
		C39,39,38.9,39,38.7,39c0-0.2,0.1-0.4,0.1-0.6c0-0.1,0-0.2,0-0.3h0.3l0.2,0.3c0.2,0.3,0.5,0.5,0.8,0.6L39.1,39z M39.5,38.2
		c-0.3-0.4-0.5-0.8-0.6-1.3c0.4,0.2,0.8,0.4,1.2,0.7c0.3,0.3,0.6,0.7,0.9,1.1L41,39C40.5,38.9,40,38.6,39.5,38.2 M41.1,38.2
		L41.1,38.2C41.1,38.2,41.1,38.2,41.1,38.2C41.1,38.3,41.1,38.2,41.1,38.2 M44,37c-0.2,0.3-0.3,0.6-0.3,0.9h-0.4
		c0.2-0.3,0.3-0.6,0.4-0.9H44z M43.8,36.7c0.1-0.3,0.2-0.6,0.2-0.6l0.1-0.3h1.8c-0.6,0.1-1.1,0.4-1.5,0.9L43.8,36.7z M43.6,38.7
		c-0.1,0-0.2-0.1-0.3-0.1c-0.4,0-0.7,0.2-0.9,0.5h-0.4v-0.2c0.4-0.1,0.7-0.4,1-0.6h0.6c0,0.1,0,0.2,0,0.3
		C43.7,38.5,43.7,38.6,43.6,38.7 M42.1,39.4h0.2c0,0,0,0.1,0,0.1c0,0.3,0.1,0.5,0.3,0.6c0,0,0,0.1,0,0.1h-0.5
		C42.1,40,42.1,39.7,42.1,39.4 M42.7,39.5c0-0.3,0.3-0.6,0.7-0.6c0.3,0,0.6,0.2,0.7,0.6l0,0c-0.1,0-0.2,0-0.3,0
		c-0.2,0-0.3,0-0.5,0.1c0,0-0.1,0-0.1,0.1c-0.1,0-0.2,0.1-0.2,0.2c0,0,0,0,0,0.1C42.8,39.8,42.7,39.7,42.7,39.5 M43.1,40.1
		c0.1-0.1,0.1-0.1,0.2-0.2h0.1c0.1-0.1,0.3-0.1,0.4-0.1c0.1,0,0.2,0,0.3,0l0,0h0.1c0.1,0,0.1,0.1,0.2,0.2c0,0,0.1,0.1,0.1,0.1l0,0
		c0,0.1,0.1,0.2,0.1,0.2c-0.1,0.4-0.4,0.7-0.8,0.6c-0.4,0-0.8-0.2-0.8-0.6c0-0.1,0.1-0.2,0.1-0.3 M45.4,39.1c-0.1,0-0.2,0-0.3,0l0,0
		l0,0c0-0.1,0-0.2,0-0.3c0.1-0.8,0.6-1.4,1.2-1.3c0.6,0.1,1,0.7,0.9,1.3c0,0,0,0.1,0,0.1l0,0c0,0.1-0.1,0.2-0.1,0.4
		c0,0.1,0,0.1-0.1,0.2c0,0.1-0.1,0.1-0.1,0.2l-0.1,0.2c-0.1,0.1-0.2,0.2-0.3,0.3v-0.1c0-0.5-0.4-1-1-1l0,0 M46.3,40.5
		c0.1,0,0.3-0.1,0.4-0.2l0,0c0.1-0.1,0.3-0.2,0.4-0.4l0,0c0.2-0.3,0.4-0.7,0.4-1.1l0,0l0,0c0-0.2,0-0.3,0-0.5c0-1-0.7-1.8-1.7-2
		c-1.1,0.1-1.9,1.1-1.7,2.2c0,0.1,0,0.3,0,0.4c0,0,0-0.1-0.1-0.1c0-0.1,0-0.3,0-0.4c-0.1-1.2,0.8-2.3,2-2.4c0.4,0,0.7,0.1,1,0.3
		l0.3,0.2l0.1,0.1c0.1,0.1,0.2,0.3,0.3,0.4v0.1c0.1,0.1,0.1,0.3,0.2,0.4v0.2c0,0.2,0.1,0.4,0.1,0.6c0,0.2,0,0.4,0,0.6
		c0,0,0,0.1,0,0.1c0,0.1-0.1,0.3-0.1,0.4c0,0,0,0.1-0.1,0.1c-0.1,0.1-0.2,0.3-0.3,0.4l-0.1,0.1l-0.2,0.2c-0.3,0.2-0.7,0.4-1,0.4
		c0,0,0-0.1,0-0.1 M46.2,35.8h2.4c-0.1,0.1-0.2,0.1-0.4,0.2C48,36,47.8,36,47.6,36c-0.2,0-0.5,0-0.7,0.1
		C46.7,35.9,46.4,35.9,46.2,35.8 M47.6,40.4L47.6,40.4c0.1-0.1,0.2-0.2,0.2-0.3V40c0.1-0.1,0.1-0.3,0.2-0.4v-0.1
		c0-0.1,0.1-0.2,0.1-0.4c0-0.2,0-0.4,0-0.6c0-0.2,0-0.4,0-0.6c0-0.1,0-0.1,0-0.2s0.1-0.3,0.1-0.4l-0.1-0.2c0-0.1-0.1-0.2-0.2-0.3
		l-0.2-0.2l-0.2-0.2l-0.1-0.2h0.3c0.2,0,0.4,0,0.6,0.1h0.1c0.1,0.1,0.2,0.1,0.4,0.2l0.2,0.2c0.1,0.1,0.2,0.2,0.2,0.3
		c0,0.1,0.1,0.1,0.1,0.2c0.1,0.2,0.2,0.4,0.3,0.6c0,0.1,0.1,0.3,0.1,0.4v0.1c0,0.1,0,0.2,0,0.3c0,0.1,0,0.2,0,0.3c0,0,0,0.1,0,0.1
		l-0.1,0.1c0,0.1-0.1,0.1-0.1,0.2c-0.4,0.6-1,1-1.7,1.1L47.6,40.4c0.1,0.1,0.2,0,0.2,0 M44.2,35.8l-0.3,0.1
		c-0.4,0.2-0.8,0.5-1.2,0.8l0,0c0.3-0.2,0.5-0.5,0.7-0.9L44.2,35.8z M41.8,32.7l0.1-0.1l0.1,0.2C42,32.7,41.9,32.7,41.8,32.7
		 M41.5,32.5l-0.3-0.3h0.7L41.5,32.5z M41.4,33c0.4,0.3,0.7,0.8,0.8,1.3c-0.1,0-0.1,0.1-0.2,0.1c-0.2,0-0.3-0.1-0.4-0.3
		c0.1-0.1,0.1-0.3,0.1-0.4c0-0.3-0.2-0.5-0.4-0.7L41.4,33 M40.8,32.5l-0.9-0.3h1L40.8,32.5z M39.7,33.4c-0.2,0.2-0.4,0.5-0.5,0.9H33
		c-0.2-0.2-0.4-0.3-0.6-0.3h-0.1c-0.3,0-0.5,0.1-0.7,0.3h-2.9c0-0.2,0-0.4,0-0.9H39.7z M32.8,34.7h-0.2c-0.1,0-0.3,0.1-0.4,0.1
		c-0.2,0.1-0.4,0.2-0.6,0.4c0-0.1-0.1-0.1-0.1-0.2c0-0.2,0-0.3,0.2-0.4c0.1-0.2,0.3-0.3,0.6-0.3h0.1C32.5,34.3,32.8,34.4,32.8,34.7
		 M31.4,35.9c0.1-0.2,0.2-0.3,0.3-0.4l0.1-0.1c0.1-0.1,0.3-0.2,0.5-0.3c0.1,0,0.2-0.1,0.3-0.1h0.3c0.3,0,0.5,0.1,0.7,0.3
		c0.1,0.1,0.2,0.2,0.2,0.4h-0.3c-0.4,0-0.8,0.1-1.1,0.4c-0.2,0.1-0.3,0.3-0.5,0.5l-0.1,0.2c-0.1,0.1-0.1,0.3-0.2,0.4
		c0,0,0,0.1,0,0.1c-0.1-0.1-0.1-0.1-0.2-0.2C31.3,36.6,31.3,36.2,31.4,35.9 M31.8,37.4v-0.1c0.1-0.1,0.1-0.3,0.2-0.4h0.1
		c0.1-0.2,0.3-0.3,0.4-0.4c0.3-0.2,0.6-0.3,0.9-0.4c0.1,0,0.3,0,0.4,0.1c0.1,0,0.2,0.1,0.3,0.1h-0.1c-0.1,0-0.2,0.1-0.3,0.2
		c0,0-0.1,0.1-0.1,0.1c-0.1,0.1-0.1,0.1-0.2,0.2l-0.1,0.1c0,0.1-0.1,0.2-0.2,0.3c0,0.1-0.1,0.1-0.1,0.2c-0.1,0.2-0.2,0.4-0.2,0.5
		c0,0.2-0.1,0.3-0.1,0.4c0,0,0,0.1,0,0.1c0,0.1,0,0.2,0,0.3c0,0,0,0.1,0,0.1s0,0.2,0,0.3c0,0.1,0,0.1,0,0.2l0,0
		c-0.3,0-0.6-0.2-0.8-0.4C31.7,38.5,31.6,37.9,31.8,37.4 M32.2,39.5c0.3,0.2,0.6,0.3,0.9,0.2c0.2,0.2,0.4,0.5,0.7,0.6h-5.3
		c0-0.3,0-0.6,0-0.9L32.2,39.5z M34.4,40.7L34.4,40.7c0.2,0.1,0.5,0.2,0.7,0.2h0.2c0.1,0,0.2,0,0.4,0c0.3,0.2,0.8,0.4,1.2,0.4h0.3
		c0.2,0.1,0.4,0.1,0.6,0.1c0.2,0,0.4,0,0.5-0.1c0.2,0.2,0.5,0.4,0.8,0.4H28.7c0-0.3,0-0.6,0-0.9L34.4,40.7z M38.9,41L38.9,41h0.2
		h0.2h-0.1H38.9 M40.1,41L40.1,41c0.2-0.1,0.4-0.2,0.5-0.4h0.7l0.8,0.6V41c0-0.1,0-0.2,0-0.3h0.6c0.1,0.5,0.6,0.9,1.1,0.8
		c0.4,0,0.8-0.2,1-0.5c0.2,0.2,0.4,0.3,0.7,0.3c0.1,0,0.3,0,0.4-0.1H46c0.4,0,0.8-0.1,1.2-0.4c0.1,0,0.2,0,0.4,0h0.2
		c0.2,0,0.5-0.1,0.7-0.2h5.9c0,0.3,0,0.6-0.1,0.9h-15C39.7,41.4,40,41.2,40.1,41 M49,40.2c0.3-0.2,0.5-0.4,0.7-0.6
		c0.3,0,0.7-0.1,1-0.2h3.8c0,0.3,0,0.6,0,0.9L49,40.2z M51,39.1c0.2-0.3,0.3-0.6,0.4-0.9h3.1c0,0.3,0,0.6,0,0.9H51z M51.4,37.9
		c0-0.1,0-0.2,0-0.3c0.2-0.1,0.3-0.3,0.4-0.4V37h2.7v0.1c0,0.3,0,0.5,0,0.8H51.4z M51.8,36.7c0-0.3,0-0.6-0.2-0.9h2.7
		c0,0.3,0,0.6,0,0.9H51.8z M51.5,35.5L51.5,35.5c0.1-0.2,0.2-0.3,0.2-0.4c0-0.2,0-0.3-0.1-0.4h2.8c0,0.3,0,0.6,0.1,0.9L51.5,35.5z
		 M40.6,25c-0.2-0.6-0.4-1.1-0.4-1.7c0-0.2,0-0.4,0.1-0.6c0.3,0.5,0.5,1.1,0.4,1.7C40.7,24.6,40.7,24.8,40.6,25 M40.4,31.3L40,31.5
		c-0.2-0.2-0.3-0.5-0.4-0.7C39.9,30.9,40.2,31.1,40.4,31.3 M39.9,22.7c-0.5-0.2-0.8-1.5-0.8-2c0-0.1,0-0.2,0-0.2
		c0.5,0.5,0.8,1.2,0.8,1.9C39.9,22.7,39.9,22.7,39.9,22.7 M39.8,29.9v0.2h-0.1c-0.3,0-1.3-1.5-1.3-1.7v-0.2
		C38.9,28.7,39.4,29.3,39.8,29.9 M37.6,25.9c0.5,0.5,0.9,1.1,1.1,1.8C38.2,27.2,37.9,26.6,37.6,25.9 M38,28.4V29
		c-0.4-0.5-0.6-1-0.6-1.6v-0.5C37.7,27.3,37.9,27.9,38,28.4 M38.3,29.2c0.4,0.5,0.7,1.2,0.9,1.8v0.4c-0.7-0.1-0.8-1.2-0.9-1.8
		L38.3,29.2z M38.8,20.8c0,0,0,0-0.1,0c-0.4,0-0.9-1.5-1-1.9v-0.2c0.3,0,1.1,1.6,1.1,1.9L38.8,20.8z M38,25.1v0.3
		c-0.5-0.5-0.9-1.2-1-1.9c0-0.1,0-0.1,0-0.2C37.5,23.9,37.8,24.5,38,25.1 M28.5,37.1L28.5,37.1L31,37c0,0,0,0.1,0,0.1
		c0.1,0.2,0.2,0.3,0.4,0.4c0,0.1,0,0.2,0,0.3h-3C28.5,37.5,28.5,37.2,28.5,37.1 M31.5,38.2c0.1,0.3,0.2,0.6,0.4,0.9h-3.3
		c0-0.3,0-0.6,0-0.9H31.5z M29,45.8c0.1,0.6,0.3,1.2,0.5,1.9h-1.1l-0.5-0.2c-0.1-0.5-0.2-1.1-0.3-1.7H29z M28.4,48
		c0.4,0.2,0.8,0.3,1.3,0.3c0.2,0.5,0.3,1.1,0.5,1.6h-1.6c-0.1-0.2-0.1-0.4-0.2-0.5C28.3,49,28.1,48.5,28,48L28.4,48z M28.8,42.9
		c0-0.3-0.1-0.7-0.1-1.1h25.6c0,0.4-0.1,0.8-0.1,1.1c-0.4,2.7-1.1,5.3-2.1,7.8H42l0.6-0.8L42.4,49l0.7,0.1c0.1,0.3,0.3,0.6,0.5,0.8
		c0.3,0.2,0.6,0.3,0.9,0.2c0.2,0,0.5,0,0.7-0.1l0,0l0.6-0.6l-1.1-1c-0.1-1.5-0.3-3-0.6-4.4c-0.3-1.6-0.9-2.4-1.9-2.4
		c-0.6,0-1.1,0.2-1.7,0.5c-0.8,0.3-1.5,0.7-2.2,1.2l0,0l-0.2,1.6h0.7l-0.7,2.5h0.1c0.5,0.4,1.1,0.7,1.7,0.8l-0.3,1.3l0.6,0.9h-9.4
		c-1-2.5-1.7-5.1-2.1-7.8 M40.5,47.5h0.5l-0.2,3.1h-0.1l-0.7-0.9L40.5,47.5z M38.7,47.7c0.4,0,0.9-0.1,1.5-0.1l-0.2,0.6
		C39.6,48.1,39.2,47.9,38.7,47.7 M40.8,47.2c-0.7,0-1.5,0.1-2.2,0.2l0.6-2.2c0.9-0.6,1.8-1.1,2.8-1.5c0.7-0.2,1.1,0.9,1.2,0.9
		l0.3-0.1c0-0.1-0.5-1.4-1.5-1.2c-1,0.4-2,0.9-2.9,1.5h-0.5l0.2-1.2c0.6-0.5,1.3-0.9,2-1.2c0.5-0.2,1-0.3,1.5-0.4
		c0.5,0,1.2,0.2,1.6,2.1c0.3,1.5,0.5,2.9,0.6,4.4v0.1l0.9,0.9l-0.3,0.3c-0.2,0-0.4,0-0.6,0c-0.2,0-0.5,0-0.7-0.2
		c-0.3-0.5-0.6-1-0.6-1.6l0,0c0,0-0.3-0.5-1.5-0.7c-0.3,0-0.5,0-0.8,0 M43,48.9c-0.1,0-0.3,0-0.6-0.1l-0.2-1
		c0.3,0.1,0.5,0.2,0.7,0.4C42.8,48.4,42.9,48.6,43,48.9 M41.6,47.8h0.2l0.5,2l-0.7,0.9h-0.2v-3.1h0.2 M50.7,53.7
		c0.2,0.2,0.4,0.4,0.6,0.6h-1L50.7,53.7 M50.9,53.5c0.2-0.3,0.4-0.5,0.5-0.8l0.1-0.2h1.7c-0.3,0.7-0.7,1.3-1,1.9h-0.6
		C51.4,54.1,51.1,53.8,50.9,53.5 M51.7,52.1c0.3-0.6,0.6-1.2,0.8-1.9h1.6c-0.2,0.7-0.5,1.3-0.8,1.9H51.7z M52.7,49.9
		c0.2-0.5,0.4-1.1,0.5-1.6c0.4,0,0.9-0.1,1.3-0.2h0.4c-0.1,0.5-0.2,1-0.4,1.3c-0.1,0.2-0.1,0.4-0.2,0.5L52.7,49.9z M54.5,47.7h-1.1
		c0.2-0.7,0.4-1.3,0.5-1.9h1.4c-0.1,0.6-0.2,1.2-0.3,1.7L54.5,47.7 M53.9,45.5c0.2-0.8,0.3-1.4,0.4-1.9h1.2
		c-0.1,0.6-0.1,1.3-0.2,1.9H53.9z M55.4,46.9h0.7c-0.2,0.1-0.5,0.3-0.8,0.4C55.3,47.2,55.3,47,55.4,46.9 M55.4,46.6
		c0-0.3,0.1-0.5,0.1-0.8h2.2c-0.2,0.2-0.4,0.3-0.6,0.5l-0.5,0.3H55.4z M55.5,43.2h-1.2c0-0.1,0-0.2,0-0.3c0.1-0.3,0.1-0.8,0.2-1.3
		c0.3-0.1,0.6-0.2,0.9-0.3h0.2C55.7,42,55.6,42.6,55.5,43.2 M56.9,28.1c-0.3,0.4-0.7,0.6-1.2,0.8c-0.4,0.1-0.8,0.1-1.3,0l-0.2-0.2
		c-0.3-0.4-0.5-0.8-0.6-1.3c0.2-0.2,0.5-0.4,0.8-0.5c0.3-0.1,0.6-0.2,0.9-0.2c0.1,0.1,0.3,0.2,0.5,0.3
		C56.2,27.3,56.6,27.7,56.9,28.1 M45.6,28.3L45.6,28.3C45.5,28.3,45.5,28.2,45.6,28.3c-0.1-0.1-0.1-0.1,0-0.2
		C45.6,28.2,45.6,28.2,45.6,28.3 M44.7,28.6L44.7,28.6L44.7,28.6C44.7,28.5,44.7,28.6,44.7,28.6 M44.2,29c-0.1,0.1-0.1,0.1-0.2,0.1
		l-1.2-0.7c0.1-0.2,0.2-0.4,0.4-0.4L44.2,29z M43.6,29.3c-0.3,0.2-0.6,0.5-1,0.7c-0.1-0.4-0.1-0.9-0.2-1.3L43.6,29.3z M44.5,29
		l0.3,0.3v-0.4h0.2l0,0H45l0,0l0.3-0.1c0.1-0.1,0.3-0.1,0.4-0.2h0.1l0.4-0.2l0,0l0.3-0.1c0.2-0.1,0.4-0.1,0.6-0.1h0.2
		c0.3-0.1,0.7-0.1,1.1-0.1c1,0.1,2,0.3,2.9,0.6c0.8,0.3,1.7,0.4,2.5,0.6l0,0c0,0,0.4,0,0.9,0c0.3,0,0.7,0,1-0.1
		c0.5-0.1,0.9-0.4,1.3-0.7c-0.1,1.2-0.6,2.2-1.3,3.1c-0.4,0.4-0.9,0.6-1.4,0.5h-0.2C53.1,32,52,31.9,51,31.6c-0.5-0.2-1-0.4-1.5-0.6
		l0,0c-0.7-0.2-1.4-0.3-2.1-0.2l0,0h-0.5h-0.1c-0.3,0-0.6,0.1-0.9,0.1l0,0c-0.8,0.2-1.6,0.4-2.4,0.7c-0.5-0.2-0.9-0.4-1.3-0.7l0,0
		c0.7-0.7,1.5-1.3,2.4-1.8 M42.4,27.8C42.4,27.8,42.3,27.8,42.4,27.8c-0.5,0-0.8-1.3-0.9-1.8l0.1-0.3c0.4,0.5,0.7,1.2,0.8,1.8
		L42.4,27.8z M42,25.3c-0.5-0.5-0.9-1.1-1.1-1.8v-0.2c0.5,0.5,0.9,1.1,1.1,1.7V25.3z M41.3,23h-0.1c-0.5-0.5-0.9-1.1-1.2-1.7v-0.2
		c0.6,0.5,1,1,1.3,1.7L41.3,23z M40.4,20.9h-0.1c-0.4,0-1.3-1.3-1.5-1.7c0.3,0.1,1.6,1.2,1.6,1.5L40.4,20.9z M39.1,18.9
		c-0.1,0-1.7-0.8-1.7-1.2s1.5,0.5,2,1.2H39.1z M36.6,17.9c-0.1-0.2-0.2-0.4-0.2-0.6c0-0.3,0.6-0.7,0.8-0.7s0.6,0,0.6,0.4
		C37.8,17.6,36.5,17.2,36.6,17.9 M36.7,18.3c0.2-0.2,0-0.6,0.4-0.6v0.2c-0.2,0.7-0.5,1.4-1.1,1.9c0,0-0.1,0-0.1-0.1
		c0.1-0.5,0.3-1,0.6-1.5C36.6,18.1,36.7,18.2,36.7,18.3 M20.6,25.1L20.6,25.1l0.6-0.3l0.8-0.4c0,0,0,0.1,0,0.1
		c0,0.2,0.1,0.5,0.1,0.7L20.6,25.1z M28.3,41.6c0,0.5,0.1,1,0.1,1.3c0,0,0,0.2,0.1,0.3h-1.2c-0.1-0.6-0.1-1.3-0.2-1.9h0.2
		C27.8,41.5,28.2,41.6,28.3,41.6 M27.2,44.7c0,0.3,0,0.5,0.1,0.8h-2.5l-0.2-0.3c0-0.2,0-0.3-0.1-0.5H27.2z M24.6,45.8
		c0.3,0.3,0.6,0.5,0.9,0.7c0,0,0,0,0.1,0h-0.9L24.6,45.8L24.6,45.8z M26.1,46.9c0.5,0.3,1,0.6,1.5,0.8h-2.7c0-0.2-0.1-0.5-0.1-0.8
		H26.1z M27.7,48c0.1,0.3,0.1,0.5,0.2,0.8h-2.8c-0.1-0.2-0.1-0.5-0.2-0.8H27.7z M28,49.1c0,0.1,0.1,0.2,0.1,0.4l0.2,0.4h-2.8
		c0,0,0-0.1,0-0.2s-0.1-0.4-0.2-0.6H28z M28.4,50.2c0.1,0.3,0.2,0.5,0.3,0.8h-2.8c-0.1-0.3-0.2-0.5-0.3-0.8H28.4z M28.8,51.3
		c0.1,0.3,0.2,0.5,0.3,0.8h-2.8c-0.1-0.3-0.2-0.5-0.3-0.8H28.8z M29.3,52.4l0.4,0.8h-2.8l-0.4-0.8H29.3z M29.9,53.5
		c0.1,0.3,0.3,0.5,0.4,0.8h-2.8c-0.1-0.3-0.3-0.5-0.4-0.8H29.9z M30.5,54.6L30.5,54.6c-0.9,0.3-1.8,0.4-2.7,0.3l-0.2-0.3L30.5,54.6z
		 M28.7,55.3c0.7,0,1.3-0.1,1.9-0.4l0.3,0.5h-2.8L28,55.2C28.3,55.2,28.5,55.2,28.7,55.3 M31.2,55.7l0.5,0.8h-2.9
		c-0.2-0.2-0.3-0.5-0.5-0.8H31.2z M31.9,56.8l0.3,0.5l0.2,0.3h-2.9l-0.1,0L29,56.8L31.9,56.8z M32.5,57.1l-0.2-0.3h2.2
		c-0.3,0.3-0.8,0.7-1.3,1.2C32.9,57.7,32.7,57.4,32.5,57.1 M32,56.5c-0.3-0.4-0.7-1-1.1-1.7c0.1,0,0.2-0.1,0.3-0.2H33
		c0.5,0.6,1.1,1.3,1.6,1.9H32z M31.8,52.4c-0.3-0.5-0.6-1-0.8-1.5h1l1.8,2.6l1.5,1.1l3.1,0.6l1.4,0.9l2-0.1l-1.5,0.3l-0.5,0.4h-0.8
		l-0.5,0.7L38.2,58l-0.8,0.2l0,0l-0.3,0.4C35.1,56.7,33.3,54.7,31.8,52.4 M46.8,55.9l1.6-0.9h0.8c-0.6,0.7-1.2,1.4-1.9,2l-0.2-0.9
		L46.8,55.9z M50,54.6h1.7c0.1,0.1,0.2,0.1,0.3,0.2c-0.4,0.7-0.8,1.3-1.1,1.7h-2.6C48.9,55.8,49.5,55.2,50,54.6 M50.7,56.8
		c-0.1,0.1-0.2,0.2-0.2,0.3L49.8,58c-0.5-0.5-1-0.9-1.3-1.2L50.7,56.8z M50.5,57.6l0.2-0.3l0.3-0.5H54c-0.2,0.3-0.4,0.5-0.5,0.7
		c0,0-0.1,0.1-0.1,0.1H50.5z M51.3,56.5c0.2-0.2,0.3-0.5,0.5-0.8h2.9l-0.5,0.8H51.3z M52,55.4c0.1-0.1,0.2-0.3,0.3-0.5
		c0.6,0.3,1.3,0.4,1.9,0.4c0.2,0,0.5,0,0.7,0l-0.1,0.1L52,55.4z M52.5,54.7L52.5,54.7h2.8L55.1,55C54.2,55.1,53.2,55,52.5,54.7
		 M52.6,54.3l0.4-0.8h2.8l-0.4,0.8H52.6z M53.2,53.3l0.4-0.8h2.9L56,53.3H53.2z M53.7,52.1l0.3-0.8h2.8c-0.1,0.3-0.2,0.5-0.3,0.8
		H53.7z M54.2,51c0.1-0.3,0.2-0.5,0.3-0.8h2.8c-0.1,0.3-0.2,0.5-0.3,0.8H54.2z M54.6,49.9c0-0.1,0.1-0.3,0.2-0.4
		c0-0.1,0.1-0.2,0.1-0.4h2.8c-0.1,0.2-0.1,0.4-0.2,0.6c0,0.1,0,0.1,0,0.2H54.6z M55,48.8c0.1-0.2,0.1-0.5,0.2-0.8h2.8
		c-0.1,0.3-0.1,0.5-0.2,0.8H55z M55.3,47.7c0.5-0.2,1.1-0.5,1.5-0.8h1.4c0,0.3-0.1,0.5-0.2,0.8H55.3z M57.3,46.6
		C57.3,46.6,57.3,46.6,57.3,46.6c0.4-0.2,0.7-0.5,1-0.7h0.1c0,0.3-0.1,0.5-0.1,0.8L57.3,46.6z M58.1,45.5h-2.5
		c0-0.3,0.1-0.5,0.1-0.8h2.7c0,0.2,0,0.4-0.1,0.5L58.1,45.5 M55.8,41l-0.3,0.1h-0.9c0-0.3,0-0.5,0-0.8l1.2-0.8
		C55.8,39.9,55.7,40.4,55.8,41 M67.1,25.9L67,26l0,0C67.1,26,67.1,26,67.1,25.9 M43.5,15.2c0-0.6,0.3-1.1,0.7-1.4
		c1.4-0.4,2.9-0.6,4.4-0.7c0.6,0,1.2,0.1,1.8,0.3c0.5,0.3,12.4,7.1,12.4,8.6c0,0-0.1,0.3-0.1,0.4c0,0.1,2.8,1.2,2.8,1.7
		c0,0.2-0.3,0.2-0.4,0.2c-0.4,0-2.1-1.3-2.8-1.5h-0.5c0.1,0.1,0.2,0.2,0.3,0.3c0.9,0.5,1.9,1.5,2.8,1.6c0.8,0,1.5,0.3,2.2,0.8
		c-0.1,0-0.2,0-0.3,0l-0.7,0.3c-1-0.3-3.7-1.8-3.9-1.9c0,0,0,0,0,0.1c0,0.6,1.5,1.1,1.7,1.2c-0.1,0.1-0.2,0.1-0.3,0.1
		c-0.5-0.1-1-0.3-1.5-0.5c-0.2-0.1-0.4,0-0.6,0c-0.4-0.1-0.8-0.3-1.2-0.5c0-0.2,0-0.4,0-0.6c0,0,0-0.1,0-0.1
		c0.3,0.2,0.5,0.3,0.8,0.3h0.5c0,0,0,0,0-0.1c0-0.2-0.7-0.3-0.8-0.4c-0.3-0.2-0.6-0.5-0.8-0.7c-0.1,0-0.1,0-0.2,0
		c0,0.1,0.1,0.3,0.2,0.4l-0.1,0.1l-0.1,0.2l0,0c-0.1,0.1-0.2,0.3-0.3,0.4h-0.3c-0.3,0-0.1,0.2-0.5,0.2c-0.7,0-2-1.1-2.3-1.1
		s-0.4,0.2-0.5,0.2c-0.5,0-1.5-0.5-1.6-1.2c-0.1,0.2-0.2,0.2-0.3,0.2c-0.7,0-1.1-1.2-1.9-1.2c0-1.2-1.6-1.4-1.6-2.4
		c0-0.1,0.1-0.3,0.2-0.3c0.3,0,0.8,0.6,1.1,0.6s0.2-0.1,0.2-0.2c0-0.1-0.3-0.4-0.3-0.5c0-0.1,0-0.1,0.1-0.2c0.6,0.4,1.3,0.7,2,1
		c1,0.3,1.7,1.8,2.5,1.8c0.2,0,0.2-0.2,0.2-0.2c0-0.1,0-0.2-0.1-0.3c1.2,1.3,2.2,2.3,3.3,2.3c0.2,0,0.4,0,0.4-0.2
		c0-0.6-0.9-0.4-1-0.6c0.5-0.8-1.9-0.7-1.9-1.5c0-0.2,0.1-0.3,0.3-0.3c0,0,0,0,0,0c0.5,0,2.8,2.2,4,2.2c0.1,0,0.3,0.1,0.3-0.2
		c0-1-1.7-1.2-2.1-1.4c-0.6-0.2-1.1-0.5-1.5-0.9l-0.1-0.1c-0.3-0.7-0.1-1.7-1.2-1.7c-0.2,0-0.2,0.1-0.2,0.2c0,0.4,0.9,0.7,0.9,0.9
		c0,0.1,0,0.1,0,0.2c-0.6-0.4-1.5-1.3-2.1-1.3c-0.1,0-0.4,0.1-0.4,0.2s0.8,1.1,0.9,1.3c-0.5-0.1-1.2-0.1-1.6-0.6
		c-0.5-0.8-1.4-1.9-2.2-1.9c-0.1,0-0.2,0.1-0.4,0.1c0.3,0.2,0.7,0.4,1.2,0.7v0.1c-0.9-0.2-1.9-0.5-2.8-0.6c-0.2,0-0.3-0.2-0.5-0.4
		v-0.1h0.2c0.3,0,0.9,0.4,1.2,0.4c0.1,0,0.2,0,0.3-0.1c-0.1-0.3-0.6-0.6-0.7-1h0.2c0.1,0,0.7,0.2,0.8,0.2s0.2-0.1,0.2-0.1
		c0-0.3-0.8-0.6-0.8-0.7s0.1-0.1,0.1-0.1c0.7,0,2.7,1.8,3.4,1.8c0.1,0,0.4,0,0.4-0.2c0-0.7-1.7-1.2-1.9-1.3
		c-0.9-0.5-1.7-1.2-2.6-1.2s-0.2,1.2-0.9,1.2c-0.2,0-1.5-0.3-1.5-1c0-0.3,0.5-0.2,0.5-0.6c0-0.2-0.6-0.2-0.6-0.2
		c-0.4,0-0.5,0.8-1,0.8c-0.2,0-0.3,0-0.6-0.3c0.3-0.2,0.8-0.1,0.8-0.5c0-0.2-0.1-0.4-0.3-0.4c-0.4,0-1.4,0.9-1.6,0.9
		s-0.6-0.2-0.7-0.2c-0.1,0-0.5,0.2-0.5,0.4s0,0.1,0.1,0.1h0.8c0.1,0,0.2,0.1,0.3,0.1c0,0.5,0.5,0.7,0.5,0.9c0,0.2-0.8,0-0.8,0.4
		s1.2,0.2,1.2,0.7c0,0.2-0.7,0.3-0.7,0.5c0,0.2,0.4,0.4,0.4,0.6c0,0.4-0.9-0.1-0.9,0.3c0,0.1,0.2,0.4,0.2,0.5c0,0.3-0.5,0.5-0.6,0.5
		c-0.1,0-0.4,0-0.5-0.2c0.3-0.1,0.6-0.4,0.6-0.7c0-1.3-1.4-2.1-1.4-3.2 M44.3,21.5c0.2,0.2,0.2,0.5,0.3,0.7c0,0.2-0.2,0.8-0.5,0.8
		c-0.1,0-0.1-0.1-0.2-0.2C44.1,22.4,44.2,22,44.3,21.5 M42.6,18.2c-0.1,0.1-0.3,0.3-0.3,0.4l0,0c0.1-0.1,0.3-0.2,0.4-0.2
		c0.9,0,1.2,0.9,1.2,1.5c0,0.5-0.1,0.9-0.4,1.3c-0.1-0.2-0.1-0.3-0.2-0.5c-0.1,0.2,0,0.5,0,0.7l-0.1,0.1c-0.1-0.1-0.2-0.3-0.3-0.4
		c-0.1,0.2,0,0.5-0.3,0.7c0-0.2-0.1-0.3-0.2-0.5c-0.1,0.2-0.1,0.5-0.3,0.7c-0.1-0.2-0.1-0.4-0.1-0.6c0,0.3-0.2,0.6-0.4,0.8
		c0-0.2-0.1-0.5-0.2-0.7c0,0.1-0.1,0.3-0.2,0.4c-0.2-0.2-0.4-0.5-0.7-0.8c0.2-0.2,0.2-0.2,0.2-0.3c0-0.1-0.1-0.3-0.1-0.4
		c0.1-0.2,0.1-0.3,0.2-0.4l0,0c0,0-0.2,0.1-0.3,0.2c-0.2-0.2-0.4-0.4-0.6-0.6c0.2-0.1,0.3-0.2,0.4-0.2c-0.1,0-0.2-0.1-0.4-0.1
		c-0.1,0-0.2,0-0.3,0.1c0-0.1,0.4-0.5,0.6-0.5c0.1,0,0.3,1,0.5,1c0.4,0.1,0.7,0.4,0.9,0.4c0.4,0,0.4-0.3,0.4-0.5
		c0.1-0.3,0.2-0.5,0.3-0.7c-0.1-0.2-0.3-0.5-0.4-0.7C42,18.2,42.3,18.2,42.6,18.2 M39.8,16.2c0.2,0,0.8,0.3,0.8,0.6v0.6
		c0,0.4,1,1.3,1.3,1.6c-0.3,0.2-0.4,0.6-0.4,0.9c0,0-0.1,0-0.1,0.1c-0.2-0.2-0.5-0.4-0.8-0.3c0-0.5-0.4-1.8-1.3-1.8L38.7,18
		c-0.3-0.1-0.6-0.3-0.9-0.5c0.2-0.2,0.1-0.2,0.1-0.4s-0.1-0.3-0.1-0.4v-0.1C38,16.6,39.8,16.2,39.8,16.2 M15.9,25.2
		c-0.1,0-1,0.4-1.1,0.4s0,0-0.1,0v-0.2c0-0.4,1.2-0.9,1.2-0.9c1.5,0.2,2.8-1.2,3.7-1.7c0.1,0,0.1-0.2,0.2-0.3c0.1-0.1-0.1,0-0.2,0
		c-1.2,0-2.5,1.5-3.2,1.5c-0.1,0-0.3-0.1-0.4-0.1c0.6-0.9,1.6-1.2,2.4-1.7c0.7-0.6,1.2-1.6,2.1-2.2c2.6-1.9,5.2-3.6,8-5.2
		c0.9-0.5,1.9-0.9,2.8-1.3c1.1-0.5,2.2-0.8,3.4-0.8c0.7,0,3.4,0.3,3.4,1.8c0,0.3,0,0.6-0.2,0.8c-0.2,0-0.4,0.1-0.5,0.3
		c-0.3,0.1-0.5,0.1-0.5,0.6c0,0.1,0,0.2,0.1,0.3c-0.5,0.3-0.8,0.4-0.8,0.8c0.1,0.2,0.2,0.5,0.3,0.7c0,0.3-0.4,0.4-0.5,0.4
		s-0.3,0-0.3-0.2s0.4-0.4,0.4-0.6c0-0.2-0.7-0.3-0.7-0.4c0-0.6,1.2-0.3,1.2-0.8s-1-0.2-1.2-0.3c0.1-0.3,0.9-0.5,0.9-0.9
		c0-0.4-0.4-0.2-0.5-0.2c0.1-0.1,0.2-0.1,0.3-0.1l0.8,0.1c0.3,0,0.6,0,0.6-0.4s0-0.3-0.3-0.3c-0.3,0-0.5,0.4-0.7,0.4s-1.2-1-1.7-1
		s-0.3,0.3-0.3,0.4c0,0.3,0.7,0.4,0.8,0.5c-0.1,0.2-0.3,0.3-0.6,0.3c-0.5,0-0.5-0.8-1.2-0.8c-0.2,0-0.5,0.2-0.5,0.3
		c0,0.4,0.4,0.2,0.4,0.5c0,0.6-1.3,0.9-1.5,0.9c-0.7,0-0.1-1.2-1.1-1.2s-1.4,0.6-2.4,1.1c-0.7,0.4-1.7,0.4-2.1,1.3
		c0.2,0.2,0.2,0.2,0.4,0.2c0.5,0,3-1.7,3.4-1.7h0.2c0,0.1,0,0.1,0.1,0.1c-0.1,0.2-0.9,0.4-0.9,0.7c0,0.1,0,0.1,0.1,0.2
		c0,0,0,0,0.1,0c0.1,0,0.6-0.2,1-0.2c-0.2,0.3-0.4,0.7-0.7,1c0.1,0,0.2,0.1,0.3,0.1c0.4,0,0.7-0.3,1-0.3h0.4c-0.3,0.6-1,0.4-1.4,0.6
		c-0.5,0.1-1.2,0.4-1.8,0.5c0,0,0,0,0-0.1c0-0.1,1-0.6,1.2-0.7c-0.1-0.1-0.3-0.2-0.4-0.1c-0.6,0-1.7,1.2-2.1,1.9
		c-0.3,0.5-1,0.5-1.5,0.6h-0.1c0.1-0.3,1-1.1,1-1.3s-0.4-0.2-0.4-0.2c-0.7,0-1.4,1-2.1,1.2c0,0-0.1-0.1-0.1-0.1c0-0.4,1-0.5,1-1
		c0-0.2-0.1-0.2-0.2-0.2c-0.4,0-0.7,0.3-0.8,0.6c-0.1,0.1-0.1,0.3-0.1,0.4c0,1.7-4,1.5-4,3c0,0.2,0.2,0.1,0.3,0.1
		c1.4,0,3.5-2.1,4-2.1c0.2,0,0.3,0.1,0.3,0.3c0,0,0,0,0,0c0,0.7-1.7,0.5-2,1.5c-0.2,0.1-1,0-1,0.6c0,0.1,0,0.1,0.1,0.2h0.7
		c0.9,0,2.3-1.6,3-2.2c0,0.2,0,0.2,0,0.3c0,0.1,0.1,0.2,0.2,0.2c0.6,0,1.2-1,1.9-1.5c0.9-0.5,1.8-0.9,2.7-1.2c0,0,0.1,0,0.1,0.1
		s-0.4,0.3-0.4,0.5S29.9,19,30,19c0.4,0,0.7-0.6,1-0.6s0.3,0.2,0.3,0.3c0,0.8-1.2,1.1-1.6,1.9c-0.1,0.2,0,0.6-0.2,0.6
		c-0.2,0-0.2-0.1-0.3-0.1c-0.5,0-0.6,0.6-1.2,0.9c-0.2,0.1-0.4,0-0.6,0.1s-1.3,0.9-1.7,0.9c-0.1,0-0.5-0.2-0.6-0.2
		c-0.7,0.4-1.4,0.7-2.1,0.9c-0.4,0-0.3-0.3-0.7-0.3c-1.3,0.7-2.6,1.2-3.9,1.7c-0.2,0-0.2,0-0.5-0.2c0.6-0.2,1.2-0.6,1.6-1.2v-0.1
		l0,0c-1,0.6-2.1,1.1-3.2,1.6c-0.1,0-0.2-0.1-0.3-0.1 M19.8,29.4c-0.3,0.1-0.6,0-0.9-0.1l-2.7-3.2c1.4,0.6,3.7,1.5,3.9,1.6
		c0.2,0.1,0.1,0.2,0.1,0.4c0,0.2,0.1,0.4,0.2,0.6c2.4,2,5,4,7.7,6c0,0.1,0,0.1,0,0.2l-7.4-5.5l-0.2,0.2l3.8,2.8
		c0,0.3-0.1,1.6-0.1,2.5c0,0.6,0.1,1.3,0.1,1.8l-4.3-2.9v-1.3l0.3-3.1h-0.2L19.8,29.4 M26.2,33.7l1,0.7c0,0,0,0.1,0,0.1h-2.4
		c0-0.3,0-0.5,0-0.8H26.2z M24.7,33.4c0-0.3,0-0.5,0-0.7l1,0.7H24.7z M27.1,34.8c0,0.2,0,0.5,0,0.8h-2.4c0-0.2,0-0.5,0-0.7v-0.1
		H27.1z M27.1,35.9c0,0.2,0,0.5,0,0.8h-2.4c0-0.2,0-0.5-0.1-0.8H27.1z M27.1,37c0,0.2,0,0.4,0,0.6c0,0,0,0.1,0,0.1H26L24.8,37
		L27.1,37z M27.2,38.1c0,0.2,0.1,0.4,0.1,0.5l-0.8-0.5H27.2z M23.4,58.7c-2-2.5-3.4-5.5-4-8.7c-0.4-2.1-0.7-4.1-0.8-6.2v-6.2
		l0.3-3.3h-1.5c-0.3-0.2-1.9-2-3-3.4l4.2,1.5c0,0,0.1,0.2,0.1,0.3c0,0.2,0.1,0.3,0.2,0.5c0.2,0.2,0.5,0.4,0.8,0.5
		c0,0,0.1,0.1,0.1,0.1l0,0l8.5,5.8c0,0.1,0,0.2,0,0.3L19.4,34l-0.2,0.3l4.3,2.9c0,0.3,0,0.9,0.1,1.8c-1-0.8-2-1.7-2.9-2.7l-0.2,0.2
		c1,1,2,2,3.1,2.9c0.1,1.5,0.2,3.4,0.4,5.4c-1.2-1.7-2.1-3.6-2.6-5.7l0,0l-0.3,0.1c0.6,2.2,1.6,4.3,3,6.1c0.2,1.5,0.5,3,0.9,4.5
		c0.6,1.7,1.4,3.4,2.3,5c-0.6-0.1-1.2-0.3-1.7-0.6C21,52,20.2,38.7,20.1,38.6h-0.3c0,0.2,0.9,13.6,5.7,15.9c0.7,0.3,1.4,0.5,2.1,0.6
		c0.5,0.9,1,1.7,1.6,2.5c0.8,1.2,1.2,1.6,1.4,1.9c-0.2,0.1-0.3,0.1-0.5,0.2c-1.7,0.4-3.5,0.4-5.2-0.1L23.7,59
		C23.6,58.9,23.5,58.8,23.4,58.7 M30.9,62.6c-2.5-0.1-4.9-1.1-6.6-3l0.6,0.3c0.9,0.3,1.8,0.5,2.8,0.5c0.9,0,1.7-0.1,2.6-0.3
		c1.7-0.4,4.1-2.7,4.7-3.2c1,1.1,2.1,2.1,3.2,3C36,61.4,33.5,62.3,30.9,62.6 M37.6,66.3L37.6,66.3c-0.2,0-0.5,0-0.7,0h-1.1
		c-0.1,0-0.1,0-0.2,0c1.2-1.9,2.1-3.9,2.9-6c0.5,0.4,1,0.8,1.5,1.2c-0.3,2-0.7,4.9-0.8,5.2v0.1L39,66.9c-0.2-0.1-0.3-0.2-0.5-0.3
		c-0.3-0.1-0.6-0.2-1-0.2 M38.8,67.1L38.8,67.1L38.8,67.1c-0.1,0.1-0.3,0.1-0.4,0.2c-0.2,0.1-0.4,0.2-0.6,0.3l0.3-0.8
		c0.1,0,0.3,0.1,0.4,0.1C38.6,66.9,38.8,67,38.8,67.1 M39.5,68.5c-0.4,0-0.7,0-1.1,0c-0.2,0-0.7-0.2-0.7-0.3c0-0.1,0.1-0.2,0.1-0.3
		c0.2-0.2,0.5-0.3,0.7-0.3l0.3-0.2l0.1-0.1c0.3-0.1,0.4-0.3,0.5-0.6v-0.1c0.1-0.3,0.7-4,0.8-5.1l0.2,0.2c-0.1,2.2-0.3,5.5-0.5,6.6
		c-0.1,0-0.2,0.1-0.2,0.1C39.7,68.4,39.6,68.5,39.5,68.5L39.5,68.5z M40,68.7l-0.2,0.2L39.6,69v-0.2C39.7,68.8,39.8,68.8,40,68.7
		L40,68.7z M39.5,69.7L39.5,69.7c0-0.1,0.1-0.2,0.2-0.3l0.1-0.1c0-0.1,0.1-0.1,0.2-0.2c0.1-0.1,0.2-0.2,0.3-0.3h2.5c0,0,0,0.1,0,0.1
		c0.1,0.1,0.2,0.3,0.4,0.3c0.1,0,0.1,0.1,0.2,0.2l0,0c0.1,0.1,0.1,0.1,0.1,0.2H39.5z M43.1,68.8L43.1,68.8h0.2c0,0,0,0.1,0,0.3l0,0
		L43.1,68.8 M43.4,70.2c-0.5,0.3-1,0.4-1.6,0.3h-0.2c-0.6,0-1.6,0-2-0.5h3.8C43.5,70.1,43.5,70.1,43.4,70.2 M45.3,68.1
		c0,0.1-0.1,0.2-0.1,0.2c-0.5,0.3-1,0.4-1.6,0.3h-0.1h-0.4H43c0-0.2,0-0.4-0.1-0.7h2.2l0,0C45.2,68,45.2,68,45.3,68.1 M47,66.1h-0.4
		h-1.2h-0.1c-0.2,0-0.3,0-0.5,0c-0.3,0-0.7,0.1-1,0.2c-0.1,0-0.2,0.1-0.3,0.1c0,0,0,0,0-0.1v-0.1c-0.1-0.4-0.2-0.9-0.2-1.3h3.1
		C46.6,65.3,46.8,65.7,47,66.1 M46.2,64.7h-3c-0.1-0.6-0.2-1.2-0.3-1.9h2.4C45.6,63.4,45.9,64,46.2,64.7 M44.8,61.5l0.4,0.9H43
		c0-0.4-0.1-0.8-0.2-1.2c0.3-0.2,0.6-0.5,1-0.7h0.6c0.1,0.2,0.2,0.4,0.2,0.6L44.8,61.5z M52.1,62.5c-2.5-0.1-4.9-0.8-7-2.2
		c-0.2-0.1-0.3-0.2-0.5-0.3l0,0c0,0,0,0.1,0,0.1h-0.3l0,0c0,0,0,0,0,0.1h-0.2c1.3-1.1,2.6-2.3,3.8-3.5c0.5,0.5,2.9,2.8,4.7,3.2
		c0.9,0.2,1.7,0.3,2.6,0.3c0.9,0.1,1.9-0.1,2.8-0.4l0.7-0.3C57.1,61.4,54.6,62.5,52.1,62.5 M65.5,34.3h-1.3l0,0h-0.1v0.2l0.3,3v6.1
		c0,0.3-0.2,1.6-0.2,2.5c-0.1,0.5-0.1,0.8-0.1,0.9c-0.4,4.3-2,8.4-4.7,11.8c0,0-0.4,0.2-1.5,0.7c-1.7,0.5-3.5,0.6-5.2,0.1
		c-0.2,0-0.3-0.1-0.5-0.2c0.2-0.2,0.6-0.7,1.4-1.9c0.4-0.5,1-1.4,1.6-2.5c0.7-0.1,1.4-0.3,2.1-0.7c4.8-2.4,5.7-15.8,5.7-15.9h-0.3
		c0,0.1-0.9,13.4-5.5,15.7c-0.5,0.3-1.1,0.5-1.7,0.6c0.9-1.6,1.7-3.3,2.3-5c0.4-1.5,0.8-3,0.9-4.5c1.4-1.8,2.4-3.9,3-6.1L61.5,39
		h-0.2c-0.5,2-1.4,4-2.6,5.7c0.2-1.9,0.4-3.9,0.4-5.4c1.1-0.9,2.1-1.9,3.1-2.9l-0.2-0.2c-0.9,0.9-1.9,1.8-2.9,2.7
		c0-0.9,0.1-1.5,0.1-1.8l4.3-2.9L63.4,34l-8.7,5.9c0-0.1,0-0.2,0-0.3l8.5-5.7l0,0c0.6-0.3,1-0.8,1.2-1.4l2.2-0.8l1.9-0.7
		C68,31.5,65.9,33.9,65.5,34.3"/>
	<path d="M30.3,30.8h-0.1l0,0c-0.1,0.1-0.1,0.2-0.2,0.3c-0.1,0.1-0.3,0.1-0.5,0.1h-0.2l0,0V30c0-0.1,0-0.1,0-0.2l0.2-0.1l0,0v-0.1
		l-0.8,0.1v0.1h0.1c0,0,0.1,0,0.1,0c0,0,0,0,0,0.2v1.2c0,0.1,0,0.2,0,0.2l-0.2,0.1l0,0v0.1l1.5-0.2L30.3,30.8z"/>
	<path d="M30.6,29.6C30.6,29.6,30.6,29.6,30.6,29.6c0.1,0,0.1,0,0.2-0.1c0,0,0-0.1,0-0.1c0,0,0-0.1,0-0.1c0,0-0.1,0-0.1,0
		c0,0-0.1,0.1-0.1,0.1C30.6,29.4,30.6,29.4,30.6,29.6C30.6,29.5,30.6,29.6,30.6,29.6C30.6,29.6,30.6,29.6,30.6,29.6"/>
	<path d="M31.1,30.9L31.1,30.9c0,0-0.1,0-0.1,0c0,0,0,0,0-0.2v-1l0,0l0,0c-0.1,0.1-0.2,0.2-0.3,0.2h-0.1v0.1l0,0h0.1l0,0l0,0
		c0,0,0,0.1,0,0.1v0.6c0,0.1,0,0.2,0,0.2c0,0.1-0.1,0.1-0.2,0.1l0,0v0.1l0.7-0.3L31.1,30.9z"/>
	<path d="M31.1,29.3C31.1,29.3,31.1,29.3,31.1,29.3v1.5c0,0.1,0.1,0.1,0.2,0.1h0.1c0.1,0,0.2,0,0.2,0c0.2-0.1,0.4-0.2,0.5-0.4
		c0.1-0.2,0.2-0.4,0.2-0.6c0-0.1,0-0.3-0.1-0.4c-0.1-0.1-0.2-0.1-0.4-0.1c-0.1,0-0.2,0.1-0.3,0.2c0,0,0,0,0,0.1V29l0,0l0,0l0,0
		l-0.1,0.1l-0.3,0l0,0v0.1L31.1,29.3C31.1,29.3,31.1,29.3,31.1,29.3 M31.4,30c0-0.1,0-0.1,0.1-0.1c0.1,0,0.1-0.1,0.2-0.1h0.1
		c0.1,0,0.1,0,0.1,0.1C32,29.9,32,30,32,30.1c0,0.1,0,0.2-0.1,0.4c0,0.1-0.1,0.2-0.3,0.2c0,0-0.1,0-0.1,0c-0.1,0-0.1,0-0.1,0V30z"/>
	<path d="M32.8,30.5L32.8,30.5c0.2,0,0.4-0.1,0.5-0.2c0.1-0.1,0.2-0.2,0.2-0.3l0,0h-0.1l0,0c0,0.1-0.1,0.2-0.2,0.2
		c-0.1,0.1-0.1,0.1-0.2,0.1c-0.1,0-0.2,0-0.3-0.1c-0.1-0.1-0.1-0.2-0.1-0.4l0.8-0.1l0,0c0-0.1,0-0.3-0.2-0.4
		c-0.1-0.1-0.2-0.1-0.3-0.1c-0.2,0-0.3,0.1-0.4,0.3c-0.1,0.1-0.2,0.3-0.2,0.5c0,0.2,0,0.3,0.1,0.4C32.6,30.5,32.7,30.6,32.8,30.5
		 M32.7,29.5c0-0.1,0.1-0.2,0.2-0.2h0.1c0.1,0,0.1,0,0.1,0.1c0,0.1,0,0.1,0,0.1l-0.5,0.1C32.6,29.6,32.6,29.6,32.7,29.5"/>
	<path d="M34.4,30.3L34.4,30.3c-0.1,0-0.1,0-0.1,0s0-0.1,0-0.1v-0.6c0-0.1,0-0.1,0.1-0.1c0-0.1,0.1-0.1,0.1-0.1s0,0,0.1,0
		c0,0,0.1,0,0.1,0c0,0,0.1,0,0.1,0c0,0,0-0.1,0-0.1c0,0,0-0.1,0-0.1c0,0-0.1,0-0.1,0c-0.1,0-0.1,0-0.2,0.1l-0.1,0.1v-0.2l0,0l0,0
		h-0.1H34h-0.2v0.1h0.1c0,0,0,0,0.1,0.1c0,0.1,0,0.1,0,0.2V30c0,0.1,0,0.1,0,0.1h-0.1l0,0v0.2h0.7L34.4,30.3z"/>
	<path d="M34.7,29.3h0.1V30c0,0.1,0,0.1,0,0.2c0,0.1,0.1,0.2,0.2,0.2l0,0c0,0,0.1,0,0.1,0c0.1,0,0.1-0.1,0.1-0.1l0,0l-0.1-0.1l0,0
		h-0.1l0,0c0,0-0.1,0-0.1,0c0,0,0-0.1,0-0.1v-0.7h0.2v-0.2h-0.2v-0.3l0,0l0,0l0,0l0,0c0,0.1-0.1,0.2-0.2,0.2c0,0-0.1,0.1-0.1,0.1
		l0,0l0,0l0,0l0,0"/>
	<path d="M35.7,29.9c-0.1,0-0.2,0.2-0.2,0.3c0,0.1,0,0.2,0.1,0.2c0,0.1,0.1,0.1,0.2,0.1c0.1,0,0.1,0,0.2,0l0.1-0.1c0,0,0,0.1,0,0.1
		c0,0,0.1,0.1,0.1,0.1l0,0c0,0,0.1,0,0.1,0l0.1-0.1l0,0v-0.2h-0.1l0,0l0,0l0,0c0,0,0-0.1,0-0.1v-0.5c0-0.1,0-0.2,0-0.3
		c-0.1-0.1-0.2-0.2-0.3-0.2c-0.1-0.1-0.2-0.1-0.3,0c-0.1,0-0.1,0.1-0.1,0.2c0,0,0,0.1,0,0.1c0,0,0.1,0,0.1,0c0,0,0,0,0.1,0
		s0,0,0-0.1l0,0l0,0l0,0c0,0,0.1,0,0.1,0c0.1,0,0.1,0,0.1,0.1c0,0,0,0.1,0,0.2v0.1C35.9,29.8,35.8,29.9,35.7,29.9 M36,30.3
		C36,30.3,36,30.3,36,30.3c0,0.1-0.1,0.1-0.1,0.1c0,0-0.1,0-0.1,0c0,0,0-0.1,0-0.1c0-0.1,0-0.1,0.1-0.2c0.1,0,0.1,0,0.2,0L36,30.3z"
		/>
	<path d="M36.9,30.6L36.9,30.6c0,0,0.1,0.1,0.2,0.1c0.1,0,0.1,0,0.2,0l0,0v0.1l0,0h0.2h0.2v-0.1l0,0l0,0l0,0h-0.1c0,0,0-0.1,0-0.1
		v-1.2l0,0l0,0h-0.4v0.1h0.1l0,0l0,0v0.3l0,0c0,0-0.1-0.1-0.2-0.1c-0.1-0.1-0.3,0-0.3,0.1c-0.1,0.1-0.2,0.2-0.2,0.4
		c0,0.1,0,0.3,0.1,0.4C36.7,30.6,36.8,30.6,36.9,30.6 M36.9,29.9c0,0,0.1-0.1,0.1-0.1h0.1c0,0,0.1,0,0.1,0.1c0,0.1,0.1,0.1,0.1,0.2
		v0.5l0,0l0,0l0,0l-0.1-0.1c0,0-0.1-0.1-0.1-0.1c0-0.1-0.1-0.2-0.1-0.3c0-0.1,0-0.2,0.1-0.2"/>
	<path d="M50.5,30.8c0.1,0,0.2,0,0.2,0h0.1V31l0,0h0.2h0.2v-0.1h-0.1c-0.1,0-0.1,0-0.1-0.1c0-0.1,0,0,0-0.1v-1.6h-0.5v0.1h0.1h0.1
		c0,0,0,0.1,0,0.1v0.3l0,0c-0.1,0-0.1-0.1-0.2-0.1c-0.2,0-0.3,0-0.4,0.1c-0.1,0.1-0.2,0.3-0.2,0.5c0,0.2,0,0.3,0.1,0.5
		C50.3,30.7,50.4,30.8,50.5,30.8 M50.4,29.7c0-0.1,0.1-0.1,0.2-0.1h0.1c0.1,0,0.1,0,0.2,0.1c0.1,0.1,0.1,0.2,0.1,0.2v0.6
		c0,0,0,0,0,0.1c0,0-0.1,0-0.1,0c0,0,0,0,0,0c-0.1,0-0.2-0.1-0.3-0.2c-0.1-0.1-0.1-0.3-0.1-0.4C50.4,29.9,50.4,29.8,50.4,29.7"/>
	<path d="M52.7,30.6C52.7,30.6,52.7,30.6,52.7,30.6c0.1,0,0.1,0.1,0.1,0.1v0.7c0,0,0,0.1,0,0.1h-0.1v0.1l0.6,0.1v0l0,0h-0.1
		c0,0,0-0.1,0-0.1v-0.7c0,0,0.1-0.1,0.1-0.1c0,0,0.1,0,0.1,0c0.1,0,0.1,0,0.1,0.1c0,0.1,0,0.1,0,0.2v0.5c0,0.1,0,0.1,0,0.1
		s0,0-0.1,0l0,0v0.1l0.6,0.1v-0.1l0,0c0,0-0.1,0-0.1,0c0,0,0-0.1,0-0.1V31c0-0.1,0-0.3-0.2-0.4c0,0-0.1-0.1-0.2-0.1
		c-0.1,0-0.2,0-0.2,0c-0.1,0-0.1,0.1-0.1,0.1v-0.2l0,0h-0.1l-0.3,0.1l0,0v0.1h0.1L52.7,30.6z"/>
	<path d="M51.9,31.4h0.2c0.1,0,0.1,0,0.2,0c0.1-0.1,0.2-0.2,0.2-0.3l0,0L52.4,31l0,0c0,0.1-0.1,0.1-0.2,0.1c-0.1,0-0.1,0-0.2,0
		c-0.1-0.1-0.2-0.1-0.3-0.2c-0.1-0.1-0.1-0.3-0.1-0.4l0.8,0.3l0,0c0-0.2,0-0.3-0.1-0.4c-0.1-0.1-0.2-0.2-0.3-0.3
		c-0.1-0.1-0.3-0.1-0.4,0c-0.1,0.1-0.2,0.3-0.2,0.4c0,0.2,0,0.3,0.1,0.5C51.6,31.2,51.8,31.3,51.9,31.4 M51.7,30.2
		c0-0.1,0.1-0.1,0.2,0c0,0,0,0,0,0c0.1,0,0.2,0.1,0.2,0.2c0,0,0,0.1,0,0.1l-0.4-0.2C51.7,30.3,51.7,30.3,51.7,30.2"/>
	<path d="M47.9,30.5L47.9,30.5c0.2,0,0.4-0.1,0.6-0.2c0.2-0.2,0.3-0.4,0.3-0.7c0-0.3-0.1-0.5-0.3-0.7c-0.2-0.2-0.4-0.2-0.6-0.2
		c-0.2,0-0.4,0.1-0.6,0.2C47.1,29,47,29.3,47,29.5c0,0.3,0.1,0.5,0.2,0.7C47.5,30.4,47.7,30.5,47.9,30.5 M47.5,29
		c0.1-0.1,0.2-0.2,0.4-0.2l0,0c0.1,0,0.3,0.1,0.4,0.2c0.1,0.2,0.2,0.4,0.2,0.6c0,0.2,0,0.4-0.2,0.6c-0.1,0.1-0.2,0.2-0.4,0.2l0,0
		c-0.2,0-0.3-0.1-0.4-0.2c-0.1-0.2-0.2-0.4-0.2-0.6C47.4,29.4,47.4,29.2,47.5,29"/>
	<path d="M49.7,30.5L49.7,30.5c-0.1,0-0.1,0-0.2,0c0,0,0-0.1,0-0.2v-0.6c0-0.1,0-0.1,0.1-0.1c0-0.1,0-0.1,0.1-0.1l0,0
		c0,0,0.1,0.1,0.1,0.1c0,0,0.1,0,0.1,0c0,0,0,0,0-0.1c0,0,0-0.1,0-0.1c0,0-0.1-0.1-0.1-0.1c-0.1,0-0.1,0-0.2,0c0,0-0.1,0-0.1,0.1
		v-0.2l0,0l0,0h-0.1h-0.1H49v0.1h0.1c0,0,0,0,0.1,0c0,0.1,0,0.1,0,0.2v0.7c0,0.1,0,0.1,0,0.1s0,0-0.1,0H49v0.1l0.7,0.1L49.7,30.5z"
		/>
	<path d="M45.2,29.3C45.2,29.3,45.2,29.3,45.2,29.3l0.4,0.7l0,0c0,0.1,0,0.1-0.1,0.2c0,0.1-0.1,0.2-0.1,0.2h-0.2c0,0-0.1,0-0.1,0.1
		c0,0,0,0.1,0,0.1c0,0.1,0,0.1,0.1,0.1h0.1c0.1,0,0.2-0.1,0.2-0.2c0.1-0.1,0.1-0.3,0.2-0.4l0.4-1c0,0,0,0,0-0.1l0,0l0,0v-0.1
		L45.7,29v0.1h0.1l0,0l0,0l-0.2,0.6l-0.2-0.4l0,0l0,0l0,0h0.1l0,0v-0.1L45,29.4v0.1l0,0c0,0,0,0,0.1,0"/>
	<path d="M64.3,34.2l1.6-1.3l1-0.8c0.2-0.2,0.3-0.2,0.4-0.3l0,0c0.1-0.1,0.1-0.1,0.1-0.2l-0.1-0.2l-3.3,2L64.3,34.2z"/>
	<polygon points="15.4,31.8 18.7,34.2 18.8,33.5 15.4,31.4 	"/>
	<polygon points="20.2,28.4 17.1,26.5 17.1,26.9 20.6,29.4 	"/>
	<path d="M43.9,53.9h0.2v-0.1c0-0.2-0.1-0.3-0.1-0.5c0-0.2,0-0.3,0.1-0.5v-0.1h-0.7v-0.1c-0.1-0.2-0.1-0.3-0.1-0.5
		c0-0.2,0-0.4,0.1-0.5v-0.1h-0.3l0.3-0.1l-0.9-0.3l-0.1,0.4h-0.7v0.1c-0.1,0.4-0.1,0.7,0,1.1l0,0l0,0v-0.1c0-0.2-0.1-0.3-0.1-0.5
		c0-0.2,0-0.4,0.1-0.5v-0.1h-0.1l0.3-0.1l-0.9-0.3l-0.1,0.4h-0.8v0.1c-0.1,0.2-0.1,0.4-0.1,0.5c0,0.2,0,0.4,0.1,0.6l0,0h-0.9v0.1
		c-0.1,0.2-0.1,0.4-0.1,0.5c0,0.1,0,0.2,0,0.3h-1.6l0.3,0.8h0.4l0.5,0.7h5l1-1H44L43.9,53.9z M39.5,53.3c0-0.1,0-0.2,0-0.3h1
		c0,0.1,0,0.2,0,0.3c0,0.1,0,0.2,0,0.3h-1C39.5,53.5,39.5,53.4,39.5,53.3 M39.8,54.1l-0.1-0.1h0.2L39.8,54.1z M40.5,54.1h-0.3v-0.1
		h0.3V54.1z M40.5,52.4c0-0.1,0-0.2,0-0.3c0-0.1,0-0.2,0-0.3h1c0,0.1,0,0.2,0,0.3c0,0.1,0,0.2,0,0.3H40.5z M41.3,54.1H41v-0.1h0.3
		L41.3,54.1z M42,54.1h-0.3v-0.1H42V54.1z M42.1,53.5L42.1,53.5h-1c0,0,0-0.2,0-0.3v-0.2c0-0.1,0-0.2,0-0.2h1c0,0.1,0,0.2,0,0.3
		C42.1,53.3,42.1,53.4,42.1,53.5 M42.1,52.3c0-0.1,0-0.2,0-0.3c0-0.1,0-0.2,0-0.3H43c0,0.1,0,0.2,0,0.3c0,0.1,0,0.2,0,0.3H42.1z
		 M42.7,54h-0.3l0.1-0.3c0,0,0,0,0,0.1l0,0h0.2V54z M43.2,54v-0.1h0.3l0.1,0.1H43.2z M43.7,53.5h-1c0-0.1,0-0.2,0-0.3
		c0-0.1,0-0.2,0-0.3h1c0,0.1,0,0.2,0,0.3C43.7,53.3,43.7,53.4,43.7,53.5"/>
	<path d="M39,16.8L39,16.8c0.1,0,0.2,0,0.3-0.1c0,0.1,0.1,0.2,0.2,0.2c0.1,0,0.2-0.1,0.2-0.2c0,0,0-0.1-0.1-0.1c0,0,0.1,0,0.1,0
		v-0.1l-0.1-0.1c0-0.1-0.1-0.1-0.2-0.1c-0.1,0-0.3,0-0.4,0.1c-0.1,0-0.2,0-0.2,0h-0.2v0.1C38.8,16.7,38.9,16.7,39,16.8"/>
</g>
</svg>
