<svg id="Layer_1" data-name="Layer 1" xmlns="http://www.w3.org/2000/svg" viewBox="0 0 265.39 125.15"><defs><style>.cls-1{fill:#222221;}</style></defs><title>logo46snav2</title><path class="cls-1" d="M440.32,289.72c-1.75,0-5.06,1.59-5.62-1a16.73,16.73,0,0,1,0-3.32V282c0-2.07,0-4.14,0-6.21a7.14,7.14,0,0,0-.91-3.88,2.9,2.9,0,0,0-2.73-1.27,7.84,7.84,0,0,1-2.69.08,4.16,4.16,0,0,1-2.4-1.85c-1.82-3.1,1.86-6.48.53-9.75-.58-1.44-1.91-2.4-2.62-3.77a15.91,15.91,0,0,1-1.38-4.7c-.52-2.9-.8-6-2.53-8.55a34,34,0,0,0-3-3.14,4.17,4.17,0,0,1-1.1-2.38,4.64,4.64,0,0,0-.64-2.33c-.82-1.11-2.38-1.13-3-2.46-.78-1.62-.2-3.48.39-5.06s1.47-3.32,1.3-5c-.16-1.55-1.6-2.38-2.85-3-2.9-1.55-6.26-2-9.11-3.7-2.41-1.41-3.93-4.84-6.86-5.27-1.75-.26-3.21,1-5,.71s-3.09-1.21-4.77-1.17a5.32,5.32,0,0,0-3.43,1.63,14.3,14.3,0,0,1-4.39,3.12,11,11,0,0,1-5.47.63,6.32,6.32,0,0,0-4.58.62,6.06,6.06,0,0,1-5.09.8,50.54,50.54,0,0,0-5-1.21,5.39,5.39,0,0,0-3.51.58c-1.5.87-2.41,1.73-4.18,1.29-2.91-.73-5.69-1.81-8.72-1.19a17.94,17.94,0,0,1-2.8.53,6.54,6.54,0,0,1-3.22-.9c-1.17-.56-2.46-1.19-3.78-.76s-2.2,2.91-3.83,2.21-2-2.7-3.62-3.41c-1.42-.64-2.75-.05-4.16.29-2,.47-2.82-.46-3.54-2.18s-1.44-4.19-3.69-4.6a4.64,4.64,0,0,0-3.25.88c-.61.37-1.19.81-1.81,1.17a5.9,5.9,0,0,1-3.14.71c-3.57.07-5.83,2.43-8.8,4.05-3.41,1.86-7.48,2.68-11.31,3.23-1.87.27-2.25-1.74-3.76-2.41a4.53,4.53,0,0,0-4.06.39c-2.72,1.62-4.08,5.56-5.29,8.29a30.51,30.51,0,0,0-1.86,5.21,20.08,20.08,0,0,0-.42,2.54,17.07,17.07,0,0,1-.19,3.44,13.8,13.8,0,0,0-.71,1.74c-.19,1,.2,2-.12,3.11-.47,1.59-1.57,2.88-1.73,4.57-.23,2.47,1.39,4.43,3,6.13,2.4,2.59,4.68,4.87,3.47,8.7a11.1,11.1,0,0,1-2.91,4.93,8.53,8.53,0,0,0-2.4,3.27c-.54,1.56-.46,3.27-1,4.84-.63,1.84-2.19,3.21-3.6,4.47-2.79,2.48-5.49,5-8.46,7.28a56.28,56.28,0,0,0-7.41,6.19c-1,1.08-1.65,2.42-2.62,3.51-1.42,1.59-4.34.84-6.24.85A63.36,63.36,0,0,0,226,294.9a57,57,0,0,0-11.59,3.38,9.34,9.34,0,0,0-3.89,2.71,18.53,18.53,0,0,0-2.38,4.51,17.47,17.47,0,0,0-1.36,4.63,8.72,8.72,0,0,0,1.08,5.08c.45,1,.79,1.46,0,2.42a5.74,5.74,0,0,1-1.36,1,17.57,17.57,0,0,1-2.26,1.22,34.56,34.56,0,0,1-6.18,1.57c-2.5.59-4.92,2.28-4.79,5a1,1,0,0,1-1.27.48,7,7,0,0,0-1.06-2.54,2.28,2.28,0,0,0-2.39-.93,2.25,2.25,0,0,0-1.31,2.53,4.75,4.75,0,0,0,1.59,2.59c.75.7,1.39,2.12,2.06,2.89l.37.31c1-1.4,3.24-.76,4.61-1.75a4,4,0,0,0,1.07-1.28c.53-.88.93-2.22.09-2.79-.43-.3-1.09-.29-1.34-.75-.09-.16-.11-.36-.2-.52a.56.56,0,0,0-.16-.18,6.76,6.76,0,0,1,3.61-1.74,29.07,29.07,0,0,0,5.58-1.41c2.36-1,6.28-2.85,5-6-.34-.86-.9-1.59-1.16-2.49a7.23,7.23,0,0,1,0-3.52,23.37,23.37,0,0,1,2.08-5.47,7.88,7.88,0,0,1,3.81-3.93,39.53,39.53,0,0,1,6-2.13,62.1,62.1,0,0,1,12.46-2.34c1.83-.14,3.66-.22,5.49-.2,1.66,0,3.71.47,5.3-.21,1.32-.56,2-1.83,2.76-3a18.65,18.65,0,0,1,3-3.31c2.61-2.33,5.52-4.3,8.23-6.51,1.35-1.1,2.62-2.27,3.88-3.47s2.76-2.34,4-3.68a9.09,9.09,0,0,0,2.08-3.46c.51-1.7.36-3.64,1.2-5.23.71-1.33,2.09-2.16,3-3.33a13.56,13.56,0,0,0,2.19-4.79c.78-3-.3-5.48-2.28-7.75-1.58-1.82-4.28-3.8-4.28-6.45,0-1.71,1.23-3.1,1.71-4.67a5.72,5.72,0,0,0,.2-2,3.38,3.38,0,0,1,.19-1.9c.13-.33.33-.61.43-.94a7.39,7.39,0,0,0,.16-2.25,15.86,15.86,0,0,1,.34-3.22,28,28,0,0,1,2.05-5.87,51.06,51.06,0,0,1,2.49-5c1-1.62,3.29-4,5.3-2.29.92.79,1.25,2,2.6,2.24,1.53.28,3.57-.42,5.08-.72a27.15,27.15,0,0,0,9.85-3.76c1.48-1,2.95-2.23,4.72-2.66s3.28,0,4.88-.72c1.25-.58,2.3-1.7,3.63-2.13,1.76-.56,2.58.86,3.16,2.24.78,1.86,1.46,4.22,3.76,4.59,1.56.25,2.9-.76,4.42-.73,1.83,0,2.57,2.36,3.92,3.28a2.76,2.76,0,0,0,3.34.08,8,8,0,0,0,1.13-1.2c1.12-1.19,2.22-.7,3.52-.09a8.39,8.39,0,0,0,4,1.1c1.85-.09,3.57-.89,5.45-.73a23.55,23.55,0,0,1,4.46,1,7.93,7.93,0,0,0,3.36.56c1.39-.21,2.28-1.3,3.52-1.84,1.63-.73,3.68,0,5.29.5a14.55,14.55,0,0,0,4.47.79,5.93,5.93,0,0,0,1.81-.35c.95-.35,1.7-1.12,2.66-1.43,1.54-.49,3.36.26,5,.19a12.37,12.37,0,0,0,4.77-1.22,14.39,14.39,0,0,0,3.71-2.77,5.12,5.12,0,0,1,2.07-1.4,5.26,5.26,0,0,1,2.92.39,8.38,8.38,0,0,0,4.15.69c.79-.14,1.49-.57,2.27-.71a3.25,3.25,0,0,1,2.81,1.13c1.07,1,1.93,2.19,3.09,3.1a16.37,16.37,0,0,0,4.38,2.25c1.38.51,2.79.92,4.16,1.46a15.3,15.3,0,0,1,2.57,1.26c1.42.89,1.46,2.08,1,3.61-.83,2.74-2.58,5.6-1.17,8.49.66,1.36,1.69,1.48,2.77,2.33.82.64.67,1.52.82,2.41a4.91,4.91,0,0,0,.95,2.18c.83,1.12,2,1.92,2.87,3a10.78,10.78,0,0,1,2.07,4.79c.63,2.88.77,5.9,2.05,8.6.7,1.48,2.32,2.64,2.79,4.17s-.49,3.47-.91,5.05c-.76,2.88.2,5.79,3.11,7,1.43.59,2.46.08,3.89.15,2.17.09,1.91,3.34,1.91,4.83v5.92a37.5,37.5,0,0,0,.06,6.36c.63,3.55,4.7,2,7,2A.74.74,0,0,0,440.32,289.72Z" transform="translate(-175.64 -206.63)"/><path d="M175.64,241.57V226.94h2.14v14.63Z" transform="translate(-175.64 -206.63)"/><path d="M189.15,241.57l-3.39-7.5a.56.56,0,0,0-.52-.31.58.58,0,0,0-.57.6v7.21h-2.16V226.94h2.16l3.39,7.5a.57.57,0,0,0,.51.31.58.58,0,0,0,.58-.6v-7.21h2.16v14.63Z" transform="translate(-175.64 -206.63)"/><path d="M201.71,241.57l-.19-.84a.66.66,0,0,0-.66-.51h-2.77a.68.68,0,0,0-.68.51l-.18.84h-2.14l3.31-14.63h2.14l3.33,14.63Zm-1-4.36-.57-2.5a.72.72,0,0,0-.68-.56.71.71,0,0,0-.68.56l-.58,2.5a.52.52,0,0,0,0,.17.69.69,0,0,0,.7.68h1.17a.69.69,0,0,0,.68-.68A.52.52,0,0,0,200.72,237.21Z" transform="translate(-175.64 -206.63)"/><path d="M212,241.57a4.4,4.4,0,0,1-4.4-4.4V226.94h2.15v10.23a2.25,2.25,0,1,0,4.49,0V226.94h2.16v10.23A4.41,4.41,0,0,1,212,241.57Z" transform="translate(-175.64 -206.63)"/><path d="M225.41,241.57H221v-2.14h.78V229.07H221v-2.13h4.4a4.4,4.4,0,0,1,4.4,4.39v5.84A4.41,4.41,0,0,1,225.41,241.57Zm2.24-10.24a2.24,2.24,0,0,0-2.24-2.26H224v10.36h1.46a2.23,2.23,0,0,0,2.24-2.26Z" transform="translate(-175.64 -206.63)"/><path d="M234.14,241.57V226.94h2.14v14.63Z" transform="translate(-175.64 -206.63)"/><path d="M245.82,229.07v12.5h-2.14v-12.5h-3.31v-2.13h8.78v2.13Z" transform="translate(-175.64 -206.63)"/><path d="M257,241.57a4.4,4.4,0,0,1-4.38-4.4v-5.84a4.39,4.39,0,1,1,8.78,0v5.84A4.4,4.4,0,0,1,257,241.57Zm2.26-10.24a2.25,2.25,0,1,0-4.5,0v5.84a2.25,2.25,0,1,0,4.5,0Z" transform="translate(-175.64 -206.63)"/><path d="M284.87,241.57v-7.81a.68.68,0,0,0-.67-.68.69.69,0,0,0-.64.45l-.93,2.35-.92-2.35a.68.68,0,0,0-1.32.23v7.81h-2.16V226.94h2.16l2.24,5.73,2.24-5.73H287v14.63Z" transform="translate(-175.64 -206.63)"/><path d="M297.43,241.57l-.18-.84a.66.66,0,0,0-.66-.51h-2.77a.68.68,0,0,0-.68.51l-.19.84h-2.14l3.31-14.63h2.14l3.33,14.63Zm-1-4.36-.58-2.5a.71.71,0,0,0-.68-.56.72.72,0,0,0-.68.56l-.57,2.5a.52.52,0,0,0,0,.17.69.69,0,0,0,.7.68h1.17a.69.69,0,0,0,.68-.68A.52.52,0,0,0,296.45,237.21Z" transform="translate(-175.64 -206.63)"/><path d="M307.36,241.57a4.4,4.4,0,0,1-4.38-4.4v-5.84a4.39,4.39,0,1,1,8.78,0h-2.14a2.25,2.25,0,1,0-4.5,0v5.84a2.25,2.25,0,1,0,4.5,0v-1.85h-2.26v-2.13h4.4v4A4.4,4.4,0,0,1,307.36,241.57Z" transform="translate(-175.64 -206.63)"/><path d="M320.35,241.57H316v-2.14h.78V229.07H316v-2.13h4.4a4.4,4.4,0,0,1,4.4,4.39v5.84A4.4,4.4,0,0,1,320.35,241.57Zm2.24-10.24a2.23,2.23,0,0,0-2.24-2.26h-1.46v10.36h1.46a2.23,2.23,0,0,0,2.24-2.26Z" transform="translate(-175.64 -206.63)"/><path d="M334.76,241.57l-.18-.84a.67.67,0,0,0-.66-.51h-2.78a.69.69,0,0,0-.68.51l-.18.84h-2.14l3.31-14.63h2.14l3.33,14.63Zm-1-4.36-.57-2.5a.69.69,0,0,0-1.36,0l-.57,2.5a.52.52,0,0,0,0,.17.69.69,0,0,0,.7.68h1.17a.69.69,0,0,0,.68-.68A.36.36,0,0,0,333.77,237.21Z" transform="translate(-175.64 -206.63)"/><path d="M340.93,241.57V226.94h2.14v12.49h6.64v2.14Z" transform="translate(-175.64 -206.63)"/><path d="M353.43,241.57V226.94h8.79v2.13h-6.64v4.12h4.69v2.13h-4.69v4.11h6.64v2.14Z" transform="translate(-175.64 -206.63)"/><path d="M372.81,241.57l-3.39-7.5a.55.55,0,0,0-.52-.31.58.58,0,0,0-.57.6v7.21h-2.16V226.94h2.16l3.39,7.5a.57.57,0,0,0,.51.31.58.58,0,0,0,.58-.6v-7.21H375v14.63Z" transform="translate(-175.64 -206.63)"/><path d="M385.37,241.57l-.19-.84a.66.66,0,0,0-.65-.51h-2.78a.68.68,0,0,0-.68.51l-.18.84h-2.14l3.31-14.63h2.14l3.33,14.63Zm-1-4.36-.57-2.5a.72.72,0,0,0-.68-.56.71.71,0,0,0-.68.56l-.58,2.5a.52.52,0,0,0,0,.17.69.69,0,0,0,.7.68h1.17a.69.69,0,0,0,.68-.68A.52.52,0,0,0,384.38,237.21Z" transform="translate(-175.64 -206.63)"/><path d="M248.21,267v2.18h-2.16V267H240.4v-2.16l6.64-10.3h2.14L243,264.11a.44.44,0,0,0-.1.29.48.48,0,0,0,.49.47h2.63v-2.18h2.16v2.18h1V267Z" transform="translate(-175.64 -206.63)"/><path d="M256.82,269.21a4.41,4.41,0,0,1-4.38-4.4V259a4.39,4.39,0,1,1,8.78,0h-2.14a2.25,2.25,0,1,0-4.5,0v1.44a.41.41,0,0,0,.39.39.72.72,0,0,0,.19,0,4,4,0,0,1,1.66-.33,4.39,4.39,0,1,1,0,8.78Zm0-6.64a2.25,2.25,0,1,0,2.26,2.24A2.25,2.25,0,0,0,256.82,262.57Z" transform="translate(-175.64 -206.63)"/><path d="M282.66,269.21a4.43,4.43,0,0,1-4.38-3.91h2.18a2.27,2.27,0,0,0,2.2,1.77,2.25,2.25,0,0,0,.43-4.46l-1.64-.29a3.91,3.91,0,0,1,.72-7.75h.49a4.41,4.41,0,0,1,4.36,3.91h-2.18a2.23,2.23,0,0,0-2.18-1.77h-.49a1.75,1.75,0,0,0-1.75,1.77,1.67,1.67,0,0,0,1.3,1.68l1.64.33a4.39,4.39,0,0,1-.7,8.72Z" transform="translate(-175.64 -206.63)"/><path d="M297.58,269.21l-3.39-7.51a.56.56,0,0,0-.51-.3.58.58,0,0,0-.58.59v7.22h-2.16V254.57h2.16l3.4,7.5a.54.54,0,0,0,.51.31.57.57,0,0,0,.57-.59v-7.22h2.16v14.64Z" transform="translate(-175.64 -206.63)"/><path d="M310.14,269.21l-.18-.84a.67.67,0,0,0-.66-.52h-2.77a.69.69,0,0,0-.68.52l-.19.84h-2.14l3.31-14.64H309l3.33,14.64Zm-1-4.36-.58-2.51a.7.7,0,0,0-.68-.55.69.69,0,0,0-.67.55l-.58,2.51a.44.44,0,0,0,0,.16.69.69,0,0,0,.7.68h1.17a.69.69,0,0,0,.68-.68A.44.44,0,0,0,309.16,264.85Z" transform="translate(-175.64 -206.63)"/></svg>