<?xml version="1.0" encoding="utf-8"?>
<!-- Generator: Adobe Illustrator 24.3.0, SVG Export Plug-In . SVG Version: 6.00 Build 0)  -->
<svg version="1.0" id="Capa_1" xmlns="http://www.w3.org/2000/svg" xmlns:xlink="http://www.w3.org/1999/xlink" x="0px" y="0px"
	 viewBox="0 0 264.5 402" style="enable-background:new 0 0 264.5 402;" xml:space="preserve">
<style type="text/css">
	.st0{fill:#0600F9;}
</style>
<path class="st0" d="M253.5,228.2c-1.3-2.9-1.7-4.4-5-18s-3.4-13.9-4-15c-4.3-8.1-9.2-8.1-11-15c-1.3-4.9,1.2-5.2,0-12
	c-0.5-2.8-0.8-2.4-5-14c-1.8-5-2.4-7.1-3-9c-1.1-4-1.2-5.3-2-8c-1.6-5.9-3.4-8.2-5-12c-4.1-9.8,0.4-12.1-3-24c-2.1-7.3-3.8-6.6-6-15
	c-1.7-6.7-1.1-8.7-3-14c-2-5.6-4.7-8.5-8-13c-8.5-11.6-11.9-18-13-23c-0.6-2.6-1-5.8-3-10c-2.5-5.3-5.3-7.5-6-8
	c-2.4-1.8-4.7-2.6-6-3c-5.3-1.7-7.6-0.2-12-1c-5.6-1-5.6-3.9-11-6c-8-3.1-16.4,0.2-22.5,2.5c-6.5,2.5-10.8,5.8-15,9
	c-3.7,2.8-6.4,5.5-12,11c-7.2,7.1-10.8,10.7-15,16c0,0-1.1,1.4-10,14c-6.5,2.8-10,6.3-12,9c-1.2,1.5-2.1,3.3-5,7c-2,2.7-3.3,4.4-5,6
	c-3.5,3.5-7,5-9,6c-6.7,3.5-10.8,9-19,20c-2.6,3.4-5.7,7.7-9,14c-5.5,10.6-7.5,19.1-9,26c-0.8,3.7-2.3,11.5-1,12
	c0.8,0.3,1.7-2.4,5.5-6.5c3.4-3.7,4.5-3.5,6-6c2.1-3.5,0.7-5.2,2-9c1.9-5.5,7-8.6,11-11c6.6-4,9.9-3.1,12-7c1.1-2.1,0.9-3.9,3-6
	c1.4-1.4,4.1-3.3,5.5-2.5c0,0,0,0,0.1,0c0.3,0.2,0.7,1.5-2.1,12c-2.1,7.8-3.1,10.1-5,17c-1.9,7-2.8,10.5-3,15c-0.2,4.3,0.3,7.6,1,12
	c0.8,5.6,1.3,5.8,3,14c1.7,8.5,3,17,3,17c1.8,3.3,2.1,6.1,2,8c-0.1,3-1.4,5.7-4,11c-2.3,4.7-2.9,5.2-4,8c-1.4,3.6-1.8,6.8-2,9
	c0.7-1.5,1.2-2.7,1.5-3.5c0.4-1,0.5-1.4,1-2c0.8-0.9,1.8-1.3,2.5-1.5c0.1,3.1-0.7,5.2-1.5,6.5c-0.9,1.4-1.9,2.3-2,4
	c-0.1,1.2,0.3,1.8,0,3c-0.3,1.1-1,2-1.5,2.5c0.8-0.2,1.7-0.3,2.5-0.5c0.5-0.7,1.2-1.7,2-3c1.8-2.9,2.1-4.6,2.5-4.5
	c0.7,0.1-1,6.1,0,14c0.5,3.9,1,4.2,1,7c-0.1,4.6-1.7,6.3-3,11c-1.1,3.9-0.5,4.6-1,15c-0.2,3.1-0.4,7.5-1,13l1,12l4-22l-2,29v11l3-20
	l3-17l3-8l3-8c1.5-2.5,3-5,4.5-7.5c0.3-1,0.8-2.5,2-4c0.7-0.9,1.4-1.5,2-2c1-0.3,2-0.7,3-1c0.4,1.1,0.8,2.5,1,4
	c0.4,2.5,0.4,4.8,0.2,6.5c-0.1,1.8-0.1,3.7-0.2,5.5l-1,5l-0.4,3.5l-0.6,5.5l7-14l3-2l4.2,3.1l2.8,7.9c1.2,1.7,2.8,4.4,4,8
	c1.2,3.5,0.8,4.7,2,10c1,4.3,2.2,7.6,3,10c1.3,3.5,1.6,3.9,4,10c1.8,4.7,2.8,7,3,8c1.4,5.4,0.7,9.9,0,15c-0.9,5.9-1.5,5.7-3,13
	c-1.6,7.7-2.3,11.7-2,17c0.4,6.3,1.9,7.5,2,15c0.1,5.1-0.6,7.9,0,8c1,0.2,5-7.1,6-16c0.6-5.2-0.3-7.2,1-13c0.8-3.6,2.6-9.1,4-9
	c2,0.2,2.4,12,3,12c0.3,0,0.1-2.7,1-7c0.4-2,0.8-3.9,2-6c0.8-1.4,1.1-1.4,3-4c1.5-2,3-3.9,4-6c1.3-2.7,1.1-3.8,2-7
	c1.3-4.8,2.4-4.3,7-14c1.1-2.4,2.4-4.6,3.4-7c0.8-1.8,1.3-3,1.6-3c0.7,0.2-2,7.1,1,13c1.3,2.6,2,1.7,5,6c2.8,4.1,5,9,5,9
	c0.7,4.1,2,7.1,3,9c1.7,3.4,2.8,3.9,4,7c1.7,4.5,1.2,7.9,2,8c0.7,0.1,1.6-2.8,2-5c0.4-2.4,0.1-3.9,0-7c-0.2-4,0.1-3.9,0-7
	c-0.3-7.4-2.2-10.1-1-11c1.5-1.1,5.6,1.6,8,4c2.8,2.7,1.8,3.5,5,7c2.7,3,4.7,3.8,7,7c1.2,1.6,2.2,3.1,2.2,3.1
	c0.8,1.2,1.8,2.9,1.8,2.9c2.2,5.9,2.8,7.1,3,7c0.5-0.2-3.4-11.4-2-12c0.9-0.4,3.9,4.2,5,6c3.3,5.3,4.6,9.1,5,9s-0.7-4.2-2-12
	c-0.1-0.6-0.5-3.4-1-7c-0.5-3.7-0.7-6.8-1-10c-0.7-8.7-1-13-1-15c0.2-9.7,2.7-9.8,3-20c0.2-6.5-0.8-7.3,0-13c0.3-2.3,1.2-7.8,5-13
	c1.4-1.9,3-4.2,5-4c2.8,0.2,4.2,5.3,5,5s-0.5-5-1-12c-0.2-2.2-0.4-5.9,0-10c0.5-5.1,1.7-7,3-12c3-11.4,1.5-18.8,3-19s3.6,7.7,4,9
	c1.8,6.5,1.6,11,2,11c0.5,0,1-9.6,2-27c0,0,0-0.6,1-10c0.8-8.2,1.1-9.7,2-10c2-0.6,5.7,4.7,7,9c0.9,2.9,1,6,1,6c0.1,1.6-0.1,1.9,0,3
	c0.2,3.3,2,4.9,3,7c2.7,5.6-1.1,11.5,0,12c1,0.4,5.2-4,5-9c-0.1-3.1-1.8-3.4-3-8s0.3-5.1-1-9c-1.3-4.1-3.1-4.1-4-8
	c-0.3-1.2-0.2-1.7,0-7c0.4-8.6,0.4-9.8,1-10c1.1-0.3,2.2,2.9,7,9c3,3.9,3,3.2,5,6c1.9,2.6,5.3,7.4,7,14c1,4,0.5,5.2,2,8
	c0.5,0.9,1.1,1.7,5,6c3.8,4.1,5.7,6.2,6,6C260.9,239.9,256.8,235.4,253.5,228.2z M141.5,76.2c-5.6,5.5-15,2.8-18,2
	c-2.5-0.7-7.7-2.2-8-5s4.1-5.6,8-8c3.6-2.2,3.4-1.5,8-4c2.5-1.4,3.5-2.3,5-2c1.3,0.2,1.4,1.1,4,3c3,2.2,3.4,2.1,4,3
	C146.3,67.8,144.6,73.1,141.5,76.2z M181.5,61.2c6.8,1.3,7.3,1.3,8,2c2.2,2.2,1.8,6.9,0,10c-1.6,2.7-4.6,5-8,5c-2.9,0-5-1.6-8-4
	c-2-1.6-3.3-3.1-4-4c-1.6-2-2.6-3.2-3-5c-0.1-0.4-1-4.5,1-6c1.5-1.1,2.9,0.3,9,1C179,60.5,180.5,61,181.5,61.2z"/>
</svg>
