<?xml version="1.0" encoding="utf-8"?>
<!-- Generator: Adobe Illustrator 26.3.1, SVG Export Plug-In . SVG Version: 6.00 Build 0)  -->
<svg version="1.1" id="Capa_1" xmlns="http://www.w3.org/2000/svg" xmlns:xlink="http://www.w3.org/1999/xlink" x="0px" y="0px"
	 viewBox="0 0 400 400" style="enable-background:new 0 0 400 400;" xml:space="preserve">
<style type="text/css">
	.st0{fill:#1400C6;}
	.st1{fill:#0000FF;}
</style>
<path class="st0" d="M-1975.8,446.5c-0.3-1.4,2.8-2.2,3.7-5.5c0.6-2.3,0-5.5,0-5.5c-2.4-4.2-6.9-5.3-9.2-3.7c-1.5,1-2.1,3.3-1.8,5.5
	c-1.4,0.4-3.5,0.8-5.5,0c-0.7-0.2-1.2-0.6-1.6-0.9c0.4-1.2,0.8-2.8,1.6-4.6c3.7-8.1,10-7.1,16.6-16.6c2-2.9,5.3-7.6,3.7-11
	c-1.5-3.2-5.8-2.2-7.4-5.5s1.1-8.1,3.7-12.9s4.2-5.6,3.7-7.4c0,0-0.5-1.8-11-5.5c0,0-4.9,6.8-9.2,12.9c-10.8,15.4-10.9,15.5-11,16.6
	c-1.4,8.3,4.2,14.7,1.8,16.6c-1.3,1-4.5-0.6-7.4-1.8c-3.9-1.7-10-2.3-22.1-3.7c-12.7-1.4-19.8-1.4-27.6-1.8
	c-6.4-0.4-11.2-1-42.3-7.4c-12.6-2.6-27.4-5.6-44.2-9.2l-19.1-2.4c-7-1.5-13.1-2.7-18.2-3.7h0.1l15-34.3l0,0
	c6.3,0.5,12.1,1,18.6,1.7c6.3,0.7,12.3,1.5,19.2,2.5l-15.3-2l-15.5,36.3l15.2,1.9l15.6-36.1c8.1,1.2,17.5,2.7,30.4,4.9
	c39.6,6.5,59.4,9.7,62.6,11c2.4,1,15.3,6.5,31.3,5.5c4.9-0.3,9.2-1.1,9.2-1.8c0-0.7-4.7-1-16.6-3.7l0,0c-15.3-3.2-22.5-4.2-40.5-7.4
	c-27.4-4.8-26.1-5.3-40.5-7.4c-12-1.7-11.4-1.2-31.3-3.7c-27.3-3.4-25.2-4-40.5-5.5c-21.1-2.1-24.3-0.9-40.5-3.7
	c-9.8-1.7-11.4-2.6-20.2-3.7c-10.9-1.3-13.8-0.5-29.4-1.8c-10.9-0.9-10.4-1.4-18.4-1.8c-8.9-0.5-12.2-0.1-25.8,0
	c-21.1,0.2-20.6-0.7-29.4,0c-13.1,1-27.7,4-27.6,5.5c-0.8,1.1,6.1,8.9,40.5,38.6c8.3,1.9,21,4.6,36.8,7.4c17,3,27.6,4.3,49.7,7.4
	c0,0,26.9,3.8,49.7,7.4c37.5,5.9,34.2,7.2,86.5,16.6c72.6,13.1,78.9,10.6,86.5,14.7c0.4,0.2,1.4,0.8,2.5,1.3
	c-1.6,1.8-3.3,4.2-2.5,6.1c1,2.4,5.4,2.1,5.5,3.7c0.2,1.7-5.2,2.5-5.5,5.5c-0.2,1.7,1.3,3.2,1.8,3.7c2.2,2.1,5,1.9,5.5,1.8
	c1.2-1.2,2.5-2.5,3.7-3.7c2.4-2,3.3-2.1,3.7-1.8c0.5,0.3,0.3,1.3,0,5.5c-0.2,3-0.2,3.3,0,3.7c1.3,2.3,7.4,2.5,9.2,0
	c1.8-2.4-0.7-7.1,0-7.4c0.3-0.1,0.7,1,1.8,1.8c1.9,1.4,5.2,1.8,7.4,0c1.5-1.3,1.8-3.2,1.8-3.7c0.4-3-1.5-5.2-1.8-5.5
	C-1974.5,448.1-1975.6,447.3-1975.8,446.5z M-2308.8,365.6c-22.2-4.2-36.9-16.3-42.1-19.5c12.3,1.6,79-2.8,130.5,3
	c1.3,0.1,3.4,0.4,6.3,0.7l0,0l-19,27.2c-18-5.3-20.2-7.2-29.6-9.5C-2285.2,362-2288.4,369.4-2308.8,365.6z M-2227.9,378.4
	c-1.9-0.5-3.7-1.1-5.3-1.5l19,3.5l19-28.6c6.4,0.6,11.8,1.2,16.6,1.6l0,0l-16.6,32.6l0,0c-3.5-0.6-6.3-1.1-10.6-2
	C-2210.3,383-2217,381.5-2227.9,378.4z M-1983.2,450.2c-2.1,1.5-4.6,0.4-5.5,0c-0.8-0.3-3.3-1.4-3.7-3.7c-0.4-2.1,1.1-4.4,3.7-5.5
	h3.7c0.2,0.1,2.9,0.9,3.7,3.7C-1980.8,446.7-1981.4,449-1983.2,450.2z"/>
<path class="st1" d="M376.8,193.7c-0.4-8.2-0.8-15.6-5.4-23.9c-1.6-2.8-5.8-10.2-14.7-15.4c-11.5-6.7-22.9-5.4-27-4.6
	c-4.1,0.7-11.7,2.1-17.8,8.5c-4.7,5-6.2,10.6-6.6,12.4c-2.5,11,3.3,17.5-0.3,21.6c-2.1,2.3-5.5,1.9-11.6,1.5
	c-25-1.5-24.8-0.2-27.9-0.6c-10.3-1.2-18-3.2-20.4-3.8c-21.8-5.5-53.5-12.8-64.4-15.1c-45.6-9.5-83.3-5.6-85-15.8
	c-0.4-2.4,0.3-4.8,1.6-14.1c0.9-6.6,1.4-8.9,0-10c0,0-1.3-1.1-12.4,2.3c0,0,0,0,0,0c-0.4-1.6-1.9-7.4-0.7-9.8
	c1.9-3.9,10.8,0.5,15.4-4.1c2.3-2.3,2.3-5.6,2.3-12.4c0-7.4,0.1-11.3-2.3-13.9c-3.7-4.1-9.3-0.7-24.4-0.5
	c-15.6,0.2-21.1-3.3-26.6,1.3c-4,3.4-5.1,8.7-5.4,10c-0.5,2.4-1.9,9,1.5,12.4c4,3.9,10.7-0.5,14.7,3.9c1.7,1.8,2.5,4.9,1.5,7
	c-1.2,2.6-4.4,1.7-7,4.6c-2.9,3.3-1,6-3.1,8.5c-4.2,5.1-15.4-2.9-22.4,2.3c-4.1,3-5.9,8.8-5.4,13.1c0.1,1,0.3,1.6,3.1,7.7
	c2.9,6.5,4.4,9.8,4.6,10c3.6,3.7,8.4,2,21.6,3.1c4.6,0.4,9.3,1.1,13.9,1.5c19.6,2,45.2,8.3,76.5,15.4c16,3.6,22.7,5.3,34.8,7.7
	c7,1.4,11.3,2.2,26.4,4.8c54.6,9.7,82,14.6,82.6,14.5c2.2-0.3,9.8-1.8,13.9,2.3c1.4,1.4,2.3,3.2,3.9,7c2,4.7,2.5,7,3.1,8.5
	c3.1,7.7,15.1,11.5,23.9,11.6c8.2,0,14-3.2,19.3-6.2c4.3-2.4,14.3-8.2,20.9-20.1C377.8,215.3,377.3,204.3,376.8,193.7z M355.2,213
	c-1.6,3.2-7.7,15.3-20.2,19.2c-2.8,0.9-7,2.1-11.4,0.1c-3.3-1.5-6.6-4.6-7.3-8.6c-0.6-3.5,1.2-5,4.2-12.5c2.6-6.6,4-10.4,3.9-15.1
	c-0.1-7.5-3.9-8.6-3.1-14.4c0.8-5.1,4.6-9.7,9.2-11.9c8.7-4.1,17.3,1.5,18.5,2.3c10.4,6.8,10.7,20.3,10.8,23.2
	C360,203.3,357.1,209.2,355.2,213z"/>
</svg>
