<?xml version="1.0" encoding="utf-8"?>
<!-- Generator: Adobe Illustrator 24.3.0, SVG Export Plug-In . SVG Version: 6.00 Build 0)  -->
<svg version="1.1" id="Capa_1" xmlns="http://www.w3.org/2000/svg" xmlns:xlink="http://www.w3.org/1999/xlink" x="0px" y="0px"
	 viewBox="0 0 25 25" style="enable-background:new 0 0 25 25;" xml:space="preserve">
<style type="text/css">
	.st0{fill:#001FFF;}
</style>
<path class="st0" d="M3.62,18.03c0.1,0.16-0.07,1.52,1.66,3.29c0.36,0.37,1.09,0.89,1.5,1.24c0.46,0.39,0.61,0.62,1.13,0.96
	c1.25,0.82,2.25,0.62,3.79,0.74c0.76,0.06,1.96,0.81,2.76,0.61c0.35-0.09,0.65-0.32,0.85-0.61l3.51-2.35
	c0.08-0.12,1.16-1.6,1.3-1.61l2.88-0.65c0.55-0.07,1.01-0.45,1.16-0.97c0.57-1.94,1.6-6.69-0.79-9.39C23.16,9.04,23,8.73,22.99,8.4
	l-0.16-3.25C22.79,4.51,22.27,4.01,21.61,4L19.3,3.97c-0.43-0.01-0.82-0.2-1.07-0.54l-1.66-1.5c0,0-2.65-3.04-4.79-1.03
	C10.2,2.38,8.97,1.86,8.02,2.07C7.67,2.15,7.36,2.38,7.18,2.69C6.86,3.27,6.36,4.21,6.16,4.94c-0.14,0.51-0.6,0.87-1.13,0.86h0
	C4.47,5.8,3.98,6.2,3.89,6.75L3.56,8.8C3.53,8.96,3.44,9.09,3.3,9.16c-0.73,0.37-3.15,1.48-2.38,3.12l0.31,2.65
	c0.04,0.14,0.1,0.35,0.14,0.49l1.02,2.17C2.39,17.6,3.62,18.02,3.62,18.03z"/>
</svg>
