<?xml version="1.0" encoding="utf-8"?>
<!-- Generator: Adobe Illustrator 24.3.0, SVG Export Plug-In . SVG Version: 6.00 Build 0)  -->
<svg version="1.1" id="Capa_1" xmlns="http://www.w3.org/2000/svg" xmlns:xlink="http://www.w3.org/1999/xlink" x="0px" y="0px"
	 viewBox="0 0 385.6 400" style="enable-background:new 0 0 385.6 400;" xml:space="preserve">
<style type="text/css">
	.st0{fill:#0000FF;}
</style>
<g>
	<path class="st0" d="M35.9,362.6c0,0-0.1,0-0.1,0c0,0-0.1,0-0.1,0L35.9,362.6z"/>
	<path class="st0" d="M373.4,353.3c-0.6,0-2-0.4-3.1-0.3c-0.2-0.3-0.5-0.5-0.9-0.7c-1.5-0.7-3.6,0.1-5.2,0c-1.4-0.1-2.9-0.6-4.4-1
		c0.1-1.4-3.3-2-4.3-2.4v0c-1.9-0.7-3.7-1.6-5.3-2.6c-2.8-1.7-5.6-3.4-8.1-5.4c0.2-1-1-1.8-1.6-2.5c-2.2-2.5-4.3-5.5-5.9-8.4
		c-1.5-2.8-3.1-5.4-4.4-8.4c-0.7-1.5-1.4-3.1-2.1-4.6c1.1,0.1,1.6-0.7,1-2.3c-0.7-1.9-3-3-4.4-4.3c-2.7-2.8-5.4-5.5-8.2-8.2
		c-3.1-3-6.2-6-9.3-9.2c-2.4-2.5-5.3-4.7-8-7c-1.3-1.1-5.5-5.9-8.8-7.6c0.2-0.6,0.3-1.2,0.2-1.8c-0.5-2.1-3.1-3.8-4.1-5.7
		c-4.6-8.5-8.1-17.5-12.1-26.3c-2.8-6.1-5.8-12.1-8.9-18h0c-1.3-2.5-2.7-5-4-7.6c-1.3-2.5-2.2-5.2-3.5-7.6c-0.6-1-1.3-2.8-2.3-4.3
		c0.4-1.2-0.9-2.9-1.7-3.8c-3.6-4-7.7-7.6-11.9-11c2.4,0.3,4.8,0.6,7.2,0.9c1.5,0.2,2.9,0.7,4.4,0.8c1.7,0.2,3.3,0.2,5,0.4
		c3.1,0.2,6.2,0.1,9.3,0.1c1.4,0,2.6,0,3.9-0.1c1.7-0.2,3.4-0.1,5.1-0.2c0.7,0,1.3-0.1,1.9-0.2c0.9-0.1,1.8,0,2.6-0.1
		c0.5,0,1.1-0.1,1.6-0.2h0c0.1,0,0.3,0,0.4-0.1c1.5-0.2,2.9-0.6,4.4-0.9c0.6-0.1,1.2-0.3,1.9-0.4c1.8-0.4,3.8-0.4,5.6-0.9
		c1.4-0.4,2.7-0.9,4.1-1.4c1.2-0.5,2.4-1.1,3.7-1.4c1.2-0.3,2.3-0.5,3.5-0.9c1.3-0.4,2.4-1.1,3.7-1.6c1.4-0.5,2.9-0.7,4.3-1.3
		c1.5-0.6,2.9-1.3,4.4-1.8c1-0.4,2-0.7,3-1.1c0.9-0.3,1.7-0.9,2.6-1.3c1.8-0.9,3.4-2.1,5.1-3.1c0.8-0.5,1.7-0.8,2.6-1.3
		c0.8-0.4,1.5-1,2.3-1.3c1.2-0.4,2.2-1.2,3.3-1.9c1.4-1,2.5-2,3.6-3.3c0.8-0.9,1.2-2,1.5-3.1c0.6-2,0.9-4.3,0-6.2
		c-1.4-2.9-3.3-4.7-6.1-6.2c-3.4-1.8-7.6-2.7-11.3-2.7c-3.3,0-6.7-0.6-10.1-0.6c-3.6,0-7,0.6-10.5,0.8c-2.2,0.1-3.9,0.4-6,0.8
		c-2.9,0.6-5.8,1.6-8.7,1.7c-3,0.2-6,0.2-8.7,0.7c-3.4,0.6-7,0.8-10.5,1.4c-4.7,0.8-9.4,1.2-14.1,1.6c-2.4,0.2-4.8,0.8-7.1,1.1
		c-3.1,0.5-6,0.9-9.1,1.2c-0.3,0-0.6,0.1-0.8,0.1c-2.2,0.3-4.3,0.8-6.5,1.3c-1.4,0.3-2.9,0.3-4.3,0.6c-0.7,0.1-1.3,0.4-2,0.5
		c-0.7,0.1-1.4,0.2-2.1,0.3c-1,0.1-2.1,0.3-3.1,0.2c-1.4-0.1-2.6-1-4.1-0.6c-1.5,0.4-3.2,0-4.8,0.5c-0.6,0.2-1.2,0.3-1.8,0.4
		c1-4.6,0.4-10.2,0.1-13.1c-0.3-3-0.8-6-1.4-9c0.1,0,0.1-0.1,0.2-0.1c0.9-0.7,1.3-1.6,1.5-2.5c0.7,0.1,1.6-0.1,2.6-0.6
		c1.3-0.7,2.1-2,3.3-2.8c1.5-1.1,3.5-1.9,5.1-2.6c6.3-3,12.4-5.4,18.8-7.8h0c0.7-0.3,1.5-0.5,2.2-0.8c2.9-1.1,14.7-4.3,14.2-8.8
		c-0.1-0.6-0.3-1.1-0.6-1.3c-0.1-1.2-0.4-2.5-0.5-3.4v0c-0.5-3.5-0.5-7-0.7-10.7c-0.5-8.6-0.1-17.1,0.3-25.7c0.4-10-0.5-20.2-1-30.1
		c-0.1-2.4,0.7-6.6,0.1-8.9c1.1-0.3,2.2-0.7,3.3-0.9c4.1-0.9,8.3-1.7,12.5-2.5c4.4-0.8,8.6-1.9,13-2.8c2.8-0.6,6.4-0.3,8.9-1.7
		c-0.1-0.2-0.2-0.5-0.3-0.8c1.8-0.4,3.7-0.6,5.5-0.9c0.2,0,0.3-0.1,0.5-0.1h0c2.1-0.5,4-1.2,6-1.9c1-0.4,3.9-0.2,4.4-1.5
		c1.9-0.3,3.8-1,5.7-1.6c1.4-0.4,3.9-0.3,5.1-1.1c0,0,0.1-0.1,0.1-0.1c1.4-0.3,2.7-0.7,3.5-0.9c1.2-0.3,4.8-0.8,6.1-2
		c3.6-1.5,9.1-8,6.5-11.3c-0.3,3.4-3.2,7.6-6.6,9.1c-1.5-0.9-5.1,1.6-6.5,2.1c-0.8,0.3-1.7,0.6-2.7,0.9c-0.2-0.3-0.5-0.6-1.1-0.6
		c-1.5,1.1-4.5,1.8-6.5,2.5c-1.3,0.4-2.4,1.1-3.7,1.6c-0.8-0.9-3.1,0.5-3.8,0.8c-1.9,0.7-3.9,1.6-5.8,2.1c-1.3,0.3-4.8,0.6-7.3,1.5
		c-0.2-0.3-0.5-0.5-0.7-0.6c-1-0.4-2.8,0.9-3.5,1.2c-4.2,1.6-8.5,2.6-12.9,3.5c-6.9,1.5-13.7,2.9-20.8,4c-1.7-1.3-4.1,0-4.2,2.9
		c-0.1,2.1,1.3,3.8,1.8,5.6c0.5,2.2,0.5,4.7,0.6,6.9c0.3,4.3,0.7,8.6,0.9,12.8c0.3,7.6,0.1,15.3,0,22.9c-0.1,7.2,0.5,13.9,0.7,21.1
		c0.1,3.2-0.5,6.2-0.5,9.3c-5.2,2.9-10.5,4.7-16,7.2c-6.4,2.9-13,5.1-19,8.6c-1.1,0.7-2.1,1.7-3.2,2.3c-1,0.5-3.3,0.6-3.8,1
		c-0.4,0.3-0.8,0.6-1,0.9c-0.2-0.3-0.5-0.5-0.7-0.7c-0.6-0.5-1.3-0.7-2-0.8c-0.3-0.7-0.6-1.5-0.9-2.2c-1-2.1-2.4-4.2-4.2-6
		c-0.4-2.6-1.3-4.8-4-4.9c-0.4,0-0.8,0-1.2,0.1c0-0.4-0.1-0.8,0-1.3c0,0,0.1,0,0.1,0c1.2,0.5,2.4,0.7,3.8,0.2l0.2,0.4
		c0-0.2,0-0.3,0-0.4c0.2-0.1,0.4-0.2,0.6-0.3c0.1,0,0.3,0.1,0.5,0.1l0,0c0,0,0,0,0,0c0.2,0,0.5,0,0.7,0l-0.2,0.1
		c0.1,0,0.2-0.1,0.3-0.2c0,0,0,0,0,0c1-0.2,1.8-0.9,2.4-1.7l0,0c0,0,0,0,0,0c0.3-0.4,0.5-0.8,0.6-1.3l0.1,0.2c0-0.1-0.1-0.2-0.1-0.3
		c0.1-0.3,0.2-0.6,0.3-0.9c0.1-0.2,0.1-0.5,0.1-0.7l0,0c0,0,0,0,0-0.1c0.4-2.9-0.7-5.8-2.7-7.8c0,0,0-0.1,0-0.1l0,0.1
		c-0.4-0.4-0.8-0.7-1.2-1c-0.6-0.5-1.3-0.8-2-1c0-0.1,0-0.1,0-0.2l0,0.2c-0.8-0.2-1.6-0.3-2.4-0.1c-0.1-0.1-0.3-0.1-0.4-0.2
		c-0.3-0.2-0.4-0.6-0.5-0.9c0.7-1.2,1.4-2.5,1.7-3c1.5-2.1,3.2-4,5-5.9c3.5-3.6,7.4-6.9,11.4-10c3.9-3,8.3-5.7,12.6-8
		c1.3-0.7,3-1.2,4.2-2c-1.7,0.2-3.3,0.9-4.9,1.5c-1.7,0.7-3.3,1.7-4.8,2.6c-4.7,2.9-8.9,6.1-13,9.8c-3.3,3-6.5,5.9-9.5,9.1
		c-1.1,1.2-2.5,2.3-3.7,3.4c0.2-1.1,0.4-2.2,0.6-3.2c0.2-0.6,0.3-1.2,0.6-1.7c0.2-0.4,0.4-0.7,0.5-1c0.2-0.7,0.2-2-0.5-2.1
		c-0.9-0.2-1.4,1.4-1.6,2.2c-0.2,0.7-0.1,1.4-0.3,2.1c-0.2,0.9-0.4,1.9-0.6,2.8c-0.1,0.6-0.3,1.1-0.4,1.7c0-1.9,0-3.9,0-5.8
		c0-6.3,0-12.6,0-19c0-6.6,0-13.2,0-19.8c0-2.7,0-5.4,0-8c0-1.4-0.4-3.1,0.1-4.5c0.1-0.2,0.2-0.3,0.2-0.5c0.2-0.7,0-1.6-0.1-2.3
		c-0.1-0.9-0.3-2.1-1-2.8c-0.1-0.1-0.3-0.2-0.4-0.2c0,0,0,0,0-0.1c0-0.2-0.1-0.8-0.1-0.9c-0.1-0.3-0.1,0-0.2-0.2
		c0,0.4-0.1,0.8-0.1,1.2c-0.8,0.3-1.1,2.4-1.2,3c-0.1,0.9-0.2,1.6,0,2.4c0.2,0.8,0.2,1.4,0.2,2.2c0,0.7,0,1.4,0,2.1c0,1.5,0,3,0,4.4
		c0,3,0,6,0,9c0,6.8,0,13.7,0,20.5c0,5.9,0,11.8,0,17.7c0,0.7,0,1.3,0,2c-0.1,0-0.1,0-0.2-0.1c-0.1-0.7-0.2-1.3-0.3-2
		c-0.2-1-0.4-1.9-0.5-2.9c-0.1-0.7,0-1.4-0.2-2.1c-0.2-0.8-0.6-2.4-1.4-2.3c-0.8,0.1-0.8,1.4-0.6,2.1c0.1,0.4,0.3,0.7,0.5,1.1
		c0.2,0.6,0.4,1.1,0.5,1.8c0.2,0.9,0.3,1.9,0.4,2.8c-1.2-1.2-2.5-2.4-3.6-3.7c-0.4-0.5-0.9-1-1.3-1.5c0,0,0-0.1,0-0.1l-0.1,0.1
		c-0.5-0.6-1.1-1.2-1.6-1.9c0,0,0-0.1,0.1-0.2l-0.1,0.1c-0.6-0.6-1.2-1.3-1.8-1.9c0,0,0,0,0,0l0,0c-1.4-1.4-2.7-2.8-4.1-4.3
		c-3.9-3.9-7.8-7.4-12.4-10.6h0c-1.5-1-3-2.1-4.7-2.9c-1.5-0.8-3.1-1.5-4.8-1.8c1.1,0.9,2.8,1.5,4.1,2.3c4.2,2.5,8.4,5.5,12.1,8.7
		c3.2,2.8,6.4,5.8,9.3,9l-0.1,0.1c0,0,0.1,0,0.1,0c0.5,0.5,1,1.1,1.4,1.6c1.7,2,3.2,4,4.6,6.2c0.3,0.6,1.1,2.3,1.8,3.6
		c-0.2,0.2-0.2,0.4-0.3,0.6c-0.9-0.2-1.9,0-3,0.8c-0.7,0.5-1.3,1-1.9,1.6c-1.4,1.3-2.5,2.9-3,4.7l0,0c0,0,0,0,0,0
		c-0.3,0.9-0.4,1.8-0.3,2.8l0,0c0,0,0,0,0,0c0.1,0.6,0.2,1.1,0.4,1.7c0,0,0,0.1,0,0.1l0-0.1c0.1,0.3,0.2,0.5,0.3,0.8
		c0,0.1,0,0.1-0.1,0.2l0.1-0.1c0.1,0.2,0.1,0.3,0.2,0.5c0.2,0.3,0.3,0.5,0.5,0.8c0,0-0.1,0.1-0.1,0.2l0.2-0.1
		c0.2,0.2,0.3,0.3,0.5,0.5c0,0-0.1,0-0.1,0.1l0.2-0.1c0.3,0.2,0.6,0.3,0.9,0.4c1.1,1,2.7,1.5,4.1,1.3c0.7-0.1,1.4-0.4,2.1-0.7
		c0.2,0.4,0.1,1.1-0.1,1.8c-0.8,0-1.5,0.1-2.2,0.4c-1.9,0.9-2.9,2.7-3.6,4.6c-2.4,2.3-4.3,5.2-5,8.1c0,0.1-0.1,0.2-0.1,0.4
		c-0.1,0-0.2,0.1-0.3,0.1c-0.7,0.2-1.4,0.4-2,0.6c-0.2-0.4-0.6-0.8-1-1.1c-0.5-0.4-2.7-0.8-3.7-1.4c-1.1-0.7-1.9-1.8-3-2.6
		c-5.6-4.1-12-7.1-18-10.6c-5.4-3.1-10.6-5.6-15.6-9.2c-0.5-0.3-1-0.6-1.5-0.8c-2.1-2.5-4.7-4.5-6.8-7c-4.5-5.6-8.4-11-13.2-16.4
		c-5.1-5.7-10.2-11.4-15-17.3c-2.6-3.3-5.1-6.8-7.7-10.3c-1.3-1.8-3-3.6-4-5.6c-0.9-1.7-0.9-3.9-2.3-5.4c-1.8-1.9-4.2-1.7-4.9,0
		C74.6,44.2,69,41.7,63.4,39c-4-1.9-8-3.8-11.7-6.3c-0.7-0.5-2.2-2.1-3.2-2c-0.3,0-0.6,0.2-0.9,0.5c-2.3-1.4-5.6-2.4-6.8-3.1
		c-1.8-0.9-3.5-2.2-5.2-3.3c-0.6-0.4-2.5-2.2-3.5-1.6c-1.1-0.8-2.1-1.7-3.2-2.4c-1.8-1.1-4.5-2.5-5.8-3.9c-0.6-0.1-0.9,0-1.2,0.3
		c-0.8-0.5-1.7-1-2.4-1.5c-1.3-0.8-4.2-4-5.8-3.5c-3-2.3-4.8-7-4.4-10.4c-3.2,2.6,0.7,10.2,3.8,12.4c1,1.5,4.4,2.7,5.5,3.3
		c0.7,0.4,1.9,1.1,3.2,1.7c0,0,0.1,0.1,0.1,0.1c0.9,1,3.4,1.5,4.7,2.2c1.7,0.9,3.4,2,5.2,2.8c0.2,1.4,3,1.8,3.9,2.4
		c1.8,1.2,3.5,2.3,5.4,3.2c0.1,0.1,0.3,0.1,0.4,0.2c1.7,0.8,3.5,1.3,5.1,2.1c-0.2,0.3-0.3,0.5-0.5,0.7c2.1,1.9,5.7,2.4,8.3,3.6
		c4,1.9,7.9,3.8,12,5.6c3.9,1.7,7.8,3.5,11.6,5.2c0.8,0.4,1.5,0.8,2.2,1.2c0,0.1,0,0.1,0.1,0.2c0.7,2.3,4.5,5.1,6,7.2
		c6.1,7.9,12,16.2,18.9,23.5c5.9,6.3,11.8,12.5,17,19.3c2.2,2.9,4.5,5.5,6.4,8.6c0.8,1.2,1.9,3.4,3.3,4.6c2.2,3.6,10.4,6.9,12.8,8
		c0.7,0.4,1.4,0.7,2.1,1.1h0c6.2,3,12,6.1,17.9,9.7c1.6,0.9,3.4,2,4.8,3.2c1.1,1,1.8,2.4,3,3.2c0.6,0.4,1.2,0.7,1.8,0.8
		c0.3,1.5,1.7,2.6,3.1,3.5c-0.7,4.2-1.2,8.5-1.1,12.5c0.1,2.9,0,6.4,0.6,9.5c-1.2-0.3-2.5-0.5-3.7-0.8c-1.6-0.4-3.2-0.1-4.8-0.5
		c-1.5-0.3-2.7,0.5-4.1,0.6c-1,0.1-2.1-0.1-3.1-0.2c-0.7-0.1-1.4-0.1-2.1-0.3c-0.7-0.1-1.3-0.4-2-0.5c-1.4-0.3-2.9-0.3-4.3-0.6
		c-2.2-0.4-4.3-1-6.5-1.3c-0.3,0-0.6-0.1-0.8-0.1c-3.1-0.4-6.1-0.7-9.1-1.2c-2.3-0.4-4.7-0.9-7.1-1.1c-4.7-0.4-9.4-0.8-14.1-1.6
		c-3.5-0.6-7-0.8-10.5-1.4c-2.8-0.5-5.7-0.6-8.7-0.7c-2.9-0.2-5.9-1.2-8.7-1.7c-2.1-0.4-3.9-0.7-6-0.8c-3.5-0.2-6.9-0.8-10.5-0.8
		c-3.4,0-6.7,0.6-10.1,0.6c-3.7,0-7.8,0.9-11.3,2.7c-2.8,1.5-4.7,3.3-6.1,6.2c-0.9,1.9-0.7,4.2,0,6.2c0.4,1.1,0.8,2.2,1.5,3.1
		c1.1,1.3,2.1,2.3,3.6,3.3c1.1,0.8,2,1.5,3.3,1.9c0.9,0.3,1.5,0.9,2.3,1.3c0.9,0.4,1.7,0.8,2.6,1.3c1.7,1,3.3,2.2,5.1,3.1
		c0.9,0.4,1.7,1,2.6,1.3c1,0.4,2,0.7,3,1.1c1.5,0.6,3,1.2,4.4,1.8c1.4,0.6,2.9,0.8,4.3,1.3c1.3,0.5,2.5,1.1,3.7,1.6
		c1.2,0.4,2.3,0.7,3.5,0.9c1.3,0.3,2.5,0.9,3.7,1.4c1.4,0.5,2.7,1,4.1,1.4c1.8,0.5,3.8,0.6,5.6,0.9c0.6,0.1,1.2,0.3,1.9,0.4
		c1.5,0.3,2.9,0.7,4.4,0.9c0.1,0,0.3,0,0.4,0.1v0c0.5,0.1,1.1,0.2,1.6,0.2c0.9,0.1,1.8,0,2.6,0.1c0.6,0.1,1.3,0.1,1.9,0.2
		c1.7,0.1,3.4,0,5.1,0.2c1.3,0.2,2.6,0.1,3.9,0.1c3.1,0,6.2,0.1,9.3-0.1c1.7-0.1,3.3-0.2,5-0.4c1.5-0.2,2.9-0.6,4.4-0.8
		c2.8-0.4,5.7-0.8,8.5-1.1c1.1-0.1,2.2-0.2,3.3-0.4c0.8-0.2,1.5-0.4,2.3-0.6c-1.4,1.2-2.8,2.4-4.2,3.6c-4.2,3.5-8.1,7.3-11.7,11.5
		c-0.3,0.3-0.6,0.7-0.8,1.1c0,0,0,0,0-0.1c-2.7,0.7-3.3,6-3.8,8.3c-0.6,2.7-0.8,5.6-1.4,8.3c-0.6,2.8-1.2,5.6-1.9,8.4v0
		c-1.4,6.5-2.8,13.1-3.8,19.7c-1.5,9.5-2.4,19.2-4.6,28.6c-0.5,2.1-2.5,4.5-2.5,6.6c0,0.4,0.1,0.7,0.3,1.1c-3.4,1.5-7.8,6.2-9.1,7.3
		c-2.7,2.2-5.7,4.3-8.2,6.7c-3.2,3.1-6.4,5.9-9.6,8.8c-2.9,2.6-5.7,5.2-8.5,7.9c-1.4,1.3-3.7,2.3-4.5,4.2c-0.7,1.5-0.1,2.4,0.9,2.3
		c-0.8,1.5-1.5,3.1-2.2,4.6c-1.5,2.9-3.1,5.4-4.7,8.2c-1.7,2.9-3.9,5.8-6.2,8.2c-0.6,0.6-1.9,1.4-1.7,2.4c-2.6,1.9-5.5,3.5-8.3,5.1
		c-1.7,1-3.5,1.7-5.4,2.4l0,0c-1,0.4-4.4,0.9-4.3,2.3c-1.5,0.4-3,0.8-4.5,0.8c-1.6,0.1-3.7-0.8-5.2-0.2c-0.4,0.2-0.7,0.4-1,0.6
		c-1.2-0.1-2.6,0.2-3.1,0.2c-0.6,0-7.5-1-7.5-1.2c0.1,0.4,0.7,0.9,1.5,1.2c2.4,1.1,5.7,1.9,8.4,1.9c0.2,0,0.4,0,0.7,0
		c0.3,0.3,0.6,0.5,1.1,0.6c2.7-0.6,5.3-1.2,8-1.9c0.6-0.2,1.4-0.6,2.2-1.1c0,0,0,0,0.1,0.1c1.6,1.5,5.1-1.1,6.7-1.9
		c2.3-1.1,4.5-2.5,6.6-4c1.5-1.1,3.4-2.2,4.8-3.5c1.2,0.7,3.5-2.6,3.9-3.3c2.3-3.4,4.4-6.9,6.5-10.4v0c1.4-2.5,2.7-4.8,3.7-7.5
		c0.5-1.2,1.2-2.8,1.5-4.3c4.2-2.7,7.6-7,11.3-10.4c4.5-4.1,9.2-8.1,13.6-12.4c4.6-4.5,9.7-8.2,14.6-12.3c0.7,0.2,1.4,0.1,2.1-0.5
		c0.8-0.9,1.1-3.4,1.3-4.6c0.4-4.9,1.5-9.6,2.1-14.4c0.6-5.3,1.2-10.5,2.1-15.7c0.7-4.4,1.4-8.7,2.3-13.1c1.5-6.7,3.1-13.4,4.6-20
		c0.6-2.7,2.5-7,2.6-10.5c1.9,0.1,3.3-2.7,4.4-3.9c5.9-6.4,12.8-11.9,19.2-17.8c0.5-0.5,1-0.9,1.5-1.4c1-0.5,1.9-1,2.8-1.6
		c0.4-0.3,0.8-0.7,1.2-0.9c1.2-0.8,2.1-1.6,3.2-2.5c0.6-0.5,1.1-0.9,1.8-1.4c1.3-0.8,2.6-1.3,3.7-2.3c0.6-0.6,1-1.3,1.7-1.7
		c0.7-0.4,1.3-0.5,2-0.8c0.8-0.3,0.9-1.2,1.8-1.2c0.3,0,0.6,0,0.9,0c-0.3,0.4-0.5,0.8-0.6,1c-5,7.2-9.6,14.6-13.8,22.2
		c-2.4,4.5-4.7,9.1-7.3,13.5c-1.2,1.9-3.4,3.8-3.7,6.2c-0.2,1.2,0,1.7,0.8,2.5c0.1,0.1,0.3,0.2,0.6,0.4c-0.8,1.3-0.3,4.2-0.3,5.5h0
		c0.2,3.6,0.4,7.1,0.7,10.7c0.2,3.8,1.1,7.5,1.4,11.2c0.8,7.9,1.2,16,2.3,23.9c0.9,6.4,1.7,12.9,2.1,19.4c0.1,1.6-0.5,4.2,0,5.7
		c0.1,0.3,0.4,0.6,0.7,0.9c-2.3,2.5-4.6,5.9-5.3,6.9c-5.2,7-10.3,14.1-15.8,20.8c-5.7,7-10.2,14.8-15.8,21.9
		c-1.7,2.1-3.5,4.2-5.4,6.2c-1,1-3.2,3.3-1.9,4.7c-4.8,4.7-10.1,9.1-15.5,13.2c-3.7,2.9-7.3,5.8-11.3,8.4c-2.1,1.4-4.2,2.8-6.4,3.9
		c-1,0.5-2.1,0.9-2.8,1.6c0,0,0,0.1,0,0.2c-3.4,1.3-6.8,2.5-10.2,3.7c-5.5,2-11.7,5.4-17.5,4.7c-0.3,0-0.3,0.5-0.1,1.1
		c-3.8,0.1-7.8,0-11.6-0.6c-2.5-0.4-4.8-1.1-7.2-1.8c-0.8-0.2-1.7-0.2-2.4,0.1c-0.5-0.1-1-0.1-1.4-0.2c-1-0.2-9.4-1.2-9.3-1
		c0.2,0.6,6.4,2.1,7.1,2.3c0.5,0.2,2,0.6,3.3,0.8c0.1,0.2,0.2,0.3,0.4,0.5l0.1-0.2c2.3,1.5,7,1.9,9.8,2.1c2.6,0.2,8.2,0.7,11.8-0.5
		c0.3,0.5,0.6,0.8,0.9,0.9c2,0.5,4.4-1.2,6.2-1.9c0.2-0.1,0.4-0.1,0.6-0.2c2.9-1.1,5.8-2.1,8.7-3.3c3.4-1.4,6.7-3,10-4.4
		c0.6-0.2,1.2-0.5,1.7-0.8c0.3,0.3,0.5,0.5,0.6,0.5c1.1,0.4,2.1-0.4,3-0.9c2.5-1.4,5-3.1,7.3-4.8l0,0c5.8-4.5,11.2-9.3,16.8-14
		c3.1-2.6,6.2-5.6,8.8-8.7c2.9,0.2,6-6.1,7.3-7.9c1.8-2.4,3.6-4.8,5.3-7.2c4.2-5.9,8.1-12,12.6-17.7c5.3-6.7,10.1-14.1,15.5-20.7
		c1.4-1.7,3.3-3.8,4.6-5.9c0.4,0.2,0.8,0.3,1.1,0.4c0.1-0.9,0.1-1.9,0.1-2.8c0.2-0.7,0.4-1.3,0.5-2c-0.2,0-0.4,0-0.6,0
		c-0.1-1.2-0.2-2.3-0.3-3.3c-0.6-6.5-1.5-12.9-2.3-19.4c-0.3-2.7-0.6-5.4-0.9-8c-0.6-6-1.7-11.7-2.7-17.6
		c-0.8-5.2-1.6-10.4-1.9-15.6c-0.2-2.9,0.3-5.8-0.2-8.7c0-0.3-0.1-0.6-0.1-0.9c0.5,0.1,1,0.1,1-0.2c0.8-2.5,0.8-5.3,1.7-7.9
		c1.1-3,2.6-5.8,4.2-8.6c2.1-3.6,4.2-7.2,6.7-10.5c1.3-1.7,2.6-4.5,4.4-5.6c1.2,1.3,4.3-3.2,5.6-4.7c0,0,0.1,0,0.1,0
		c0-0.1,0.1-0.2,0.1-0.3c0,0,0.1-0.1,0.1-0.1c0.4-0.4,1.2-0.8,1.8-1.2c0,0.5-0.1,0.9-0.1,1.4c-0.2,2-1.7,6.3-0.3,8
		c0,0,0.1,0.1,0.1,0.1c0,2.5,0.5,5.1,0.7,7c0.1,1.5-0.7,6,0.8,7.1c-0.9,2.6-1,5.9-1.6,9.3c-0.4,2.1,0,3.4,0.8,4.1
		c-1.2,2.2-1.3,5.6-1.3,7.8c0,2.1-0.6,4.7,0.4,6.6c-0.3,0.7-0.3,1.5-0.3,2.4c0.1,2,0.6,4,0.7,6c0.1,1.9-0.4,4.4,0.7,6.1
		c0,0,0.1,0.1,0.1,0.1c-0.1,0.6-0.1,1.4-0.1,1.9c0,2.8,0.9,5.6,1.1,8.4c0.1,1.4-0.1,3.1,1,4.2c0.1,2.7,1.4,6.2,2.9,8.2
		c0.4,0.6,1,1,1.7,1.2c-0.1,1.1,0.7,2.9,1.2,3.3l0,0c0.2,0.2,0.3-1.3,0.3-1.4c0-0.4-0.1-0.9-0.2-1.3c0-0.1,0-0.2,0-0.4c0,0,0,0,0,0
		c0.4,0,0.8,0,1.3,0.1c0.1,1-0.1,2.4-0.1,2.8c0.1,0,0.3,0.1,0.4,0.1c0.4-0.8,1.1-2,1.1-2.9c0,0,0-0.1,0-0.1c0.1,0,0.2,0,0.2-0.1
		c2.6-0.8,3.2-5.1,3.7-7.3c0.2-0.7,0.3-1.5,0.4-2.3c0.9-0.9,1-2.3,1.1-3.5c0-2.7,0.2-5.5,0.4-8.2c0-0.6,0.1-1.2,0.1-1.8
		c1.2-1.6,0.8-4.2,1.1-6.3c0.3-2.5,1-5.7,0.4-8.3c1.1-2.2,0.9-5.6,1-7.6c0.1-2,0.3-5.1-0.5-7.5c0.2-0.1,0.3-0.3,0.4-0.4
		c0.7-1,0.1-3.3-0.2-4.4c-0.5-2.4-0.3-4.8-0.8-7.2c-0.1-0.6-0.2-1.2-0.3-1.7c0.2-0.3,0.4-0.6,0.4-1.1c0.4-2.6-0.1-5.3,0.1-7.9
		c0.1-1.2,0.4-2.3,0.4-3.5c0-0.6-0.2-1.1-0.3-1.6c1.3-1.6,0.4-4.4-0.1-6.4c-0.1-0.3-0.1-0.6-0.2-0.9c-0.1-0.7-0.2-1.4-0.3-2.1
		c0.5,0.3,1,0.6,1.3,0.9c1,1,4.6,6.5,5.9,5.1c1.8,1.2,3.1,3.9,4.4,5.6c2.4,3.4,4.6,6.9,6.7,10.5c1.6,2.8,3.2,5.6,4.2,8.6
		c0.9,2.6,0.9,5.5,1.7,7.9c0.1,0.3,0.5,0.3,1,0.2c-0.1,0.3-0.1,0.6-0.1,0.9c-0.4,2.9,0,5.8-0.2,8.7c-0.3,5.2-1.1,10.4-1.9,15.6
		c-0.9,5.9-2.1,11.7-2.7,17.6c-0.3,2.7-0.6,5.4-0.9,8c-0.8,6.5-1.7,12.8-2.3,19.4c-0.2,2.6-0.6,5.7-0.3,8.2c0.6-0.1,1.4-0.5,2.2-0.9
		c1.4,2.5,3.7,4.9,5.3,6.9c5.6,6.5,10.6,13.7,16,20.3c4.6,5.6,8.8,11.6,13.1,17.4v0c1.8,2.4,3.6,4.8,5.4,7.1c1.4,1.8,4.7,8,7.5,7.8
		c2.7,3.1,5.9,6,9,8.5c5.7,4.6,11.2,9.3,17.1,13.6v0c2.3,1.7,4.9,3.3,7.4,4.7c0.9,0.5,1.9,1.3,3,0.8c0.1-0.1,0.4-0.3,0.6-0.5
		c0.6,0.3,1.2,0.6,1.8,0.8c3.4,1.3,6.7,2.8,10.1,4.1c2.9,1.2,5.8,2.1,8.8,3.1c0.2,0.1,0.4,0.1,0.6,0.2c1.8,0.6,4.3,2.3,6.3,1.7
		c0.3-0.1,0.6-0.5,0.9-1c3.6,1.1,9.2,0.5,11.8,0.2c2.7-0.3,7.4-0.7,9.7-2.3l0.1,0.2c0.2-0.2,0.3-0.3,0.4-0.5
		c1.3-0.3,2.7-0.7,3.3-0.9c0.7-0.2,6.8-1.8,7-2.4c0.1-0.2-8.3,1-9.3,1.2c-0.4,0.1-0.9,0.1-1.4,0.2c-0.7-0.3-1.6-0.3-2.4,0
		c-2.3,0.8-4.7,1.5-7.1,2c-3.7,0.7-7.8,0.9-11.6,0.9c0.1-0.6,0.1-1.1-0.1-1.1c-5.8,0.8-12.1-2.5-17.7-4.3c-3.4-1.1-6.8-2.2-10.2-3.4
		c0-0.1,0.1-0.2,0-0.2c-0.8-0.8-1.9-1.1-2.9-1.6c-2.3-1.1-4.4-2.4-6.5-3.7c-4-2.5-7.7-5.3-11.5-8.1c-5.5-4-10.9-8.2-15.8-12.9
		c1.2-1.3-1-3.6-2-4.6c-2-1.9-3.8-3.9-5.5-6c-5.8-6.9-10.5-14.6-16.4-21.5c-5.6-6.6-10.9-13.5-16.3-20.4c-1-1.2-4-5.5-6.7-7.9
		c0-0.1,0.1-0.1,0.1-0.2c0.6-1.5,0-4.1,0.1-5.7c0.4-6.4,1.2-12.9,2.1-19.4c1.1-8,1.5-16,2.3-23.9c0.4-3.8,1.2-7.4,1.4-11.2
		c0.2-3.6,0.4-7.1,0.7-10.7l0,0c0.1-1.3,0.6-4.2-0.3-5.5c0.3-0.2,0.6-0.3,0.6-0.4c0.8-0.8,1-1.3,0.8-2.5c-0.4-2.3-2.6-4.2-3.7-6.2
		c-2.6-4.3-4.9-9-7.3-13.5c-4.1-7.7-8.8-15.1-13.8-22.3c-0.1-0.1-0.2-0.4-0.4-0.6c0.4,0,0.7,0,1.1,0c0.9,0,1,0.8,1.8,1.2
		c0.7,0.3,1.3,0.5,2,0.8c0.7,0.4,1.1,1.1,1.7,1.7c1.1,1,2.5,1.5,3.7,2.3c0.6,0.4,1.2,0.9,1.8,1.4c1.1,0.9,2,1.8,3.2,2.5
		c0.4,0.3,0.7,0.6,1.2,0.9c3.3,2.1,6.9,3.4,10.8,4.3c5.4,4.4,10.8,8.8,15.7,13.7c0.7,0.7,1.5,2,2.4,2.8c0.5,3.7,4,7.8,5.5,10.5
		c3.3,6,6.6,12,9.8,18.1c2,3.9,3.9,7.9,5.7,12c2.2,4.8,4.2,9.7,6.2,14.6c1.8,4.6,4.1,8.8,5.8,13.4c0.4,1.1,1.4,3.4,2.4,4.1
		c0.5,0.3,1,0.4,1.4,0.3c4.7,4.2,9.5,8,14,12.6c4.2,4.4,8.7,8.6,13.1,12.9c3.6,3.5,6.8,7.9,10.9,10.8c0.3,1.5,0.9,3.1,1.3,4.3
		c0.9,2.7,2.1,5.1,3.4,7.6c1.9,3.6,4,7.1,6.1,10.6c0.4,0.7,2.6,4.1,3.8,3.4c1.4,1.3,3.3,2.5,4.7,3.7c2,1.6,4.1,3.1,6.4,4.3
		c1.6,0.8,4.9,3.5,6.6,2.1c0,0,0,0,0.1-0.1c0.8,0.5,1.6,1,2.2,1.2c2.6,0.7,5.2,1.5,7.9,2.2c0.5-0.1,0.9-0.3,1.2-0.5
		c0.3,0,0.5,0,0.7,0c2.7,0.1,6-0.5,8.5-1.6c0.9-0.4,1.5-0.8,1.6-1.2C381,352.5,374,353.3,373.4,353.3z"/>
	<path class="st0" d="M369.3,355.7c0,0-0.1,0-0.1,0c0,0-0.1,0-0.1,0L369.3,355.7z"/>
	<path class="st0" d="M362.4,392.1l-2.3-0.3C360.8,392,361.6,392.2,362.4,392.1z"/>
</g>
</svg>
